%TF.GenerationSoftware,KiCad,Pcbnew,8.0.2*%
%TF.CreationDate,2024-05-18T14:33:59+02:00*%
%TF.ProjectId,SDHD_Lab,53444844-5f4c-4616-922e-6b696361645f,R1.0*%
%TF.SameCoordinates,Original*%
%TF.FileFunction,Soldermask,Top*%
%TF.FilePolarity,Negative*%
%FSLAX46Y46*%
G04 Gerber Fmt 4.6, Leading zero omitted, Abs format (unit mm)*
G04 Created by KiCad (PCBNEW 8.0.2) date 2024-05-18 14:33:59*
%MOMM*%
%LPD*%
G01*
G04 APERTURE LIST*
%ADD10R,1.700000X1.700000*%
%ADD11O,1.700000X1.700000*%
%ADD12R,1.800000X1.800000*%
%ADD13C,1.800000*%
%ADD14C,1.600000*%
%ADD15O,1.600000X1.600000*%
%ADD16C,2.000000*%
%ADD17R,1.200000X1.200000*%
%ADD18C,1.200000*%
%ADD19R,1.600000X1.600000*%
%ADD20C,3.200000*%
G04 APERTURE END LIST*
D10*
%TO.C,J1*%
X127940000Y-97460000D03*
D11*
X130480000Y-97460000D03*
X133020000Y-97460000D03*
X135560000Y-97460000D03*
X138100000Y-97460000D03*
X140640000Y-97460000D03*
X143180000Y-97460000D03*
X145720000Y-97460000D03*
%TD*%
D10*
%TO.C,J2*%
X150800000Y-97460000D03*
D11*
X153340000Y-97460000D03*
X155880000Y-97460000D03*
X158420000Y-97460000D03*
X160960000Y-97460000D03*
X163500000Y-97460000D03*
%TD*%
D10*
%TO.C,J4*%
X118796000Y-49200000D03*
D11*
X121336000Y-49200000D03*
X123876000Y-49200000D03*
X126416000Y-49200000D03*
X128956000Y-49200000D03*
X131496000Y-49200000D03*
X134036000Y-49200000D03*
X136576000Y-49200000D03*
X139116000Y-49200000D03*
X141656000Y-49200000D03*
%TD*%
D10*
%TO.C,J5*%
X145720000Y-49200000D03*
D11*
X148260000Y-49200000D03*
X150800000Y-49200000D03*
X153340000Y-49200000D03*
X155880000Y-49200000D03*
X158420000Y-49200000D03*
X160960000Y-49200000D03*
X163500000Y-49200000D03*
%TD*%
D12*
%TO.C,D2*%
X161540000Y-71250000D03*
D13*
X159000000Y-71250000D03*
%TD*%
D10*
%TO.C,TP_Sig1*%
X104000000Y-72000000D03*
%TD*%
%TO.C,TP_1st*%
X111300000Y-92025000D03*
%TD*%
D12*
%TO.C,D4*%
X106250000Y-50500000D03*
D13*
X103710000Y-50500000D03*
%TD*%
D10*
%TO.C,TP_GND2*%
X110750000Y-49250000D03*
%TD*%
D14*
%TO.C,C5*%
X140500000Y-64000000D03*
X135500000Y-64000000D03*
%TD*%
%TO.C,R6*%
X123250000Y-66580000D03*
D15*
X123250000Y-56420000D03*
%TD*%
D10*
%TO.C,J3*%
X110650000Y-65975000D03*
D11*
X110650000Y-63515000D03*
X110650000Y-60975000D03*
%TD*%
D12*
%TO.C,D1*%
X161525000Y-55000000D03*
D13*
X158985000Y-55000000D03*
%TD*%
D16*
%TO.C,SW1*%
X134250000Y-54500000D03*
X140750000Y-54500000D03*
X134250000Y-59000000D03*
X140750000Y-59000000D03*
%TD*%
D17*
%TO.C,C6*%
X118472600Y-65250000D03*
D18*
X116472600Y-65250000D03*
%TD*%
D19*
%TO.C,U2*%
X144300000Y-71450000D03*
D15*
X141760000Y-71450000D03*
X139220000Y-71450000D03*
X136680000Y-71450000D03*
X136680000Y-79070000D03*
X139220000Y-79070000D03*
X141760000Y-79070000D03*
X144300000Y-79070000D03*
%TD*%
D12*
%TO.C,D3*%
X161525000Y-63000000D03*
D13*
X158985000Y-63000000D03*
%TD*%
D20*
%TO.C,MH1*%
X115240000Y-49200000D03*
%TD*%
D10*
%TO.C,TP_GND1*%
X165000000Y-79250000D03*
%TD*%
D14*
%TO.C,C4*%
X144000000Y-87000000D03*
X139000000Y-87000000D03*
%TD*%
%TO.C,R4*%
X149750000Y-76670000D03*
D15*
X149750000Y-86830000D03*
%TD*%
D14*
%TO.C,R2*%
X103750000Y-84920000D03*
D15*
X103750000Y-95080000D03*
%TD*%
D14*
%TO.C,R9*%
X111830000Y-56250000D03*
D15*
X101670000Y-56250000D03*
%TD*%
D14*
%TO.C,R8*%
X153750000Y-52920000D03*
D15*
X153750000Y-63080000D03*
%TD*%
D19*
%TO.C,C3*%
X129000000Y-86500000D03*
D14*
X131500000Y-86500000D03*
%TD*%
%TO.C,R1*%
X110250000Y-71170000D03*
D15*
X110250000Y-81330000D03*
%TD*%
D10*
%TO.C,TP_GND3*%
X120750000Y-97500000D03*
%TD*%
D19*
%TO.C,C1*%
X103975000Y-80200000D03*
D14*
X103975000Y-77700000D03*
%TD*%
%TO.C,R10*%
X146000000Y-52920000D03*
D15*
X146000000Y-63080000D03*
%TD*%
D14*
%TO.C,R7*%
X154500000Y-76920000D03*
D15*
X154500000Y-87080000D03*
%TD*%
D14*
%TO.C,R3*%
X131000000Y-80080000D03*
D15*
X131000000Y-69920000D03*
%TD*%
D19*
%TO.C,U1*%
X123800000Y-71200000D03*
D15*
X121260000Y-71200000D03*
X118720000Y-71200000D03*
X116180000Y-71200000D03*
X116180000Y-78820000D03*
X118720000Y-78820000D03*
X121260000Y-78820000D03*
X123800000Y-78820000D03*
%TD*%
D10*
%TO.C,TP_2nd*%
X154250000Y-92000000D03*
%TD*%
%TO.C,TP_Offset*%
X117500000Y-58250000D03*
%TD*%
D14*
%TO.C,C2*%
X117000000Y-86750000D03*
X122000000Y-86750000D03*
%TD*%
D20*
%TO.C,MH2*%
X113970000Y-97460000D03*
%TD*%
%TO.C,MH3*%
X166040000Y-64440000D03*
%TD*%
%TO.C,MH4*%
X166040000Y-92380000D03*
%TD*%
D10*
%TO.C,TP_PWR*%
X133750000Y-92500000D03*
%TD*%
D14*
%TO.C,R11*%
X149750000Y-52920000D03*
D15*
X149750000Y-63080000D03*
%TD*%
D14*
%TO.C,R5*%
X129000000Y-56670000D03*
D15*
X129000000Y-66830000D03*
%TD*%
M02*
