M48
; DRILL file {KiCad 8.0.2} date 2024-05-18T14:34:15+0200
; FORMAT={-:-/ absolute / inch / decimal}
; #@! TF.CreationDate,2024-05-18T14:34:15+02:00
; #@! TF.GenerationSoftware,Kicad,Pcbnew,8.0.2
; #@! TF.FileFunction,Plated,1,4,PTH
FMAT,2
INCH
; #@! TA.AperFunction,Plated,PTH,ComponentDrill
T1C0.0236
; #@! TA.AperFunction,Plated,PTH,ComponentDrill
T2C0.0315
; #@! TA.AperFunction,Plated,PTH,ComponentDrill
T3C0.0354
; #@! TA.AperFunction,Plated,PTH,ComponentDrill
T4C0.0394
; #@! TA.AperFunction,Plated,PTH,ComponentDrill
T5C0.0433
%
G90
G05
T1
X4.5855Y-2.5689
X4.6643Y-2.5689
T2
X4.0028Y-2.2146
X4.0846Y-3.3433
X4.0846Y-3.7433
X4.0935Y-3.0591
X4.0935Y-3.1575
X4.3406Y-2.802
X4.3406Y-3.202
X4.4028Y-2.2146
X4.574Y-2.8031
X4.574Y-3.1031
X4.6063Y-3.4154
X4.674Y-2.8031
X4.674Y-3.1031
X4.774Y-2.8031
X4.774Y-3.1031
X4.8031Y-3.4154
X4.8524Y-2.2213
X4.8524Y-2.6213
X4.874Y-2.8031
X4.874Y-3.1031
X5.0787Y-2.2311
X5.0787Y-2.6311
X5.0787Y-3.4055
X5.1575Y-2.7528
X5.1575Y-3.1528
X5.1772Y-3.4055
X5.3346Y-2.5197
X5.3811Y-2.813
X5.3811Y-3.113
X5.4724Y-3.4252
X5.4811Y-2.813
X5.4811Y-3.113
X5.5315Y-2.5197
X5.5811Y-2.813
X5.5811Y-3.113
X5.6693Y-3.4252
X5.6811Y-2.813
X5.6811Y-3.113
X5.748Y-2.0835
X5.748Y-2.4835
X5.8957Y-2.0835
X5.8957Y-2.4835
X5.8957Y-3.0185
X5.8957Y-3.4185
X6.0531Y-2.0835
X6.0531Y-2.4835
X6.0827Y-3.0283
X6.0827Y-3.4283
T3
X4.0831Y-1.9882
X4.1831Y-1.9882
X6.2593Y-2.1654
X6.2593Y-2.4803
X6.2598Y-2.8051
X6.3593Y-2.1654
X6.3593Y-2.4803
X6.3598Y-2.8051
T4
X4.0945Y-2.8346
X4.3563Y-2.4006
X4.3563Y-2.5006
X4.3563Y-2.5974
X4.3602Y-1.939
X4.3819Y-3.623
X4.626Y-2.2933
X4.677Y-1.937
X4.7539Y-3.8386
X4.777Y-1.937
X4.877Y-1.937
X4.977Y-1.937
X5.037Y-3.837
X5.077Y-1.937
X5.137Y-3.837
X5.177Y-1.937
X5.237Y-3.837
X5.2657Y-3.6417
X5.277Y-1.937
X5.337Y-3.837
X5.377Y-1.937
X5.437Y-3.837
X5.477Y-1.937
X5.537Y-3.837
X5.577Y-1.937
X5.637Y-3.837
X5.737Y-1.937
X5.737Y-3.837
X5.837Y-1.937
X5.937Y-1.937
X5.937Y-3.837
X6.037Y-1.937
X6.037Y-3.837
X6.0728Y-3.622
X6.137Y-1.937
X6.137Y-3.837
X6.237Y-1.937
X6.237Y-3.837
X6.337Y-1.937
X6.337Y-3.837
X6.437Y-1.937
X6.437Y-3.837
X6.4961Y-3.1201
T5
X5.2854Y-2.1457
X5.2854Y-2.3228
X5.5413Y-2.1457
X5.5413Y-2.3228
M30
