%TF.GenerationSoftware,KiCad,Pcbnew,8.0.2*%
%TF.CreationDate,2024-05-18T14:33:59+02:00*%
%TF.ProjectId,SDHD_Lab,53444844-5f4c-4616-922e-6b696361645f,R1.0*%
%TF.SameCoordinates,Original*%
%TF.FileFunction,Copper,L3,Inr*%
%TF.FilePolarity,Positive*%
%FSLAX46Y46*%
G04 Gerber Fmt 4.6, Leading zero omitted, Abs format (unit mm)*
G04 Created by KiCad (PCBNEW 8.0.2) date 2024-05-18 14:33:59*
%MOMM*%
%LPD*%
G01*
G04 APERTURE LIST*
%TA.AperFunction,ComponentPad*%
%ADD10R,1.700000X1.700000*%
%TD*%
%TA.AperFunction,ComponentPad*%
%ADD11O,1.700000X1.700000*%
%TD*%
%TA.AperFunction,ComponentPad*%
%ADD12R,1.800000X1.800000*%
%TD*%
%TA.AperFunction,ComponentPad*%
%ADD13C,1.800000*%
%TD*%
%TA.AperFunction,ComponentPad*%
%ADD14C,1.600000*%
%TD*%
%TA.AperFunction,ComponentPad*%
%ADD15O,1.600000X1.600000*%
%TD*%
%TA.AperFunction,ComponentPad*%
%ADD16C,2.000000*%
%TD*%
%TA.AperFunction,ComponentPad*%
%ADD17R,1.200000X1.200000*%
%TD*%
%TA.AperFunction,ComponentPad*%
%ADD18C,1.200000*%
%TD*%
%TA.AperFunction,ComponentPad*%
%ADD19R,1.600000X1.600000*%
%TD*%
G04 APERTURE END LIST*
D10*
%TO.N,unconnected-(J1-Pin_1-Pad1)*%
%TO.C,J1*%
X127940000Y-97460000D03*
D11*
%TO.N,/VDDIO{slash}2*%
X130480000Y-97460000D03*
%TO.N,/nReset{slash}2*%
X133020000Y-97460000D03*
%TO.N,/3.3V*%
X135560000Y-97460000D03*
%TO.N,+5V*%
X138100000Y-97460000D03*
%TO.N,GND*%
X140640000Y-97460000D03*
X143180000Y-97460000D03*
%TO.N,/Vin{slash}2*%
X145720000Y-97460000D03*
%TD*%
D10*
%TO.N,/V_out*%
%TO.C,J2*%
X150800000Y-97460000D03*
D11*
%TO.N,/P15.4*%
X153340000Y-97460000D03*
%TO.N,/P6.3*%
X155880000Y-97460000D03*
%TO.N,/P6.2*%
X158420000Y-97460000D03*
%TO.N,unconnected-(J2-Pin_5-Pad5)*%
X160960000Y-97460000D03*
%TO.N,unconnected-(J2-Pin_6-Pad6)*%
X163500000Y-97460000D03*
%TD*%
D10*
%TO.N,/P6.0*%
%TO.C,J4*%
X118796000Y-49200000D03*
D11*
%TO.N,/P6.1*%
X121336000Y-49200000D03*
%TO.N,unconnected-(J4-Pin_3-Pad3)*%
X123876000Y-49200000D03*
%TO.N,GND*%
X126416000Y-49200000D03*
%TO.N,/USR_LED*%
X128956000Y-49200000D03*
%TO.N,/P6.6*%
X131496000Y-49200000D03*
%TO.N,/P6.5*%
X134036000Y-49200000D03*
%TO.N,/P6.4*%
X136576000Y-49200000D03*
%TO.N,/P12.5*%
X139116000Y-49200000D03*
%TO.N,/P12.4*%
X141656000Y-49200000D03*
%TD*%
D10*
%TO.N,/SW_BUTTON*%
%TO.C,J5*%
X145720000Y-49200000D03*
D11*
%TO.N,/LED_GREEN*%
X148260000Y-49200000D03*
%TO.N,/LED_YELLOW*%
X150800000Y-49200000D03*
%TO.N,/LED_RED*%
X153340000Y-49200000D03*
%TO.N,/P2.3*%
X155880000Y-49200000D03*
%TO.N,/P2.2*%
X158420000Y-49200000D03*
%TO.N,/P2.1*%
X160960000Y-49200000D03*
%TO.N,/P2.0*%
X163500000Y-49200000D03*
%TD*%
D12*
%TO.N,GND*%
%TO.C,D2*%
X161540000Y-71250000D03*
D13*
%TO.N,Net-(D2-A)*%
X159000000Y-71250000D03*
%TD*%
D10*
%TO.N,/Radar_Sig*%
%TO.C,TP_Sig1*%
X104000000Y-72000000D03*
%TD*%
%TO.N,Net-(C2-Pad2)*%
%TO.C,TP_1st*%
X111300000Y-92025000D03*
%TD*%
D12*
%TO.N,GND*%
%TO.C,D4*%
X106250000Y-50500000D03*
D13*
%TO.N,Net-(D4-A)*%
X103710000Y-50500000D03*
%TD*%
D10*
%TO.N,GND*%
%TO.C,TP_GND2*%
X110750000Y-49250000D03*
%TD*%
D14*
%TO.N,/V_offset*%
%TO.C,C5*%
X140500000Y-64000000D03*
%TO.N,GND*%
X135500000Y-64000000D03*
%TD*%
%TO.N,/V_offset*%
%TO.C,R6*%
X123250000Y-66580000D03*
D15*
%TO.N,GND*%
X123250000Y-56420000D03*
%TD*%
D10*
%TO.N,+5V*%
%TO.C,J3*%
X110650000Y-65975000D03*
D11*
%TO.N,/Radar_Sig*%
X110650000Y-63515000D03*
%TO.N,GND*%
X110650000Y-60975000D03*
%TD*%
D12*
%TO.N,GND*%
%TO.C,D1*%
X161525000Y-55000000D03*
D13*
%TO.N,Net-(D1-A)*%
X158985000Y-55000000D03*
%TD*%
D16*
%TO.N,/SW_BUTTON*%
%TO.C,SW1*%
X134250000Y-54500000D03*
X140750000Y-54500000D03*
%TO.N,GND*%
X134250000Y-59000000D03*
X140750000Y-59000000D03*
%TD*%
D17*
%TO.N,/V_offset*%
%TO.C,C6*%
X118472600Y-65250000D03*
D18*
%TO.N,GND*%
X116472600Y-65250000D03*
%TD*%
D19*
%TO.N,unconnected-(U2-NC-Pad1)*%
%TO.C,U2*%
X144300000Y-71450000D03*
D15*
%TO.N,Net-(U2--)*%
X141760000Y-71450000D03*
%TO.N,/V_offset*%
X139220000Y-71450000D03*
%TO.N,GND*%
X136680000Y-71450000D03*
%TO.N,unconnected-(U2-NC-Pad5)*%
X136680000Y-79070000D03*
%TO.N,Net-(C4-Pad2)*%
X139220000Y-79070000D03*
%TO.N,+5V*%
X141760000Y-79070000D03*
%TO.N,unconnected-(U2-NC-Pad8)*%
X144300000Y-79070000D03*
%TD*%
D12*
%TO.N,GND*%
%TO.C,D3*%
X161525000Y-63000000D03*
D13*
%TO.N,Net-(D3-A)*%
X158985000Y-63000000D03*
%TD*%
D10*
%TO.N,GND*%
%TO.C,TP_GND1*%
X165000000Y-79250000D03*
%TD*%
D14*
%TO.N,Net-(U2--)*%
%TO.C,C4*%
X144000000Y-87000000D03*
%TO.N,Net-(C4-Pad2)*%
X139000000Y-87000000D03*
%TD*%
%TO.N,Net-(U2--)*%
%TO.C,R4*%
X149750000Y-76670000D03*
D15*
%TO.N,Net-(C4-Pad2)*%
X149750000Y-86830000D03*
%TD*%
D14*
%TO.N,Net-(U1--)*%
%TO.C,R2*%
X103750000Y-84920000D03*
D15*
%TO.N,Net-(C2-Pad2)*%
X103750000Y-95080000D03*
%TD*%
D14*
%TO.N,+5V*%
%TO.C,R9*%
X111830000Y-56250000D03*
D15*
%TO.N,Net-(D4-A)*%
X101670000Y-56250000D03*
%TD*%
D14*
%TO.N,/LED_RED*%
%TO.C,R8*%
X153750000Y-52920000D03*
D15*
%TO.N,Net-(D1-A)*%
X153750000Y-63080000D03*
%TD*%
D19*
%TO.N,Net-(C2-Pad2)*%
%TO.C,C3*%
X129000000Y-86500000D03*
D14*
%TO.N,Net-(C3-Pad2)*%
X131500000Y-86500000D03*
%TD*%
%TO.N,Net-(C1-Pad1)*%
%TO.C,R1*%
X110250000Y-71170000D03*
D15*
%TO.N,Net-(U1--)*%
X110250000Y-81330000D03*
%TD*%
D10*
%TO.N,GND*%
%TO.C,TP_GND3*%
X120750000Y-97500000D03*
%TD*%
D19*
%TO.N,Net-(C1-Pad1)*%
%TO.C,C1*%
X103975000Y-80200000D03*
D14*
%TO.N,/Radar_Sig*%
X103975000Y-77700000D03*
%TD*%
%TO.N,/LED_GREEN*%
%TO.C,R10*%
X146000000Y-52920000D03*
D15*
%TO.N,Net-(D2-A)*%
X146000000Y-63080000D03*
%TD*%
D14*
%TO.N,Net-(C4-Pad2)*%
%TO.C,R7*%
X154500000Y-76920000D03*
D15*
%TO.N,/V_out*%
X154500000Y-87080000D03*
%TD*%
D14*
%TO.N,Net-(C3-Pad2)*%
%TO.C,R3*%
X131000000Y-80080000D03*
D15*
%TO.N,Net-(U2--)*%
X131000000Y-69920000D03*
%TD*%
D19*
%TO.N,unconnected-(U1-NC-Pad1)*%
%TO.C,U1*%
X123800000Y-71200000D03*
D15*
%TO.N,Net-(U1--)*%
X121260000Y-71200000D03*
%TO.N,/V_offset*%
X118720000Y-71200000D03*
%TO.N,GND*%
X116180000Y-71200000D03*
%TO.N,unconnected-(U1-NC-Pad5)*%
X116180000Y-78820000D03*
%TO.N,Net-(C2-Pad2)*%
X118720000Y-78820000D03*
%TO.N,+5V*%
X121260000Y-78820000D03*
%TO.N,unconnected-(U1-NC-Pad8)*%
X123800000Y-78820000D03*
%TD*%
D10*
%TO.N,/V_out*%
%TO.C,TP_2nd*%
X154250000Y-92000000D03*
%TD*%
%TO.N,/V_offset*%
%TO.C,TP_Offset*%
X117500000Y-58250000D03*
%TD*%
D14*
%TO.N,Net-(U1--)*%
%TO.C,C2*%
X117000000Y-86750000D03*
%TO.N,Net-(C2-Pad2)*%
X122000000Y-86750000D03*
%TD*%
D10*
%TO.N,+5V*%
%TO.C,TP_PWR*%
X133750000Y-92500000D03*
%TD*%
D14*
%TO.N,/LED_YELLOW*%
%TO.C,R11*%
X149750000Y-52920000D03*
D15*
%TO.N,Net-(D3-A)*%
X149750000Y-63080000D03*
%TD*%
D14*
%TO.N,+5V*%
%TO.C,R5*%
X129000000Y-56670000D03*
D15*
%TO.N,/V_offset*%
X129000000Y-66830000D03*
%TD*%
%TA.AperFunction,Conductor*%
%TO.N,+5V*%
G36*
X163981595Y-46755185D02*
G01*
X164004307Y-46773939D01*
X165930253Y-48794294D01*
X165962262Y-48856400D01*
X165964500Y-48879853D01*
X165964500Y-59344982D01*
X165964500Y-59375018D01*
X165975994Y-59402767D01*
X165975995Y-59402768D01*
X168468181Y-61894954D01*
X168501666Y-61956277D01*
X168504500Y-61982635D01*
X168504500Y-96107364D01*
X168484815Y-96174403D01*
X168468181Y-96195045D01*
X165997233Y-98665994D01*
X165975995Y-98687231D01*
X165964500Y-98714982D01*
X165964500Y-99231907D01*
X165963903Y-99244062D01*
X165952505Y-99359778D01*
X165947763Y-99383618D01*
X165917832Y-99482290D01*
X165915789Y-99489024D01*
X165906486Y-99511482D01*
X165854561Y-99608627D01*
X165841056Y-99628839D01*
X165771176Y-99713988D01*
X165753988Y-99731176D01*
X165668839Y-99801056D01*
X165648627Y-99814561D01*
X165551482Y-99866486D01*
X165529028Y-99875787D01*
X165487028Y-99888528D01*
X165423618Y-99907763D01*
X165399778Y-99912505D01*
X165291162Y-99923203D01*
X165284060Y-99923903D01*
X165271907Y-99924500D01*
X100768093Y-99924500D01*
X100755939Y-99923903D01*
X100747995Y-99923120D01*
X100640221Y-99912505D01*
X100616381Y-99907763D01*
X100599445Y-99902625D01*
X100510968Y-99875786D01*
X100488517Y-99866486D01*
X100391372Y-99814561D01*
X100371160Y-99801056D01*
X100286011Y-99731176D01*
X100268823Y-99713988D01*
X100198943Y-99628839D01*
X100185438Y-99608627D01*
X100133510Y-99511476D01*
X100124215Y-99489037D01*
X100092234Y-99383612D01*
X100087494Y-99359777D01*
X100076097Y-99244061D01*
X100075500Y-99231907D01*
X100075500Y-96601345D01*
X119391500Y-96601345D01*
X119391500Y-98398654D01*
X119398011Y-98459202D01*
X119398011Y-98459204D01*
X119434192Y-98556206D01*
X119449111Y-98596204D01*
X119536739Y-98713261D01*
X119653796Y-98800889D01*
X119790799Y-98851989D01*
X119818050Y-98854918D01*
X119851345Y-98858499D01*
X119851362Y-98858500D01*
X121648638Y-98858500D01*
X121648654Y-98858499D01*
X121675692Y-98855591D01*
X121709201Y-98851989D01*
X121846204Y-98800889D01*
X121963261Y-98713261D01*
X122050889Y-98596204D01*
X122101989Y-98459201D01*
X122106289Y-98419201D01*
X122108499Y-98398654D01*
X122108500Y-98398637D01*
X122108500Y-96601362D01*
X122108499Y-96601345D01*
X122104241Y-96561750D01*
X122104197Y-96561345D01*
X126581500Y-96561345D01*
X126581500Y-98358654D01*
X126588011Y-98419202D01*
X126588011Y-98419204D01*
X126639111Y-98556204D01*
X126726739Y-98673261D01*
X126843796Y-98760889D01*
X126980799Y-98811989D01*
X127008050Y-98814918D01*
X127041345Y-98818499D01*
X127041362Y-98818500D01*
X128838638Y-98818500D01*
X128838654Y-98818499D01*
X128865692Y-98815591D01*
X128899201Y-98811989D01*
X129036204Y-98760889D01*
X129153261Y-98673261D01*
X129240889Y-98556204D01*
X129286138Y-98434887D01*
X129328009Y-98378956D01*
X129393474Y-98354539D01*
X129461746Y-98369391D01*
X129493545Y-98394236D01*
X129556760Y-98462906D01*
X129734424Y-98601189D01*
X129734425Y-98601189D01*
X129734427Y-98601191D01*
X129861135Y-98669761D01*
X129932426Y-98708342D01*
X130145365Y-98781444D01*
X130367431Y-98818500D01*
X130592569Y-98818500D01*
X130814635Y-98781444D01*
X131027574Y-98708342D01*
X131225576Y-98601189D01*
X131403240Y-98462906D01*
X131524594Y-98331082D01*
X131555715Y-98297276D01*
X131555715Y-98297275D01*
X131555722Y-98297268D01*
X131646193Y-98158790D01*
X131699338Y-98113437D01*
X131768569Y-98104013D01*
X131831905Y-98133515D01*
X131853804Y-98158787D01*
X131944278Y-98297268D01*
X131944283Y-98297273D01*
X131944284Y-98297276D01*
X132070968Y-98434889D01*
X132096760Y-98462906D01*
X132274424Y-98601189D01*
X132274425Y-98601189D01*
X132274427Y-98601191D01*
X132401135Y-98669761D01*
X132472426Y-98708342D01*
X132685365Y-98781444D01*
X132907431Y-98818500D01*
X133132569Y-98818500D01*
X133354635Y-98781444D01*
X133567574Y-98708342D01*
X133765576Y-98601189D01*
X133943240Y-98462906D01*
X134064594Y-98331082D01*
X134095715Y-98297276D01*
X134095715Y-98297275D01*
X134095722Y-98297268D01*
X134186193Y-98158790D01*
X134239338Y-98113437D01*
X134308569Y-98104013D01*
X134371905Y-98133515D01*
X134393804Y-98158787D01*
X134484278Y-98297268D01*
X134484283Y-98297273D01*
X134484284Y-98297276D01*
X134610968Y-98434889D01*
X134636760Y-98462906D01*
X134814424Y-98601189D01*
X134814425Y-98601189D01*
X134814427Y-98601191D01*
X134941135Y-98669761D01*
X135012426Y-98708342D01*
X135225365Y-98781444D01*
X135447431Y-98818500D01*
X135672569Y-98818500D01*
X135894635Y-98781444D01*
X136107574Y-98708342D01*
X136305576Y-98601189D01*
X136483240Y-98462906D01*
X136604594Y-98331082D01*
X136635715Y-98297276D01*
X136635715Y-98297275D01*
X136635722Y-98297268D01*
X136729749Y-98153347D01*
X136782894Y-98107994D01*
X136852125Y-98098570D01*
X136915461Y-98128072D01*
X136935130Y-98150048D01*
X137061890Y-98331078D01*
X137228917Y-98498105D01*
X137422421Y-98633600D01*
X137636507Y-98733429D01*
X137636516Y-98733433D01*
X137850000Y-98790634D01*
X137850000Y-97893012D01*
X137907007Y-97925925D01*
X138034174Y-97960000D01*
X138165826Y-97960000D01*
X138292993Y-97925925D01*
X138350000Y-97893012D01*
X138350000Y-98790633D01*
X138563483Y-98733433D01*
X138563492Y-98733429D01*
X138777578Y-98633600D01*
X138971082Y-98498105D01*
X139138105Y-98331082D01*
X139264868Y-98150048D01*
X139319445Y-98106423D01*
X139388944Y-98099231D01*
X139451298Y-98130753D01*
X139470251Y-98153350D01*
X139564276Y-98297265D01*
X139564284Y-98297276D01*
X139690968Y-98434889D01*
X139716760Y-98462906D01*
X139894424Y-98601189D01*
X139894425Y-98601189D01*
X139894427Y-98601191D01*
X140021135Y-98669761D01*
X140092426Y-98708342D01*
X140305365Y-98781444D01*
X140527431Y-98818500D01*
X140752569Y-98818500D01*
X140974635Y-98781444D01*
X141187574Y-98708342D01*
X141385576Y-98601189D01*
X141563240Y-98462906D01*
X141684594Y-98331082D01*
X141715715Y-98297276D01*
X141715715Y-98297275D01*
X141715722Y-98297268D01*
X141806193Y-98158790D01*
X141859338Y-98113437D01*
X141928569Y-98104013D01*
X141991905Y-98133515D01*
X142013804Y-98158787D01*
X142104278Y-98297268D01*
X142104283Y-98297273D01*
X142104284Y-98297276D01*
X142230968Y-98434889D01*
X142256760Y-98462906D01*
X142434424Y-98601189D01*
X142434425Y-98601189D01*
X142434427Y-98601191D01*
X142561135Y-98669761D01*
X142632426Y-98708342D01*
X142845365Y-98781444D01*
X143067431Y-98818500D01*
X143292569Y-98818500D01*
X143514635Y-98781444D01*
X143727574Y-98708342D01*
X143925576Y-98601189D01*
X144103240Y-98462906D01*
X144224594Y-98331082D01*
X144255715Y-98297276D01*
X144255715Y-98297275D01*
X144255722Y-98297268D01*
X144346193Y-98158790D01*
X144399338Y-98113437D01*
X144468569Y-98104013D01*
X144531905Y-98133515D01*
X144553804Y-98158787D01*
X144644278Y-98297268D01*
X144644283Y-98297273D01*
X144644284Y-98297276D01*
X144770968Y-98434889D01*
X144796760Y-98462906D01*
X144974424Y-98601189D01*
X144974425Y-98601189D01*
X144974427Y-98601191D01*
X145101135Y-98669761D01*
X145172426Y-98708342D01*
X145385365Y-98781444D01*
X145607431Y-98818500D01*
X145832569Y-98818500D01*
X146054635Y-98781444D01*
X146267574Y-98708342D01*
X146465576Y-98601189D01*
X146643240Y-98462906D01*
X146764594Y-98331082D01*
X146795715Y-98297276D01*
X146795717Y-98297273D01*
X146795722Y-98297268D01*
X146918860Y-98108791D01*
X147009296Y-97902616D01*
X147064564Y-97684368D01*
X147067164Y-97652993D01*
X147083156Y-97460005D01*
X147083156Y-97459994D01*
X147064565Y-97235640D01*
X147064563Y-97235628D01*
X147009296Y-97017385D01*
X146999071Y-96994075D01*
X146918860Y-96811209D01*
X146902706Y-96786484D01*
X146795723Y-96622734D01*
X146795715Y-96622723D01*
X146739212Y-96561345D01*
X149441500Y-96561345D01*
X149441500Y-98358654D01*
X149448011Y-98419202D01*
X149448011Y-98419204D01*
X149499111Y-98556204D01*
X149586739Y-98673261D01*
X149703796Y-98760889D01*
X149840799Y-98811989D01*
X149868050Y-98814918D01*
X149901345Y-98818499D01*
X149901362Y-98818500D01*
X151698638Y-98818500D01*
X151698654Y-98818499D01*
X151725692Y-98815591D01*
X151759201Y-98811989D01*
X151896204Y-98760889D01*
X152013261Y-98673261D01*
X152100889Y-98556204D01*
X152146138Y-98434887D01*
X152188009Y-98378956D01*
X152253474Y-98354539D01*
X152321746Y-98369391D01*
X152353545Y-98394236D01*
X152416760Y-98462906D01*
X152594424Y-98601189D01*
X152594425Y-98601189D01*
X152594427Y-98601191D01*
X152721135Y-98669761D01*
X152792426Y-98708342D01*
X153005365Y-98781444D01*
X153227431Y-98818500D01*
X153452569Y-98818500D01*
X153674635Y-98781444D01*
X153887574Y-98708342D01*
X154085576Y-98601189D01*
X154263240Y-98462906D01*
X154384594Y-98331082D01*
X154415715Y-98297276D01*
X154415715Y-98297275D01*
X154415722Y-98297268D01*
X154506193Y-98158790D01*
X154559338Y-98113437D01*
X154628569Y-98104013D01*
X154691905Y-98133515D01*
X154713804Y-98158787D01*
X154804278Y-98297268D01*
X154804283Y-98297273D01*
X154804284Y-98297276D01*
X154930968Y-98434889D01*
X154956760Y-98462906D01*
X155134424Y-98601189D01*
X155134425Y-98601189D01*
X155134427Y-98601191D01*
X155261135Y-98669761D01*
X155332426Y-98708342D01*
X155545365Y-98781444D01*
X155767431Y-98818500D01*
X155992569Y-98818500D01*
X156214635Y-98781444D01*
X156427574Y-98708342D01*
X156625576Y-98601189D01*
X156803240Y-98462906D01*
X156924594Y-98331082D01*
X156955715Y-98297276D01*
X156955715Y-98297275D01*
X156955722Y-98297268D01*
X157046193Y-98158790D01*
X157099338Y-98113437D01*
X157168569Y-98104013D01*
X157231905Y-98133515D01*
X157253804Y-98158787D01*
X157344278Y-98297268D01*
X157344283Y-98297273D01*
X157344284Y-98297276D01*
X157470968Y-98434889D01*
X157496760Y-98462906D01*
X157674424Y-98601189D01*
X157674425Y-98601189D01*
X157674427Y-98601191D01*
X157801135Y-98669761D01*
X157872426Y-98708342D01*
X158085365Y-98781444D01*
X158307431Y-98818500D01*
X158532569Y-98818500D01*
X158754635Y-98781444D01*
X158967574Y-98708342D01*
X159165576Y-98601189D01*
X159343240Y-98462906D01*
X159464594Y-98331082D01*
X159495715Y-98297276D01*
X159495715Y-98297275D01*
X159495722Y-98297268D01*
X159586193Y-98158790D01*
X159639338Y-98113437D01*
X159708569Y-98104013D01*
X159771905Y-98133515D01*
X159793804Y-98158787D01*
X159884278Y-98297268D01*
X159884283Y-98297273D01*
X159884284Y-98297276D01*
X160010968Y-98434889D01*
X160036760Y-98462906D01*
X160214424Y-98601189D01*
X160214425Y-98601189D01*
X160214427Y-98601191D01*
X160341135Y-98669761D01*
X160412426Y-98708342D01*
X160625365Y-98781444D01*
X160847431Y-98818500D01*
X161072569Y-98818500D01*
X161294635Y-98781444D01*
X161507574Y-98708342D01*
X161705576Y-98601189D01*
X161883240Y-98462906D01*
X162004594Y-98331082D01*
X162035715Y-98297276D01*
X162035715Y-98297275D01*
X162035722Y-98297268D01*
X162126193Y-98158790D01*
X162179338Y-98113437D01*
X162248569Y-98104013D01*
X162311905Y-98133515D01*
X162333804Y-98158787D01*
X162424278Y-98297268D01*
X162424283Y-98297273D01*
X162424284Y-98297276D01*
X162550968Y-98434889D01*
X162576760Y-98462906D01*
X162754424Y-98601189D01*
X162754425Y-98601189D01*
X162754427Y-98601191D01*
X162881135Y-98669761D01*
X162952426Y-98708342D01*
X163165365Y-98781444D01*
X163387431Y-98818500D01*
X163612569Y-98818500D01*
X163834635Y-98781444D01*
X164047574Y-98708342D01*
X164245576Y-98601189D01*
X164423240Y-98462906D01*
X164544594Y-98331082D01*
X164575715Y-98297276D01*
X164575717Y-98297273D01*
X164575722Y-98297268D01*
X164698860Y-98108791D01*
X164789296Y-97902616D01*
X164844564Y-97684368D01*
X164847164Y-97652993D01*
X164863156Y-97460005D01*
X164863156Y-97459994D01*
X164844565Y-97235640D01*
X164844563Y-97235628D01*
X164789296Y-97017385D01*
X164779071Y-96994075D01*
X164698860Y-96811209D01*
X164682706Y-96786484D01*
X164575723Y-96622734D01*
X164575715Y-96622723D01*
X164423243Y-96457097D01*
X164423238Y-96457092D01*
X164245577Y-96318812D01*
X164245572Y-96318808D01*
X164047580Y-96211661D01*
X164047577Y-96211659D01*
X164047574Y-96211658D01*
X164047571Y-96211657D01*
X164047569Y-96211656D01*
X163834637Y-96138556D01*
X163612569Y-96101500D01*
X163387431Y-96101500D01*
X163165362Y-96138556D01*
X162952430Y-96211656D01*
X162952419Y-96211661D01*
X162754427Y-96318808D01*
X162754422Y-96318812D01*
X162576761Y-96457092D01*
X162576756Y-96457097D01*
X162424284Y-96622723D01*
X162424276Y-96622734D01*
X162333808Y-96761206D01*
X162280662Y-96806562D01*
X162211431Y-96815986D01*
X162148095Y-96786484D01*
X162126192Y-96761206D01*
X162035723Y-96622734D01*
X162035715Y-96622723D01*
X161883243Y-96457097D01*
X161883238Y-96457092D01*
X161705577Y-96318812D01*
X161705572Y-96318808D01*
X161507580Y-96211661D01*
X161507577Y-96211659D01*
X161507574Y-96211658D01*
X161507571Y-96211657D01*
X161507569Y-96211656D01*
X161294637Y-96138556D01*
X161072569Y-96101500D01*
X160847431Y-96101500D01*
X160625362Y-96138556D01*
X160412430Y-96211656D01*
X160412419Y-96211661D01*
X160214427Y-96318808D01*
X160214422Y-96318812D01*
X160036761Y-96457092D01*
X160036756Y-96457097D01*
X159884284Y-96622723D01*
X159884276Y-96622734D01*
X159793808Y-96761206D01*
X159740662Y-96806562D01*
X159671431Y-96815986D01*
X159608095Y-96786484D01*
X159586192Y-96761206D01*
X159495723Y-96622734D01*
X159495715Y-96622723D01*
X159343243Y-96457097D01*
X159343238Y-96457092D01*
X159165577Y-96318812D01*
X159165572Y-96318808D01*
X158967580Y-96211661D01*
X158967577Y-96211659D01*
X158967574Y-96211658D01*
X158967571Y-96211657D01*
X158967569Y-96211656D01*
X158754637Y-96138556D01*
X158532569Y-96101500D01*
X158307431Y-96101500D01*
X158085362Y-96138556D01*
X157872430Y-96211656D01*
X157872419Y-96211661D01*
X157674427Y-96318808D01*
X157674422Y-96318812D01*
X157496761Y-96457092D01*
X157496756Y-96457097D01*
X157344284Y-96622723D01*
X157344276Y-96622734D01*
X157253808Y-96761206D01*
X157200662Y-96806562D01*
X157131431Y-96815986D01*
X157068095Y-96786484D01*
X157046192Y-96761206D01*
X156955723Y-96622734D01*
X156955715Y-96622723D01*
X156803243Y-96457097D01*
X156803238Y-96457092D01*
X156625577Y-96318812D01*
X156625572Y-96318808D01*
X156427580Y-96211661D01*
X156427577Y-96211659D01*
X156427574Y-96211658D01*
X156427571Y-96211657D01*
X156427569Y-96211656D01*
X156214637Y-96138556D01*
X155992569Y-96101500D01*
X155767431Y-96101500D01*
X155545362Y-96138556D01*
X155332430Y-96211656D01*
X155332419Y-96211661D01*
X155134427Y-96318808D01*
X155134422Y-96318812D01*
X154956761Y-96457092D01*
X154956756Y-96457097D01*
X154804284Y-96622723D01*
X154804276Y-96622734D01*
X154713808Y-96761206D01*
X154660662Y-96806562D01*
X154591431Y-96815986D01*
X154528095Y-96786484D01*
X154506192Y-96761206D01*
X154415723Y-96622734D01*
X154415715Y-96622723D01*
X154263243Y-96457097D01*
X154263238Y-96457092D01*
X154085577Y-96318812D01*
X154085572Y-96318808D01*
X153887580Y-96211661D01*
X153887577Y-96211659D01*
X153887574Y-96211658D01*
X153887571Y-96211657D01*
X153887569Y-96211656D01*
X153674637Y-96138556D01*
X153452569Y-96101500D01*
X153227431Y-96101500D01*
X153005362Y-96138556D01*
X152792430Y-96211656D01*
X152792419Y-96211661D01*
X152594427Y-96318808D01*
X152594422Y-96318812D01*
X152416761Y-96457092D01*
X152353548Y-96525760D01*
X152293661Y-96561750D01*
X152223823Y-96559649D01*
X152166207Y-96520124D01*
X152146138Y-96485110D01*
X152100889Y-96363796D01*
X152067214Y-96318812D01*
X152013261Y-96246739D01*
X151896204Y-96159111D01*
X151848988Y-96141500D01*
X151759203Y-96108011D01*
X151698654Y-96101500D01*
X151698638Y-96101500D01*
X149901362Y-96101500D01*
X149901345Y-96101500D01*
X149840797Y-96108011D01*
X149840795Y-96108011D01*
X149703795Y-96159111D01*
X149586739Y-96246739D01*
X149499111Y-96363795D01*
X149448011Y-96500795D01*
X149448011Y-96500797D01*
X149441500Y-96561345D01*
X146739212Y-96561345D01*
X146643243Y-96457097D01*
X146643238Y-96457092D01*
X146465577Y-96318812D01*
X146465572Y-96318808D01*
X146267580Y-96211661D01*
X146267577Y-96211659D01*
X146267574Y-96211658D01*
X146267571Y-96211657D01*
X146267569Y-96211656D01*
X146054637Y-96138556D01*
X145832569Y-96101500D01*
X145607431Y-96101500D01*
X145385362Y-96138556D01*
X145172430Y-96211656D01*
X145172419Y-96211661D01*
X144974427Y-96318808D01*
X144974422Y-96318812D01*
X144796761Y-96457092D01*
X144796756Y-96457097D01*
X144644284Y-96622723D01*
X144644276Y-96622734D01*
X144553808Y-96761206D01*
X144500662Y-96806562D01*
X144431431Y-96815986D01*
X144368095Y-96786484D01*
X144346192Y-96761206D01*
X144255723Y-96622734D01*
X144255715Y-96622723D01*
X144103243Y-96457097D01*
X144103238Y-96457092D01*
X143925577Y-96318812D01*
X143925572Y-96318808D01*
X143727580Y-96211661D01*
X143727577Y-96211659D01*
X143727574Y-96211658D01*
X143727571Y-96211657D01*
X143727569Y-96211656D01*
X143514637Y-96138556D01*
X143292569Y-96101500D01*
X143067431Y-96101500D01*
X142845362Y-96138556D01*
X142632430Y-96211656D01*
X142632419Y-96211661D01*
X142434427Y-96318808D01*
X142434422Y-96318812D01*
X142256761Y-96457092D01*
X142256756Y-96457097D01*
X142104284Y-96622723D01*
X142104276Y-96622734D01*
X142013808Y-96761206D01*
X141960662Y-96806562D01*
X141891431Y-96815986D01*
X141828095Y-96786484D01*
X141806192Y-96761206D01*
X141715723Y-96622734D01*
X141715715Y-96622723D01*
X141563243Y-96457097D01*
X141563238Y-96457092D01*
X141385577Y-96318812D01*
X141385572Y-96318808D01*
X141187580Y-96211661D01*
X141187577Y-96211659D01*
X141187574Y-96211658D01*
X141187571Y-96211657D01*
X141187569Y-96211656D01*
X140974637Y-96138556D01*
X140752569Y-96101500D01*
X140527431Y-96101500D01*
X140305362Y-96138556D01*
X140092430Y-96211656D01*
X140092419Y-96211661D01*
X139894427Y-96318808D01*
X139894422Y-96318812D01*
X139716761Y-96457092D01*
X139716756Y-96457097D01*
X139564284Y-96622723D01*
X139564276Y-96622734D01*
X139470251Y-96766650D01*
X139417105Y-96812007D01*
X139347873Y-96821430D01*
X139284538Y-96791928D01*
X139264868Y-96769951D01*
X139138113Y-96588926D01*
X139138108Y-96588920D01*
X138971082Y-96421894D01*
X138777578Y-96286399D01*
X138563492Y-96186570D01*
X138563486Y-96186567D01*
X138350000Y-96129364D01*
X138350000Y-97026988D01*
X138292993Y-96994075D01*
X138165826Y-96960000D01*
X138034174Y-96960000D01*
X137907007Y-96994075D01*
X137850000Y-97026988D01*
X137850000Y-96129364D01*
X137849999Y-96129364D01*
X137636513Y-96186567D01*
X137636507Y-96186570D01*
X137422422Y-96286399D01*
X137422420Y-96286400D01*
X137228926Y-96421886D01*
X137228920Y-96421891D01*
X137061891Y-96588920D01*
X137061890Y-96588922D01*
X136935131Y-96769952D01*
X136880554Y-96813577D01*
X136811055Y-96820769D01*
X136748701Y-96789247D01*
X136729752Y-96766656D01*
X136635722Y-96622732D01*
X136635715Y-96622725D01*
X136635715Y-96622723D01*
X136483243Y-96457097D01*
X136483238Y-96457092D01*
X136305577Y-96318812D01*
X136305572Y-96318808D01*
X136107580Y-96211661D01*
X136107577Y-96211659D01*
X136107574Y-96211658D01*
X136107571Y-96211657D01*
X136107569Y-96211656D01*
X135894637Y-96138556D01*
X135672569Y-96101500D01*
X135447431Y-96101500D01*
X135225362Y-96138556D01*
X135012430Y-96211656D01*
X135012419Y-96211661D01*
X134814427Y-96318808D01*
X134814422Y-96318812D01*
X134636761Y-96457092D01*
X134636756Y-96457097D01*
X134484284Y-96622723D01*
X134484276Y-96622734D01*
X134393808Y-96761206D01*
X134340662Y-96806562D01*
X134271431Y-96815986D01*
X134208095Y-96786484D01*
X134186192Y-96761206D01*
X134095723Y-96622734D01*
X134095715Y-96622723D01*
X133943243Y-96457097D01*
X133943238Y-96457092D01*
X133765577Y-96318812D01*
X133765572Y-96318808D01*
X133567580Y-96211661D01*
X133567577Y-96211659D01*
X133567574Y-96211658D01*
X133567571Y-96211657D01*
X133567569Y-96211656D01*
X133354637Y-96138556D01*
X133132569Y-96101500D01*
X132907431Y-96101500D01*
X132685362Y-96138556D01*
X132472430Y-96211656D01*
X132472419Y-96211661D01*
X132274427Y-96318808D01*
X132274422Y-96318812D01*
X132096761Y-96457092D01*
X132096756Y-96457097D01*
X131944284Y-96622723D01*
X131944276Y-96622734D01*
X131853808Y-96761206D01*
X131800662Y-96806562D01*
X131731431Y-96815986D01*
X131668095Y-96786484D01*
X131646192Y-96761206D01*
X131555723Y-96622734D01*
X131555715Y-96622723D01*
X131403243Y-96457097D01*
X131403238Y-96457092D01*
X131225577Y-96318812D01*
X131225572Y-96318808D01*
X131027580Y-96211661D01*
X131027577Y-96211659D01*
X131027574Y-96211658D01*
X131027571Y-96211657D01*
X131027569Y-96211656D01*
X130814637Y-96138556D01*
X130592569Y-96101500D01*
X130367431Y-96101500D01*
X130145362Y-96138556D01*
X129932430Y-96211656D01*
X129932419Y-96211661D01*
X129734427Y-96318808D01*
X129734422Y-96318812D01*
X129556761Y-96457092D01*
X129493548Y-96525760D01*
X129433661Y-96561750D01*
X129363823Y-96559649D01*
X129306207Y-96520124D01*
X129286138Y-96485110D01*
X129240889Y-96363796D01*
X129207214Y-96318812D01*
X129153261Y-96246739D01*
X129036204Y-96159111D01*
X128988988Y-96141500D01*
X128899203Y-96108011D01*
X128838654Y-96101500D01*
X128838638Y-96101500D01*
X127041362Y-96101500D01*
X127041345Y-96101500D01*
X126980797Y-96108011D01*
X126980795Y-96108011D01*
X126843795Y-96159111D01*
X126726739Y-96246739D01*
X126639111Y-96363795D01*
X126588011Y-96500795D01*
X126588011Y-96500797D01*
X126581500Y-96561345D01*
X122104197Y-96561345D01*
X122101989Y-96540799D01*
X122050889Y-96403796D01*
X121963261Y-96286739D01*
X121846204Y-96199111D01*
X121812573Y-96186567D01*
X121709203Y-96148011D01*
X121648654Y-96141500D01*
X121648638Y-96141500D01*
X119851362Y-96141500D01*
X119851345Y-96141500D01*
X119790797Y-96148011D01*
X119790795Y-96148011D01*
X119653795Y-96199111D01*
X119536739Y-96286739D01*
X119449111Y-96403795D01*
X119398011Y-96540795D01*
X119398011Y-96540797D01*
X119391500Y-96601345D01*
X100075500Y-96601345D01*
X100075500Y-95079998D01*
X102436502Y-95079998D01*
X102436502Y-95080001D01*
X102456456Y-95308081D01*
X102456457Y-95308089D01*
X102515714Y-95529238D01*
X102515718Y-95529249D01*
X102612475Y-95736745D01*
X102612477Y-95736749D01*
X102743802Y-95924300D01*
X102905700Y-96086198D01*
X103093251Y-96217523D01*
X103218091Y-96275736D01*
X103300750Y-96314281D01*
X103300752Y-96314281D01*
X103300757Y-96314284D01*
X103521913Y-96373543D01*
X103684832Y-96387796D01*
X103749998Y-96393498D01*
X103750000Y-96393498D01*
X103750002Y-96393498D01*
X103807021Y-96388509D01*
X103978087Y-96373543D01*
X104199243Y-96314284D01*
X104406749Y-96217523D01*
X104594300Y-96086198D01*
X104756198Y-95924300D01*
X104887523Y-95736749D01*
X104984284Y-95529243D01*
X105043543Y-95308087D01*
X105063498Y-95080000D01*
X105043543Y-94851913D01*
X104984284Y-94630757D01*
X104887523Y-94423251D01*
X104756198Y-94235700D01*
X104594300Y-94073802D01*
X104406749Y-93942477D01*
X104406745Y-93942475D01*
X104199249Y-93845718D01*
X104199238Y-93845714D01*
X103978089Y-93786457D01*
X103978081Y-93786456D01*
X103750002Y-93766502D01*
X103749998Y-93766502D01*
X103521918Y-93786456D01*
X103521910Y-93786457D01*
X103300761Y-93845714D01*
X103300750Y-93845718D01*
X103093254Y-93942475D01*
X103093252Y-93942476D01*
X103093251Y-93942477D01*
X102905700Y-94073802D01*
X102905698Y-94073803D01*
X102905695Y-94073806D01*
X102743806Y-94235695D01*
X102612476Y-94423252D01*
X102612475Y-94423254D01*
X102515718Y-94630750D01*
X102515714Y-94630761D01*
X102456457Y-94851910D01*
X102456456Y-94851918D01*
X102436502Y-95079998D01*
X100075500Y-95079998D01*
X100075500Y-91126345D01*
X109941500Y-91126345D01*
X109941500Y-92923654D01*
X109948011Y-92984202D01*
X109948011Y-92984204D01*
X109989786Y-93096204D01*
X109999111Y-93121204D01*
X110086739Y-93238261D01*
X110203796Y-93325889D01*
X110340799Y-93376989D01*
X110368050Y-93379918D01*
X110401345Y-93383499D01*
X110401362Y-93383500D01*
X112198638Y-93383500D01*
X112198654Y-93383499D01*
X112225692Y-93380591D01*
X112259201Y-93376989D01*
X112396204Y-93325889D01*
X112513261Y-93238261D01*
X112600889Y-93121204D01*
X112651989Y-92984201D01*
X112655591Y-92950692D01*
X112658499Y-92923654D01*
X112658500Y-92923637D01*
X112658500Y-91602155D01*
X132400000Y-91602155D01*
X132400000Y-92250000D01*
X133316988Y-92250000D01*
X133284075Y-92307007D01*
X133250000Y-92434174D01*
X133250000Y-92565826D01*
X133284075Y-92692993D01*
X133316988Y-92750000D01*
X132400000Y-92750000D01*
X132400000Y-93397844D01*
X132406401Y-93457372D01*
X132406403Y-93457379D01*
X132456645Y-93592086D01*
X132456649Y-93592093D01*
X132542809Y-93707187D01*
X132542812Y-93707190D01*
X132657906Y-93793350D01*
X132657913Y-93793354D01*
X132792620Y-93843596D01*
X132792627Y-93843598D01*
X132852155Y-93849999D01*
X132852172Y-93850000D01*
X133500000Y-93850000D01*
X133500000Y-92933012D01*
X133557007Y-92965925D01*
X133684174Y-93000000D01*
X133815826Y-93000000D01*
X133942993Y-92965925D01*
X134000000Y-92933012D01*
X134000000Y-93850000D01*
X134647828Y-93850000D01*
X134647844Y-93849999D01*
X134707372Y-93843598D01*
X134707379Y-93843596D01*
X134842086Y-93793354D01*
X134842093Y-93793350D01*
X134957187Y-93707190D01*
X134957190Y-93707187D01*
X135043350Y-93592093D01*
X135043354Y-93592086D01*
X135093596Y-93457379D01*
X135093598Y-93457372D01*
X135099999Y-93397844D01*
X135100000Y-93397827D01*
X135100000Y-92750000D01*
X134183012Y-92750000D01*
X134215925Y-92692993D01*
X134250000Y-92565826D01*
X134250000Y-92434174D01*
X134215925Y-92307007D01*
X134183012Y-92250000D01*
X135100000Y-92250000D01*
X135100000Y-91602172D01*
X135099999Y-91602155D01*
X135093598Y-91542627D01*
X135093596Y-91542620D01*
X135043354Y-91407913D01*
X135043350Y-91407906D01*
X134957190Y-91292812D01*
X134957187Y-91292809D01*
X134842093Y-91206649D01*
X134842086Y-91206645D01*
X134707379Y-91156403D01*
X134707372Y-91156401D01*
X134647844Y-91150000D01*
X134000000Y-91150000D01*
X134000000Y-92066988D01*
X133942993Y-92034075D01*
X133815826Y-92000000D01*
X133684174Y-92000000D01*
X133557007Y-92034075D01*
X133500000Y-92066988D01*
X133500000Y-91150000D01*
X132852155Y-91150000D01*
X132792627Y-91156401D01*
X132792620Y-91156403D01*
X132657913Y-91206645D01*
X132657906Y-91206649D01*
X132542812Y-91292809D01*
X132542809Y-91292812D01*
X132456649Y-91407906D01*
X132456645Y-91407913D01*
X132406403Y-91542620D01*
X132406401Y-91542627D01*
X132400000Y-91602155D01*
X112658500Y-91602155D01*
X112658500Y-91126362D01*
X112658499Y-91126345D01*
X112655810Y-91101345D01*
X152891500Y-91101345D01*
X152891500Y-92898654D01*
X152898011Y-92959202D01*
X152898011Y-92959204D01*
X152913228Y-93000000D01*
X152949111Y-93096204D01*
X153036739Y-93213261D01*
X153153796Y-93300889D01*
X153290799Y-93351989D01*
X153318050Y-93354918D01*
X153351345Y-93358499D01*
X153351362Y-93358500D01*
X155148638Y-93358500D01*
X155148654Y-93358499D01*
X155175692Y-93355591D01*
X155209201Y-93351989D01*
X155346204Y-93300889D01*
X155463261Y-93213261D01*
X155550889Y-93096204D01*
X155601989Y-92959201D01*
X155605812Y-92923637D01*
X155608499Y-92898654D01*
X155608500Y-92898637D01*
X155608500Y-91101362D01*
X155608499Y-91101345D01*
X155604676Y-91065795D01*
X155601989Y-91040799D01*
X155550889Y-90903796D01*
X155463261Y-90786739D01*
X155346204Y-90699111D01*
X155209203Y-90648011D01*
X155148654Y-90641500D01*
X155148638Y-90641500D01*
X153351362Y-90641500D01*
X153351345Y-90641500D01*
X153290797Y-90648011D01*
X153290795Y-90648011D01*
X153153795Y-90699111D01*
X153036739Y-90786739D01*
X152949111Y-90903795D01*
X152898011Y-91040795D01*
X152898011Y-91040797D01*
X152891500Y-91101345D01*
X112655810Y-91101345D01*
X112655157Y-91095270D01*
X112651989Y-91065799D01*
X112642664Y-91040799D01*
X112629522Y-91005564D01*
X112600889Y-90928796D01*
X112513261Y-90811739D01*
X112396204Y-90724111D01*
X112259203Y-90673011D01*
X112198654Y-90666500D01*
X112198638Y-90666500D01*
X110401362Y-90666500D01*
X110401345Y-90666500D01*
X110340797Y-90673011D01*
X110340795Y-90673011D01*
X110203795Y-90724111D01*
X110086739Y-90811739D01*
X109999111Y-90928795D01*
X109948011Y-91065795D01*
X109948011Y-91065797D01*
X109941500Y-91126345D01*
X100075500Y-91126345D01*
X100075500Y-86749998D01*
X115686502Y-86749998D01*
X115686502Y-86750001D01*
X115706456Y-86978081D01*
X115706457Y-86978089D01*
X115765714Y-87199238D01*
X115765718Y-87199249D01*
X115835387Y-87348654D01*
X115862477Y-87406749D01*
X115993802Y-87594300D01*
X116155700Y-87756198D01*
X116343251Y-87887523D01*
X116422120Y-87924300D01*
X116550750Y-87984281D01*
X116550752Y-87984281D01*
X116550757Y-87984284D01*
X116771913Y-88043543D01*
X116934832Y-88057796D01*
X116999998Y-88063498D01*
X117000000Y-88063498D01*
X117000002Y-88063498D01*
X117057021Y-88058509D01*
X117228087Y-88043543D01*
X117449243Y-87984284D01*
X117656749Y-87887523D01*
X117844300Y-87756198D01*
X118006198Y-87594300D01*
X118137523Y-87406749D01*
X118234284Y-87199243D01*
X118293543Y-86978087D01*
X118313498Y-86750000D01*
X118313498Y-86749998D01*
X120686502Y-86749998D01*
X120686502Y-86750001D01*
X120706456Y-86978081D01*
X120706457Y-86978089D01*
X120765714Y-87199238D01*
X120765718Y-87199249D01*
X120835387Y-87348654D01*
X120862477Y-87406749D01*
X120993802Y-87594300D01*
X121155700Y-87756198D01*
X121343251Y-87887523D01*
X121422120Y-87924300D01*
X121550750Y-87984281D01*
X121550752Y-87984281D01*
X121550757Y-87984284D01*
X121771913Y-88043543D01*
X121934832Y-88057796D01*
X121999998Y-88063498D01*
X122000000Y-88063498D01*
X122000002Y-88063498D01*
X122057021Y-88058509D01*
X122228087Y-88043543D01*
X122449243Y-87984284D01*
X122656749Y-87887523D01*
X122844300Y-87756198D01*
X123006198Y-87594300D01*
X123137523Y-87406749D01*
X123234284Y-87199243D01*
X123293543Y-86978087D01*
X123313498Y-86750000D01*
X123293543Y-86521913D01*
X123234284Y-86300757D01*
X123137523Y-86093251D01*
X123006198Y-85905700D01*
X122844300Y-85743802D01*
X122712258Y-85651345D01*
X127691500Y-85651345D01*
X127691500Y-87348654D01*
X127698011Y-87409202D01*
X127698011Y-87409204D01*
X127734189Y-87506198D01*
X127749111Y-87546204D01*
X127836739Y-87663261D01*
X127953796Y-87750889D01*
X128090799Y-87801989D01*
X128118050Y-87804918D01*
X128151345Y-87808499D01*
X128151362Y-87808500D01*
X129848638Y-87808500D01*
X129848654Y-87808499D01*
X129875692Y-87805591D01*
X129909201Y-87801989D01*
X130046204Y-87750889D01*
X130163261Y-87663261D01*
X130250889Y-87546204D01*
X130287056Y-87449238D01*
X130304300Y-87403007D01*
X130346171Y-87347073D01*
X130411636Y-87322657D01*
X130479909Y-87337509D01*
X130508162Y-87358660D01*
X130655700Y-87506198D01*
X130843251Y-87637523D01*
X130884482Y-87656749D01*
X131050750Y-87734281D01*
X131050752Y-87734281D01*
X131050757Y-87734284D01*
X131271913Y-87793543D01*
X131434832Y-87807796D01*
X131499998Y-87813498D01*
X131500000Y-87813498D01*
X131500002Y-87813498D01*
X131557139Y-87808499D01*
X131728087Y-87793543D01*
X131949243Y-87734284D01*
X132156749Y-87637523D01*
X132344300Y-87506198D01*
X132506198Y-87344300D01*
X132637523Y-87156749D01*
X132710617Y-86999998D01*
X137686502Y-86999998D01*
X137686502Y-87000001D01*
X137706456Y-87228081D01*
X137706457Y-87228089D01*
X137765714Y-87449238D01*
X137765718Y-87449249D01*
X137853512Y-87637523D01*
X137862477Y-87656749D01*
X137993802Y-87844300D01*
X138155700Y-88006198D01*
X138343251Y-88137523D01*
X138356065Y-88143498D01*
X138550750Y-88234281D01*
X138550752Y-88234281D01*
X138550757Y-88234284D01*
X138771913Y-88293543D01*
X138934832Y-88307796D01*
X138999998Y-88313498D01*
X139000000Y-88313498D01*
X139000002Y-88313498D01*
X139057021Y-88308509D01*
X139228087Y-88293543D01*
X139449243Y-88234284D01*
X139656749Y-88137523D01*
X139844300Y-88006198D01*
X140006198Y-87844300D01*
X140137523Y-87656749D01*
X140234284Y-87449243D01*
X140293543Y-87228087D01*
X140313498Y-87000000D01*
X140313498Y-86999998D01*
X142686502Y-86999998D01*
X142686502Y-87000001D01*
X142706456Y-87228081D01*
X142706457Y-87228089D01*
X142765714Y-87449238D01*
X142765718Y-87449249D01*
X142853512Y-87637523D01*
X142862477Y-87656749D01*
X142993802Y-87844300D01*
X143155700Y-88006198D01*
X143343251Y-88137523D01*
X143356065Y-88143498D01*
X143550750Y-88234281D01*
X143550752Y-88234281D01*
X143550757Y-88234284D01*
X143771913Y-88293543D01*
X143934832Y-88307796D01*
X143999998Y-88313498D01*
X144000000Y-88313498D01*
X144000002Y-88313498D01*
X144057021Y-88308509D01*
X144228087Y-88293543D01*
X144449243Y-88234284D01*
X144656749Y-88137523D01*
X144844300Y-88006198D01*
X145006198Y-87844300D01*
X145137523Y-87656749D01*
X145234284Y-87449243D01*
X145293543Y-87228087D01*
X145313498Y-87000000D01*
X145298625Y-86829998D01*
X148436502Y-86829998D01*
X148436502Y-86830001D01*
X148456456Y-87058081D01*
X148456457Y-87058089D01*
X148515714Y-87279238D01*
X148515718Y-87279249D01*
X148612475Y-87486745D01*
X148612477Y-87486749D01*
X148743802Y-87674300D01*
X148905700Y-87836198D01*
X149093251Y-87967523D01*
X149218091Y-88025736D01*
X149300750Y-88064281D01*
X149300752Y-88064281D01*
X149300757Y-88064284D01*
X149521913Y-88123543D01*
X149681705Y-88137523D01*
X149749998Y-88143498D01*
X149750000Y-88143498D01*
X149750002Y-88143498D01*
X149818283Y-88137524D01*
X149978087Y-88123543D01*
X150199243Y-88064284D01*
X150406749Y-87967523D01*
X150594300Y-87836198D01*
X150756198Y-87674300D01*
X150887523Y-87486749D01*
X150984284Y-87279243D01*
X151037672Y-87079998D01*
X153186502Y-87079998D01*
X153186502Y-87080001D01*
X153206456Y-87308081D01*
X153206457Y-87308089D01*
X153265714Y-87529238D01*
X153265718Y-87529249D01*
X153361328Y-87734285D01*
X153362477Y-87736749D01*
X153493802Y-87924300D01*
X153655700Y-88086198D01*
X153843251Y-88217523D01*
X153968091Y-88275736D01*
X154050750Y-88314281D01*
X154050752Y-88314281D01*
X154050757Y-88314284D01*
X154271913Y-88373543D01*
X154434832Y-88387796D01*
X154499998Y-88393498D01*
X154500000Y-88393498D01*
X154500002Y-88393498D01*
X154557021Y-88388509D01*
X154728087Y-88373543D01*
X154949243Y-88314284D01*
X155156749Y-88217523D01*
X155344300Y-88086198D01*
X155506198Y-87924300D01*
X155637523Y-87736749D01*
X155734284Y-87529243D01*
X155793543Y-87308087D01*
X155813498Y-87080000D01*
X155793543Y-86851913D01*
X155734284Y-86630757D01*
X155696981Y-86550761D01*
X155683532Y-86521918D01*
X155637523Y-86423251D01*
X155506198Y-86235700D01*
X155344300Y-86073802D01*
X155156749Y-85942477D01*
X155156745Y-85942475D01*
X154949249Y-85845718D01*
X154949238Y-85845714D01*
X154728089Y-85786457D01*
X154728081Y-85786456D01*
X154500002Y-85766502D01*
X154499998Y-85766502D01*
X154271918Y-85786456D01*
X154271910Y-85786457D01*
X154050761Y-85845714D01*
X154050750Y-85845718D01*
X153843254Y-85942475D01*
X153843252Y-85942476D01*
X153781529Y-85985695D01*
X153655700Y-86073802D01*
X153655698Y-86073803D01*
X153655695Y-86073806D01*
X153493806Y-86235695D01*
X153493803Y-86235698D01*
X153493802Y-86235700D01*
X153448246Y-86300761D01*
X153362476Y-86423252D01*
X153362475Y-86423254D01*
X153265718Y-86630750D01*
X153265714Y-86630761D01*
X153206457Y-86851910D01*
X153206456Y-86851918D01*
X153186502Y-87079998D01*
X151037672Y-87079998D01*
X151043543Y-87058087D01*
X151063498Y-86830000D01*
X151058416Y-86771918D01*
X151046067Y-86630761D01*
X151043543Y-86601913D01*
X150984284Y-86380757D01*
X150946981Y-86300761D01*
X150933532Y-86271918D01*
X150887523Y-86173251D01*
X150756198Y-85985700D01*
X150594300Y-85823802D01*
X150406749Y-85692477D01*
X150406745Y-85692475D01*
X150199249Y-85595718D01*
X150199238Y-85595714D01*
X149978089Y-85536457D01*
X149978081Y-85536456D01*
X149750002Y-85516502D01*
X149749998Y-85516502D01*
X149521918Y-85536456D01*
X149521910Y-85536457D01*
X149300761Y-85595714D01*
X149300750Y-85595718D01*
X149093254Y-85692475D01*
X149093252Y-85692476D01*
X149022856Y-85741767D01*
X148905700Y-85823802D01*
X148905698Y-85823803D01*
X148905695Y-85823806D01*
X148743806Y-85985695D01*
X148743803Y-85985698D01*
X148743802Y-85985700D01*
X148698246Y-86050761D01*
X148612476Y-86173252D01*
X148612475Y-86173254D01*
X148515718Y-86380750D01*
X148515714Y-86380761D01*
X148456457Y-86601910D01*
X148456456Y-86601918D01*
X148436502Y-86829998D01*
X145298625Y-86829998D01*
X145293543Y-86771913D01*
X145234284Y-86550757D01*
X145137523Y-86343251D01*
X145006198Y-86155700D01*
X144844300Y-85993802D01*
X144656749Y-85862477D01*
X144656745Y-85862475D01*
X144449249Y-85765718D01*
X144449238Y-85765714D01*
X144228089Y-85706457D01*
X144228081Y-85706456D01*
X144000002Y-85686502D01*
X143999998Y-85686502D01*
X143771918Y-85706456D01*
X143771910Y-85706457D01*
X143550761Y-85765714D01*
X143550750Y-85765718D01*
X143343254Y-85862475D01*
X143343252Y-85862476D01*
X143343251Y-85862477D01*
X143155700Y-85993802D01*
X143155698Y-85993803D01*
X143155695Y-85993806D01*
X142993806Y-86155695D01*
X142993803Y-86155698D01*
X142993802Y-86155700D01*
X142953300Y-86213543D01*
X142862476Y-86343252D01*
X142862475Y-86343254D01*
X142765718Y-86550750D01*
X142765714Y-86550761D01*
X142706457Y-86771910D01*
X142706456Y-86771918D01*
X142686502Y-86999998D01*
X140313498Y-86999998D01*
X140293543Y-86771913D01*
X140234284Y-86550757D01*
X140137523Y-86343251D01*
X140006198Y-86155700D01*
X139844300Y-85993802D01*
X139656749Y-85862477D01*
X139656745Y-85862475D01*
X139449249Y-85765718D01*
X139449238Y-85765714D01*
X139228089Y-85706457D01*
X139228081Y-85706456D01*
X139000002Y-85686502D01*
X138999998Y-85686502D01*
X138771918Y-85706456D01*
X138771910Y-85706457D01*
X138550761Y-85765714D01*
X138550750Y-85765718D01*
X138343254Y-85862475D01*
X138343252Y-85862476D01*
X138343251Y-85862477D01*
X138155700Y-85993802D01*
X138155698Y-85993803D01*
X138155695Y-85993806D01*
X137993806Y-86155695D01*
X137993803Y-86155698D01*
X137993802Y-86155700D01*
X137953300Y-86213543D01*
X137862476Y-86343252D01*
X137862475Y-86343254D01*
X137765718Y-86550750D01*
X137765714Y-86550761D01*
X137706457Y-86771910D01*
X137706456Y-86771918D01*
X137686502Y-86999998D01*
X132710617Y-86999998D01*
X132734284Y-86949243D01*
X132793543Y-86728087D01*
X132813498Y-86500000D01*
X132793543Y-86271913D01*
X132734284Y-86050757D01*
X132707727Y-85993806D01*
X132691500Y-85959005D01*
X132637523Y-85843251D01*
X132506198Y-85655700D01*
X132344300Y-85493802D01*
X132156749Y-85362477D01*
X132156745Y-85362475D01*
X131949249Y-85265718D01*
X131949238Y-85265714D01*
X131728089Y-85206457D01*
X131728081Y-85206456D01*
X131500002Y-85186502D01*
X131499998Y-85186502D01*
X131271918Y-85206456D01*
X131271910Y-85206457D01*
X131050761Y-85265714D01*
X131050750Y-85265718D01*
X130843254Y-85362475D01*
X130843252Y-85362476D01*
X130749475Y-85428139D01*
X130709036Y-85456456D01*
X130655699Y-85493803D01*
X130508162Y-85641340D01*
X130446839Y-85674824D01*
X130377147Y-85669840D01*
X130321214Y-85627968D01*
X130304300Y-85596993D01*
X130265811Y-85493803D01*
X130250889Y-85453796D01*
X130163261Y-85336739D01*
X130046204Y-85249111D01*
X129909203Y-85198011D01*
X129848654Y-85191500D01*
X129848638Y-85191500D01*
X128151362Y-85191500D01*
X128151345Y-85191500D01*
X128090797Y-85198011D01*
X128090795Y-85198011D01*
X127953795Y-85249111D01*
X127836739Y-85336739D01*
X127749111Y-85453795D01*
X127698011Y-85590795D01*
X127698011Y-85590797D01*
X127691500Y-85651345D01*
X122712258Y-85651345D01*
X122656749Y-85612477D01*
X122656745Y-85612475D01*
X122449249Y-85515718D01*
X122449238Y-85515714D01*
X122228089Y-85456457D01*
X122228081Y-85456456D01*
X122000002Y-85436502D01*
X121999998Y-85436502D01*
X121771918Y-85456456D01*
X121771910Y-85456457D01*
X121550761Y-85515714D01*
X121550750Y-85515718D01*
X121343254Y-85612475D01*
X121343252Y-85612476D01*
X121302030Y-85641340D01*
X121155700Y-85743802D01*
X121155698Y-85743803D01*
X121155695Y-85743806D01*
X120993806Y-85905695D01*
X120993803Y-85905698D01*
X120993802Y-85905700D01*
X120937789Y-85985695D01*
X120862476Y-86093252D01*
X120862475Y-86093254D01*
X120765718Y-86300750D01*
X120765714Y-86300761D01*
X120706457Y-86521910D01*
X120706456Y-86521918D01*
X120686502Y-86749998D01*
X118313498Y-86749998D01*
X118293543Y-86521913D01*
X118234284Y-86300757D01*
X118137523Y-86093251D01*
X118006198Y-85905700D01*
X117844300Y-85743802D01*
X117656749Y-85612477D01*
X117656745Y-85612475D01*
X117449249Y-85515718D01*
X117449238Y-85515714D01*
X117228089Y-85456457D01*
X117228081Y-85456456D01*
X117000002Y-85436502D01*
X116999998Y-85436502D01*
X116771918Y-85456456D01*
X116771910Y-85456457D01*
X116550761Y-85515714D01*
X116550750Y-85515718D01*
X116343254Y-85612475D01*
X116343252Y-85612476D01*
X116302030Y-85641340D01*
X116155700Y-85743802D01*
X116155698Y-85743803D01*
X116155695Y-85743806D01*
X115993806Y-85905695D01*
X115993803Y-85905698D01*
X115993802Y-85905700D01*
X115937789Y-85985695D01*
X115862476Y-86093252D01*
X115862475Y-86093254D01*
X115765718Y-86300750D01*
X115765714Y-86300761D01*
X115706457Y-86521910D01*
X115706456Y-86521918D01*
X115686502Y-86749998D01*
X100075500Y-86749998D01*
X100075500Y-84919998D01*
X102436502Y-84919998D01*
X102436502Y-84920001D01*
X102456456Y-85148081D01*
X102456457Y-85148089D01*
X102515714Y-85369238D01*
X102515718Y-85369249D01*
X102612475Y-85576745D01*
X102612477Y-85576749D01*
X102743802Y-85764300D01*
X102905700Y-85926198D01*
X103093251Y-86057523D01*
X103169873Y-86093252D01*
X103300750Y-86154281D01*
X103300752Y-86154281D01*
X103300757Y-86154284D01*
X103521913Y-86213543D01*
X103684832Y-86227796D01*
X103749998Y-86233498D01*
X103750000Y-86233498D01*
X103750002Y-86233498D01*
X103807021Y-86228509D01*
X103978087Y-86213543D01*
X104199243Y-86154284D01*
X104406749Y-86057523D01*
X104594300Y-85926198D01*
X104756198Y-85764300D01*
X104887523Y-85576749D01*
X104984284Y-85369243D01*
X105043543Y-85148087D01*
X105063498Y-84920000D01*
X105043543Y-84691913D01*
X104984284Y-84470757D01*
X104887523Y-84263251D01*
X104756198Y-84075700D01*
X104594300Y-83913802D01*
X104406749Y-83782477D01*
X104406745Y-83782475D01*
X104199249Y-83685718D01*
X104199238Y-83685714D01*
X103978089Y-83626457D01*
X103978081Y-83626456D01*
X103750002Y-83606502D01*
X103749998Y-83606502D01*
X103521918Y-83626456D01*
X103521910Y-83626457D01*
X103300761Y-83685714D01*
X103300750Y-83685718D01*
X103093254Y-83782475D01*
X103093252Y-83782476D01*
X103093251Y-83782477D01*
X102905700Y-83913802D01*
X102905698Y-83913803D01*
X102905695Y-83913806D01*
X102743806Y-84075695D01*
X102612476Y-84263252D01*
X102612475Y-84263254D01*
X102515718Y-84470750D01*
X102515714Y-84470761D01*
X102456457Y-84691910D01*
X102456456Y-84691918D01*
X102436502Y-84919998D01*
X100075500Y-84919998D01*
X100075500Y-77699998D01*
X102661502Y-77699998D01*
X102661502Y-77700001D01*
X102681456Y-77928081D01*
X102681457Y-77928089D01*
X102740714Y-78149238D01*
X102740718Y-78149249D01*
X102796485Y-78268841D01*
X102837477Y-78356749D01*
X102968802Y-78544300D01*
X102968806Y-78544304D01*
X103116339Y-78691837D01*
X103149824Y-78753160D01*
X103144840Y-78822852D01*
X103102968Y-78878785D01*
X103071993Y-78895699D01*
X102928795Y-78949111D01*
X102811739Y-79036739D01*
X102724111Y-79153795D01*
X102673011Y-79290795D01*
X102673011Y-79290797D01*
X102666500Y-79351345D01*
X102666500Y-81048654D01*
X102673011Y-81109202D01*
X102673011Y-81109204D01*
X102713413Y-81217523D01*
X102724111Y-81246204D01*
X102811739Y-81363261D01*
X102928796Y-81450889D01*
X103065799Y-81501989D01*
X103093050Y-81504918D01*
X103126345Y-81508499D01*
X103126362Y-81508500D01*
X104823638Y-81508500D01*
X104823654Y-81508499D01*
X104850692Y-81505591D01*
X104884201Y-81501989D01*
X105021204Y-81450889D01*
X105138261Y-81363261D01*
X105163161Y-81329998D01*
X108936502Y-81329998D01*
X108936502Y-81330001D01*
X108956456Y-81558081D01*
X108956457Y-81558089D01*
X109015714Y-81779238D01*
X109015718Y-81779249D01*
X109112475Y-81986745D01*
X109112477Y-81986749D01*
X109243802Y-82174300D01*
X109405700Y-82336198D01*
X109593251Y-82467523D01*
X109718091Y-82525736D01*
X109800750Y-82564281D01*
X109800752Y-82564281D01*
X109800757Y-82564284D01*
X110021913Y-82623543D01*
X110184832Y-82637796D01*
X110249998Y-82643498D01*
X110250000Y-82643498D01*
X110250002Y-82643498D01*
X110307021Y-82638509D01*
X110478087Y-82623543D01*
X110699243Y-82564284D01*
X110906749Y-82467523D01*
X111094300Y-82336198D01*
X111256198Y-82174300D01*
X111387523Y-81986749D01*
X111484284Y-81779243D01*
X111543543Y-81558087D01*
X111563498Y-81330000D01*
X111543543Y-81101913D01*
X111484284Y-80880757D01*
X111387523Y-80673251D01*
X111256198Y-80485700D01*
X111094300Y-80323802D01*
X110906749Y-80192477D01*
X110906745Y-80192475D01*
X110699249Y-80095718D01*
X110699238Y-80095714D01*
X110478089Y-80036457D01*
X110478081Y-80036456D01*
X110250002Y-80016502D01*
X110249998Y-80016502D01*
X110021918Y-80036456D01*
X110021910Y-80036457D01*
X109800761Y-80095714D01*
X109800750Y-80095718D01*
X109593254Y-80192475D01*
X109593252Y-80192476D01*
X109569365Y-80209202D01*
X109405700Y-80323802D01*
X109405698Y-80323803D01*
X109405695Y-80323806D01*
X109243806Y-80485695D01*
X109243803Y-80485698D01*
X109243802Y-80485700D01*
X109213313Y-80529243D01*
X109112476Y-80673252D01*
X109112475Y-80673254D01*
X109015718Y-80880750D01*
X109015714Y-80880761D01*
X108956457Y-81101910D01*
X108956456Y-81101918D01*
X108936502Y-81329998D01*
X105163161Y-81329998D01*
X105225889Y-81246204D01*
X105276989Y-81109201D01*
X105280591Y-81075692D01*
X105283499Y-81048654D01*
X105283500Y-81048637D01*
X105283500Y-79351362D01*
X105283499Y-79351345D01*
X105279656Y-79315606D01*
X105276989Y-79290799D01*
X105225889Y-79153796D01*
X105138261Y-79036739D01*
X105021204Y-78949111D01*
X105003418Y-78942477D01*
X104878006Y-78895699D01*
X104822073Y-78853827D01*
X104809456Y-78819998D01*
X114866502Y-78819998D01*
X114866502Y-78820001D01*
X114886456Y-79048081D01*
X114886457Y-79048089D01*
X114945714Y-79269238D01*
X114945718Y-79269249D01*
X115017531Y-79423252D01*
X115042477Y-79476749D01*
X115173802Y-79664300D01*
X115335700Y-79826198D01*
X115523251Y-79957523D01*
X115648091Y-80015736D01*
X115730750Y-80054281D01*
X115730752Y-80054281D01*
X115730757Y-80054284D01*
X115951913Y-80113543D01*
X116114832Y-80127796D01*
X116179998Y-80133498D01*
X116180000Y-80133498D01*
X116180002Y-80133498D01*
X116237021Y-80128509D01*
X116408087Y-80113543D01*
X116629243Y-80054284D01*
X116836749Y-79957523D01*
X117024300Y-79826198D01*
X117186198Y-79664300D01*
X117317523Y-79476749D01*
X117337618Y-79433655D01*
X117383790Y-79381215D01*
X117450983Y-79362063D01*
X117517864Y-79382278D01*
X117562382Y-79433655D01*
X117582477Y-79476749D01*
X117713802Y-79664300D01*
X117875700Y-79826198D01*
X118063251Y-79957523D01*
X118188091Y-80015736D01*
X118270750Y-80054281D01*
X118270752Y-80054281D01*
X118270757Y-80054284D01*
X118491913Y-80113543D01*
X118654832Y-80127796D01*
X118719998Y-80133498D01*
X118720000Y-80133498D01*
X118720002Y-80133498D01*
X118777021Y-80128509D01*
X118948087Y-80113543D01*
X119169243Y-80054284D01*
X119376749Y-79957523D01*
X119564300Y-79826198D01*
X119726198Y-79664300D01*
X119857523Y-79476749D01*
X119882307Y-79423598D01*
X119928479Y-79371159D01*
X119995672Y-79352007D01*
X120062553Y-79372222D01*
X120107071Y-79423599D01*
X120129864Y-79472479D01*
X120129865Y-79472481D01*
X120260342Y-79658820D01*
X120421179Y-79819657D01*
X120607517Y-79950134D01*
X120813673Y-80046265D01*
X120813682Y-80046269D01*
X121009999Y-80098872D01*
X121010000Y-80098871D01*
X121010000Y-79135686D01*
X121014394Y-79140080D01*
X121105606Y-79192741D01*
X121207339Y-79220000D01*
X121312661Y-79220000D01*
X121414394Y-79192741D01*
X121505606Y-79140080D01*
X121510000Y-79135686D01*
X121510000Y-80098872D01*
X121706317Y-80046269D01*
X121706326Y-80046265D01*
X121912482Y-79950134D01*
X122098820Y-79819657D01*
X122259657Y-79658820D01*
X122390133Y-79472483D01*
X122412927Y-79423600D01*
X122459098Y-79371160D01*
X122526292Y-79352007D01*
X122593173Y-79372221D01*
X122637691Y-79423596D01*
X122662477Y-79476749D01*
X122793802Y-79664300D01*
X122955700Y-79826198D01*
X123143251Y-79957523D01*
X123268091Y-80015736D01*
X123350750Y-80054281D01*
X123350752Y-80054281D01*
X123350757Y-80054284D01*
X123571913Y-80113543D01*
X123734832Y-80127796D01*
X123799998Y-80133498D01*
X123800000Y-80133498D01*
X123800002Y-80133498D01*
X123857021Y-80128509D01*
X124028087Y-80113543D01*
X124153278Y-80079998D01*
X129686502Y-80079998D01*
X129686502Y-80080001D01*
X129706456Y-80308081D01*
X129706457Y-80308089D01*
X129765714Y-80529238D01*
X129765718Y-80529249D01*
X129832868Y-80673252D01*
X129862477Y-80736749D01*
X129993802Y-80924300D01*
X130155700Y-81086198D01*
X130343251Y-81217523D01*
X130404758Y-81246204D01*
X130550750Y-81314281D01*
X130550752Y-81314281D01*
X130550757Y-81314284D01*
X130771913Y-81373543D01*
X130934832Y-81387796D01*
X130999998Y-81393498D01*
X131000000Y-81393498D01*
X131000002Y-81393498D01*
X131057021Y-81388509D01*
X131228087Y-81373543D01*
X131449243Y-81314284D01*
X131656749Y-81217523D01*
X131844300Y-81086198D01*
X132006198Y-80924300D01*
X132137523Y-80736749D01*
X132234284Y-80529243D01*
X132293543Y-80308087D01*
X132313498Y-80080000D01*
X132313165Y-80076198D01*
X132299001Y-79914300D01*
X132293543Y-79851913D01*
X132234284Y-79630757D01*
X132229808Y-79621159D01*
X132182287Y-79519249D01*
X132137523Y-79423251D01*
X132006198Y-79235700D01*
X131844300Y-79073802D01*
X131838867Y-79069998D01*
X135366502Y-79069998D01*
X135366502Y-79070001D01*
X135386456Y-79298081D01*
X135386457Y-79298089D01*
X135445714Y-79519238D01*
X135445718Y-79519249D01*
X135517692Y-79673597D01*
X135542477Y-79726749D01*
X135673802Y-79914300D01*
X135835700Y-80076198D01*
X136023251Y-80207523D01*
X136148091Y-80265736D01*
X136230750Y-80304281D01*
X136230752Y-80304281D01*
X136230757Y-80304284D01*
X136451913Y-80363543D01*
X136614832Y-80377796D01*
X136679998Y-80383498D01*
X136680000Y-80383498D01*
X136680002Y-80383498D01*
X136737021Y-80378509D01*
X136908087Y-80363543D01*
X137129243Y-80304284D01*
X137336749Y-80207523D01*
X137524300Y-80076198D01*
X137686198Y-79914300D01*
X137817523Y-79726749D01*
X137837618Y-79683655D01*
X137883790Y-79631215D01*
X137950983Y-79612063D01*
X138017864Y-79632278D01*
X138062382Y-79683655D01*
X138082477Y-79726749D01*
X138213802Y-79914300D01*
X138375700Y-80076198D01*
X138563251Y-80207523D01*
X138688091Y-80265736D01*
X138770750Y-80304281D01*
X138770752Y-80304281D01*
X138770757Y-80304284D01*
X138991913Y-80363543D01*
X139154832Y-80377796D01*
X139219998Y-80383498D01*
X139220000Y-80383498D01*
X139220002Y-80383498D01*
X139277021Y-80378509D01*
X139448087Y-80363543D01*
X139669243Y-80304284D01*
X139876749Y-80207523D01*
X140064300Y-80076198D01*
X140226198Y-79914300D01*
X140357523Y-79726749D01*
X140382307Y-79673598D01*
X140428479Y-79621159D01*
X140495672Y-79602007D01*
X140562553Y-79622222D01*
X140607071Y-79673599D01*
X140629864Y-79722479D01*
X140629865Y-79722481D01*
X140760342Y-79908820D01*
X140921179Y-80069657D01*
X141107517Y-80200134D01*
X141313673Y-80296265D01*
X141313682Y-80296269D01*
X141509999Y-80348872D01*
X141510000Y-80348871D01*
X141510000Y-79385686D01*
X141514394Y-79390080D01*
X141605606Y-79442741D01*
X141707339Y-79470000D01*
X141812661Y-79470000D01*
X141914394Y-79442741D01*
X142005606Y-79390080D01*
X142010000Y-79385686D01*
X142010000Y-80348872D01*
X142206317Y-80296269D01*
X142206326Y-80296265D01*
X142412482Y-80200134D01*
X142598820Y-80069657D01*
X142759657Y-79908820D01*
X142890133Y-79722483D01*
X142912927Y-79673600D01*
X142959098Y-79621160D01*
X143026292Y-79602007D01*
X143093173Y-79622221D01*
X143137691Y-79673596D01*
X143162477Y-79726749D01*
X143293802Y-79914300D01*
X143455700Y-80076198D01*
X143643251Y-80207523D01*
X143768091Y-80265736D01*
X143850750Y-80304281D01*
X143850752Y-80304281D01*
X143850757Y-80304284D01*
X144071913Y-80363543D01*
X144234832Y-80377796D01*
X144299998Y-80383498D01*
X144300000Y-80383498D01*
X144300002Y-80383498D01*
X144357021Y-80378509D01*
X144528087Y-80363543D01*
X144749243Y-80304284D01*
X144956749Y-80207523D01*
X145144300Y-80076198D01*
X145306198Y-79914300D01*
X145437523Y-79726749D01*
X145534284Y-79519243D01*
X145593543Y-79298087D01*
X145613498Y-79070000D01*
X145593543Y-78841913D01*
X145534284Y-78620757D01*
X145437523Y-78413251D01*
X145394176Y-78351345D01*
X163641500Y-78351345D01*
X163641500Y-80148654D01*
X163648011Y-80209202D01*
X163648011Y-80209204D01*
X163690755Y-80323802D01*
X163699111Y-80346204D01*
X163786739Y-80463261D01*
X163903796Y-80550889D01*
X164040799Y-80601989D01*
X164068050Y-80604918D01*
X164101345Y-80608499D01*
X164101362Y-80608500D01*
X165898638Y-80608500D01*
X165898654Y-80608499D01*
X165925692Y-80605591D01*
X165959201Y-80601989D01*
X166096204Y-80550889D01*
X166213261Y-80463261D01*
X166300889Y-80346204D01*
X166351989Y-80209201D01*
X166355591Y-80175692D01*
X166358499Y-80148654D01*
X166358500Y-80148637D01*
X166358500Y-78351362D01*
X166358499Y-78351345D01*
X166355157Y-78320270D01*
X166351989Y-78290799D01*
X166350942Y-78287992D01*
X166320489Y-78206345D01*
X166300889Y-78153796D01*
X166213261Y-78036739D01*
X166096204Y-77949111D01*
X166071415Y-77939865D01*
X165959203Y-77898011D01*
X165898654Y-77891500D01*
X165898638Y-77891500D01*
X164101362Y-77891500D01*
X164101345Y-77891500D01*
X164040797Y-77898011D01*
X164040795Y-77898011D01*
X163903795Y-77949111D01*
X163786739Y-78036739D01*
X163699111Y-78153795D01*
X163648011Y-78290795D01*
X163648011Y-78290797D01*
X163641500Y-78351345D01*
X145394176Y-78351345D01*
X145306198Y-78225700D01*
X145144300Y-78063802D01*
X144956749Y-77932477D01*
X144896289Y-77904284D01*
X144749249Y-77835718D01*
X144749238Y-77835714D01*
X144528089Y-77776457D01*
X144528081Y-77776456D01*
X144300002Y-77756502D01*
X144299998Y-77756502D01*
X144071918Y-77776456D01*
X144071910Y-77776457D01*
X143850761Y-77835714D01*
X143850750Y-77835718D01*
X143643254Y-77932475D01*
X143643252Y-77932476D01*
X143643251Y-77932477D01*
X143455700Y-78063802D01*
X143455698Y-78063803D01*
X143455695Y-78063806D01*
X143293806Y-78225695D01*
X143293803Y-78225698D01*
X143293802Y-78225700D01*
X143248219Y-78290799D01*
X143162476Y-78413252D01*
X143162474Y-78413256D01*
X143137691Y-78466402D01*
X143091518Y-78518841D01*
X143024324Y-78537992D01*
X142957444Y-78517775D01*
X142912927Y-78466399D01*
X142890133Y-78417517D01*
X142759657Y-78231179D01*
X142598820Y-78070342D01*
X142412482Y-77939865D01*
X142206328Y-77843734D01*
X142010000Y-77791127D01*
X142010000Y-78754314D01*
X142005606Y-78749920D01*
X141914394Y-78697259D01*
X141812661Y-78670000D01*
X141707339Y-78670000D01*
X141605606Y-78697259D01*
X141514394Y-78749920D01*
X141510000Y-78754314D01*
X141510000Y-77791127D01*
X141313671Y-77843734D01*
X141107517Y-77939865D01*
X140921179Y-78070342D01*
X140760342Y-78231179D01*
X140629865Y-78417517D01*
X140607071Y-78466401D01*
X140560898Y-78518840D01*
X140493705Y-78537992D01*
X140426824Y-78517776D01*
X140382307Y-78466401D01*
X140357523Y-78413251D01*
X140327763Y-78370750D01*
X140226198Y-78225700D01*
X140064300Y-78063802D01*
X139876749Y-77932477D01*
X139816289Y-77904284D01*
X139669249Y-77835718D01*
X139669238Y-77835714D01*
X139448089Y-77776457D01*
X139448081Y-77776456D01*
X139220002Y-77756502D01*
X139219998Y-77756502D01*
X138991918Y-77776456D01*
X138991910Y-77776457D01*
X138770761Y-77835714D01*
X138770750Y-77835718D01*
X138563254Y-77932475D01*
X138563252Y-77932476D01*
X138563251Y-77932477D01*
X138375700Y-78063802D01*
X138375698Y-78063803D01*
X138375695Y-78063806D01*
X138213806Y-78225695D01*
X138213803Y-78225698D01*
X138213802Y-78225700D01*
X138184341Y-78267775D01*
X138082476Y-78413251D01*
X138062382Y-78456345D01*
X138016209Y-78508784D01*
X137949016Y-78527936D01*
X137882135Y-78507720D01*
X137837618Y-78456345D01*
X137817523Y-78413251D01*
X137787763Y-78370750D01*
X137686198Y-78225700D01*
X137524300Y-78063802D01*
X137336749Y-77932477D01*
X137276289Y-77904284D01*
X137129249Y-77835718D01*
X137129238Y-77835714D01*
X136908089Y-77776457D01*
X136908081Y-77776456D01*
X136680002Y-77756502D01*
X136679998Y-77756502D01*
X136451918Y-77776456D01*
X136451910Y-77776457D01*
X136230761Y-77835714D01*
X136230750Y-77835718D01*
X136023254Y-77932475D01*
X136023252Y-77932476D01*
X136023251Y-77932477D01*
X135835700Y-78063802D01*
X135835698Y-78063803D01*
X135835695Y-78063806D01*
X135673806Y-78225695D01*
X135673803Y-78225698D01*
X135673802Y-78225700D01*
X135628219Y-78290799D01*
X135542476Y-78413252D01*
X135542475Y-78413254D01*
X135445718Y-78620750D01*
X135445714Y-78620761D01*
X135386457Y-78841910D01*
X135386456Y-78841918D01*
X135366502Y-79069998D01*
X131838867Y-79069998D01*
X131656749Y-78942477D01*
X131599124Y-78915606D01*
X131449249Y-78845718D01*
X131449238Y-78845714D01*
X131228089Y-78786457D01*
X131228081Y-78786456D01*
X131000002Y-78766502D01*
X130999998Y-78766502D01*
X130771918Y-78786456D01*
X130771910Y-78786457D01*
X130550761Y-78845714D01*
X130550750Y-78845718D01*
X130343254Y-78942475D01*
X130343252Y-78942476D01*
X130297669Y-78974394D01*
X130155700Y-79073802D01*
X130155698Y-79073803D01*
X130155695Y-79073806D01*
X129993806Y-79235695D01*
X129993803Y-79235698D01*
X129993802Y-79235700D01*
X129970315Y-79269243D01*
X129862476Y-79423252D01*
X129862475Y-79423254D01*
X129765718Y-79630750D01*
X129765714Y-79630761D01*
X129706457Y-79851910D01*
X129706456Y-79851918D01*
X129686502Y-80079998D01*
X124153278Y-80079998D01*
X124249243Y-80054284D01*
X124456749Y-79957523D01*
X124644300Y-79826198D01*
X124806198Y-79664300D01*
X124937523Y-79476749D01*
X125034284Y-79269243D01*
X125093543Y-79048087D01*
X125113114Y-78824394D01*
X125113498Y-78820001D01*
X125113498Y-78819998D01*
X125104757Y-78720090D01*
X125093543Y-78591913D01*
X125034284Y-78370757D01*
X124937523Y-78163251D01*
X124806198Y-77975700D01*
X124644300Y-77813802D01*
X124456749Y-77682477D01*
X124443273Y-77676193D01*
X124249249Y-77585718D01*
X124249238Y-77585714D01*
X124028089Y-77526457D01*
X124028081Y-77526456D01*
X123800002Y-77506502D01*
X123799998Y-77506502D01*
X123571918Y-77526456D01*
X123571910Y-77526457D01*
X123350761Y-77585714D01*
X123350750Y-77585718D01*
X123143254Y-77682475D01*
X123143252Y-77682476D01*
X123118224Y-77700001D01*
X122955700Y-77813802D01*
X122955698Y-77813803D01*
X122955695Y-77813806D01*
X122793806Y-77975695D01*
X122662476Y-78163252D01*
X122662474Y-78163256D01*
X122637691Y-78216402D01*
X122591518Y-78268841D01*
X122524324Y-78287992D01*
X122457444Y-78267775D01*
X122412927Y-78216399D01*
X122390133Y-78167517D01*
X122259657Y-77981179D01*
X122098820Y-77820342D01*
X121912482Y-77689865D01*
X121706328Y-77593734D01*
X121510000Y-77541127D01*
X121510000Y-78504314D01*
X121505606Y-78499920D01*
X121414394Y-78447259D01*
X121312661Y-78420000D01*
X121207339Y-78420000D01*
X121105606Y-78447259D01*
X121014394Y-78499920D01*
X121010000Y-78504314D01*
X121010000Y-77541127D01*
X120813671Y-77593734D01*
X120607517Y-77689865D01*
X120421179Y-77820342D01*
X120260342Y-77981179D01*
X120129865Y-78167517D01*
X120107071Y-78216401D01*
X120060898Y-78268840D01*
X119993705Y-78287992D01*
X119926824Y-78267776D01*
X119882307Y-78216401D01*
X119857523Y-78163251D01*
X119851242Y-78154281D01*
X119726198Y-77975700D01*
X119564300Y-77813802D01*
X119376749Y-77682477D01*
X119363273Y-77676193D01*
X119169249Y-77585718D01*
X119169238Y-77585714D01*
X118948089Y-77526457D01*
X118948081Y-77526456D01*
X118720002Y-77506502D01*
X118719998Y-77506502D01*
X118491918Y-77526456D01*
X118491910Y-77526457D01*
X118270761Y-77585714D01*
X118270750Y-77585718D01*
X118063254Y-77682475D01*
X118063252Y-77682476D01*
X118038224Y-77700001D01*
X117875700Y-77813802D01*
X117875698Y-77813803D01*
X117875695Y-77813806D01*
X117713806Y-77975695D01*
X117582476Y-78163251D01*
X117562382Y-78206345D01*
X117516209Y-78258784D01*
X117449016Y-78277936D01*
X117382135Y-78257720D01*
X117337618Y-78206345D01*
X117317523Y-78163251D01*
X117311242Y-78154281D01*
X117186198Y-77975700D01*
X117024300Y-77813802D01*
X116836749Y-77682477D01*
X116823273Y-77676193D01*
X116629249Y-77585718D01*
X116629238Y-77585714D01*
X116408089Y-77526457D01*
X116408081Y-77526456D01*
X116180002Y-77506502D01*
X116179998Y-77506502D01*
X115951918Y-77526456D01*
X115951910Y-77526457D01*
X115730761Y-77585714D01*
X115730750Y-77585718D01*
X115523254Y-77682475D01*
X115523252Y-77682476D01*
X115498224Y-77700001D01*
X115335700Y-77813802D01*
X115335698Y-77813803D01*
X115335695Y-77813806D01*
X115173806Y-77975695D01*
X115042476Y-78163252D01*
X115042475Y-78163254D01*
X114945718Y-78370750D01*
X114945714Y-78370761D01*
X114886457Y-78591910D01*
X114886456Y-78591918D01*
X114866502Y-78819998D01*
X104809456Y-78819998D01*
X104797657Y-78788362D01*
X104812510Y-78720090D01*
X104833654Y-78691843D01*
X104981198Y-78544300D01*
X105112523Y-78356749D01*
X105209284Y-78149243D01*
X105268543Y-77928087D01*
X105288498Y-77700000D01*
X105268543Y-77471913D01*
X105209284Y-77250757D01*
X105112523Y-77043251D01*
X104981198Y-76855700D01*
X104819300Y-76693802D01*
X104785304Y-76669998D01*
X148436502Y-76669998D01*
X148436502Y-76670001D01*
X148456456Y-76898081D01*
X148456457Y-76898089D01*
X148515714Y-77119238D01*
X148515718Y-77119249D01*
X148577043Y-77250761D01*
X148612477Y-77326749D01*
X148743802Y-77514300D01*
X148905700Y-77676198D01*
X149093251Y-77807523D01*
X149218091Y-77865736D01*
X149300750Y-77904281D01*
X149300752Y-77904281D01*
X149300757Y-77904284D01*
X149521913Y-77963543D01*
X149684832Y-77977796D01*
X149749998Y-77983498D01*
X149750000Y-77983498D01*
X149750002Y-77983498D01*
X149807021Y-77978509D01*
X149978087Y-77963543D01*
X150199243Y-77904284D01*
X150406749Y-77807523D01*
X150594300Y-77676198D01*
X150756198Y-77514300D01*
X150887523Y-77326749D01*
X150984284Y-77119243D01*
X151037672Y-76919998D01*
X153186502Y-76919998D01*
X153186502Y-76920001D01*
X153206456Y-77148081D01*
X153206457Y-77148089D01*
X153265714Y-77369238D01*
X153265718Y-77369249D01*
X153345866Y-77541127D01*
X153362477Y-77576749D01*
X153493802Y-77764300D01*
X153655700Y-77926198D01*
X153843251Y-78057523D01*
X153870742Y-78070342D01*
X154050750Y-78154281D01*
X154050752Y-78154281D01*
X154050757Y-78154284D01*
X154271913Y-78213543D01*
X154434832Y-78227796D01*
X154499998Y-78233498D01*
X154500000Y-78233498D01*
X154500002Y-78233498D01*
X154557021Y-78228509D01*
X154728087Y-78213543D01*
X154949243Y-78154284D01*
X155156749Y-78057523D01*
X155344300Y-77926198D01*
X155506198Y-77764300D01*
X155637523Y-77576749D01*
X155734284Y-77369243D01*
X155793543Y-77148087D01*
X155813498Y-76920000D01*
X155793543Y-76691913D01*
X155734284Y-76470757D01*
X155731934Y-76465718D01*
X155637524Y-76263254D01*
X155637523Y-76263252D01*
X155637523Y-76263251D01*
X155506198Y-76075700D01*
X155344300Y-75913802D01*
X155156749Y-75782477D01*
X155156745Y-75782475D01*
X154949249Y-75685718D01*
X154949238Y-75685714D01*
X154728089Y-75626457D01*
X154728081Y-75626456D01*
X154500002Y-75606502D01*
X154499998Y-75606502D01*
X154271918Y-75626456D01*
X154271910Y-75626457D01*
X154050761Y-75685714D01*
X154050750Y-75685718D01*
X153843254Y-75782475D01*
X153843252Y-75782476D01*
X153843251Y-75782477D01*
X153655700Y-75913802D01*
X153655698Y-75913803D01*
X153655695Y-75913806D01*
X153493806Y-76075695D01*
X153362476Y-76263252D01*
X153362475Y-76263254D01*
X153265718Y-76470750D01*
X153265714Y-76470761D01*
X153206457Y-76691910D01*
X153206456Y-76691918D01*
X153186502Y-76919998D01*
X151037672Y-76919998D01*
X151043543Y-76898087D01*
X151063498Y-76670000D01*
X151043543Y-76441913D01*
X150984284Y-76220757D01*
X150887523Y-76013251D01*
X150756198Y-75825700D01*
X150594300Y-75663802D01*
X150406749Y-75532477D01*
X150406745Y-75532475D01*
X150199249Y-75435718D01*
X150199238Y-75435714D01*
X149978089Y-75376457D01*
X149978081Y-75376456D01*
X149750002Y-75356502D01*
X149749998Y-75356502D01*
X149521918Y-75376456D01*
X149521910Y-75376457D01*
X149300761Y-75435714D01*
X149300750Y-75435718D01*
X149093254Y-75532475D01*
X149093252Y-75532476D01*
X149093251Y-75532477D01*
X148905700Y-75663802D01*
X148905698Y-75663803D01*
X148905695Y-75663806D01*
X148743806Y-75825695D01*
X148612476Y-76013252D01*
X148612475Y-76013254D01*
X148515718Y-76220750D01*
X148515714Y-76220761D01*
X148456457Y-76441910D01*
X148456456Y-76441918D01*
X148436502Y-76669998D01*
X104785304Y-76669998D01*
X104631749Y-76562477D01*
X104631745Y-76562475D01*
X104424249Y-76465718D01*
X104424238Y-76465714D01*
X104203089Y-76406457D01*
X104203081Y-76406456D01*
X103975002Y-76386502D01*
X103974998Y-76386502D01*
X103746918Y-76406456D01*
X103746910Y-76406457D01*
X103525761Y-76465714D01*
X103525750Y-76465718D01*
X103318254Y-76562475D01*
X103318252Y-76562476D01*
X103318251Y-76562477D01*
X103130700Y-76693802D01*
X103130698Y-76693803D01*
X103130695Y-76693806D01*
X102968806Y-76855695D01*
X102968803Y-76855698D01*
X102968802Y-76855700D01*
X102939121Y-76898089D01*
X102837476Y-77043252D01*
X102837475Y-77043254D01*
X102740718Y-77250750D01*
X102740714Y-77250761D01*
X102681457Y-77471910D01*
X102681456Y-77471918D01*
X102661502Y-77699998D01*
X100075500Y-77699998D01*
X100075500Y-71101345D01*
X102641500Y-71101345D01*
X102641500Y-72898654D01*
X102648011Y-72959202D01*
X102648011Y-72959204D01*
X102699111Y-73096204D01*
X102786739Y-73213261D01*
X102903796Y-73300889D01*
X103040799Y-73351989D01*
X103068050Y-73354918D01*
X103101345Y-73358499D01*
X103101362Y-73358500D01*
X104898638Y-73358500D01*
X104898654Y-73358499D01*
X104925692Y-73355591D01*
X104959201Y-73351989D01*
X105096204Y-73300889D01*
X105213261Y-73213261D01*
X105300889Y-73096204D01*
X105351989Y-72959201D01*
X105355591Y-72925692D01*
X105358499Y-72898654D01*
X105358500Y-72898637D01*
X105358500Y-71169998D01*
X108936502Y-71169998D01*
X108936502Y-71170001D01*
X108956456Y-71398081D01*
X108956457Y-71398089D01*
X109015714Y-71619238D01*
X109015718Y-71619249D01*
X109081918Y-71761215D01*
X109112477Y-71826749D01*
X109243802Y-72014300D01*
X109405700Y-72176198D01*
X109593251Y-72307523D01*
X109642515Y-72330495D01*
X109800750Y-72404281D01*
X109800752Y-72404281D01*
X109800757Y-72404284D01*
X110021913Y-72463543D01*
X110184832Y-72477796D01*
X110249998Y-72483498D01*
X110250000Y-72483498D01*
X110250002Y-72483498D01*
X110307021Y-72478509D01*
X110478087Y-72463543D01*
X110699243Y-72404284D01*
X110906749Y-72307523D01*
X111094300Y-72176198D01*
X111256198Y-72014300D01*
X111387523Y-71826749D01*
X111484284Y-71619243D01*
X111543543Y-71398087D01*
X111560874Y-71199998D01*
X114866502Y-71199998D01*
X114866502Y-71200001D01*
X114886456Y-71428081D01*
X114886457Y-71428089D01*
X114945714Y-71649238D01*
X114945718Y-71649249D01*
X115000137Y-71765950D01*
X115042477Y-71856749D01*
X115173802Y-72044300D01*
X115335700Y-72206198D01*
X115523251Y-72337523D01*
X115578445Y-72363260D01*
X115730750Y-72434281D01*
X115730752Y-72434281D01*
X115730757Y-72434284D01*
X115951913Y-72493543D01*
X116114832Y-72507796D01*
X116179998Y-72513498D01*
X116180000Y-72513498D01*
X116180002Y-72513498D01*
X116237139Y-72508499D01*
X116408087Y-72493543D01*
X116629243Y-72434284D01*
X116836749Y-72337523D01*
X117024300Y-72206198D01*
X117186198Y-72044300D01*
X117317523Y-71856749D01*
X117337618Y-71813655D01*
X117383790Y-71761215D01*
X117450983Y-71742063D01*
X117517864Y-71762278D01*
X117562382Y-71813655D01*
X117582477Y-71856749D01*
X117713802Y-72044300D01*
X117875700Y-72206198D01*
X118063251Y-72337523D01*
X118118445Y-72363260D01*
X118270750Y-72434281D01*
X118270752Y-72434281D01*
X118270757Y-72434284D01*
X118491913Y-72493543D01*
X118654832Y-72507796D01*
X118719998Y-72513498D01*
X118720000Y-72513498D01*
X118720002Y-72513498D01*
X118777139Y-72508499D01*
X118948087Y-72493543D01*
X119169243Y-72434284D01*
X119376749Y-72337523D01*
X119564300Y-72206198D01*
X119726198Y-72044300D01*
X119857523Y-71856749D01*
X119877618Y-71813655D01*
X119923790Y-71761215D01*
X119990983Y-71742063D01*
X120057864Y-71762278D01*
X120102382Y-71813655D01*
X120122477Y-71856749D01*
X120253802Y-72044300D01*
X120415700Y-72206198D01*
X120603251Y-72337523D01*
X120658445Y-72363260D01*
X120810750Y-72434281D01*
X120810752Y-72434281D01*
X120810757Y-72434284D01*
X121031913Y-72493543D01*
X121194832Y-72507796D01*
X121259998Y-72513498D01*
X121260000Y-72513498D01*
X121260002Y-72513498D01*
X121317139Y-72508499D01*
X121488087Y-72493543D01*
X121709243Y-72434284D01*
X121916749Y-72337523D01*
X122104300Y-72206198D01*
X122266198Y-72044300D01*
X122271566Y-72036632D01*
X122326139Y-71993008D01*
X122395637Y-71985813D01*
X122457993Y-72017333D01*
X122493409Y-72077562D01*
X122496430Y-72094498D01*
X122498011Y-72109202D01*
X122498011Y-72109204D01*
X122534189Y-72206198D01*
X122549111Y-72246204D01*
X122636739Y-72363261D01*
X122753796Y-72450889D01*
X122890799Y-72501989D01*
X122918050Y-72504918D01*
X122951345Y-72508499D01*
X122951362Y-72508500D01*
X124648638Y-72508500D01*
X124648654Y-72508499D01*
X124675692Y-72505591D01*
X124709201Y-72501989D01*
X124846204Y-72450889D01*
X124963261Y-72363261D01*
X125050889Y-72246204D01*
X125101989Y-72109201D01*
X125106886Y-72063655D01*
X125108499Y-72048654D01*
X125108500Y-72048637D01*
X125108500Y-71449998D01*
X135366502Y-71449998D01*
X135366502Y-71450001D01*
X135386456Y-71678081D01*
X135386457Y-71678089D01*
X135445714Y-71899238D01*
X135445718Y-71899249D01*
X135515387Y-72048654D01*
X135542477Y-72106749D01*
X135673802Y-72294300D01*
X135835700Y-72456198D01*
X136023251Y-72587523D01*
X136148091Y-72645736D01*
X136230750Y-72684281D01*
X136230752Y-72684281D01*
X136230757Y-72684284D01*
X136451913Y-72743543D01*
X136614832Y-72757796D01*
X136679998Y-72763498D01*
X136680000Y-72763498D01*
X136680002Y-72763498D01*
X136737139Y-72758499D01*
X136908087Y-72743543D01*
X137129243Y-72684284D01*
X137336749Y-72587523D01*
X137524300Y-72456198D01*
X137686198Y-72294300D01*
X137817523Y-72106749D01*
X137837618Y-72063655D01*
X137883790Y-72011215D01*
X137950983Y-71992063D01*
X138017864Y-72012278D01*
X138062382Y-72063655D01*
X138082477Y-72106749D01*
X138213802Y-72294300D01*
X138375700Y-72456198D01*
X138563251Y-72587523D01*
X138688091Y-72645736D01*
X138770750Y-72684281D01*
X138770752Y-72684281D01*
X138770757Y-72684284D01*
X138991913Y-72743543D01*
X139154832Y-72757796D01*
X139219998Y-72763498D01*
X139220000Y-72763498D01*
X139220002Y-72763498D01*
X139277139Y-72758499D01*
X139448087Y-72743543D01*
X139669243Y-72684284D01*
X139876749Y-72587523D01*
X140064300Y-72456198D01*
X140226198Y-72294300D01*
X140357523Y-72106749D01*
X140377618Y-72063655D01*
X140423790Y-72011215D01*
X140490983Y-71992063D01*
X140557864Y-72012278D01*
X140602382Y-72063655D01*
X140622477Y-72106749D01*
X140753802Y-72294300D01*
X140915700Y-72456198D01*
X141103251Y-72587523D01*
X141228091Y-72645736D01*
X141310750Y-72684281D01*
X141310752Y-72684281D01*
X141310757Y-72684284D01*
X141531913Y-72743543D01*
X141694832Y-72757796D01*
X141759998Y-72763498D01*
X141760000Y-72763498D01*
X141760002Y-72763498D01*
X141817139Y-72758499D01*
X141988087Y-72743543D01*
X142209243Y-72684284D01*
X142416749Y-72587523D01*
X142604300Y-72456198D01*
X142766198Y-72294300D01*
X142771566Y-72286632D01*
X142826139Y-72243008D01*
X142895637Y-72235813D01*
X142957993Y-72267333D01*
X142993409Y-72327562D01*
X142996430Y-72344498D01*
X142998011Y-72359202D01*
X142998011Y-72359204D01*
X143036929Y-72463543D01*
X143049111Y-72496204D01*
X143136739Y-72613261D01*
X143253796Y-72700889D01*
X143390799Y-72751989D01*
X143418050Y-72754918D01*
X143451345Y-72758499D01*
X143451362Y-72758500D01*
X145148638Y-72758500D01*
X145148654Y-72758499D01*
X145175692Y-72755591D01*
X145209201Y-72751989D01*
X145346204Y-72700889D01*
X145463261Y-72613261D01*
X145550889Y-72496204D01*
X145601989Y-72359201D01*
X145607545Y-72307523D01*
X145608499Y-72298654D01*
X145608500Y-72298637D01*
X145608500Y-71249994D01*
X157586673Y-71249994D01*
X157586673Y-71250005D01*
X157605948Y-71482622D01*
X157663251Y-71708907D01*
X157757015Y-71922668D01*
X157884686Y-72118084D01*
X158040308Y-72287133D01*
X158042780Y-72289818D01*
X158226983Y-72433190D01*
X158226985Y-72433191D01*
X158226988Y-72433193D01*
X158319944Y-72483498D01*
X158432273Y-72544287D01*
X158546914Y-72583643D01*
X158653045Y-72620079D01*
X158653047Y-72620079D01*
X158653049Y-72620080D01*
X158883288Y-72658500D01*
X158883289Y-72658500D01*
X159116711Y-72658500D01*
X159116712Y-72658500D01*
X159346951Y-72620080D01*
X159567727Y-72544287D01*
X159773017Y-72433190D01*
X159957220Y-72289818D01*
X159957231Y-72289805D01*
X159960990Y-72286347D01*
X159961714Y-72287133D01*
X160017067Y-72253861D01*
X160086905Y-72255954D01*
X160144525Y-72295472D01*
X160164602Y-72330495D01*
X160189111Y-72396205D01*
X160217615Y-72434281D01*
X160276739Y-72513261D01*
X160393796Y-72600889D01*
X160530799Y-72651989D01*
X160558050Y-72654918D01*
X160591345Y-72658499D01*
X160591362Y-72658500D01*
X162488638Y-72658500D01*
X162488654Y-72658499D01*
X162515692Y-72655591D01*
X162549201Y-72651989D01*
X162686204Y-72600889D01*
X162803261Y-72513261D01*
X162890889Y-72396204D01*
X162941989Y-72259201D01*
X162945591Y-72225692D01*
X162948499Y-72198654D01*
X162948500Y-72198637D01*
X162948500Y-70301362D01*
X162948499Y-70301345D01*
X162942962Y-70249852D01*
X162941989Y-70240799D01*
X162936259Y-70225437D01*
X162909538Y-70153795D01*
X162890889Y-70103796D01*
X162803261Y-69986739D01*
X162686204Y-69899111D01*
X162683255Y-69898011D01*
X162549203Y-69848011D01*
X162488654Y-69841500D01*
X162488638Y-69841500D01*
X160591362Y-69841500D01*
X160591345Y-69841500D01*
X160530797Y-69848011D01*
X160530795Y-69848011D01*
X160393795Y-69899111D01*
X160276739Y-69986739D01*
X160189111Y-70103794D01*
X160164602Y-70169504D01*
X160122729Y-70225437D01*
X160057264Y-70249852D01*
X159988992Y-70234999D01*
X159961275Y-70213342D01*
X159960990Y-70213653D01*
X159957225Y-70210187D01*
X159957220Y-70210182D01*
X159773017Y-70066810D01*
X159773015Y-70066809D01*
X159773014Y-70066808D01*
X159773011Y-70066806D01*
X159567733Y-69955716D01*
X159567730Y-69955715D01*
X159567727Y-69955713D01*
X159567721Y-69955711D01*
X159567719Y-69955710D01*
X159346954Y-69879920D01*
X159155730Y-69848011D01*
X159116712Y-69841500D01*
X158883288Y-69841500D01*
X158844270Y-69848011D01*
X158653045Y-69879920D01*
X158432280Y-69955710D01*
X158432266Y-69955716D01*
X158226988Y-70066806D01*
X158226985Y-70066808D01*
X158042781Y-70210181D01*
X158042776Y-70210185D01*
X157884686Y-70381915D01*
X157757015Y-70577331D01*
X157663251Y-70791092D01*
X157605948Y-71017377D01*
X157586673Y-71249994D01*
X145608500Y-71249994D01*
X145608500Y-70601362D01*
X145608499Y-70601345D01*
X145605157Y-70570270D01*
X145601989Y-70540799D01*
X145591714Y-70513252D01*
X145565812Y-70443806D01*
X145550889Y-70403796D01*
X145463261Y-70286739D01*
X145346204Y-70199111D01*
X145331970Y-70193802D01*
X145209203Y-70148011D01*
X145148654Y-70141500D01*
X145148638Y-70141500D01*
X143451362Y-70141500D01*
X143451345Y-70141500D01*
X143390797Y-70148011D01*
X143390795Y-70148011D01*
X143253795Y-70199111D01*
X143136739Y-70286739D01*
X143049111Y-70403795D01*
X142998011Y-70540795D01*
X142998011Y-70540797D01*
X142996430Y-70555501D01*
X142969691Y-70620052D01*
X142912298Y-70659899D01*
X142842473Y-70662392D01*
X142782384Y-70626738D01*
X142771574Y-70613379D01*
X142766198Y-70605700D01*
X142604300Y-70443802D01*
X142416749Y-70312477D01*
X142392913Y-70301362D01*
X142209249Y-70215718D01*
X142209238Y-70215714D01*
X141988089Y-70156457D01*
X141988081Y-70156456D01*
X141760002Y-70136502D01*
X141759998Y-70136502D01*
X141531918Y-70156456D01*
X141531910Y-70156457D01*
X141310761Y-70215714D01*
X141310750Y-70215718D01*
X141103254Y-70312475D01*
X141103252Y-70312476D01*
X141047742Y-70351345D01*
X140915700Y-70443802D01*
X140915698Y-70443803D01*
X140915695Y-70443806D01*
X140753806Y-70605695D01*
X140753803Y-70605698D01*
X140753802Y-70605700D01*
X140717226Y-70657936D01*
X140622476Y-70793251D01*
X140602382Y-70836345D01*
X140556209Y-70888784D01*
X140489016Y-70907936D01*
X140422135Y-70887720D01*
X140377618Y-70836345D01*
X140357523Y-70793251D01*
X140323587Y-70744786D01*
X140226198Y-70605700D01*
X140064300Y-70443802D01*
X139876749Y-70312477D01*
X139852913Y-70301362D01*
X139669249Y-70215718D01*
X139669238Y-70215714D01*
X139448089Y-70156457D01*
X139448081Y-70156456D01*
X139220002Y-70136502D01*
X139219998Y-70136502D01*
X138991918Y-70156456D01*
X138991910Y-70156457D01*
X138770761Y-70215714D01*
X138770750Y-70215718D01*
X138563254Y-70312475D01*
X138563252Y-70312476D01*
X138507742Y-70351345D01*
X138375700Y-70443802D01*
X138375698Y-70443803D01*
X138375695Y-70443806D01*
X138213806Y-70605695D01*
X138213803Y-70605698D01*
X138213802Y-70605700D01*
X138177226Y-70657936D01*
X138082476Y-70793251D01*
X138062382Y-70836345D01*
X138016209Y-70888784D01*
X137949016Y-70907936D01*
X137882135Y-70887720D01*
X137837618Y-70836345D01*
X137817523Y-70793251D01*
X137783587Y-70744786D01*
X137686198Y-70605700D01*
X137524300Y-70443802D01*
X137336749Y-70312477D01*
X137312913Y-70301362D01*
X137129249Y-70215718D01*
X137129238Y-70215714D01*
X136908089Y-70156457D01*
X136908081Y-70156456D01*
X136680002Y-70136502D01*
X136679998Y-70136502D01*
X136451918Y-70156456D01*
X136451910Y-70156457D01*
X136230761Y-70215714D01*
X136230750Y-70215718D01*
X136023254Y-70312475D01*
X136023252Y-70312476D01*
X135967742Y-70351345D01*
X135835700Y-70443802D01*
X135835698Y-70443803D01*
X135835695Y-70443806D01*
X135673806Y-70605695D01*
X135673803Y-70605698D01*
X135673802Y-70605700D01*
X135634106Y-70662392D01*
X135542476Y-70793252D01*
X135542475Y-70793254D01*
X135445718Y-71000750D01*
X135445714Y-71000761D01*
X135386457Y-71221910D01*
X135386456Y-71221918D01*
X135366502Y-71449998D01*
X125108500Y-71449998D01*
X125108500Y-70351362D01*
X125108499Y-70351345D01*
X125105157Y-70320270D01*
X125101989Y-70290799D01*
X125086716Y-70249852D01*
X125065812Y-70193806D01*
X125050889Y-70153796D01*
X124963261Y-70036739D01*
X124846204Y-69949111D01*
X124768151Y-69919998D01*
X129686502Y-69919998D01*
X129686502Y-69920001D01*
X129706456Y-70148081D01*
X129706457Y-70148089D01*
X129765714Y-70369238D01*
X129765718Y-70369249D01*
X129846857Y-70543252D01*
X129862477Y-70576749D01*
X129993802Y-70764300D01*
X130155700Y-70926198D01*
X130343251Y-71057523D01*
X130437228Y-71101345D01*
X130550750Y-71154281D01*
X130550752Y-71154281D01*
X130550757Y-71154284D01*
X130771913Y-71213543D01*
X130934832Y-71227796D01*
X130999998Y-71233498D01*
X131000000Y-71233498D01*
X131000002Y-71233498D01*
X131057021Y-71228509D01*
X131228087Y-71213543D01*
X131449243Y-71154284D01*
X131656749Y-71057523D01*
X131844300Y-70926198D01*
X132006198Y-70764300D01*
X132137523Y-70576749D01*
X132234284Y-70369243D01*
X132293543Y-70148087D01*
X132313498Y-69920000D01*
X132311670Y-69899111D01*
X132293543Y-69691918D01*
X132293543Y-69691913D01*
X132234284Y-69470757D01*
X132137523Y-69263251D01*
X132006198Y-69075700D01*
X131844300Y-68913802D01*
X131656749Y-68782477D01*
X131656745Y-68782475D01*
X131449249Y-68685718D01*
X131449238Y-68685714D01*
X131228089Y-68626457D01*
X131228081Y-68626456D01*
X131000002Y-68606502D01*
X130999998Y-68606502D01*
X130771918Y-68626456D01*
X130771910Y-68626457D01*
X130550761Y-68685714D01*
X130550750Y-68685718D01*
X130343254Y-68782475D01*
X130343252Y-68782476D01*
X130343251Y-68782477D01*
X130155700Y-68913802D01*
X130155698Y-68913803D01*
X130155695Y-68913806D01*
X129993806Y-69075695D01*
X129862476Y-69263252D01*
X129862475Y-69263254D01*
X129765718Y-69470750D01*
X129765714Y-69470761D01*
X129706457Y-69691910D01*
X129706456Y-69691918D01*
X129686502Y-69919998D01*
X124768151Y-69919998D01*
X124709203Y-69898011D01*
X124648654Y-69891500D01*
X124648638Y-69891500D01*
X122951362Y-69891500D01*
X122951345Y-69891500D01*
X122890797Y-69898011D01*
X122890795Y-69898011D01*
X122753795Y-69949111D01*
X122636739Y-70036739D01*
X122549111Y-70153795D01*
X122498011Y-70290795D01*
X122498011Y-70290797D01*
X122496430Y-70305501D01*
X122469691Y-70370052D01*
X122412298Y-70409899D01*
X122342473Y-70412392D01*
X122282384Y-70376738D01*
X122271574Y-70363379D01*
X122266198Y-70355700D01*
X122104300Y-70193802D01*
X121916749Y-70062477D01*
X121916745Y-70062475D01*
X121709249Y-69965718D01*
X121709238Y-69965714D01*
X121488089Y-69906457D01*
X121488081Y-69906456D01*
X121260002Y-69886502D01*
X121259998Y-69886502D01*
X121031918Y-69906456D01*
X121031910Y-69906457D01*
X120810761Y-69965714D01*
X120810750Y-69965718D01*
X120603254Y-70062475D01*
X120603252Y-70062476D01*
X120532856Y-70111767D01*
X120415700Y-70193802D01*
X120415698Y-70193803D01*
X120415695Y-70193806D01*
X120253806Y-70355695D01*
X120253803Y-70355698D01*
X120253802Y-70355700D01*
X120220125Y-70403796D01*
X120122476Y-70543251D01*
X120102382Y-70586345D01*
X120056209Y-70638784D01*
X119989016Y-70657936D01*
X119922135Y-70637720D01*
X119877618Y-70586345D01*
X119857523Y-70543251D01*
X119836517Y-70513252D01*
X119726198Y-70355700D01*
X119564300Y-70193802D01*
X119376749Y-70062477D01*
X119376745Y-70062475D01*
X119169249Y-69965718D01*
X119169238Y-69965714D01*
X118948089Y-69906457D01*
X118948081Y-69906456D01*
X118720002Y-69886502D01*
X118719998Y-69886502D01*
X118491918Y-69906456D01*
X118491910Y-69906457D01*
X118270761Y-69965714D01*
X118270750Y-69965718D01*
X118063254Y-70062475D01*
X118063252Y-70062476D01*
X117992856Y-70111767D01*
X117875700Y-70193802D01*
X117875698Y-70193803D01*
X117875695Y-70193806D01*
X117713806Y-70355695D01*
X117713803Y-70355698D01*
X117713802Y-70355700D01*
X117680125Y-70403796D01*
X117582476Y-70543251D01*
X117562382Y-70586345D01*
X117516209Y-70638784D01*
X117449016Y-70657936D01*
X117382135Y-70637720D01*
X117337618Y-70586345D01*
X117317523Y-70543251D01*
X117296517Y-70513252D01*
X117186198Y-70355700D01*
X117024300Y-70193802D01*
X116836749Y-70062477D01*
X116836745Y-70062475D01*
X116629249Y-69965718D01*
X116629238Y-69965714D01*
X116408089Y-69906457D01*
X116408081Y-69906456D01*
X116180002Y-69886502D01*
X116179998Y-69886502D01*
X115951918Y-69906456D01*
X115951910Y-69906457D01*
X115730761Y-69965714D01*
X115730750Y-69965718D01*
X115523254Y-70062475D01*
X115523252Y-70062476D01*
X115452856Y-70111767D01*
X115335700Y-70193802D01*
X115335698Y-70193803D01*
X115335695Y-70193806D01*
X115173806Y-70355695D01*
X115173803Y-70355698D01*
X115173802Y-70355700D01*
X115134106Y-70412392D01*
X115042476Y-70543252D01*
X115042475Y-70543254D01*
X114945718Y-70750750D01*
X114945714Y-70750761D01*
X114886457Y-70971910D01*
X114886456Y-70971918D01*
X114866502Y-71199998D01*
X111560874Y-71199998D01*
X111563498Y-71170000D01*
X111543543Y-70941913D01*
X111484284Y-70720757D01*
X111474190Y-70699111D01*
X111445563Y-70637720D01*
X111387523Y-70513251D01*
X111256198Y-70325700D01*
X111094300Y-70163802D01*
X110906749Y-70032477D01*
X110906745Y-70032475D01*
X110699249Y-69935718D01*
X110699238Y-69935714D01*
X110478089Y-69876457D01*
X110478081Y-69876456D01*
X110250002Y-69856502D01*
X110249998Y-69856502D01*
X110021918Y-69876456D01*
X110021910Y-69876457D01*
X109800761Y-69935714D01*
X109800750Y-69935718D01*
X109593254Y-70032475D01*
X109593252Y-70032476D01*
X109522856Y-70081767D01*
X109405700Y-70163802D01*
X109405698Y-70163803D01*
X109405695Y-70163806D01*
X109243806Y-70325695D01*
X109243803Y-70325698D01*
X109243802Y-70325700D01*
X109161767Y-70442856D01*
X109112476Y-70513252D01*
X109112475Y-70513254D01*
X109015718Y-70720750D01*
X109015714Y-70720761D01*
X108956457Y-70941910D01*
X108956456Y-70941918D01*
X108936502Y-71169998D01*
X105358500Y-71169998D01*
X105358500Y-71101362D01*
X105358499Y-71101345D01*
X105353787Y-71057523D01*
X105351989Y-71040799D01*
X105337055Y-71000761D01*
X105315105Y-70941910D01*
X105300889Y-70903796D01*
X105213261Y-70786739D01*
X105096204Y-70699111D01*
X104959203Y-70648011D01*
X104898654Y-70641500D01*
X104898638Y-70641500D01*
X103101362Y-70641500D01*
X103101345Y-70641500D01*
X103040797Y-70648011D01*
X103040795Y-70648011D01*
X102903795Y-70699111D01*
X102786739Y-70786739D01*
X102699111Y-70903795D01*
X102648011Y-71040795D01*
X102648011Y-71040797D01*
X102641500Y-71101345D01*
X100075500Y-71101345D01*
X100075500Y-60974994D01*
X109286844Y-60974994D01*
X109286844Y-60975005D01*
X109305434Y-61199359D01*
X109305436Y-61199371D01*
X109360703Y-61417614D01*
X109451140Y-61623792D01*
X109574276Y-61812265D01*
X109574284Y-61812276D01*
X109726756Y-61977902D01*
X109726761Y-61977907D01*
X109743322Y-61990797D01*
X109904424Y-62116189D01*
X109904429Y-62116191D01*
X109904431Y-62116193D01*
X109940930Y-62135946D01*
X109990520Y-62185165D01*
X110005628Y-62253382D01*
X109981457Y-62318937D01*
X109940930Y-62354054D01*
X109904431Y-62373806D01*
X109904422Y-62373812D01*
X109726761Y-62512092D01*
X109726756Y-62512097D01*
X109574284Y-62677723D01*
X109574276Y-62677734D01*
X109451140Y-62866207D01*
X109360703Y-63072385D01*
X109305436Y-63290628D01*
X109305434Y-63290640D01*
X109286844Y-63514994D01*
X109286844Y-63515005D01*
X109305434Y-63739359D01*
X109305436Y-63739371D01*
X109360703Y-63957614D01*
X109451140Y-64163792D01*
X109574276Y-64352265D01*
X109574284Y-64352276D01*
X109670883Y-64457209D01*
X109701806Y-64519863D01*
X109693946Y-64589289D01*
X109649799Y-64643445D01*
X109622988Y-64657374D01*
X109557912Y-64681646D01*
X109557906Y-64681649D01*
X109442812Y-64767809D01*
X109442809Y-64767812D01*
X109356649Y-64882906D01*
X109356645Y-64882913D01*
X109306403Y-65017620D01*
X109306401Y-65017627D01*
X109300000Y-65077155D01*
X109300000Y-65725000D01*
X110216988Y-65725000D01*
X110184075Y-65782007D01*
X110150000Y-65909174D01*
X110150000Y-66040826D01*
X110184075Y-66167993D01*
X110216988Y-66225000D01*
X109300000Y-66225000D01*
X109300000Y-66872844D01*
X109306401Y-66932372D01*
X109306403Y-66932379D01*
X109356645Y-67067086D01*
X109356649Y-67067093D01*
X109442809Y-67182187D01*
X109442812Y-67182190D01*
X109557906Y-67268350D01*
X109557913Y-67268354D01*
X109692620Y-67318596D01*
X109692627Y-67318598D01*
X109752155Y-67324999D01*
X109752172Y-67325000D01*
X110400000Y-67325000D01*
X110400000Y-66408012D01*
X110457007Y-66440925D01*
X110584174Y-66475000D01*
X110715826Y-66475000D01*
X110842993Y-66440925D01*
X110900000Y-66408012D01*
X110900000Y-67325000D01*
X111547828Y-67325000D01*
X111547844Y-67324999D01*
X111607372Y-67318598D01*
X111607379Y-67318596D01*
X111742086Y-67268354D01*
X111742093Y-67268350D01*
X111857187Y-67182190D01*
X111857190Y-67182187D01*
X111943350Y-67067093D01*
X111943354Y-67067086D01*
X111993596Y-66932379D01*
X111993598Y-66932372D01*
X111999999Y-66872844D01*
X112000000Y-66872827D01*
X112000000Y-66579998D01*
X121936502Y-66579998D01*
X121936502Y-66580001D01*
X121956456Y-66808081D01*
X121956457Y-66808089D01*
X122015714Y-67029238D01*
X122015718Y-67029249D01*
X122087034Y-67182187D01*
X122112477Y-67236749D01*
X122243802Y-67424300D01*
X122405700Y-67586198D01*
X122593251Y-67717523D01*
X122718091Y-67775736D01*
X122800750Y-67814281D01*
X122800752Y-67814281D01*
X122800757Y-67814284D01*
X123021913Y-67873543D01*
X123184832Y-67887796D01*
X123249998Y-67893498D01*
X123250000Y-67893498D01*
X123250002Y-67893498D01*
X123307021Y-67888509D01*
X123478087Y-67873543D01*
X123699243Y-67814284D01*
X123906749Y-67717523D01*
X124094300Y-67586198D01*
X124256198Y-67424300D01*
X124387523Y-67236749D01*
X124484284Y-67029243D01*
X124537672Y-66829998D01*
X127686502Y-66829998D01*
X127686502Y-66830001D01*
X127706456Y-67058081D01*
X127706457Y-67058089D01*
X127765714Y-67279238D01*
X127765718Y-67279249D01*
X127862475Y-67486745D01*
X127862477Y-67486749D01*
X127993802Y-67674300D01*
X128155700Y-67836198D01*
X128343251Y-67967523D01*
X128468091Y-68025736D01*
X128550750Y-68064281D01*
X128550752Y-68064281D01*
X128550757Y-68064284D01*
X128771913Y-68123543D01*
X128934832Y-68137796D01*
X128999998Y-68143498D01*
X129000000Y-68143498D01*
X129000002Y-68143498D01*
X129057021Y-68138509D01*
X129228087Y-68123543D01*
X129449243Y-68064284D01*
X129656749Y-67967523D01*
X129844300Y-67836198D01*
X130006198Y-67674300D01*
X130137523Y-67486749D01*
X130234284Y-67279243D01*
X130293543Y-67058087D01*
X130313498Y-66830000D01*
X130293543Y-66601913D01*
X130234284Y-66380757D01*
X130223905Y-66358500D01*
X130137524Y-66173254D01*
X130137523Y-66173252D01*
X130137523Y-66173251D01*
X130006198Y-65985700D01*
X129844300Y-65823802D01*
X129656749Y-65692477D01*
X129604243Y-65667993D01*
X129449249Y-65595718D01*
X129449238Y-65595714D01*
X129228089Y-65536457D01*
X129228081Y-65536456D01*
X129000002Y-65516502D01*
X128999998Y-65516502D01*
X128771918Y-65536456D01*
X128771910Y-65536457D01*
X128550761Y-65595714D01*
X128550750Y-65595718D01*
X128343254Y-65692475D01*
X128343252Y-65692476D01*
X128343251Y-65692477D01*
X128155700Y-65823802D01*
X128155698Y-65823803D01*
X128155695Y-65823806D01*
X127993806Y-65985695D01*
X127993803Y-65985698D01*
X127993802Y-65985700D01*
X127940791Y-66061408D01*
X127862476Y-66173252D01*
X127862475Y-66173254D01*
X127765718Y-66380750D01*
X127765714Y-66380761D01*
X127706457Y-66601910D01*
X127706456Y-66601918D01*
X127686502Y-66829998D01*
X124537672Y-66829998D01*
X124543543Y-66808087D01*
X124563498Y-66580000D01*
X124543543Y-66351913D01*
X124484284Y-66130757D01*
X124387523Y-65923251D01*
X124256198Y-65735700D01*
X124094300Y-65573802D01*
X123906749Y-65442477D01*
X123906745Y-65442475D01*
X123699249Y-65345718D01*
X123699238Y-65345714D01*
X123478089Y-65286457D01*
X123478081Y-65286456D01*
X123250002Y-65266502D01*
X123249998Y-65266502D01*
X123021918Y-65286456D01*
X123021910Y-65286457D01*
X122800761Y-65345714D01*
X122800750Y-65345718D01*
X122593254Y-65442475D01*
X122593252Y-65442476D01*
X122546803Y-65475000D01*
X122405700Y-65573802D01*
X122405698Y-65573803D01*
X122405695Y-65573806D01*
X122243806Y-65735695D01*
X122243803Y-65735698D01*
X122243802Y-65735700D01*
X122182112Y-65823802D01*
X122112476Y-65923252D01*
X122112475Y-65923254D01*
X122015718Y-66130750D01*
X122015714Y-66130761D01*
X121956457Y-66351910D01*
X121956456Y-66351918D01*
X121936502Y-66579998D01*
X112000000Y-66579998D01*
X112000000Y-66225000D01*
X111083012Y-66225000D01*
X111115925Y-66167993D01*
X111150000Y-66040826D01*
X111150000Y-65909174D01*
X111115925Y-65782007D01*
X111083012Y-65725000D01*
X112000000Y-65725000D01*
X112000000Y-65249999D01*
X115359351Y-65249999D01*
X115359351Y-65250000D01*
X115378305Y-65454558D01*
X115378306Y-65454560D01*
X115434524Y-65652147D01*
X115434530Y-65652162D01*
X115526093Y-65836044D01*
X115526098Y-65836052D01*
X115649900Y-65999993D01*
X115755440Y-66096204D01*
X115801718Y-66138392D01*
X115976382Y-66246540D01*
X116167945Y-66320751D01*
X116369882Y-66358500D01*
X116369884Y-66358500D01*
X116575316Y-66358500D01*
X116575318Y-66358500D01*
X116777255Y-66320751D01*
X116968818Y-66246540D01*
X117143482Y-66138392D01*
X117227931Y-66061406D01*
X117290732Y-66030791D01*
X117360119Y-66038988D01*
X117414060Y-66083398D01*
X117420301Y-66093622D01*
X117421710Y-66096202D01*
X117421711Y-66096204D01*
X117509339Y-66213261D01*
X117626396Y-66300889D01*
X117679648Y-66320751D01*
X117763208Y-66351918D01*
X117763399Y-66351989D01*
X117790650Y-66354918D01*
X117823945Y-66358499D01*
X117823962Y-66358500D01*
X119121238Y-66358500D01*
X119121254Y-66358499D01*
X119148292Y-66355591D01*
X119181801Y-66351989D01*
X119181992Y-66351918D01*
X119196368Y-66346555D01*
X119318804Y-66300889D01*
X119435861Y-66213261D01*
X119523489Y-66096204D01*
X119574589Y-65959201D01*
X119578454Y-65923251D01*
X119581099Y-65898654D01*
X119581100Y-65898637D01*
X119581100Y-64601362D01*
X119581099Y-64601345D01*
X119575582Y-64550038D01*
X119574589Y-64540799D01*
X119566780Y-64519863D01*
X119526039Y-64410634D01*
X119523489Y-64403796D01*
X119435861Y-64286739D01*
X119318804Y-64199111D01*
X119276127Y-64183193D01*
X119181803Y-64148011D01*
X119121254Y-64141500D01*
X119121238Y-64141500D01*
X117823962Y-64141500D01*
X117823945Y-64141500D01*
X117763397Y-64148011D01*
X117763395Y-64148011D01*
X117626395Y-64199111D01*
X117509339Y-64286739D01*
X117421711Y-64403795D01*
X117420299Y-64406382D01*
X117418215Y-64408465D01*
X117416396Y-64410896D01*
X117416046Y-64410634D01*
X117370893Y-64455787D01*
X117302620Y-64470638D01*
X117237156Y-64446221D01*
X117227929Y-64438591D01*
X117143483Y-64361609D01*
X117143482Y-64361608D01*
X116984647Y-64263261D01*
X116968820Y-64253461D01*
X116968818Y-64253460D01*
X116777255Y-64179249D01*
X116575318Y-64141500D01*
X116369882Y-64141500D01*
X116167945Y-64179249D01*
X116167942Y-64179249D01*
X116167942Y-64179250D01*
X115976379Y-64253461D01*
X115801716Y-64361609D01*
X115649900Y-64500006D01*
X115526098Y-64663947D01*
X115526093Y-64663955D01*
X115434530Y-64847837D01*
X115434524Y-64847852D01*
X115378306Y-65045439D01*
X115378305Y-65045441D01*
X115359351Y-65249999D01*
X112000000Y-65249999D01*
X112000000Y-65077172D01*
X111999999Y-65077155D01*
X111993598Y-65017627D01*
X111993596Y-65017620D01*
X111943354Y-64882913D01*
X111943350Y-64882906D01*
X111857190Y-64767812D01*
X111857187Y-64767809D01*
X111742093Y-64681649D01*
X111742088Y-64681646D01*
X111677011Y-64657374D01*
X111621078Y-64615502D01*
X111596661Y-64550038D01*
X111611513Y-64481765D01*
X111629112Y-64457212D01*
X111725722Y-64352268D01*
X111848860Y-64163791D01*
X111920706Y-63999998D01*
X134186502Y-63999998D01*
X134186502Y-64000001D01*
X134206456Y-64228081D01*
X134206457Y-64228089D01*
X134265714Y-64449238D01*
X134265718Y-64449249D01*
X134343243Y-64615502D01*
X134362477Y-64656749D01*
X134493802Y-64844300D01*
X134655700Y-65006198D01*
X134843251Y-65137523D01*
X134968091Y-65195736D01*
X135050750Y-65234281D01*
X135050752Y-65234281D01*
X135050757Y-65234284D01*
X135271913Y-65293543D01*
X135434832Y-65307796D01*
X135499998Y-65313498D01*
X135500000Y-65313498D01*
X135500002Y-65313498D01*
X135557021Y-65308509D01*
X135728087Y-65293543D01*
X135949243Y-65234284D01*
X136156749Y-65137523D01*
X136344300Y-65006198D01*
X136506198Y-64844300D01*
X136637523Y-64656749D01*
X136734284Y-64449243D01*
X136793543Y-64228087D01*
X136813498Y-64000000D01*
X136813498Y-63999998D01*
X139186502Y-63999998D01*
X139186502Y-64000001D01*
X139206456Y-64228081D01*
X139206457Y-64228089D01*
X139265714Y-64449238D01*
X139265718Y-64449249D01*
X139343243Y-64615502D01*
X139362477Y-64656749D01*
X139493802Y-64844300D01*
X139655700Y-65006198D01*
X139843251Y-65137523D01*
X139968091Y-65195736D01*
X140050750Y-65234281D01*
X140050752Y-65234281D01*
X140050757Y-65234284D01*
X140271913Y-65293543D01*
X140434832Y-65307796D01*
X140499998Y-65313498D01*
X140500000Y-65313498D01*
X140500002Y-65313498D01*
X140557021Y-65308509D01*
X140728087Y-65293543D01*
X140949243Y-65234284D01*
X141156749Y-65137523D01*
X141344300Y-65006198D01*
X141506198Y-64844300D01*
X141637523Y-64656749D01*
X141734284Y-64449243D01*
X141793543Y-64228087D01*
X141813498Y-64000000D01*
X141793543Y-63771913D01*
X141734284Y-63550757D01*
X141637523Y-63343251D01*
X141506198Y-63155700D01*
X141430496Y-63079998D01*
X144686502Y-63079998D01*
X144686502Y-63080001D01*
X144706456Y-63308081D01*
X144706457Y-63308089D01*
X144765714Y-63529238D01*
X144765718Y-63529249D01*
X144832596Y-63672669D01*
X144862477Y-63736749D01*
X144993802Y-63924300D01*
X145155700Y-64086198D01*
X145343251Y-64217523D01*
X145420319Y-64253460D01*
X145550750Y-64314281D01*
X145550752Y-64314281D01*
X145550757Y-64314284D01*
X145771913Y-64373543D01*
X145934832Y-64387796D01*
X145999998Y-64393498D01*
X146000000Y-64393498D01*
X146000002Y-64393498D01*
X146057021Y-64388509D01*
X146228087Y-64373543D01*
X146449243Y-64314284D01*
X146656749Y-64217523D01*
X146844300Y-64086198D01*
X147006198Y-63924300D01*
X147137523Y-63736749D01*
X147234284Y-63529243D01*
X147293543Y-63308087D01*
X147313498Y-63080000D01*
X147313498Y-63079998D01*
X148436502Y-63079998D01*
X148436502Y-63080001D01*
X148456456Y-63308081D01*
X148456457Y-63308089D01*
X148515714Y-63529238D01*
X148515718Y-63529249D01*
X148582596Y-63672669D01*
X148612477Y-63736749D01*
X148743802Y-63924300D01*
X148905700Y-64086198D01*
X149093251Y-64217523D01*
X149170319Y-64253460D01*
X149300750Y-64314281D01*
X149300752Y-64314281D01*
X149300757Y-64314284D01*
X149521913Y-64373543D01*
X149684832Y-64387796D01*
X149749998Y-64393498D01*
X149750000Y-64393498D01*
X149750002Y-64393498D01*
X149807021Y-64388509D01*
X149978087Y-64373543D01*
X150199243Y-64314284D01*
X150406749Y-64217523D01*
X150594300Y-64086198D01*
X150756198Y-63924300D01*
X150887523Y-63736749D01*
X150984284Y-63529243D01*
X151043543Y-63308087D01*
X151063498Y-63080000D01*
X151063498Y-63079998D01*
X152436502Y-63079998D01*
X152436502Y-63080001D01*
X152456456Y-63308081D01*
X152456457Y-63308089D01*
X152515714Y-63529238D01*
X152515718Y-63529249D01*
X152582596Y-63672669D01*
X152612477Y-63736749D01*
X152743802Y-63924300D01*
X152905700Y-64086198D01*
X153093251Y-64217523D01*
X153170319Y-64253460D01*
X153300750Y-64314281D01*
X153300752Y-64314281D01*
X153300757Y-64314284D01*
X153521913Y-64373543D01*
X153684832Y-64387796D01*
X153749998Y-64393498D01*
X153750000Y-64393498D01*
X153750002Y-64393498D01*
X153807021Y-64388509D01*
X153978087Y-64373543D01*
X154199243Y-64314284D01*
X154406749Y-64217523D01*
X154594300Y-64086198D01*
X154756198Y-63924300D01*
X154887523Y-63736749D01*
X154984284Y-63529243D01*
X155043543Y-63308087D01*
X155063498Y-63080000D01*
X155056498Y-62999994D01*
X157571673Y-62999994D01*
X157571673Y-63000005D01*
X157590948Y-63232622D01*
X157648251Y-63458907D01*
X157742015Y-63672668D01*
X157869686Y-63868084D01*
X158025308Y-64037133D01*
X158027780Y-64039818D01*
X158211983Y-64183190D01*
X158211985Y-64183191D01*
X158211988Y-64183193D01*
X158294946Y-64228087D01*
X158417273Y-64294287D01*
X158475522Y-64314284D01*
X158638045Y-64370079D01*
X158638047Y-64370079D01*
X158638049Y-64370080D01*
X158868288Y-64408500D01*
X158868289Y-64408500D01*
X159101711Y-64408500D01*
X159101712Y-64408500D01*
X159331951Y-64370080D01*
X159552727Y-64294287D01*
X159758017Y-64183190D01*
X159942220Y-64039818D01*
X159942231Y-64039805D01*
X159945990Y-64036347D01*
X159946714Y-64037133D01*
X160002067Y-64003861D01*
X160071905Y-64005954D01*
X160129525Y-64045472D01*
X160149602Y-64080495D01*
X160174111Y-64146205D01*
X160213717Y-64199111D01*
X160261739Y-64263261D01*
X160378796Y-64350889D01*
X160515799Y-64401989D01*
X160543050Y-64404918D01*
X160576345Y-64408499D01*
X160576362Y-64408500D01*
X162473638Y-64408500D01*
X162473654Y-64408499D01*
X162500692Y-64405591D01*
X162534201Y-64401989D01*
X162671204Y-64350889D01*
X162788261Y-64263261D01*
X162875889Y-64146204D01*
X162926989Y-64009201D01*
X162932535Y-63957614D01*
X162933499Y-63948654D01*
X162933500Y-63948637D01*
X162933500Y-62051362D01*
X162933499Y-62051345D01*
X162927962Y-61999852D01*
X162926989Y-61990799D01*
X162922180Y-61977907D01*
X162887521Y-61884982D01*
X162875889Y-61853796D01*
X162788261Y-61736739D01*
X162671204Y-61649111D01*
X162534203Y-61598011D01*
X162473654Y-61591500D01*
X162473638Y-61591500D01*
X160576362Y-61591500D01*
X160576345Y-61591500D01*
X160515797Y-61598011D01*
X160515795Y-61598011D01*
X160378795Y-61649111D01*
X160261739Y-61736739D01*
X160174111Y-61853794D01*
X160149602Y-61919504D01*
X160107729Y-61975437D01*
X160042264Y-61999852D01*
X159973992Y-61984999D01*
X159946275Y-61963342D01*
X159945990Y-61963653D01*
X159942225Y-61960187D01*
X159942220Y-61960182D01*
X159758017Y-61816810D01*
X159758015Y-61816809D01*
X159758014Y-61816808D01*
X159758011Y-61816806D01*
X159552733Y-61705716D01*
X159552730Y-61705715D01*
X159552727Y-61705713D01*
X159552721Y-61705711D01*
X159552719Y-61705710D01*
X159331954Y-61629920D01*
X159140730Y-61598011D01*
X159101712Y-61591500D01*
X158868288Y-61591500D01*
X158829270Y-61598011D01*
X158638045Y-61629920D01*
X158417280Y-61705710D01*
X158417266Y-61705716D01*
X158211988Y-61816806D01*
X158211985Y-61816808D01*
X158027781Y-61960181D01*
X158027776Y-61960185D01*
X157869686Y-62131915D01*
X157742015Y-62327331D01*
X157648251Y-62541092D01*
X157590948Y-62767377D01*
X157571673Y-62999994D01*
X155056498Y-62999994D01*
X155043543Y-62851913D01*
X154984284Y-62630757D01*
X154887523Y-62423251D01*
X154756198Y-62235700D01*
X154594300Y-62073802D01*
X154406749Y-61942477D01*
X154382722Y-61931273D01*
X154199249Y-61845718D01*
X154199238Y-61845714D01*
X153978089Y-61786457D01*
X153978081Y-61786456D01*
X153750002Y-61766502D01*
X153749998Y-61766502D01*
X153521918Y-61786456D01*
X153521910Y-61786457D01*
X153300761Y-61845714D01*
X153300750Y-61845718D01*
X153093254Y-61942475D01*
X153093252Y-61942476D01*
X153046179Y-61975437D01*
X152905700Y-62073802D01*
X152905698Y-62073803D01*
X152905695Y-62073806D01*
X152743806Y-62235695D01*
X152743803Y-62235698D01*
X152743802Y-62235700D01*
X152685519Y-62318937D01*
X152612476Y-62423252D01*
X152612475Y-62423254D01*
X152515718Y-62630750D01*
X152515714Y-62630761D01*
X152456457Y-62851910D01*
X152456456Y-62851918D01*
X152436502Y-63079998D01*
X151063498Y-63079998D01*
X151043543Y-62851913D01*
X150984284Y-62630757D01*
X150887523Y-62423251D01*
X150756198Y-62235700D01*
X150594300Y-62073802D01*
X150406749Y-61942477D01*
X150382722Y-61931273D01*
X150199249Y-61845718D01*
X150199238Y-61845714D01*
X149978089Y-61786457D01*
X149978081Y-61786456D01*
X149750002Y-61766502D01*
X149749998Y-61766502D01*
X149521918Y-61786456D01*
X149521910Y-61786457D01*
X149300761Y-61845714D01*
X149300750Y-61845718D01*
X149093254Y-61942475D01*
X149093252Y-61942476D01*
X149046179Y-61975437D01*
X148905700Y-62073802D01*
X148905698Y-62073803D01*
X148905695Y-62073806D01*
X148743806Y-62235695D01*
X148743803Y-62235698D01*
X148743802Y-62235700D01*
X148685519Y-62318937D01*
X148612476Y-62423252D01*
X148612475Y-62423254D01*
X148515718Y-62630750D01*
X148515714Y-62630761D01*
X148456457Y-62851910D01*
X148456456Y-62851918D01*
X148436502Y-63079998D01*
X147313498Y-63079998D01*
X147293543Y-62851913D01*
X147234284Y-62630757D01*
X147137523Y-62423251D01*
X147006198Y-62235700D01*
X146844300Y-62073802D01*
X146656749Y-61942477D01*
X146632722Y-61931273D01*
X146449249Y-61845718D01*
X146449238Y-61845714D01*
X146228089Y-61786457D01*
X146228081Y-61786456D01*
X146000002Y-61766502D01*
X145999998Y-61766502D01*
X145771918Y-61786456D01*
X145771910Y-61786457D01*
X145550761Y-61845714D01*
X145550750Y-61845718D01*
X145343254Y-61942475D01*
X145343252Y-61942476D01*
X145296179Y-61975437D01*
X145155700Y-62073802D01*
X145155698Y-62073803D01*
X145155695Y-62073806D01*
X144993806Y-62235695D01*
X144993803Y-62235698D01*
X144993802Y-62235700D01*
X144935519Y-62318937D01*
X144862476Y-62423252D01*
X144862475Y-62423254D01*
X144765718Y-62630750D01*
X144765714Y-62630761D01*
X144706457Y-62851910D01*
X144706456Y-62851918D01*
X144686502Y-63079998D01*
X141430496Y-63079998D01*
X141344300Y-62993802D01*
X141156749Y-62862477D01*
X141134105Y-62851918D01*
X140949249Y-62765718D01*
X140949238Y-62765714D01*
X140728089Y-62706457D01*
X140728081Y-62706456D01*
X140500002Y-62686502D01*
X140499998Y-62686502D01*
X140271918Y-62706456D01*
X140271910Y-62706457D01*
X140050761Y-62765714D01*
X140050750Y-62765718D01*
X139843254Y-62862475D01*
X139843252Y-62862476D01*
X139843251Y-62862477D01*
X139655700Y-62993802D01*
X139655698Y-62993803D01*
X139655695Y-62993806D01*
X139493806Y-63155695D01*
X139493803Y-63155698D01*
X139493802Y-63155700D01*
X139439938Y-63232626D01*
X139362476Y-63343252D01*
X139362475Y-63343254D01*
X139265718Y-63550750D01*
X139265714Y-63550761D01*
X139206457Y-63771910D01*
X139206456Y-63771918D01*
X139186502Y-63999998D01*
X136813498Y-63999998D01*
X136793543Y-63771913D01*
X136734284Y-63550757D01*
X136637523Y-63343251D01*
X136506198Y-63155700D01*
X136344300Y-62993802D01*
X136156749Y-62862477D01*
X136134105Y-62851918D01*
X135949249Y-62765718D01*
X135949238Y-62765714D01*
X135728089Y-62706457D01*
X135728081Y-62706456D01*
X135500002Y-62686502D01*
X135499998Y-62686502D01*
X135271918Y-62706456D01*
X135271910Y-62706457D01*
X135050761Y-62765714D01*
X135050750Y-62765718D01*
X134843254Y-62862475D01*
X134843252Y-62862476D01*
X134843251Y-62862477D01*
X134655700Y-62993802D01*
X134655698Y-62993803D01*
X134655695Y-62993806D01*
X134493806Y-63155695D01*
X134493803Y-63155698D01*
X134493802Y-63155700D01*
X134439938Y-63232626D01*
X134362476Y-63343252D01*
X134362475Y-63343254D01*
X134265718Y-63550750D01*
X134265714Y-63550761D01*
X134206457Y-63771910D01*
X134206456Y-63771918D01*
X134186502Y-63999998D01*
X111920706Y-63999998D01*
X111939296Y-63957616D01*
X111994564Y-63739368D01*
X111994781Y-63736747D01*
X112013156Y-63515005D01*
X112013156Y-63514994D01*
X111994565Y-63290640D01*
X111994563Y-63290628D01*
X111979874Y-63232622D01*
X111939296Y-63072384D01*
X111848860Y-62866209D01*
X111846420Y-62862475D01*
X111744488Y-62706456D01*
X111725722Y-62677732D01*
X111725719Y-62677729D01*
X111725715Y-62677723D01*
X111573243Y-62512097D01*
X111573238Y-62512092D01*
X111395577Y-62373812D01*
X111395578Y-62373812D01*
X111395576Y-62373811D01*
X111359070Y-62354055D01*
X111309479Y-62304836D01*
X111294371Y-62236619D01*
X111318541Y-62171064D01*
X111359070Y-62135945D01*
X111366513Y-62131917D01*
X111395576Y-62116189D01*
X111573240Y-61977906D01*
X111684329Y-61857232D01*
X111725715Y-61812276D01*
X111725716Y-61812274D01*
X111725722Y-61812268D01*
X111848860Y-61623791D01*
X111939296Y-61417616D01*
X111994564Y-61199368D01*
X112013156Y-60975000D01*
X111994564Y-60750632D01*
X111939296Y-60532384D01*
X111848860Y-60326209D01*
X111725722Y-60137732D01*
X111725719Y-60137729D01*
X111725715Y-60137723D01*
X111573243Y-59972097D01*
X111573238Y-59972092D01*
X111395577Y-59833812D01*
X111395572Y-59833808D01*
X111197580Y-59726661D01*
X111197577Y-59726659D01*
X111197574Y-59726658D01*
X111197571Y-59726657D01*
X111197569Y-59726656D01*
X110984637Y-59653556D01*
X110762569Y-59616500D01*
X110537431Y-59616500D01*
X110315362Y-59653556D01*
X110102430Y-59726656D01*
X110102419Y-59726661D01*
X109904427Y-59833808D01*
X109904422Y-59833812D01*
X109726761Y-59972092D01*
X109726756Y-59972097D01*
X109574284Y-60137723D01*
X109574276Y-60137734D01*
X109451140Y-60326207D01*
X109360703Y-60532385D01*
X109305436Y-60750628D01*
X109305434Y-60750640D01*
X109286844Y-60974994D01*
X100075500Y-60974994D01*
X100075500Y-56249998D01*
X100356502Y-56249998D01*
X100356502Y-56250001D01*
X100376456Y-56478081D01*
X100376457Y-56478089D01*
X100435714Y-56699238D01*
X100435718Y-56699249D01*
X100525366Y-56891500D01*
X100532477Y-56906749D01*
X100663802Y-57094300D01*
X100825700Y-57256198D01*
X101013251Y-57387523D01*
X101138091Y-57445736D01*
X101220750Y-57484281D01*
X101220752Y-57484281D01*
X101220757Y-57484284D01*
X101441913Y-57543543D01*
X101601705Y-57557523D01*
X101669998Y-57563498D01*
X101670000Y-57563498D01*
X101670002Y-57563498D01*
X101738283Y-57557524D01*
X101898087Y-57543543D01*
X102119243Y-57484284D01*
X102326749Y-57387523D01*
X102514300Y-57256198D01*
X102676198Y-57094300D01*
X102807523Y-56906749D01*
X102904284Y-56699243D01*
X102963543Y-56478087D01*
X102983498Y-56250000D01*
X102983498Y-56249997D01*
X110525034Y-56249997D01*
X110525034Y-56250002D01*
X110544858Y-56476599D01*
X110544860Y-56476610D01*
X110603730Y-56696317D01*
X110603735Y-56696331D01*
X110699863Y-56902478D01*
X110750974Y-56975472D01*
X111430000Y-56296446D01*
X111430000Y-56302661D01*
X111457259Y-56404394D01*
X111509920Y-56495606D01*
X111584394Y-56570080D01*
X111675606Y-56622741D01*
X111777339Y-56650000D01*
X111783553Y-56650000D01*
X111104526Y-57329025D01*
X111177513Y-57380132D01*
X111177521Y-57380136D01*
X111383668Y-57476264D01*
X111383682Y-57476269D01*
X111603389Y-57535139D01*
X111603400Y-57535141D01*
X111829998Y-57554966D01*
X111830002Y-57554966D01*
X112056599Y-57535141D01*
X112056610Y-57535139D01*
X112276317Y-57476269D01*
X112276331Y-57476264D01*
X112482478Y-57380136D01*
X112523594Y-57351345D01*
X116141500Y-57351345D01*
X116141500Y-59148654D01*
X116148011Y-59209202D01*
X116148011Y-59209204D01*
X116192592Y-59328726D01*
X116199111Y-59346204D01*
X116286739Y-59463261D01*
X116403796Y-59550889D01*
X116540799Y-59601989D01*
X116568050Y-59604918D01*
X116601345Y-59608499D01*
X116601362Y-59608500D01*
X118398638Y-59608500D01*
X118398654Y-59608499D01*
X118425692Y-59605591D01*
X118459201Y-59601989D01*
X118596204Y-59550889D01*
X118713261Y-59463261D01*
X118800889Y-59346204D01*
X118851989Y-59209201D01*
X118855591Y-59175692D01*
X118858499Y-59148654D01*
X118858500Y-59148637D01*
X118858500Y-59000000D01*
X132736835Y-59000000D01*
X132755465Y-59236714D01*
X132810895Y-59467595D01*
X132810895Y-59467597D01*
X132901757Y-59686959D01*
X132901759Y-59686962D01*
X133025820Y-59889410D01*
X133025821Y-59889413D01*
X133025824Y-59889416D01*
X133180031Y-60069969D01*
X133259374Y-60137734D01*
X133360586Y-60224178D01*
X133360589Y-60224179D01*
X133563037Y-60348240D01*
X133563040Y-60348242D01*
X133782403Y-60439104D01*
X133782404Y-60439104D01*
X133782406Y-60439105D01*
X134013289Y-60494535D01*
X134250000Y-60513165D01*
X134486711Y-60494535D01*
X134717594Y-60439105D01*
X134717596Y-60439104D01*
X134717597Y-60439104D01*
X134936959Y-60348242D01*
X134936960Y-60348241D01*
X134936963Y-60348240D01*
X135139416Y-60224176D01*
X135319969Y-60069969D01*
X135474176Y-59889416D01*
X135598240Y-59686963D01*
X135630741Y-59608500D01*
X135689104Y-59467597D01*
X135689104Y-59467596D01*
X135689105Y-59467594D01*
X135744535Y-59236711D01*
X135763165Y-59000000D01*
X139236835Y-59000000D01*
X139255465Y-59236714D01*
X139310895Y-59467595D01*
X139310895Y-59467597D01*
X139401757Y-59686959D01*
X139401759Y-59686962D01*
X139525820Y-59889410D01*
X139525821Y-59889413D01*
X139525824Y-59889416D01*
X139680031Y-60069969D01*
X139759374Y-60137734D01*
X139860586Y-60224178D01*
X139860589Y-60224179D01*
X140063037Y-60348240D01*
X140063040Y-60348242D01*
X140282403Y-60439104D01*
X140282404Y-60439104D01*
X140282406Y-60439105D01*
X140513289Y-60494535D01*
X140750000Y-60513165D01*
X140986711Y-60494535D01*
X141217594Y-60439105D01*
X141217596Y-60439104D01*
X141217597Y-60439104D01*
X141436959Y-60348242D01*
X141436960Y-60348241D01*
X141436963Y-60348240D01*
X141639416Y-60224176D01*
X141819969Y-60069969D01*
X141974176Y-59889416D01*
X142098240Y-59686963D01*
X142130741Y-59608500D01*
X142189104Y-59467597D01*
X142189104Y-59467596D01*
X142189105Y-59467594D01*
X142244535Y-59236711D01*
X142263165Y-59000000D01*
X142244535Y-58763289D01*
X142189105Y-58532406D01*
X142189104Y-58532403D01*
X142189104Y-58532402D01*
X142098242Y-58313040D01*
X142098240Y-58313037D01*
X141974179Y-58110589D01*
X141974178Y-58110586D01*
X141939340Y-58069797D01*
X141819969Y-57930031D01*
X141667877Y-57800132D01*
X141639413Y-57775821D01*
X141639410Y-57775820D01*
X141436962Y-57651759D01*
X141436959Y-57651757D01*
X141217596Y-57560895D01*
X140986714Y-57505465D01*
X140750000Y-57486835D01*
X140513285Y-57505465D01*
X140282404Y-57560895D01*
X140282402Y-57560895D01*
X140063040Y-57651757D01*
X140063037Y-57651759D01*
X139860589Y-57775820D01*
X139860586Y-57775821D01*
X139680031Y-57930031D01*
X139525821Y-58110586D01*
X139525820Y-58110589D01*
X139401759Y-58313037D01*
X139401757Y-58313040D01*
X139310895Y-58532402D01*
X139310895Y-58532404D01*
X139255465Y-58763285D01*
X139236835Y-59000000D01*
X135763165Y-59000000D01*
X135744535Y-58763289D01*
X135689105Y-58532406D01*
X135689104Y-58532403D01*
X135689104Y-58532402D01*
X135598242Y-58313040D01*
X135598240Y-58313037D01*
X135474179Y-58110589D01*
X135474178Y-58110586D01*
X135439340Y-58069797D01*
X135319969Y-57930031D01*
X135167877Y-57800132D01*
X135139413Y-57775821D01*
X135139410Y-57775820D01*
X134936962Y-57651759D01*
X134936959Y-57651757D01*
X134717596Y-57560895D01*
X134486714Y-57505465D01*
X134250000Y-57486835D01*
X134013285Y-57505465D01*
X133782404Y-57560895D01*
X133782402Y-57560895D01*
X133563040Y-57651757D01*
X133563037Y-57651759D01*
X133360589Y-57775820D01*
X133360586Y-57775821D01*
X133180031Y-57930031D01*
X133025821Y-58110586D01*
X133025820Y-58110589D01*
X132901759Y-58313037D01*
X132901757Y-58313040D01*
X132810895Y-58532402D01*
X132810895Y-58532404D01*
X132755465Y-58763285D01*
X132736835Y-59000000D01*
X118858500Y-59000000D01*
X118858500Y-57351362D01*
X118858499Y-57351345D01*
X118855157Y-57320270D01*
X118851989Y-57290799D01*
X118842105Y-57264300D01*
X118829522Y-57230564D01*
X118800889Y-57153796D01*
X118713261Y-57036739D01*
X118596204Y-56949111D01*
X118459203Y-56898011D01*
X118398654Y-56891500D01*
X118398638Y-56891500D01*
X116601362Y-56891500D01*
X116601345Y-56891500D01*
X116540797Y-56898011D01*
X116540795Y-56898011D01*
X116403795Y-56949111D01*
X116286739Y-57036739D01*
X116199111Y-57153795D01*
X116148011Y-57290795D01*
X116148011Y-57290797D01*
X116141500Y-57351345D01*
X112523594Y-57351345D01*
X112555471Y-57329024D01*
X111876447Y-56650000D01*
X111882661Y-56650000D01*
X111984394Y-56622741D01*
X112075606Y-56570080D01*
X112150080Y-56495606D01*
X112202741Y-56404394D01*
X112230000Y-56302661D01*
X112230000Y-56296447D01*
X112909024Y-56975471D01*
X112960136Y-56902478D01*
X113056264Y-56696331D01*
X113056269Y-56696317D01*
X113115139Y-56476610D01*
X113115141Y-56476599D01*
X113120093Y-56419998D01*
X121936502Y-56419998D01*
X121936502Y-56420001D01*
X121956456Y-56648081D01*
X121956457Y-56648089D01*
X122015714Y-56869238D01*
X122015718Y-56869249D01*
X122087671Y-57023553D01*
X122112477Y-57076749D01*
X122243802Y-57264300D01*
X122405700Y-57426198D01*
X122593251Y-57557523D01*
X122606065Y-57563498D01*
X122800750Y-57654281D01*
X122800752Y-57654281D01*
X122800757Y-57654284D01*
X123021913Y-57713543D01*
X123184832Y-57727796D01*
X123249998Y-57733498D01*
X123250000Y-57733498D01*
X123250002Y-57733498D01*
X123307021Y-57728509D01*
X123478087Y-57713543D01*
X123699243Y-57654284D01*
X123906749Y-57557523D01*
X124094300Y-57426198D01*
X124256198Y-57264300D01*
X124387523Y-57076749D01*
X124484284Y-56869243D01*
X124537672Y-56669997D01*
X127695034Y-56669997D01*
X127695034Y-56670002D01*
X127714858Y-56896599D01*
X127714860Y-56896610D01*
X127773730Y-57116317D01*
X127773735Y-57116331D01*
X127869863Y-57322478D01*
X127920974Y-57395472D01*
X128600000Y-56716446D01*
X128600000Y-56722661D01*
X128627259Y-56824394D01*
X128679920Y-56915606D01*
X128754394Y-56990080D01*
X128845606Y-57042741D01*
X128947339Y-57070000D01*
X128953553Y-57070000D01*
X128274526Y-57749025D01*
X128347513Y-57800132D01*
X128347521Y-57800136D01*
X128553668Y-57896264D01*
X128553682Y-57896269D01*
X128773389Y-57955139D01*
X128773400Y-57955141D01*
X128999998Y-57974966D01*
X129000002Y-57974966D01*
X129226599Y-57955141D01*
X129226610Y-57955139D01*
X129446317Y-57896269D01*
X129446331Y-57896264D01*
X129652478Y-57800136D01*
X129725471Y-57749024D01*
X129046447Y-57070000D01*
X129052661Y-57070000D01*
X129154394Y-57042741D01*
X129245606Y-56990080D01*
X129320080Y-56915606D01*
X129372741Y-56824394D01*
X129400000Y-56722661D01*
X129400000Y-56716447D01*
X130079024Y-57395471D01*
X130130136Y-57322478D01*
X130226264Y-57116331D01*
X130226269Y-57116317D01*
X130285139Y-56896610D01*
X130285141Y-56896599D01*
X130304966Y-56670002D01*
X130304966Y-56669997D01*
X130285141Y-56443400D01*
X130285139Y-56443389D01*
X130226269Y-56223682D01*
X130226264Y-56223668D01*
X130130136Y-56017521D01*
X130130132Y-56017513D01*
X130079025Y-55944526D01*
X129400000Y-56623551D01*
X129400000Y-56617339D01*
X129372741Y-56515606D01*
X129320080Y-56424394D01*
X129245606Y-56349920D01*
X129154394Y-56297259D01*
X129052661Y-56270000D01*
X129046448Y-56270000D01*
X129725472Y-55590974D01*
X129652478Y-55539863D01*
X129446331Y-55443735D01*
X129446317Y-55443730D01*
X129226610Y-55384860D01*
X129226599Y-55384858D01*
X129000002Y-55365034D01*
X128999998Y-55365034D01*
X128773400Y-55384858D01*
X128773389Y-55384860D01*
X128553682Y-55443730D01*
X128553673Y-55443734D01*
X128347516Y-55539866D01*
X128347512Y-55539868D01*
X128274526Y-55590973D01*
X128274526Y-55590974D01*
X128953553Y-56270000D01*
X128947339Y-56270000D01*
X128845606Y-56297259D01*
X128754394Y-56349920D01*
X128679920Y-56424394D01*
X128627259Y-56515606D01*
X128600000Y-56617339D01*
X128600000Y-56623552D01*
X127920974Y-55944526D01*
X127920973Y-55944526D01*
X127869868Y-56017512D01*
X127869866Y-56017516D01*
X127773734Y-56223673D01*
X127773730Y-56223682D01*
X127714860Y-56443389D01*
X127714858Y-56443400D01*
X127695034Y-56669997D01*
X124537672Y-56669997D01*
X124543543Y-56648087D01*
X124563498Y-56420000D01*
X124559130Y-56370079D01*
X124553232Y-56302661D01*
X124543543Y-56191913D01*
X124484284Y-55970757D01*
X124473969Y-55948637D01*
X124406372Y-55803673D01*
X124387523Y-55763251D01*
X124256198Y-55575700D01*
X124094300Y-55413802D01*
X123906749Y-55282477D01*
X123906745Y-55282475D01*
X123699249Y-55185718D01*
X123699238Y-55185714D01*
X123478089Y-55126457D01*
X123478081Y-55126456D01*
X123250002Y-55106502D01*
X123249998Y-55106502D01*
X123021918Y-55126456D01*
X123021910Y-55126457D01*
X122800761Y-55185714D01*
X122800750Y-55185718D01*
X122593254Y-55282475D01*
X122593252Y-55282476D01*
X122593251Y-55282477D01*
X122405700Y-55413802D01*
X122405698Y-55413803D01*
X122405695Y-55413806D01*
X122243806Y-55575695D01*
X122243803Y-55575698D01*
X122243802Y-55575700D01*
X122228523Y-55597521D01*
X122112476Y-55763252D01*
X122112475Y-55763254D01*
X122015718Y-55970750D01*
X122015714Y-55970761D01*
X121956457Y-56191910D01*
X121956456Y-56191918D01*
X121936502Y-56419998D01*
X113120093Y-56419998D01*
X113134966Y-56250002D01*
X113134966Y-56249997D01*
X113115141Y-56023400D01*
X113115139Y-56023389D01*
X113056269Y-55803682D01*
X113056264Y-55803668D01*
X112960136Y-55597521D01*
X112960132Y-55597513D01*
X112909025Y-55524526D01*
X112230000Y-56203551D01*
X112230000Y-56197339D01*
X112202741Y-56095606D01*
X112150080Y-56004394D01*
X112075606Y-55929920D01*
X111984394Y-55877259D01*
X111882661Y-55850000D01*
X111876448Y-55850000D01*
X112555472Y-55170974D01*
X112482478Y-55119863D01*
X112276331Y-55023735D01*
X112276317Y-55023730D01*
X112056610Y-54964860D01*
X112056599Y-54964858D01*
X111830002Y-54945034D01*
X111829998Y-54945034D01*
X111603400Y-54964858D01*
X111603389Y-54964860D01*
X111383682Y-55023730D01*
X111383673Y-55023734D01*
X111177516Y-55119866D01*
X111177512Y-55119868D01*
X111104526Y-55170973D01*
X111104526Y-55170974D01*
X111783553Y-55850000D01*
X111777339Y-55850000D01*
X111675606Y-55877259D01*
X111584394Y-55929920D01*
X111509920Y-56004394D01*
X111457259Y-56095606D01*
X111430000Y-56197339D01*
X111430000Y-56203552D01*
X110750974Y-55524526D01*
X110750973Y-55524526D01*
X110699868Y-55597512D01*
X110699866Y-55597516D01*
X110603734Y-55803673D01*
X110603730Y-55803682D01*
X110544860Y-56023389D01*
X110544858Y-56023400D01*
X110525034Y-56249997D01*
X102983498Y-56249997D01*
X102981195Y-56223682D01*
X102965109Y-56039814D01*
X102963543Y-56021913D01*
X102904284Y-55800757D01*
X102807523Y-55593251D01*
X102676198Y-55405700D01*
X102514300Y-55243802D01*
X102326749Y-55112477D01*
X102326745Y-55112475D01*
X102119249Y-55015718D01*
X102119238Y-55015714D01*
X101898089Y-54956457D01*
X101898081Y-54956456D01*
X101670002Y-54936502D01*
X101669998Y-54936502D01*
X101441918Y-54956456D01*
X101441910Y-54956457D01*
X101220761Y-55015714D01*
X101220750Y-55015718D01*
X101013254Y-55112475D01*
X101013252Y-55112476D01*
X100942856Y-55161767D01*
X100825700Y-55243802D01*
X100825698Y-55243803D01*
X100825695Y-55243806D01*
X100663806Y-55405695D01*
X100663803Y-55405698D01*
X100663802Y-55405700D01*
X100637170Y-55443735D01*
X100532476Y-55593252D01*
X100532475Y-55593254D01*
X100435718Y-55800750D01*
X100435714Y-55800761D01*
X100376457Y-56021910D01*
X100376456Y-56021918D01*
X100356502Y-56249998D01*
X100075500Y-56249998D01*
X100075500Y-54500000D01*
X132736835Y-54500000D01*
X132755465Y-54736714D01*
X132810895Y-54967595D01*
X132810895Y-54967597D01*
X132901757Y-55186959D01*
X132901759Y-55186962D01*
X133025820Y-55389410D01*
X133025821Y-55389413D01*
X133046655Y-55413806D01*
X133180031Y-55569969D01*
X133300276Y-55672668D01*
X133360586Y-55724178D01*
X133360588Y-55724178D01*
X133490311Y-55803673D01*
X133563037Y-55848240D01*
X133563040Y-55848242D01*
X133782403Y-55939104D01*
X133782404Y-55939104D01*
X133782406Y-55939105D01*
X134013289Y-55994535D01*
X134250000Y-56013165D01*
X134486711Y-55994535D01*
X134717594Y-55939105D01*
X134717596Y-55939104D01*
X134717597Y-55939104D01*
X134936959Y-55848242D01*
X134936960Y-55848241D01*
X134936963Y-55848240D01*
X135139416Y-55724176D01*
X135319969Y-55569969D01*
X135474176Y-55389416D01*
X135598240Y-55186963D01*
X135598758Y-55185714D01*
X135689104Y-54967597D01*
X135689104Y-54967596D01*
X135689105Y-54967594D01*
X135744535Y-54736711D01*
X135763165Y-54500000D01*
X139236835Y-54500000D01*
X139255465Y-54736714D01*
X139310895Y-54967595D01*
X139310895Y-54967597D01*
X139401757Y-55186959D01*
X139401759Y-55186962D01*
X139525820Y-55389410D01*
X139525821Y-55389413D01*
X139546655Y-55413806D01*
X139680031Y-55569969D01*
X139800276Y-55672668D01*
X139860586Y-55724178D01*
X139860588Y-55724178D01*
X139990311Y-55803673D01*
X140063037Y-55848240D01*
X140063040Y-55848242D01*
X140282403Y-55939104D01*
X140282404Y-55939104D01*
X140282406Y-55939105D01*
X140513289Y-55994535D01*
X140750000Y-56013165D01*
X140986711Y-55994535D01*
X141217594Y-55939105D01*
X141217596Y-55939104D01*
X141217597Y-55939104D01*
X141436959Y-55848242D01*
X141436960Y-55848241D01*
X141436963Y-55848240D01*
X141639416Y-55724176D01*
X141819969Y-55569969D01*
X141974176Y-55389416D01*
X142098240Y-55186963D01*
X142098758Y-55185714D01*
X142175685Y-54999994D01*
X157571673Y-54999994D01*
X157571673Y-55000005D01*
X157590948Y-55232622D01*
X157648251Y-55458907D01*
X157742015Y-55672668D01*
X157869686Y-55868084D01*
X158025308Y-56037133D01*
X158027780Y-56039818D01*
X158211983Y-56183190D01*
X158211985Y-56183191D01*
X158211988Y-56183193D01*
X158228111Y-56191918D01*
X158417273Y-56294287D01*
X158531914Y-56333643D01*
X158638045Y-56370079D01*
X158638047Y-56370079D01*
X158638049Y-56370080D01*
X158868288Y-56408500D01*
X158868289Y-56408500D01*
X159101711Y-56408500D01*
X159101712Y-56408500D01*
X159331951Y-56370080D01*
X159552727Y-56294287D01*
X159758017Y-56183190D01*
X159942220Y-56039818D01*
X159942231Y-56039805D01*
X159945990Y-56036347D01*
X159946714Y-56037133D01*
X160002067Y-56003861D01*
X160071905Y-56005954D01*
X160129525Y-56045472D01*
X160149602Y-56080495D01*
X160174111Y-56146205D01*
X160208326Y-56191910D01*
X160261739Y-56263261D01*
X160378796Y-56350889D01*
X160515799Y-56401989D01*
X160543050Y-56404918D01*
X160576345Y-56408499D01*
X160576362Y-56408500D01*
X162473638Y-56408500D01*
X162473654Y-56408499D01*
X162500692Y-56405591D01*
X162534201Y-56401989D01*
X162671204Y-56350889D01*
X162788261Y-56263261D01*
X162875889Y-56146204D01*
X162923889Y-56017512D01*
X162926988Y-56009204D01*
X162926988Y-56009203D01*
X162926989Y-56009201D01*
X162931123Y-55970750D01*
X162933499Y-55948654D01*
X162933500Y-55948637D01*
X162933500Y-54051362D01*
X162933499Y-54051345D01*
X162927962Y-53999852D01*
X162926989Y-53990799D01*
X162921259Y-53975437D01*
X162900397Y-53919504D01*
X162875889Y-53853796D01*
X162788261Y-53736739D01*
X162671204Y-53649111D01*
X162534203Y-53598011D01*
X162473654Y-53591500D01*
X162473638Y-53591500D01*
X160576362Y-53591500D01*
X160576345Y-53591500D01*
X160515797Y-53598011D01*
X160515795Y-53598011D01*
X160378795Y-53649111D01*
X160261739Y-53736739D01*
X160174111Y-53853794D01*
X160149602Y-53919504D01*
X160107729Y-53975437D01*
X160042264Y-53999852D01*
X159973992Y-53984999D01*
X159946275Y-53963342D01*
X159945990Y-53963653D01*
X159942225Y-53960187D01*
X159942220Y-53960182D01*
X159758017Y-53816810D01*
X159758015Y-53816809D01*
X159758014Y-53816808D01*
X159758011Y-53816806D01*
X159552733Y-53705716D01*
X159552730Y-53705715D01*
X159552727Y-53705713D01*
X159552721Y-53705711D01*
X159552719Y-53705710D01*
X159331954Y-53629920D01*
X159140730Y-53598011D01*
X159101712Y-53591500D01*
X158868288Y-53591500D01*
X158829270Y-53598011D01*
X158638045Y-53629920D01*
X158417280Y-53705710D01*
X158417266Y-53705716D01*
X158211988Y-53816806D01*
X158211985Y-53816808D01*
X158027781Y-53960181D01*
X158027776Y-53960185D01*
X157869686Y-54131915D01*
X157742015Y-54327331D01*
X157648251Y-54541092D01*
X157590948Y-54767377D01*
X157571673Y-54999994D01*
X142175685Y-54999994D01*
X142189104Y-54967597D01*
X142189104Y-54967596D01*
X142189105Y-54967594D01*
X142244535Y-54736711D01*
X142263165Y-54500000D01*
X142244535Y-54263289D01*
X142189105Y-54032406D01*
X142189104Y-54032403D01*
X142189104Y-54032402D01*
X142098242Y-53813040D01*
X142098240Y-53813037D01*
X141974179Y-53610589D01*
X141974178Y-53610586D01*
X141939340Y-53569797D01*
X141819969Y-53430031D01*
X141700596Y-53328076D01*
X141639413Y-53275821D01*
X141639410Y-53275820D01*
X141436962Y-53151759D01*
X141436959Y-53151757D01*
X141217596Y-53060895D01*
X140986714Y-53005465D01*
X140750000Y-52986835D01*
X140513285Y-53005465D01*
X140282404Y-53060895D01*
X140282402Y-53060895D01*
X140063040Y-53151757D01*
X140063037Y-53151759D01*
X139860589Y-53275820D01*
X139860586Y-53275821D01*
X139680031Y-53430031D01*
X139525821Y-53610586D01*
X139525820Y-53610589D01*
X139401759Y-53813037D01*
X139401757Y-53813040D01*
X139310895Y-54032402D01*
X139310895Y-54032404D01*
X139255465Y-54263285D01*
X139236835Y-54500000D01*
X135763165Y-54500000D01*
X135744535Y-54263289D01*
X135689105Y-54032406D01*
X135689104Y-54032403D01*
X135689104Y-54032402D01*
X135598242Y-53813040D01*
X135598240Y-53813037D01*
X135474179Y-53610589D01*
X135474178Y-53610586D01*
X135439340Y-53569797D01*
X135319969Y-53430031D01*
X135200596Y-53328076D01*
X135139413Y-53275821D01*
X135139410Y-53275820D01*
X134936962Y-53151759D01*
X134936959Y-53151757D01*
X134717596Y-53060895D01*
X134486714Y-53005465D01*
X134250000Y-52986835D01*
X134013285Y-53005465D01*
X133782404Y-53060895D01*
X133782402Y-53060895D01*
X133563040Y-53151757D01*
X133563037Y-53151759D01*
X133360589Y-53275820D01*
X133360586Y-53275821D01*
X133180031Y-53430031D01*
X133025821Y-53610586D01*
X133025820Y-53610589D01*
X132901759Y-53813037D01*
X132901757Y-53813040D01*
X132810895Y-54032402D01*
X132810895Y-54032404D01*
X132755465Y-54263285D01*
X132736835Y-54500000D01*
X100075500Y-54500000D01*
X100075500Y-52919998D01*
X144686502Y-52919998D01*
X144686502Y-52920001D01*
X144706456Y-53148081D01*
X144706457Y-53148089D01*
X144765714Y-53369238D01*
X144765718Y-53369249D01*
X144862475Y-53576745D01*
X144862477Y-53576749D01*
X144993802Y-53764300D01*
X145155700Y-53926198D01*
X145343251Y-54057523D01*
X145468091Y-54115736D01*
X145550750Y-54154281D01*
X145550752Y-54154281D01*
X145550757Y-54154284D01*
X145771913Y-54213543D01*
X145934832Y-54227796D01*
X145999998Y-54233498D01*
X146000000Y-54233498D01*
X146000002Y-54233498D01*
X146057021Y-54228509D01*
X146228087Y-54213543D01*
X146449243Y-54154284D01*
X146656749Y-54057523D01*
X146844300Y-53926198D01*
X147006198Y-53764300D01*
X147137523Y-53576749D01*
X147234284Y-53369243D01*
X147293543Y-53148087D01*
X147313498Y-52920000D01*
X147313498Y-52919998D01*
X148436502Y-52919998D01*
X148436502Y-52920001D01*
X148456456Y-53148081D01*
X148456457Y-53148089D01*
X148515714Y-53369238D01*
X148515718Y-53369249D01*
X148612475Y-53576745D01*
X148612477Y-53576749D01*
X148743802Y-53764300D01*
X148905700Y-53926198D01*
X149093251Y-54057523D01*
X149218091Y-54115736D01*
X149300750Y-54154281D01*
X149300752Y-54154281D01*
X149300757Y-54154284D01*
X149521913Y-54213543D01*
X149684832Y-54227796D01*
X149749998Y-54233498D01*
X149750000Y-54233498D01*
X149750002Y-54233498D01*
X149807021Y-54228509D01*
X149978087Y-54213543D01*
X150199243Y-54154284D01*
X150406749Y-54057523D01*
X150594300Y-53926198D01*
X150756198Y-53764300D01*
X150887523Y-53576749D01*
X150984284Y-53369243D01*
X151043543Y-53148087D01*
X151063498Y-52920000D01*
X151063498Y-52919998D01*
X152436502Y-52919998D01*
X152436502Y-52920001D01*
X152456456Y-53148081D01*
X152456457Y-53148089D01*
X152515714Y-53369238D01*
X152515718Y-53369249D01*
X152612475Y-53576745D01*
X152612477Y-53576749D01*
X152743802Y-53764300D01*
X152905700Y-53926198D01*
X153093251Y-54057523D01*
X153218091Y-54115736D01*
X153300750Y-54154281D01*
X153300752Y-54154281D01*
X153300757Y-54154284D01*
X153521913Y-54213543D01*
X153684832Y-54227796D01*
X153749998Y-54233498D01*
X153750000Y-54233498D01*
X153750002Y-54233498D01*
X153807021Y-54228509D01*
X153978087Y-54213543D01*
X154199243Y-54154284D01*
X154406749Y-54057523D01*
X154594300Y-53926198D01*
X154756198Y-53764300D01*
X154887523Y-53576749D01*
X154984284Y-53369243D01*
X155043543Y-53148087D01*
X155063498Y-52920000D01*
X155043543Y-52691913D01*
X154984284Y-52470757D01*
X154887523Y-52263251D01*
X154756198Y-52075700D01*
X154594300Y-51913802D01*
X154406749Y-51782477D01*
X154365538Y-51763260D01*
X154199249Y-51685718D01*
X154199238Y-51685714D01*
X153978089Y-51626457D01*
X153978081Y-51626456D01*
X153750002Y-51606502D01*
X153749998Y-51606502D01*
X153521918Y-51626456D01*
X153521910Y-51626457D01*
X153300761Y-51685714D01*
X153300750Y-51685718D01*
X153093254Y-51782475D01*
X153093252Y-51782476D01*
X153022856Y-51831767D01*
X152905700Y-51913802D01*
X152905698Y-51913803D01*
X152905695Y-51913806D01*
X152743806Y-52075695D01*
X152612476Y-52263252D01*
X152612475Y-52263254D01*
X152515718Y-52470750D01*
X152515714Y-52470761D01*
X152456457Y-52691910D01*
X152456456Y-52691918D01*
X152436502Y-52919998D01*
X151063498Y-52919998D01*
X151043543Y-52691913D01*
X150984284Y-52470757D01*
X150887523Y-52263251D01*
X150756198Y-52075700D01*
X150594300Y-51913802D01*
X150406749Y-51782477D01*
X150365538Y-51763260D01*
X150199249Y-51685718D01*
X150199238Y-51685714D01*
X149978089Y-51626457D01*
X149978081Y-51626456D01*
X149750002Y-51606502D01*
X149749998Y-51606502D01*
X149521918Y-51626456D01*
X149521910Y-51626457D01*
X149300761Y-51685714D01*
X149300750Y-51685718D01*
X149093254Y-51782475D01*
X149093252Y-51782476D01*
X149022856Y-51831767D01*
X148905700Y-51913802D01*
X148905698Y-51913803D01*
X148905695Y-51913806D01*
X148743806Y-52075695D01*
X148612476Y-52263252D01*
X148612475Y-52263254D01*
X148515718Y-52470750D01*
X148515714Y-52470761D01*
X148456457Y-52691910D01*
X148456456Y-52691918D01*
X148436502Y-52919998D01*
X147313498Y-52919998D01*
X147293543Y-52691913D01*
X147234284Y-52470757D01*
X147137523Y-52263251D01*
X147006198Y-52075700D01*
X146844300Y-51913802D01*
X146656749Y-51782477D01*
X146615538Y-51763260D01*
X146449249Y-51685718D01*
X146449238Y-51685714D01*
X146228089Y-51626457D01*
X146228081Y-51626456D01*
X146000002Y-51606502D01*
X145999998Y-51606502D01*
X145771918Y-51626456D01*
X145771910Y-51626457D01*
X145550761Y-51685714D01*
X145550750Y-51685718D01*
X145343254Y-51782475D01*
X145343252Y-51782476D01*
X145272856Y-51831767D01*
X145155700Y-51913802D01*
X145155698Y-51913803D01*
X145155695Y-51913806D01*
X144993806Y-52075695D01*
X144862476Y-52263252D01*
X144862475Y-52263254D01*
X144765718Y-52470750D01*
X144765714Y-52470761D01*
X144706457Y-52691910D01*
X144706456Y-52691918D01*
X144686502Y-52919998D01*
X100075500Y-52919998D01*
X100075500Y-50499994D01*
X102296673Y-50499994D01*
X102296673Y-50500005D01*
X102315948Y-50732622D01*
X102373251Y-50958907D01*
X102467015Y-51172668D01*
X102594686Y-51368084D01*
X102750308Y-51537133D01*
X102752780Y-51539818D01*
X102936983Y-51683190D01*
X102936985Y-51683191D01*
X102936988Y-51683193D01*
X102941654Y-51685718D01*
X103142273Y-51794287D01*
X103256914Y-51833643D01*
X103363045Y-51870079D01*
X103363047Y-51870079D01*
X103363049Y-51870080D01*
X103593288Y-51908500D01*
X103593289Y-51908500D01*
X103826711Y-51908500D01*
X103826712Y-51908500D01*
X104056951Y-51870080D01*
X104277727Y-51794287D01*
X104483017Y-51683190D01*
X104667220Y-51539818D01*
X104667231Y-51539805D01*
X104670990Y-51536347D01*
X104671714Y-51537133D01*
X104727067Y-51503861D01*
X104796905Y-51505954D01*
X104854525Y-51545472D01*
X104874602Y-51580495D01*
X104899111Y-51646205D01*
X104928688Y-51685714D01*
X104986739Y-51763261D01*
X105103796Y-51850889D01*
X105240799Y-51901989D01*
X105268050Y-51904918D01*
X105301345Y-51908499D01*
X105301362Y-51908500D01*
X107198638Y-51908500D01*
X107198654Y-51908499D01*
X107225692Y-51905591D01*
X107259201Y-51901989D01*
X107396204Y-51850889D01*
X107513261Y-51763261D01*
X107600889Y-51646204D01*
X107651989Y-51509201D01*
X107655591Y-51475692D01*
X107658499Y-51448654D01*
X107658500Y-51448637D01*
X107658500Y-49551362D01*
X107658499Y-49551345D01*
X107652962Y-49499852D01*
X107651989Y-49490799D01*
X107646259Y-49475437D01*
X107625397Y-49419504D01*
X107600889Y-49353796D01*
X107513261Y-49236739D01*
X107396204Y-49149111D01*
X107259203Y-49098011D01*
X107198654Y-49091500D01*
X107198638Y-49091500D01*
X105301362Y-49091500D01*
X105301345Y-49091500D01*
X105240797Y-49098011D01*
X105240795Y-49098011D01*
X105103795Y-49149111D01*
X104986739Y-49236739D01*
X104899111Y-49353794D01*
X104874602Y-49419504D01*
X104832729Y-49475437D01*
X104767264Y-49499852D01*
X104698992Y-49484999D01*
X104671275Y-49463342D01*
X104670990Y-49463653D01*
X104667225Y-49460187D01*
X104667220Y-49460182D01*
X104483017Y-49316810D01*
X104483015Y-49316809D01*
X104483014Y-49316808D01*
X104483011Y-49316806D01*
X104277733Y-49205716D01*
X104277730Y-49205715D01*
X104277727Y-49205713D01*
X104277721Y-49205711D01*
X104277719Y-49205710D01*
X104056954Y-49129920D01*
X103865730Y-49098011D01*
X103826712Y-49091500D01*
X103593288Y-49091500D01*
X103554270Y-49098011D01*
X103363045Y-49129920D01*
X103142280Y-49205710D01*
X103142266Y-49205716D01*
X102936988Y-49316806D01*
X102936985Y-49316808D01*
X102752781Y-49460181D01*
X102752776Y-49460185D01*
X102594686Y-49631915D01*
X102467015Y-49827331D01*
X102373251Y-50041092D01*
X102315948Y-50267377D01*
X102296673Y-50499994D01*
X100075500Y-50499994D01*
X100075500Y-48351345D01*
X109391500Y-48351345D01*
X109391500Y-50148654D01*
X109398011Y-50209202D01*
X109398011Y-50209204D01*
X109447240Y-50341187D01*
X109449111Y-50346204D01*
X109536739Y-50463261D01*
X109653796Y-50550889D01*
X109790799Y-50601989D01*
X109818050Y-50604918D01*
X109851345Y-50608499D01*
X109851362Y-50608500D01*
X111648638Y-50608500D01*
X111648654Y-50608499D01*
X111675692Y-50605591D01*
X111709201Y-50601989D01*
X111846204Y-50550889D01*
X111963261Y-50463261D01*
X112050889Y-50346204D01*
X112101989Y-50209201D01*
X112105678Y-50174889D01*
X112108499Y-50148654D01*
X112108500Y-50148637D01*
X112108500Y-48351362D01*
X112108499Y-48351345D01*
X112103166Y-48301750D01*
X112103122Y-48301345D01*
X117437500Y-48301345D01*
X117437500Y-50098654D01*
X117444011Y-50159202D01*
X117444011Y-50159204D01*
X117462661Y-50209204D01*
X117495111Y-50296204D01*
X117582739Y-50413261D01*
X117699796Y-50500889D01*
X117836799Y-50551989D01*
X117864050Y-50554918D01*
X117897345Y-50558499D01*
X117897362Y-50558500D01*
X119694638Y-50558500D01*
X119694654Y-50558499D01*
X119721692Y-50555591D01*
X119755201Y-50551989D01*
X119892204Y-50500889D01*
X120009261Y-50413261D01*
X120096889Y-50296204D01*
X120142138Y-50174887D01*
X120184009Y-50118956D01*
X120249474Y-50094539D01*
X120317746Y-50109391D01*
X120349545Y-50134236D01*
X120412760Y-50202906D01*
X120590424Y-50341189D01*
X120590425Y-50341189D01*
X120590427Y-50341191D01*
X120717135Y-50409761D01*
X120788426Y-50448342D01*
X121001365Y-50521444D01*
X121223431Y-50558500D01*
X121448569Y-50558500D01*
X121670635Y-50521444D01*
X121883574Y-50448342D01*
X122081576Y-50341189D01*
X122259240Y-50202906D01*
X122411722Y-50037268D01*
X122502193Y-49898790D01*
X122555338Y-49853437D01*
X122624569Y-49844013D01*
X122687905Y-49873515D01*
X122709804Y-49898787D01*
X122800278Y-50037268D01*
X122800283Y-50037273D01*
X122800284Y-50037276D01*
X122952756Y-50202902D01*
X122952761Y-50202907D01*
X123011981Y-50249000D01*
X123130424Y-50341189D01*
X123130425Y-50341189D01*
X123130427Y-50341191D01*
X123257135Y-50409761D01*
X123328426Y-50448342D01*
X123541365Y-50521444D01*
X123763431Y-50558500D01*
X123988569Y-50558500D01*
X124210635Y-50521444D01*
X124423574Y-50448342D01*
X124621576Y-50341189D01*
X124799240Y-50202906D01*
X124951722Y-50037268D01*
X125042193Y-49898790D01*
X125095338Y-49853437D01*
X125164569Y-49844013D01*
X125227905Y-49873515D01*
X125249804Y-49898787D01*
X125340278Y-50037268D01*
X125340283Y-50037273D01*
X125340284Y-50037276D01*
X125492756Y-50202902D01*
X125492761Y-50202907D01*
X125551981Y-50249000D01*
X125670424Y-50341189D01*
X125670425Y-50341189D01*
X125670427Y-50341191D01*
X125797135Y-50409761D01*
X125868426Y-50448342D01*
X126081365Y-50521444D01*
X126303431Y-50558500D01*
X126528569Y-50558500D01*
X126750635Y-50521444D01*
X126963574Y-50448342D01*
X127161576Y-50341189D01*
X127339240Y-50202906D01*
X127491722Y-50037268D01*
X127582193Y-49898790D01*
X127635338Y-49853437D01*
X127704569Y-49844013D01*
X127767905Y-49873515D01*
X127789804Y-49898787D01*
X127880278Y-50037268D01*
X127880283Y-50037273D01*
X127880284Y-50037276D01*
X128032756Y-50202902D01*
X128032761Y-50202907D01*
X128091981Y-50249000D01*
X128210424Y-50341189D01*
X128210425Y-50341189D01*
X128210427Y-50341191D01*
X128337135Y-50409761D01*
X128408426Y-50448342D01*
X128621365Y-50521444D01*
X128843431Y-50558500D01*
X129068569Y-50558500D01*
X129290635Y-50521444D01*
X129503574Y-50448342D01*
X129701576Y-50341189D01*
X129879240Y-50202906D01*
X130031722Y-50037268D01*
X130122193Y-49898790D01*
X130175338Y-49853437D01*
X130244569Y-49844013D01*
X130307905Y-49873515D01*
X130329804Y-49898787D01*
X130420278Y-50037268D01*
X130420283Y-50037273D01*
X130420284Y-50037276D01*
X130572756Y-50202902D01*
X130572761Y-50202907D01*
X130631981Y-50249000D01*
X130750424Y-50341189D01*
X130750425Y-50341189D01*
X130750427Y-50341191D01*
X130877135Y-50409761D01*
X130948426Y-50448342D01*
X131161365Y-50521444D01*
X131383431Y-50558500D01*
X131608569Y-50558500D01*
X131830635Y-50521444D01*
X132043574Y-50448342D01*
X132241576Y-50341189D01*
X132419240Y-50202906D01*
X132571722Y-50037268D01*
X132662193Y-49898790D01*
X132715338Y-49853437D01*
X132784569Y-49844013D01*
X132847905Y-49873515D01*
X132869804Y-49898787D01*
X132960278Y-50037268D01*
X132960283Y-50037273D01*
X132960284Y-50037276D01*
X133112756Y-50202902D01*
X133112761Y-50202907D01*
X133171981Y-50249000D01*
X133290424Y-50341189D01*
X133290425Y-50341189D01*
X133290427Y-50341191D01*
X133417135Y-50409761D01*
X133488426Y-50448342D01*
X133701365Y-50521444D01*
X133923431Y-50558500D01*
X134148569Y-50558500D01*
X134370635Y-50521444D01*
X134583574Y-50448342D01*
X134781576Y-50341189D01*
X134959240Y-50202906D01*
X135111722Y-50037268D01*
X135202193Y-49898790D01*
X135255338Y-49853437D01*
X135324569Y-49844013D01*
X135387905Y-49873515D01*
X135409804Y-49898787D01*
X135500278Y-50037268D01*
X135500283Y-50037273D01*
X135500284Y-50037276D01*
X135652756Y-50202902D01*
X135652761Y-50202907D01*
X135711981Y-50249000D01*
X135830424Y-50341189D01*
X135830425Y-50341189D01*
X135830427Y-50341191D01*
X135957135Y-50409761D01*
X136028426Y-50448342D01*
X136241365Y-50521444D01*
X136463431Y-50558500D01*
X136688569Y-50558500D01*
X136910635Y-50521444D01*
X137123574Y-50448342D01*
X137321576Y-50341189D01*
X137499240Y-50202906D01*
X137651722Y-50037268D01*
X137742193Y-49898790D01*
X137795338Y-49853437D01*
X137864569Y-49844013D01*
X137927905Y-49873515D01*
X137949804Y-49898787D01*
X138040278Y-50037268D01*
X138040283Y-50037273D01*
X138040284Y-50037276D01*
X138192756Y-50202902D01*
X138192761Y-50202907D01*
X138251981Y-50249000D01*
X138370424Y-50341189D01*
X138370425Y-50341189D01*
X138370427Y-50341191D01*
X138497135Y-50409761D01*
X138568426Y-50448342D01*
X138781365Y-50521444D01*
X139003431Y-50558500D01*
X139228569Y-50558500D01*
X139450635Y-50521444D01*
X139663574Y-50448342D01*
X139861576Y-50341189D01*
X140039240Y-50202906D01*
X140191722Y-50037268D01*
X140282193Y-49898790D01*
X140335338Y-49853437D01*
X140404569Y-49844013D01*
X140467905Y-49873515D01*
X140489804Y-49898787D01*
X140580278Y-50037268D01*
X140580283Y-50037273D01*
X140580284Y-50037276D01*
X140732756Y-50202902D01*
X140732761Y-50202907D01*
X140791981Y-50249000D01*
X140910424Y-50341189D01*
X140910425Y-50341189D01*
X140910427Y-50341191D01*
X141037135Y-50409761D01*
X141108426Y-50448342D01*
X141321365Y-50521444D01*
X141543431Y-50558500D01*
X141768569Y-50558500D01*
X141990635Y-50521444D01*
X142203574Y-50448342D01*
X142401576Y-50341189D01*
X142579240Y-50202906D01*
X142731722Y-50037268D01*
X142854860Y-49848791D01*
X142945296Y-49642616D01*
X143000564Y-49424368D01*
X143016112Y-49236739D01*
X143019156Y-49200005D01*
X143019156Y-49199994D01*
X143000565Y-48975640D01*
X143000563Y-48975628D01*
X142970370Y-48856400D01*
X142945296Y-48757384D01*
X142854860Y-48551209D01*
X142838706Y-48526484D01*
X142731723Y-48362734D01*
X142731715Y-48362723D01*
X142675212Y-48301345D01*
X144361500Y-48301345D01*
X144361500Y-50098654D01*
X144368011Y-50159202D01*
X144368011Y-50159204D01*
X144386661Y-50209204D01*
X144419111Y-50296204D01*
X144506739Y-50413261D01*
X144623796Y-50500889D01*
X144760799Y-50551989D01*
X144788050Y-50554918D01*
X144821345Y-50558499D01*
X144821362Y-50558500D01*
X146618638Y-50558500D01*
X146618654Y-50558499D01*
X146645692Y-50555591D01*
X146679201Y-50551989D01*
X146816204Y-50500889D01*
X146933261Y-50413261D01*
X147020889Y-50296204D01*
X147066138Y-50174887D01*
X147108009Y-50118956D01*
X147173474Y-50094539D01*
X147241746Y-50109391D01*
X147273545Y-50134236D01*
X147336760Y-50202906D01*
X147514424Y-50341189D01*
X147514425Y-50341189D01*
X147514427Y-50341191D01*
X147641135Y-50409761D01*
X147712426Y-50448342D01*
X147925365Y-50521444D01*
X148147431Y-50558500D01*
X148372569Y-50558500D01*
X148594635Y-50521444D01*
X148807574Y-50448342D01*
X149005576Y-50341189D01*
X149183240Y-50202906D01*
X149335722Y-50037268D01*
X149426193Y-49898790D01*
X149479338Y-49853437D01*
X149548569Y-49844013D01*
X149611905Y-49873515D01*
X149633804Y-49898787D01*
X149724278Y-50037268D01*
X149724283Y-50037273D01*
X149724284Y-50037276D01*
X149876756Y-50202902D01*
X149876761Y-50202907D01*
X149935981Y-50249000D01*
X150054424Y-50341189D01*
X150054425Y-50341189D01*
X150054427Y-50341191D01*
X150181135Y-50409761D01*
X150252426Y-50448342D01*
X150465365Y-50521444D01*
X150687431Y-50558500D01*
X150912569Y-50558500D01*
X151134635Y-50521444D01*
X151347574Y-50448342D01*
X151545576Y-50341189D01*
X151723240Y-50202906D01*
X151875722Y-50037268D01*
X151966193Y-49898790D01*
X152019338Y-49853437D01*
X152088569Y-49844013D01*
X152151905Y-49873515D01*
X152173804Y-49898787D01*
X152264278Y-50037268D01*
X152264283Y-50037273D01*
X152264284Y-50037276D01*
X152416756Y-50202902D01*
X152416761Y-50202907D01*
X152475981Y-50249000D01*
X152594424Y-50341189D01*
X152594425Y-50341189D01*
X152594427Y-50341191D01*
X152721135Y-50409761D01*
X152792426Y-50448342D01*
X153005365Y-50521444D01*
X153227431Y-50558500D01*
X153452569Y-50558500D01*
X153674635Y-50521444D01*
X153887574Y-50448342D01*
X154085576Y-50341189D01*
X154263240Y-50202906D01*
X154415722Y-50037268D01*
X154506193Y-49898790D01*
X154559338Y-49853437D01*
X154628569Y-49844013D01*
X154691905Y-49873515D01*
X154713804Y-49898787D01*
X154804278Y-50037268D01*
X154804283Y-50037273D01*
X154804284Y-50037276D01*
X154956756Y-50202902D01*
X154956761Y-50202907D01*
X155015981Y-50249000D01*
X155134424Y-50341189D01*
X155134425Y-50341189D01*
X155134427Y-50341191D01*
X155261135Y-50409761D01*
X155332426Y-50448342D01*
X155545365Y-50521444D01*
X155767431Y-50558500D01*
X155992569Y-50558500D01*
X156214635Y-50521444D01*
X156427574Y-50448342D01*
X156625576Y-50341189D01*
X156803240Y-50202906D01*
X156955722Y-50037268D01*
X157046193Y-49898790D01*
X157099338Y-49853437D01*
X157168569Y-49844013D01*
X157231905Y-49873515D01*
X157253804Y-49898787D01*
X157344278Y-50037268D01*
X157344283Y-50037273D01*
X157344284Y-50037276D01*
X157496756Y-50202902D01*
X157496761Y-50202907D01*
X157555981Y-50249000D01*
X157674424Y-50341189D01*
X157674425Y-50341189D01*
X157674427Y-50341191D01*
X157801135Y-50409761D01*
X157872426Y-50448342D01*
X158085365Y-50521444D01*
X158307431Y-50558500D01*
X158532569Y-50558500D01*
X158754635Y-50521444D01*
X158967574Y-50448342D01*
X159165576Y-50341189D01*
X159343240Y-50202906D01*
X159495722Y-50037268D01*
X159586193Y-49898790D01*
X159639338Y-49853437D01*
X159708569Y-49844013D01*
X159771905Y-49873515D01*
X159793804Y-49898787D01*
X159884278Y-50037268D01*
X159884283Y-50037273D01*
X159884284Y-50037276D01*
X160036756Y-50202902D01*
X160036761Y-50202907D01*
X160095981Y-50249000D01*
X160214424Y-50341189D01*
X160214425Y-50341189D01*
X160214427Y-50341191D01*
X160341135Y-50409761D01*
X160412426Y-50448342D01*
X160625365Y-50521444D01*
X160847431Y-50558500D01*
X161072569Y-50558500D01*
X161294635Y-50521444D01*
X161507574Y-50448342D01*
X161705576Y-50341189D01*
X161883240Y-50202906D01*
X162035722Y-50037268D01*
X162126193Y-49898790D01*
X162179338Y-49853437D01*
X162248569Y-49844013D01*
X162311905Y-49873515D01*
X162333804Y-49898787D01*
X162424278Y-50037268D01*
X162424283Y-50037273D01*
X162424284Y-50037276D01*
X162576756Y-50202902D01*
X162576761Y-50202907D01*
X162635981Y-50249000D01*
X162754424Y-50341189D01*
X162754425Y-50341189D01*
X162754427Y-50341191D01*
X162881135Y-50409761D01*
X162952426Y-50448342D01*
X163165365Y-50521444D01*
X163387431Y-50558500D01*
X163612569Y-50558500D01*
X163834635Y-50521444D01*
X164047574Y-50448342D01*
X164245576Y-50341189D01*
X164423240Y-50202906D01*
X164575722Y-50037268D01*
X164698860Y-49848791D01*
X164789296Y-49642616D01*
X164844564Y-49424368D01*
X164860112Y-49236739D01*
X164863156Y-49200005D01*
X164863156Y-49199994D01*
X164844565Y-48975640D01*
X164844563Y-48975628D01*
X164814370Y-48856400D01*
X164789296Y-48757384D01*
X164698860Y-48551209D01*
X164682706Y-48526484D01*
X164575723Y-48362734D01*
X164575715Y-48362723D01*
X164423243Y-48197097D01*
X164423238Y-48197092D01*
X164245577Y-48058812D01*
X164245572Y-48058808D01*
X164047580Y-47951661D01*
X164047577Y-47951659D01*
X164047574Y-47951658D01*
X164047571Y-47951657D01*
X164047569Y-47951656D01*
X163834637Y-47878556D01*
X163612569Y-47841500D01*
X163387431Y-47841500D01*
X163165362Y-47878556D01*
X162952430Y-47951656D01*
X162952419Y-47951661D01*
X162754427Y-48058808D01*
X162754422Y-48058812D01*
X162576761Y-48197092D01*
X162576756Y-48197097D01*
X162424284Y-48362723D01*
X162424276Y-48362734D01*
X162333808Y-48501206D01*
X162280662Y-48546562D01*
X162211431Y-48555986D01*
X162148095Y-48526484D01*
X162126192Y-48501206D01*
X162035723Y-48362734D01*
X162035715Y-48362723D01*
X161883243Y-48197097D01*
X161883238Y-48197092D01*
X161705577Y-48058812D01*
X161705572Y-48058808D01*
X161507580Y-47951661D01*
X161507577Y-47951659D01*
X161507574Y-47951658D01*
X161507571Y-47951657D01*
X161507569Y-47951656D01*
X161294637Y-47878556D01*
X161072569Y-47841500D01*
X160847431Y-47841500D01*
X160625362Y-47878556D01*
X160412430Y-47951656D01*
X160412419Y-47951661D01*
X160214427Y-48058808D01*
X160214422Y-48058812D01*
X160036761Y-48197092D01*
X160036756Y-48197097D01*
X159884284Y-48362723D01*
X159884276Y-48362734D01*
X159793808Y-48501206D01*
X159740662Y-48546562D01*
X159671431Y-48555986D01*
X159608095Y-48526484D01*
X159586192Y-48501206D01*
X159495723Y-48362734D01*
X159495715Y-48362723D01*
X159343243Y-48197097D01*
X159343238Y-48197092D01*
X159165577Y-48058812D01*
X159165572Y-48058808D01*
X158967580Y-47951661D01*
X158967577Y-47951659D01*
X158967574Y-47951658D01*
X158967571Y-47951657D01*
X158967569Y-47951656D01*
X158754637Y-47878556D01*
X158532569Y-47841500D01*
X158307431Y-47841500D01*
X158085362Y-47878556D01*
X157872430Y-47951656D01*
X157872419Y-47951661D01*
X157674427Y-48058808D01*
X157674422Y-48058812D01*
X157496761Y-48197092D01*
X157496756Y-48197097D01*
X157344284Y-48362723D01*
X157344276Y-48362734D01*
X157253808Y-48501206D01*
X157200662Y-48546562D01*
X157131431Y-48555986D01*
X157068095Y-48526484D01*
X157046192Y-48501206D01*
X156955723Y-48362734D01*
X156955715Y-48362723D01*
X156803243Y-48197097D01*
X156803238Y-48197092D01*
X156625577Y-48058812D01*
X156625572Y-48058808D01*
X156427580Y-47951661D01*
X156427577Y-47951659D01*
X156427574Y-47951658D01*
X156427571Y-47951657D01*
X156427569Y-47951656D01*
X156214637Y-47878556D01*
X155992569Y-47841500D01*
X155767431Y-47841500D01*
X155545362Y-47878556D01*
X155332430Y-47951656D01*
X155332419Y-47951661D01*
X155134427Y-48058808D01*
X155134422Y-48058812D01*
X154956761Y-48197092D01*
X154956756Y-48197097D01*
X154804284Y-48362723D01*
X154804276Y-48362734D01*
X154713808Y-48501206D01*
X154660662Y-48546562D01*
X154591431Y-48555986D01*
X154528095Y-48526484D01*
X154506192Y-48501206D01*
X154415723Y-48362734D01*
X154415715Y-48362723D01*
X154263243Y-48197097D01*
X154263238Y-48197092D01*
X154085577Y-48058812D01*
X154085572Y-48058808D01*
X153887580Y-47951661D01*
X153887577Y-47951659D01*
X153887574Y-47951658D01*
X153887571Y-47951657D01*
X153887569Y-47951656D01*
X153674637Y-47878556D01*
X153452569Y-47841500D01*
X153227431Y-47841500D01*
X153005362Y-47878556D01*
X152792430Y-47951656D01*
X152792419Y-47951661D01*
X152594427Y-48058808D01*
X152594422Y-48058812D01*
X152416761Y-48197092D01*
X152416756Y-48197097D01*
X152264284Y-48362723D01*
X152264276Y-48362734D01*
X152173808Y-48501206D01*
X152120662Y-48546562D01*
X152051431Y-48555986D01*
X151988095Y-48526484D01*
X151966192Y-48501206D01*
X151875723Y-48362734D01*
X151875715Y-48362723D01*
X151723243Y-48197097D01*
X151723238Y-48197092D01*
X151545577Y-48058812D01*
X151545572Y-48058808D01*
X151347580Y-47951661D01*
X151347577Y-47951659D01*
X151347574Y-47951658D01*
X151347571Y-47951657D01*
X151347569Y-47951656D01*
X151134637Y-47878556D01*
X150912569Y-47841500D01*
X150687431Y-47841500D01*
X150465362Y-47878556D01*
X150252430Y-47951656D01*
X150252419Y-47951661D01*
X150054427Y-48058808D01*
X150054422Y-48058812D01*
X149876761Y-48197092D01*
X149876756Y-48197097D01*
X149724284Y-48362723D01*
X149724276Y-48362734D01*
X149633808Y-48501206D01*
X149580662Y-48546562D01*
X149511431Y-48555986D01*
X149448095Y-48526484D01*
X149426192Y-48501206D01*
X149335723Y-48362734D01*
X149335715Y-48362723D01*
X149183243Y-48197097D01*
X149183238Y-48197092D01*
X149005577Y-48058812D01*
X149005572Y-48058808D01*
X148807580Y-47951661D01*
X148807577Y-47951659D01*
X148807574Y-47951658D01*
X148807571Y-47951657D01*
X148807569Y-47951656D01*
X148594637Y-47878556D01*
X148372569Y-47841500D01*
X148147431Y-47841500D01*
X147925362Y-47878556D01*
X147712430Y-47951656D01*
X147712419Y-47951661D01*
X147514427Y-48058808D01*
X147514422Y-48058812D01*
X147336761Y-48197092D01*
X147273548Y-48265760D01*
X147213661Y-48301750D01*
X147143823Y-48299649D01*
X147086207Y-48260124D01*
X147066138Y-48225110D01*
X147020889Y-48103796D01*
X146987214Y-48058812D01*
X146933261Y-47986739D01*
X146816204Y-47899111D01*
X146813255Y-47898011D01*
X146679203Y-47848011D01*
X146618654Y-47841500D01*
X146618638Y-47841500D01*
X144821362Y-47841500D01*
X144821345Y-47841500D01*
X144760797Y-47848011D01*
X144760795Y-47848011D01*
X144623795Y-47899111D01*
X144506739Y-47986739D01*
X144419111Y-48103795D01*
X144368011Y-48240795D01*
X144368011Y-48240797D01*
X144361500Y-48301345D01*
X142675212Y-48301345D01*
X142579243Y-48197097D01*
X142579238Y-48197092D01*
X142401577Y-48058812D01*
X142401572Y-48058808D01*
X142203580Y-47951661D01*
X142203577Y-47951659D01*
X142203574Y-47951658D01*
X142203571Y-47951657D01*
X142203569Y-47951656D01*
X141990637Y-47878556D01*
X141768569Y-47841500D01*
X141543431Y-47841500D01*
X141321362Y-47878556D01*
X141108430Y-47951656D01*
X141108419Y-47951661D01*
X140910427Y-48058808D01*
X140910422Y-48058812D01*
X140732761Y-48197092D01*
X140732756Y-48197097D01*
X140580284Y-48362723D01*
X140580276Y-48362734D01*
X140489808Y-48501206D01*
X140436662Y-48546562D01*
X140367431Y-48555986D01*
X140304095Y-48526484D01*
X140282192Y-48501206D01*
X140191723Y-48362734D01*
X140191715Y-48362723D01*
X140039243Y-48197097D01*
X140039238Y-48197092D01*
X139861577Y-48058812D01*
X139861572Y-48058808D01*
X139663580Y-47951661D01*
X139663577Y-47951659D01*
X139663574Y-47951658D01*
X139663571Y-47951657D01*
X139663569Y-47951656D01*
X139450637Y-47878556D01*
X139228569Y-47841500D01*
X139003431Y-47841500D01*
X138781362Y-47878556D01*
X138568430Y-47951656D01*
X138568419Y-47951661D01*
X138370427Y-48058808D01*
X138370422Y-48058812D01*
X138192761Y-48197092D01*
X138192756Y-48197097D01*
X138040284Y-48362723D01*
X138040276Y-48362734D01*
X137949808Y-48501206D01*
X137896662Y-48546562D01*
X137827431Y-48555986D01*
X137764095Y-48526484D01*
X137742192Y-48501206D01*
X137651723Y-48362734D01*
X137651715Y-48362723D01*
X137499243Y-48197097D01*
X137499238Y-48197092D01*
X137321577Y-48058812D01*
X137321572Y-48058808D01*
X137123580Y-47951661D01*
X137123577Y-47951659D01*
X137123574Y-47951658D01*
X137123571Y-47951657D01*
X137123569Y-47951656D01*
X136910637Y-47878556D01*
X136688569Y-47841500D01*
X136463431Y-47841500D01*
X136241362Y-47878556D01*
X136028430Y-47951656D01*
X136028419Y-47951661D01*
X135830427Y-48058808D01*
X135830422Y-48058812D01*
X135652761Y-48197092D01*
X135652756Y-48197097D01*
X135500284Y-48362723D01*
X135500276Y-48362734D01*
X135409808Y-48501206D01*
X135356662Y-48546562D01*
X135287431Y-48555986D01*
X135224095Y-48526484D01*
X135202192Y-48501206D01*
X135111723Y-48362734D01*
X135111715Y-48362723D01*
X134959243Y-48197097D01*
X134959238Y-48197092D01*
X134781577Y-48058812D01*
X134781572Y-48058808D01*
X134583580Y-47951661D01*
X134583577Y-47951659D01*
X134583574Y-47951658D01*
X134583571Y-47951657D01*
X134583569Y-47951656D01*
X134370637Y-47878556D01*
X134148569Y-47841500D01*
X133923431Y-47841500D01*
X133701362Y-47878556D01*
X133488430Y-47951656D01*
X133488419Y-47951661D01*
X133290427Y-48058808D01*
X133290422Y-48058812D01*
X133112761Y-48197092D01*
X133112756Y-48197097D01*
X132960284Y-48362723D01*
X132960276Y-48362734D01*
X132869808Y-48501206D01*
X132816662Y-48546562D01*
X132747431Y-48555986D01*
X132684095Y-48526484D01*
X132662192Y-48501206D01*
X132571723Y-48362734D01*
X132571715Y-48362723D01*
X132419243Y-48197097D01*
X132419238Y-48197092D01*
X132241577Y-48058812D01*
X132241572Y-48058808D01*
X132043580Y-47951661D01*
X132043577Y-47951659D01*
X132043574Y-47951658D01*
X132043571Y-47951657D01*
X132043569Y-47951656D01*
X131830637Y-47878556D01*
X131608569Y-47841500D01*
X131383431Y-47841500D01*
X131161362Y-47878556D01*
X130948430Y-47951656D01*
X130948419Y-47951661D01*
X130750427Y-48058808D01*
X130750422Y-48058812D01*
X130572761Y-48197092D01*
X130572756Y-48197097D01*
X130420284Y-48362723D01*
X130420276Y-48362734D01*
X130329808Y-48501206D01*
X130276662Y-48546562D01*
X130207431Y-48555986D01*
X130144095Y-48526484D01*
X130122192Y-48501206D01*
X130031723Y-48362734D01*
X130031715Y-48362723D01*
X129879243Y-48197097D01*
X129879238Y-48197092D01*
X129701577Y-48058812D01*
X129701572Y-48058808D01*
X129503580Y-47951661D01*
X129503577Y-47951659D01*
X129503574Y-47951658D01*
X129503571Y-47951657D01*
X129503569Y-47951656D01*
X129290637Y-47878556D01*
X129068569Y-47841500D01*
X128843431Y-47841500D01*
X128621362Y-47878556D01*
X128408430Y-47951656D01*
X128408419Y-47951661D01*
X128210427Y-48058808D01*
X128210422Y-48058812D01*
X128032761Y-48197092D01*
X128032756Y-48197097D01*
X127880284Y-48362723D01*
X127880276Y-48362734D01*
X127789808Y-48501206D01*
X127736662Y-48546562D01*
X127667431Y-48555986D01*
X127604095Y-48526484D01*
X127582192Y-48501206D01*
X127491723Y-48362734D01*
X127491715Y-48362723D01*
X127339243Y-48197097D01*
X127339238Y-48197092D01*
X127161577Y-48058812D01*
X127161572Y-48058808D01*
X126963580Y-47951661D01*
X126963577Y-47951659D01*
X126963574Y-47951658D01*
X126963571Y-47951657D01*
X126963569Y-47951656D01*
X126750637Y-47878556D01*
X126528569Y-47841500D01*
X126303431Y-47841500D01*
X126081362Y-47878556D01*
X125868430Y-47951656D01*
X125868419Y-47951661D01*
X125670427Y-48058808D01*
X125670422Y-48058812D01*
X125492761Y-48197092D01*
X125492756Y-48197097D01*
X125340284Y-48362723D01*
X125340276Y-48362734D01*
X125249808Y-48501206D01*
X125196662Y-48546562D01*
X125127431Y-48555986D01*
X125064095Y-48526484D01*
X125042192Y-48501206D01*
X124951723Y-48362734D01*
X124951715Y-48362723D01*
X124799243Y-48197097D01*
X124799238Y-48197092D01*
X124621577Y-48058812D01*
X124621572Y-48058808D01*
X124423580Y-47951661D01*
X124423577Y-47951659D01*
X124423574Y-47951658D01*
X124423571Y-47951657D01*
X124423569Y-47951656D01*
X124210637Y-47878556D01*
X123988569Y-47841500D01*
X123763431Y-47841500D01*
X123541362Y-47878556D01*
X123328430Y-47951656D01*
X123328419Y-47951661D01*
X123130427Y-48058808D01*
X123130422Y-48058812D01*
X122952761Y-48197092D01*
X122952756Y-48197097D01*
X122800284Y-48362723D01*
X122800276Y-48362734D01*
X122709808Y-48501206D01*
X122656662Y-48546562D01*
X122587431Y-48555986D01*
X122524095Y-48526484D01*
X122502192Y-48501206D01*
X122411723Y-48362734D01*
X122411715Y-48362723D01*
X122259243Y-48197097D01*
X122259238Y-48197092D01*
X122081577Y-48058812D01*
X122081572Y-48058808D01*
X121883580Y-47951661D01*
X121883577Y-47951659D01*
X121883574Y-47951658D01*
X121883571Y-47951657D01*
X121883569Y-47951656D01*
X121670637Y-47878556D01*
X121448569Y-47841500D01*
X121223431Y-47841500D01*
X121001362Y-47878556D01*
X120788430Y-47951656D01*
X120788419Y-47951661D01*
X120590427Y-48058808D01*
X120590422Y-48058812D01*
X120412761Y-48197092D01*
X120349548Y-48265760D01*
X120289661Y-48301750D01*
X120219823Y-48299649D01*
X120162207Y-48260124D01*
X120142138Y-48225110D01*
X120096889Y-48103796D01*
X120063214Y-48058812D01*
X120009261Y-47986739D01*
X119892204Y-47899111D01*
X119889255Y-47898011D01*
X119755203Y-47848011D01*
X119694654Y-47841500D01*
X119694638Y-47841500D01*
X117897362Y-47841500D01*
X117897345Y-47841500D01*
X117836797Y-47848011D01*
X117836795Y-47848011D01*
X117699795Y-47899111D01*
X117582739Y-47986739D01*
X117495111Y-48103795D01*
X117444011Y-48240795D01*
X117444011Y-48240797D01*
X117437500Y-48301345D01*
X112103122Y-48301345D01*
X112101989Y-48290799D01*
X112050889Y-48153796D01*
X111963261Y-48036739D01*
X111846204Y-47949111D01*
X111709203Y-47898011D01*
X111648654Y-47891500D01*
X111648638Y-47891500D01*
X109851362Y-47891500D01*
X109851345Y-47891500D01*
X109790797Y-47898011D01*
X109790795Y-47898011D01*
X109653795Y-47949111D01*
X109536739Y-48036739D01*
X109449111Y-48153795D01*
X109398011Y-48290795D01*
X109398011Y-48290797D01*
X109391500Y-48351345D01*
X100075500Y-48351345D01*
X100075500Y-47428092D01*
X100076097Y-47415938D01*
X100087494Y-47300222D01*
X100092234Y-47276389D01*
X100124216Y-47170959D01*
X100133508Y-47148526D01*
X100185442Y-47051365D01*
X100198938Y-47031166D01*
X100268827Y-46946006D01*
X100286006Y-46928827D01*
X100371166Y-46858938D01*
X100391365Y-46845442D01*
X100488526Y-46793508D01*
X100510959Y-46784216D01*
X100616389Y-46752234D01*
X100640220Y-46747494D01*
X100755939Y-46736097D01*
X100768093Y-46735500D01*
X100786531Y-46735500D01*
X163914556Y-46735500D01*
X163981595Y-46755185D01*
G37*
%TD.AperFunction*%
%TD*%
M02*
