%TF.GenerationSoftware,KiCad,Pcbnew,8.0.2*%
%TF.CreationDate,2024-05-18T14:33:59+02:00*%
%TF.ProjectId,SDHD_Lab,53444844-5f4c-4616-922e-6b696361645f,R1.0*%
%TF.SameCoordinates,Original*%
%TF.FileFunction,Copper,L4,Bot*%
%TF.FilePolarity,Positive*%
%FSLAX46Y46*%
G04 Gerber Fmt 4.6, Leading zero omitted, Abs format (unit mm)*
G04 Created by KiCad (PCBNEW 8.0.2) date 2024-05-18 14:33:59*
%MOMM*%
%LPD*%
G01*
G04 APERTURE LIST*
%TA.AperFunction,ComponentPad*%
%ADD10R,1.700000X1.700000*%
%TD*%
%TA.AperFunction,ComponentPad*%
%ADD11O,1.700000X1.700000*%
%TD*%
%TA.AperFunction,ComponentPad*%
%ADD12R,1.800000X1.800000*%
%TD*%
%TA.AperFunction,ComponentPad*%
%ADD13C,1.800000*%
%TD*%
%TA.AperFunction,ComponentPad*%
%ADD14C,1.600000*%
%TD*%
%TA.AperFunction,ComponentPad*%
%ADD15O,1.600000X1.600000*%
%TD*%
%TA.AperFunction,ComponentPad*%
%ADD16C,2.000000*%
%TD*%
%TA.AperFunction,ComponentPad*%
%ADD17R,1.200000X1.200000*%
%TD*%
%TA.AperFunction,ComponentPad*%
%ADD18C,1.200000*%
%TD*%
%TA.AperFunction,ComponentPad*%
%ADD19R,1.600000X1.600000*%
%TD*%
G04 APERTURE END LIST*
D10*
%TO.P,J1,1,Pin_1*%
%TO.N,unconnected-(J1-Pin_1-Pad1)*%
X127940000Y-97460000D03*
D11*
%TO.P,J1,2,Pin_2*%
%TO.N,/VDDIO{slash}2*%
X130480000Y-97460000D03*
%TO.P,J1,3,Pin_3*%
%TO.N,/nReset{slash}2*%
X133020000Y-97460000D03*
%TO.P,J1,4,Pin_4*%
%TO.N,/3.3V*%
X135560000Y-97460000D03*
%TO.P,J1,5,Pin_5*%
%TO.N,+5V*%
X138100000Y-97460000D03*
%TO.P,J1,6,Pin_6*%
%TO.N,GND*%
X140640000Y-97460000D03*
%TO.P,J1,7,Pin_7*%
X143180000Y-97460000D03*
%TO.P,J1,8,Pin_8*%
%TO.N,/Vin{slash}2*%
X145720000Y-97460000D03*
%TD*%
D10*
%TO.P,J2,1,Pin_1*%
%TO.N,/V_out*%
X150800000Y-97460000D03*
D11*
%TO.P,J2,2,Pin_2*%
%TO.N,/P15.4*%
X153340000Y-97460000D03*
%TO.P,J2,3,Pin_3*%
%TO.N,/P6.3*%
X155880000Y-97460000D03*
%TO.P,J2,4,Pin_4*%
%TO.N,/P6.2*%
X158420000Y-97460000D03*
%TO.P,J2,5,Pin_5*%
%TO.N,unconnected-(J2-Pin_5-Pad5)*%
X160960000Y-97460000D03*
%TO.P,J2,6,Pin_6*%
%TO.N,unconnected-(J2-Pin_6-Pad6)*%
X163500000Y-97460000D03*
%TD*%
D10*
%TO.P,J4,1,Pin_1*%
%TO.N,/P6.0*%
X118796000Y-49200000D03*
D11*
%TO.P,J4,2,Pin_2*%
%TO.N,/P6.1*%
X121336000Y-49200000D03*
%TO.P,J4,3,Pin_3*%
%TO.N,unconnected-(J4-Pin_3-Pad3)*%
X123876000Y-49200000D03*
%TO.P,J4,4,Pin_4*%
%TO.N,GND*%
X126416000Y-49200000D03*
%TO.P,J4,5,Pin_5*%
%TO.N,/USR_LED*%
X128956000Y-49200000D03*
%TO.P,J4,6,Pin_6*%
%TO.N,/P6.6*%
X131496000Y-49200000D03*
%TO.P,J4,7,Pin_7*%
%TO.N,/P6.5*%
X134036000Y-49200000D03*
%TO.P,J4,8,Pin_8*%
%TO.N,/P6.4*%
X136576000Y-49200000D03*
%TO.P,J4,9,Pin_9*%
%TO.N,/P12.5*%
X139116000Y-49200000D03*
%TO.P,J4,10,Pin_10*%
%TO.N,/P12.4*%
X141656000Y-49200000D03*
%TD*%
D10*
%TO.P,J5,1,Pin_1*%
%TO.N,/SW_BUTTON*%
X145720000Y-49200000D03*
D11*
%TO.P,J5,2,Pin_2*%
%TO.N,/LED_GREEN*%
X148260000Y-49200000D03*
%TO.P,J5,3,Pin_3*%
%TO.N,/LED_YELLOW*%
X150800000Y-49200000D03*
%TO.P,J5,4,Pin_4*%
%TO.N,/LED_RED*%
X153340000Y-49200000D03*
%TO.P,J5,5,Pin_5*%
%TO.N,/P2.3*%
X155880000Y-49200000D03*
%TO.P,J5,6,Pin_6*%
%TO.N,/P2.2*%
X158420000Y-49200000D03*
%TO.P,J5,7,Pin_7*%
%TO.N,/P2.1*%
X160960000Y-49200000D03*
%TO.P,J5,8,Pin_8*%
%TO.N,/P2.0*%
X163500000Y-49200000D03*
%TD*%
D12*
%TO.P,D2,1,K*%
%TO.N,GND*%
X161540000Y-71250000D03*
D13*
%TO.P,D2,2,A*%
%TO.N,Net-(D2-A)*%
X159000000Y-71250000D03*
%TD*%
D10*
%TO.P,TP_Sig1,1,1*%
%TO.N,/Radar_Sig*%
X104000000Y-72000000D03*
%TD*%
%TO.P,TP_1st,1,1*%
%TO.N,Net-(C2-Pad2)*%
X111300000Y-92025000D03*
%TD*%
D12*
%TO.P,D4,1,K*%
%TO.N,GND*%
X106250000Y-50500000D03*
D13*
%TO.P,D4,2,A*%
%TO.N,Net-(D4-A)*%
X103710000Y-50500000D03*
%TD*%
D10*
%TO.P,TP_GND2,1,1*%
%TO.N,GND*%
X110750000Y-49250000D03*
%TD*%
D14*
%TO.P,C5,1*%
%TO.N,/V_offset*%
X140500000Y-64000000D03*
%TO.P,C5,2*%
%TO.N,GND*%
X135500000Y-64000000D03*
%TD*%
%TO.P,R6,1*%
%TO.N,/V_offset*%
X123250000Y-66580000D03*
D15*
%TO.P,R6,2*%
%TO.N,GND*%
X123250000Y-56420000D03*
%TD*%
D10*
%TO.P,J3,1,Pin_1*%
%TO.N,+5V*%
X110650000Y-65975000D03*
D11*
%TO.P,J3,2,Pin_2*%
%TO.N,/Radar_Sig*%
X110650000Y-63515000D03*
%TO.P,J3,3,Pin_3*%
%TO.N,GND*%
X110650000Y-60975000D03*
%TD*%
D12*
%TO.P,D1,1,K*%
%TO.N,GND*%
X161525000Y-55000000D03*
D13*
%TO.P,D1,2,A*%
%TO.N,Net-(D1-A)*%
X158985000Y-55000000D03*
%TD*%
D16*
%TO.P,SW1,1,1*%
%TO.N,/SW_BUTTON*%
X134250000Y-54500000D03*
X140750000Y-54500000D03*
%TO.P,SW1,2,2*%
%TO.N,GND*%
X134250000Y-59000000D03*
X140750000Y-59000000D03*
%TD*%
D17*
%TO.P,C6,1*%
%TO.N,/V_offset*%
X118472600Y-65250000D03*
D18*
%TO.P,C6,2*%
%TO.N,GND*%
X116472600Y-65250000D03*
%TD*%
D19*
%TO.P,U2,1,NC*%
%TO.N,unconnected-(U2-NC-Pad1)*%
X144300000Y-71450000D03*
D15*
%TO.P,U2,2,-*%
%TO.N,Net-(U2--)*%
X141760000Y-71450000D03*
%TO.P,U2,3,+*%
%TO.N,/V_offset*%
X139220000Y-71450000D03*
%TO.P,U2,4,V-*%
%TO.N,GND*%
X136680000Y-71450000D03*
%TO.P,U2,5,NC*%
%TO.N,unconnected-(U2-NC-Pad5)*%
X136680000Y-79070000D03*
%TO.P,U2,6*%
%TO.N,Net-(C4-Pad2)*%
X139220000Y-79070000D03*
%TO.P,U2,7,V+*%
%TO.N,+5V*%
X141760000Y-79070000D03*
%TO.P,U2,8,NC*%
%TO.N,unconnected-(U2-NC-Pad8)*%
X144300000Y-79070000D03*
%TD*%
D12*
%TO.P,D3,1,K*%
%TO.N,GND*%
X161525000Y-63000000D03*
D13*
%TO.P,D3,2,A*%
%TO.N,Net-(D3-A)*%
X158985000Y-63000000D03*
%TD*%
D10*
%TO.P,TP_GND1,1,1*%
%TO.N,GND*%
X165000000Y-79250000D03*
%TD*%
D14*
%TO.P,C4,1*%
%TO.N,Net-(U2--)*%
X144000000Y-87000000D03*
%TO.P,C4,2*%
%TO.N,Net-(C4-Pad2)*%
X139000000Y-87000000D03*
%TD*%
%TO.P,R4,1*%
%TO.N,Net-(U2--)*%
X149750000Y-76670000D03*
D15*
%TO.P,R4,2*%
%TO.N,Net-(C4-Pad2)*%
X149750000Y-86830000D03*
%TD*%
D14*
%TO.P,R2,1*%
%TO.N,Net-(U1--)*%
X103750000Y-84920000D03*
D15*
%TO.P,R2,2*%
%TO.N,Net-(C2-Pad2)*%
X103750000Y-95080000D03*
%TD*%
D14*
%TO.P,R9,1*%
%TO.N,+5V*%
X111830000Y-56250000D03*
D15*
%TO.P,R9,2*%
%TO.N,Net-(D4-A)*%
X101670000Y-56250000D03*
%TD*%
D14*
%TO.P,R8,1*%
%TO.N,/LED_RED*%
X153750000Y-52920000D03*
D15*
%TO.P,R8,2*%
%TO.N,Net-(D1-A)*%
X153750000Y-63080000D03*
%TD*%
D19*
%TO.P,C3,1*%
%TO.N,Net-(C2-Pad2)*%
X129000000Y-86500000D03*
D14*
%TO.P,C3,2*%
%TO.N,Net-(C3-Pad2)*%
X131500000Y-86500000D03*
%TD*%
%TO.P,R1,1*%
%TO.N,Net-(C1-Pad1)*%
X110250000Y-71170000D03*
D15*
%TO.P,R1,2*%
%TO.N,Net-(U1--)*%
X110250000Y-81330000D03*
%TD*%
D10*
%TO.P,TP_GND3,1,1*%
%TO.N,GND*%
X120750000Y-97500000D03*
%TD*%
D19*
%TO.P,C1,1*%
%TO.N,Net-(C1-Pad1)*%
X103975000Y-80200000D03*
D14*
%TO.P,C1,2*%
%TO.N,/Radar_Sig*%
X103975000Y-77700000D03*
%TD*%
%TO.P,R10,1*%
%TO.N,/LED_GREEN*%
X146000000Y-52920000D03*
D15*
%TO.P,R10,2*%
%TO.N,Net-(D2-A)*%
X146000000Y-63080000D03*
%TD*%
D14*
%TO.P,R7,1*%
%TO.N,Net-(C4-Pad2)*%
X154500000Y-76920000D03*
D15*
%TO.P,R7,2*%
%TO.N,/V_out*%
X154500000Y-87080000D03*
%TD*%
D14*
%TO.P,R3,1*%
%TO.N,Net-(C3-Pad2)*%
X131000000Y-80080000D03*
D15*
%TO.P,R3,2*%
%TO.N,Net-(U2--)*%
X131000000Y-69920000D03*
%TD*%
D19*
%TO.P,U1,1,NC*%
%TO.N,unconnected-(U1-NC-Pad1)*%
X123800000Y-71200000D03*
D15*
%TO.P,U1,2,-*%
%TO.N,Net-(U1--)*%
X121260000Y-71200000D03*
%TO.P,U1,3,+*%
%TO.N,/V_offset*%
X118720000Y-71200000D03*
%TO.P,U1,4,V-*%
%TO.N,GND*%
X116180000Y-71200000D03*
%TO.P,U1,5,NC*%
%TO.N,unconnected-(U1-NC-Pad5)*%
X116180000Y-78820000D03*
%TO.P,U1,6*%
%TO.N,Net-(C2-Pad2)*%
X118720000Y-78820000D03*
%TO.P,U1,7,V+*%
%TO.N,+5V*%
X121260000Y-78820000D03*
%TO.P,U1,8,NC*%
%TO.N,unconnected-(U1-NC-Pad8)*%
X123800000Y-78820000D03*
%TD*%
D10*
%TO.P,TP_2nd,1,1*%
%TO.N,/V_out*%
X154250000Y-92000000D03*
%TD*%
%TO.P,TP_Offset,1,1*%
%TO.N,/V_offset*%
X117500000Y-58250000D03*
%TD*%
D14*
%TO.P,C2,1*%
%TO.N,Net-(U1--)*%
X117000000Y-86750000D03*
%TO.P,C2,2*%
%TO.N,Net-(C2-Pad2)*%
X122000000Y-86750000D03*
%TD*%
D10*
%TO.P,TP_PWR,1,1*%
%TO.N,+5V*%
X133750000Y-92500000D03*
%TD*%
D14*
%TO.P,R11,1*%
%TO.N,/LED_YELLOW*%
X149750000Y-52920000D03*
D15*
%TO.P,R11,2*%
%TO.N,Net-(D3-A)*%
X149750000Y-63080000D03*
%TD*%
D14*
%TO.P,R5,1*%
%TO.N,+5V*%
X129000000Y-56670000D03*
D15*
%TO.P,R5,2*%
%TO.N,/V_offset*%
X129000000Y-66830000D03*
%TD*%
%TA.AperFunction,Conductor*%
%TO.N,GND*%
G36*
X142714075Y-97267007D02*
G01*
X142680000Y-97394174D01*
X142680000Y-97525826D01*
X142714075Y-97652993D01*
X142746988Y-97710000D01*
X141073012Y-97710000D01*
X141105925Y-97652993D01*
X141140000Y-97525826D01*
X141140000Y-97394174D01*
X141105925Y-97267007D01*
X141073012Y-97210000D01*
X142746988Y-97210000D01*
X142714075Y-97267007D01*
G37*
%TD.AperFunction*%
%TA.AperFunction,Conductor*%
G36*
X163981595Y-46755185D02*
G01*
X164004307Y-46773939D01*
X165930253Y-48794294D01*
X165962262Y-48856400D01*
X165964500Y-48879853D01*
X165964500Y-59344982D01*
X165964500Y-59375018D01*
X165975994Y-59402767D01*
X165975995Y-59402768D01*
X168468181Y-61894954D01*
X168501666Y-61956277D01*
X168504500Y-61982635D01*
X168504500Y-96107364D01*
X168484815Y-96174403D01*
X168468181Y-96195045D01*
X165997233Y-98665994D01*
X165975995Y-98687231D01*
X165964500Y-98714982D01*
X165964500Y-99231907D01*
X165963903Y-99244062D01*
X165952505Y-99359778D01*
X165947763Y-99383618D01*
X165917832Y-99482290D01*
X165915789Y-99489024D01*
X165906486Y-99511482D01*
X165854561Y-99608627D01*
X165841056Y-99628839D01*
X165771176Y-99713988D01*
X165753988Y-99731176D01*
X165668839Y-99801056D01*
X165648627Y-99814561D01*
X165551482Y-99866486D01*
X165529028Y-99875787D01*
X165487028Y-99888528D01*
X165423618Y-99907763D01*
X165399778Y-99912505D01*
X165291162Y-99923203D01*
X165284060Y-99923903D01*
X165271907Y-99924500D01*
X100768093Y-99924500D01*
X100755939Y-99923903D01*
X100747995Y-99923120D01*
X100640221Y-99912505D01*
X100616381Y-99907763D01*
X100599445Y-99902625D01*
X100510968Y-99875786D01*
X100488517Y-99866486D01*
X100391372Y-99814561D01*
X100371160Y-99801056D01*
X100286011Y-99731176D01*
X100268823Y-99713988D01*
X100198943Y-99628839D01*
X100185438Y-99608627D01*
X100133510Y-99511476D01*
X100124215Y-99489037D01*
X100092234Y-99383612D01*
X100087494Y-99359777D01*
X100076097Y-99244061D01*
X100075500Y-99231907D01*
X100075500Y-96602155D01*
X119400000Y-96602155D01*
X119400000Y-97250000D01*
X120316988Y-97250000D01*
X120284075Y-97307007D01*
X120250000Y-97434174D01*
X120250000Y-97565826D01*
X120284075Y-97692993D01*
X120316988Y-97750000D01*
X119400000Y-97750000D01*
X119400000Y-98397844D01*
X119406401Y-98457372D01*
X119406403Y-98457379D01*
X119456645Y-98592086D01*
X119456649Y-98592093D01*
X119542809Y-98707187D01*
X119542812Y-98707190D01*
X119657906Y-98793350D01*
X119657913Y-98793354D01*
X119792620Y-98843596D01*
X119792627Y-98843598D01*
X119852155Y-98849999D01*
X119852172Y-98850000D01*
X120500000Y-98850000D01*
X120500000Y-97933012D01*
X120557007Y-97965925D01*
X120684174Y-98000000D01*
X120815826Y-98000000D01*
X120942993Y-97965925D01*
X121000000Y-97933012D01*
X121000000Y-98850000D01*
X121647828Y-98850000D01*
X121647844Y-98849999D01*
X121707372Y-98843598D01*
X121707379Y-98843596D01*
X121842086Y-98793354D01*
X121842093Y-98793350D01*
X121957187Y-98707190D01*
X121957190Y-98707187D01*
X122043350Y-98592093D01*
X122043354Y-98592086D01*
X122093596Y-98457379D01*
X122093598Y-98457372D01*
X122099999Y-98397844D01*
X122100000Y-98397827D01*
X122100000Y-97750000D01*
X121183012Y-97750000D01*
X121215925Y-97692993D01*
X121250000Y-97565826D01*
X121250000Y-97434174D01*
X121215925Y-97307007D01*
X121183012Y-97250000D01*
X122100000Y-97250000D01*
X122100000Y-96602172D01*
X122099999Y-96602155D01*
X122095611Y-96561345D01*
X126581500Y-96561345D01*
X126581500Y-98358654D01*
X126588011Y-98419202D01*
X126588011Y-98419204D01*
X126639111Y-98556204D01*
X126726739Y-98673261D01*
X126843796Y-98760889D01*
X126980799Y-98811989D01*
X127008050Y-98814918D01*
X127041345Y-98818499D01*
X127041362Y-98818500D01*
X128838638Y-98818500D01*
X128838654Y-98818499D01*
X128865692Y-98815591D01*
X128899201Y-98811989D01*
X129036204Y-98760889D01*
X129153261Y-98673261D01*
X129240889Y-98556204D01*
X129286138Y-98434887D01*
X129328009Y-98378956D01*
X129393474Y-98354539D01*
X129461746Y-98369391D01*
X129493545Y-98394236D01*
X129556760Y-98462906D01*
X129734424Y-98601189D01*
X129734425Y-98601189D01*
X129734427Y-98601191D01*
X129861135Y-98669761D01*
X129932426Y-98708342D01*
X130145365Y-98781444D01*
X130367431Y-98818500D01*
X130592569Y-98818500D01*
X130814635Y-98781444D01*
X131027574Y-98708342D01*
X131225576Y-98601189D01*
X131403240Y-98462906D01*
X131524594Y-98331082D01*
X131555715Y-98297276D01*
X131555715Y-98297275D01*
X131555722Y-98297268D01*
X131646193Y-98158790D01*
X131699338Y-98113437D01*
X131768569Y-98104013D01*
X131831905Y-98133515D01*
X131853804Y-98158787D01*
X131944278Y-98297268D01*
X131944283Y-98297273D01*
X131944284Y-98297276D01*
X132091672Y-98457379D01*
X132096760Y-98462906D01*
X132274424Y-98601189D01*
X132274425Y-98601189D01*
X132274427Y-98601191D01*
X132401135Y-98669761D01*
X132472426Y-98708342D01*
X132685365Y-98781444D01*
X132907431Y-98818500D01*
X133132569Y-98818500D01*
X133354635Y-98781444D01*
X133567574Y-98708342D01*
X133765576Y-98601189D01*
X133943240Y-98462906D01*
X134064594Y-98331082D01*
X134095715Y-98297276D01*
X134095715Y-98297275D01*
X134095722Y-98297268D01*
X134186193Y-98158790D01*
X134239338Y-98113437D01*
X134308569Y-98104013D01*
X134371905Y-98133515D01*
X134393804Y-98158787D01*
X134484278Y-98297268D01*
X134484283Y-98297273D01*
X134484284Y-98297276D01*
X134631672Y-98457379D01*
X134636760Y-98462906D01*
X134814424Y-98601189D01*
X134814425Y-98601189D01*
X134814427Y-98601191D01*
X134941135Y-98669761D01*
X135012426Y-98708342D01*
X135225365Y-98781444D01*
X135447431Y-98818500D01*
X135672569Y-98818500D01*
X135894635Y-98781444D01*
X136107574Y-98708342D01*
X136305576Y-98601189D01*
X136483240Y-98462906D01*
X136604594Y-98331082D01*
X136635715Y-98297276D01*
X136635715Y-98297275D01*
X136635722Y-98297268D01*
X136726193Y-98158790D01*
X136779338Y-98113437D01*
X136848569Y-98104013D01*
X136911905Y-98133515D01*
X136933804Y-98158787D01*
X137024278Y-98297268D01*
X137024283Y-98297273D01*
X137024284Y-98297276D01*
X137171672Y-98457379D01*
X137176760Y-98462906D01*
X137354424Y-98601189D01*
X137354425Y-98601189D01*
X137354427Y-98601191D01*
X137481135Y-98669761D01*
X137552426Y-98708342D01*
X137765365Y-98781444D01*
X137987431Y-98818500D01*
X138212569Y-98818500D01*
X138434635Y-98781444D01*
X138647574Y-98708342D01*
X138845576Y-98601189D01*
X139023240Y-98462906D01*
X139144594Y-98331082D01*
X139175715Y-98297276D01*
X139175715Y-98297275D01*
X139175722Y-98297268D01*
X139269749Y-98153347D01*
X139322894Y-98107994D01*
X139392125Y-98098570D01*
X139455461Y-98128072D01*
X139475130Y-98150048D01*
X139601890Y-98331078D01*
X139768917Y-98498105D01*
X139962421Y-98633600D01*
X140176507Y-98733429D01*
X140176516Y-98733433D01*
X140390000Y-98790634D01*
X140390000Y-97893012D01*
X140447007Y-97925925D01*
X140574174Y-97960000D01*
X140705826Y-97960000D01*
X140832993Y-97925925D01*
X140890000Y-97893012D01*
X140890000Y-98790634D01*
X141103483Y-98733433D01*
X141103492Y-98733429D01*
X141317578Y-98633600D01*
X141511082Y-98498105D01*
X141678105Y-98331082D01*
X141808425Y-98144968D01*
X141863002Y-98101344D01*
X141932501Y-98094151D01*
X141994855Y-98125673D01*
X142011575Y-98144968D01*
X142141894Y-98331082D01*
X142308917Y-98498105D01*
X142502421Y-98633600D01*
X142716507Y-98733429D01*
X142716516Y-98733433D01*
X142930000Y-98790634D01*
X142930000Y-97893012D01*
X142987007Y-97925925D01*
X143114174Y-97960000D01*
X143245826Y-97960000D01*
X143372993Y-97925925D01*
X143430000Y-97893012D01*
X143430000Y-98790634D01*
X143643483Y-98733433D01*
X143643492Y-98733429D01*
X143857578Y-98633600D01*
X144051082Y-98498105D01*
X144218105Y-98331082D01*
X144344868Y-98150048D01*
X144399445Y-98106423D01*
X144468944Y-98099231D01*
X144531298Y-98130753D01*
X144550251Y-98153350D01*
X144644276Y-98297265D01*
X144644284Y-98297276D01*
X144791672Y-98457379D01*
X144796760Y-98462906D01*
X144974424Y-98601189D01*
X144974425Y-98601189D01*
X144974427Y-98601191D01*
X145101135Y-98669761D01*
X145172426Y-98708342D01*
X145385365Y-98781444D01*
X145607431Y-98818500D01*
X145832569Y-98818500D01*
X146054635Y-98781444D01*
X146267574Y-98708342D01*
X146465576Y-98601189D01*
X146643240Y-98462906D01*
X146764594Y-98331082D01*
X146795715Y-98297276D01*
X146795717Y-98297273D01*
X146795722Y-98297268D01*
X146918860Y-98108791D01*
X147009296Y-97902616D01*
X147064564Y-97684368D01*
X147074387Y-97565826D01*
X147083156Y-97460005D01*
X147083156Y-97459994D01*
X147064565Y-97235640D01*
X147064563Y-97235628D01*
X147009296Y-97017385D01*
X147001670Y-97000000D01*
X146918860Y-96811209D01*
X146902706Y-96786484D01*
X146795723Y-96622734D01*
X146795715Y-96622723D01*
X146739212Y-96561345D01*
X149441500Y-96561345D01*
X149441500Y-98358654D01*
X149448011Y-98419202D01*
X149448011Y-98419204D01*
X149499111Y-98556204D01*
X149586739Y-98673261D01*
X149703796Y-98760889D01*
X149840799Y-98811989D01*
X149868050Y-98814918D01*
X149901345Y-98818499D01*
X149901362Y-98818500D01*
X151698638Y-98818500D01*
X151698654Y-98818499D01*
X151725692Y-98815591D01*
X151759201Y-98811989D01*
X151896204Y-98760889D01*
X152013261Y-98673261D01*
X152100889Y-98556204D01*
X152146138Y-98434887D01*
X152188009Y-98378956D01*
X152253474Y-98354539D01*
X152321746Y-98369391D01*
X152353545Y-98394236D01*
X152416760Y-98462906D01*
X152594424Y-98601189D01*
X152594425Y-98601189D01*
X152594427Y-98601191D01*
X152721135Y-98669761D01*
X152792426Y-98708342D01*
X153005365Y-98781444D01*
X153227431Y-98818500D01*
X153452569Y-98818500D01*
X153674635Y-98781444D01*
X153887574Y-98708342D01*
X154085576Y-98601189D01*
X154263240Y-98462906D01*
X154384594Y-98331082D01*
X154415715Y-98297276D01*
X154415715Y-98297275D01*
X154415722Y-98297268D01*
X154506193Y-98158790D01*
X154559338Y-98113437D01*
X154628569Y-98104013D01*
X154691905Y-98133515D01*
X154713804Y-98158787D01*
X154804278Y-98297268D01*
X154804283Y-98297273D01*
X154804284Y-98297276D01*
X154951672Y-98457379D01*
X154956760Y-98462906D01*
X155134424Y-98601189D01*
X155134425Y-98601189D01*
X155134427Y-98601191D01*
X155261135Y-98669761D01*
X155332426Y-98708342D01*
X155545365Y-98781444D01*
X155767431Y-98818500D01*
X155992569Y-98818500D01*
X156214635Y-98781444D01*
X156427574Y-98708342D01*
X156625576Y-98601189D01*
X156803240Y-98462906D01*
X156924594Y-98331082D01*
X156955715Y-98297276D01*
X156955715Y-98297275D01*
X156955722Y-98297268D01*
X157046193Y-98158790D01*
X157099338Y-98113437D01*
X157168569Y-98104013D01*
X157231905Y-98133515D01*
X157253804Y-98158787D01*
X157344278Y-98297268D01*
X157344283Y-98297273D01*
X157344284Y-98297276D01*
X157491672Y-98457379D01*
X157496760Y-98462906D01*
X157674424Y-98601189D01*
X157674425Y-98601189D01*
X157674427Y-98601191D01*
X157801135Y-98669761D01*
X157872426Y-98708342D01*
X158085365Y-98781444D01*
X158307431Y-98818500D01*
X158532569Y-98818500D01*
X158754635Y-98781444D01*
X158967574Y-98708342D01*
X159165576Y-98601189D01*
X159343240Y-98462906D01*
X159464594Y-98331082D01*
X159495715Y-98297276D01*
X159495715Y-98297275D01*
X159495722Y-98297268D01*
X159586193Y-98158790D01*
X159639338Y-98113437D01*
X159708569Y-98104013D01*
X159771905Y-98133515D01*
X159793804Y-98158787D01*
X159884278Y-98297268D01*
X159884283Y-98297273D01*
X159884284Y-98297276D01*
X160031672Y-98457379D01*
X160036760Y-98462906D01*
X160214424Y-98601189D01*
X160214425Y-98601189D01*
X160214427Y-98601191D01*
X160341135Y-98669761D01*
X160412426Y-98708342D01*
X160625365Y-98781444D01*
X160847431Y-98818500D01*
X161072569Y-98818500D01*
X161294635Y-98781444D01*
X161507574Y-98708342D01*
X161705576Y-98601189D01*
X161883240Y-98462906D01*
X162004594Y-98331082D01*
X162035715Y-98297276D01*
X162035715Y-98297275D01*
X162035722Y-98297268D01*
X162126193Y-98158790D01*
X162179338Y-98113437D01*
X162248569Y-98104013D01*
X162311905Y-98133515D01*
X162333804Y-98158787D01*
X162424278Y-98297268D01*
X162424283Y-98297273D01*
X162424284Y-98297276D01*
X162571672Y-98457379D01*
X162576760Y-98462906D01*
X162754424Y-98601189D01*
X162754425Y-98601189D01*
X162754427Y-98601191D01*
X162881135Y-98669761D01*
X162952426Y-98708342D01*
X163165365Y-98781444D01*
X163387431Y-98818500D01*
X163612569Y-98818500D01*
X163834635Y-98781444D01*
X164047574Y-98708342D01*
X164245576Y-98601189D01*
X164423240Y-98462906D01*
X164544594Y-98331082D01*
X164575715Y-98297276D01*
X164575717Y-98297273D01*
X164575722Y-98297268D01*
X164698860Y-98108791D01*
X164789296Y-97902616D01*
X164844564Y-97684368D01*
X164854387Y-97565826D01*
X164863156Y-97460005D01*
X164863156Y-97459994D01*
X164844565Y-97235640D01*
X164844563Y-97235628D01*
X164789296Y-97017385D01*
X164781670Y-97000000D01*
X164698860Y-96811209D01*
X164682706Y-96786484D01*
X164575723Y-96622734D01*
X164575715Y-96622723D01*
X164423243Y-96457097D01*
X164423238Y-96457092D01*
X164245577Y-96318812D01*
X164245572Y-96318808D01*
X164047580Y-96211661D01*
X164047577Y-96211659D01*
X164047574Y-96211658D01*
X164047571Y-96211657D01*
X164047569Y-96211656D01*
X163834637Y-96138556D01*
X163612569Y-96101500D01*
X163387431Y-96101500D01*
X163165362Y-96138556D01*
X162952430Y-96211656D01*
X162952419Y-96211661D01*
X162754427Y-96318808D01*
X162754422Y-96318812D01*
X162576761Y-96457092D01*
X162576756Y-96457097D01*
X162424284Y-96622723D01*
X162424276Y-96622734D01*
X162333808Y-96761206D01*
X162280662Y-96806562D01*
X162211431Y-96815986D01*
X162148095Y-96786484D01*
X162126192Y-96761206D01*
X162035723Y-96622734D01*
X162035715Y-96622723D01*
X161883243Y-96457097D01*
X161883238Y-96457092D01*
X161705577Y-96318812D01*
X161705572Y-96318808D01*
X161507580Y-96211661D01*
X161507577Y-96211659D01*
X161507574Y-96211658D01*
X161507571Y-96211657D01*
X161507569Y-96211656D01*
X161294637Y-96138556D01*
X161072569Y-96101500D01*
X160847431Y-96101500D01*
X160625362Y-96138556D01*
X160412430Y-96211656D01*
X160412419Y-96211661D01*
X160214427Y-96318808D01*
X160214422Y-96318812D01*
X160036761Y-96457092D01*
X160036756Y-96457097D01*
X159884284Y-96622723D01*
X159884276Y-96622734D01*
X159793808Y-96761206D01*
X159740662Y-96806562D01*
X159671431Y-96815986D01*
X159608095Y-96786484D01*
X159586192Y-96761206D01*
X159495723Y-96622734D01*
X159495715Y-96622723D01*
X159343243Y-96457097D01*
X159343238Y-96457092D01*
X159165577Y-96318812D01*
X159165572Y-96318808D01*
X158967580Y-96211661D01*
X158967577Y-96211659D01*
X158967574Y-96211658D01*
X158967571Y-96211657D01*
X158967569Y-96211656D01*
X158754637Y-96138556D01*
X158532569Y-96101500D01*
X158307431Y-96101500D01*
X158085362Y-96138556D01*
X157872430Y-96211656D01*
X157872419Y-96211661D01*
X157674427Y-96318808D01*
X157674422Y-96318812D01*
X157496761Y-96457092D01*
X157496756Y-96457097D01*
X157344284Y-96622723D01*
X157344276Y-96622734D01*
X157253808Y-96761206D01*
X157200662Y-96806562D01*
X157131431Y-96815986D01*
X157068095Y-96786484D01*
X157046192Y-96761206D01*
X156955723Y-96622734D01*
X156955715Y-96622723D01*
X156803243Y-96457097D01*
X156803238Y-96457092D01*
X156625577Y-96318812D01*
X156625572Y-96318808D01*
X156427580Y-96211661D01*
X156427577Y-96211659D01*
X156427574Y-96211658D01*
X156427571Y-96211657D01*
X156427569Y-96211656D01*
X156214637Y-96138556D01*
X155992569Y-96101500D01*
X155767431Y-96101500D01*
X155545362Y-96138556D01*
X155332430Y-96211656D01*
X155332419Y-96211661D01*
X155134427Y-96318808D01*
X155134422Y-96318812D01*
X154956761Y-96457092D01*
X154956756Y-96457097D01*
X154804284Y-96622723D01*
X154804276Y-96622734D01*
X154713808Y-96761206D01*
X154660662Y-96806562D01*
X154591431Y-96815986D01*
X154528095Y-96786484D01*
X154506192Y-96761206D01*
X154415723Y-96622734D01*
X154415715Y-96622723D01*
X154263243Y-96457097D01*
X154263238Y-96457092D01*
X154085577Y-96318812D01*
X154085572Y-96318808D01*
X153887580Y-96211661D01*
X153887577Y-96211659D01*
X153887574Y-96211658D01*
X153887571Y-96211657D01*
X153887569Y-96211656D01*
X153674637Y-96138556D01*
X153452569Y-96101500D01*
X153227431Y-96101500D01*
X153005362Y-96138556D01*
X152792430Y-96211656D01*
X152792419Y-96211661D01*
X152594427Y-96318808D01*
X152594422Y-96318812D01*
X152416761Y-96457092D01*
X152353548Y-96525760D01*
X152293661Y-96561750D01*
X152223823Y-96559649D01*
X152166207Y-96520124D01*
X152146138Y-96485110D01*
X152100889Y-96363796D01*
X152067214Y-96318812D01*
X152013261Y-96246739D01*
X151896204Y-96159111D01*
X151871777Y-96150000D01*
X151759203Y-96108011D01*
X151698654Y-96101500D01*
X151698638Y-96101500D01*
X149901362Y-96101500D01*
X149901345Y-96101500D01*
X149840797Y-96108011D01*
X149840795Y-96108011D01*
X149703795Y-96159111D01*
X149586739Y-96246739D01*
X149499111Y-96363795D01*
X149448011Y-96500795D01*
X149448011Y-96500797D01*
X149441500Y-96561345D01*
X146739212Y-96561345D01*
X146643243Y-96457097D01*
X146643238Y-96457092D01*
X146465577Y-96318812D01*
X146465572Y-96318808D01*
X146267580Y-96211661D01*
X146267577Y-96211659D01*
X146267574Y-96211658D01*
X146267571Y-96211657D01*
X146267569Y-96211656D01*
X146054637Y-96138556D01*
X145832569Y-96101500D01*
X145607431Y-96101500D01*
X145385362Y-96138556D01*
X145172430Y-96211656D01*
X145172419Y-96211661D01*
X144974427Y-96318808D01*
X144974422Y-96318812D01*
X144796761Y-96457092D01*
X144796756Y-96457097D01*
X144644284Y-96622723D01*
X144644276Y-96622734D01*
X144550251Y-96766650D01*
X144497105Y-96812007D01*
X144427873Y-96821430D01*
X144364538Y-96791928D01*
X144344868Y-96769951D01*
X144218113Y-96588926D01*
X144218108Y-96588920D01*
X144051082Y-96421894D01*
X143857578Y-96286399D01*
X143643492Y-96186570D01*
X143643486Y-96186567D01*
X143430000Y-96129364D01*
X143430000Y-97026988D01*
X143372993Y-96994075D01*
X143245826Y-96960000D01*
X143114174Y-96960000D01*
X142987007Y-96994075D01*
X142930000Y-97026988D01*
X142930000Y-96129364D01*
X142929999Y-96129364D01*
X142716513Y-96186567D01*
X142716507Y-96186570D01*
X142502422Y-96286399D01*
X142502420Y-96286400D01*
X142308926Y-96421886D01*
X142308920Y-96421891D01*
X142141891Y-96588920D01*
X142141890Y-96588922D01*
X142011575Y-96775031D01*
X141956998Y-96818655D01*
X141887499Y-96825848D01*
X141825145Y-96794326D01*
X141808425Y-96775031D01*
X141678109Y-96588922D01*
X141678108Y-96588920D01*
X141511082Y-96421894D01*
X141317578Y-96286399D01*
X141103492Y-96186570D01*
X141103486Y-96186567D01*
X140890000Y-96129364D01*
X140890000Y-97026988D01*
X140832993Y-96994075D01*
X140705826Y-96960000D01*
X140574174Y-96960000D01*
X140447007Y-96994075D01*
X140390000Y-97026988D01*
X140390000Y-96129364D01*
X140389999Y-96129364D01*
X140176513Y-96186567D01*
X140176507Y-96186570D01*
X139962422Y-96286399D01*
X139962420Y-96286400D01*
X139768926Y-96421886D01*
X139768920Y-96421891D01*
X139601891Y-96588920D01*
X139601890Y-96588922D01*
X139475131Y-96769952D01*
X139420554Y-96813577D01*
X139351055Y-96820769D01*
X139288701Y-96789247D01*
X139269752Y-96766656D01*
X139175722Y-96622732D01*
X139175715Y-96622725D01*
X139175715Y-96622723D01*
X139023243Y-96457097D01*
X139023238Y-96457092D01*
X138845577Y-96318812D01*
X138845572Y-96318808D01*
X138647580Y-96211661D01*
X138647577Y-96211659D01*
X138647574Y-96211658D01*
X138647571Y-96211657D01*
X138647569Y-96211656D01*
X138434637Y-96138556D01*
X138212569Y-96101500D01*
X137987431Y-96101500D01*
X137765362Y-96138556D01*
X137552430Y-96211656D01*
X137552419Y-96211661D01*
X137354427Y-96318808D01*
X137354422Y-96318812D01*
X137176761Y-96457092D01*
X137176756Y-96457097D01*
X137024284Y-96622723D01*
X137024276Y-96622734D01*
X136933808Y-96761206D01*
X136880662Y-96806562D01*
X136811431Y-96815986D01*
X136748095Y-96786484D01*
X136726192Y-96761206D01*
X136635723Y-96622734D01*
X136635715Y-96622723D01*
X136483243Y-96457097D01*
X136483238Y-96457092D01*
X136305577Y-96318812D01*
X136305572Y-96318808D01*
X136107580Y-96211661D01*
X136107577Y-96211659D01*
X136107574Y-96211658D01*
X136107571Y-96211657D01*
X136107569Y-96211656D01*
X135894637Y-96138556D01*
X135672569Y-96101500D01*
X135447431Y-96101500D01*
X135225362Y-96138556D01*
X135012430Y-96211656D01*
X135012419Y-96211661D01*
X134814427Y-96318808D01*
X134814422Y-96318812D01*
X134636761Y-96457092D01*
X134636756Y-96457097D01*
X134484284Y-96622723D01*
X134484276Y-96622734D01*
X134393808Y-96761206D01*
X134340662Y-96806562D01*
X134271431Y-96815986D01*
X134208095Y-96786484D01*
X134186192Y-96761206D01*
X134095723Y-96622734D01*
X134095715Y-96622723D01*
X133943243Y-96457097D01*
X133943238Y-96457092D01*
X133765577Y-96318812D01*
X133765572Y-96318808D01*
X133567580Y-96211661D01*
X133567577Y-96211659D01*
X133567574Y-96211658D01*
X133567571Y-96211657D01*
X133567569Y-96211656D01*
X133354637Y-96138556D01*
X133132569Y-96101500D01*
X132907431Y-96101500D01*
X132685362Y-96138556D01*
X132472430Y-96211656D01*
X132472419Y-96211661D01*
X132274427Y-96318808D01*
X132274422Y-96318812D01*
X132096761Y-96457092D01*
X132096756Y-96457097D01*
X131944284Y-96622723D01*
X131944276Y-96622734D01*
X131853808Y-96761206D01*
X131800662Y-96806562D01*
X131731431Y-96815986D01*
X131668095Y-96786484D01*
X131646192Y-96761206D01*
X131555723Y-96622734D01*
X131555715Y-96622723D01*
X131403243Y-96457097D01*
X131403238Y-96457092D01*
X131225577Y-96318812D01*
X131225572Y-96318808D01*
X131027580Y-96211661D01*
X131027577Y-96211659D01*
X131027574Y-96211658D01*
X131027571Y-96211657D01*
X131027569Y-96211656D01*
X130814637Y-96138556D01*
X130592569Y-96101500D01*
X130367431Y-96101500D01*
X130145362Y-96138556D01*
X129932430Y-96211656D01*
X129932419Y-96211661D01*
X129734427Y-96318808D01*
X129734422Y-96318812D01*
X129556761Y-96457092D01*
X129493548Y-96525760D01*
X129433661Y-96561750D01*
X129363823Y-96559649D01*
X129306207Y-96520124D01*
X129286138Y-96485110D01*
X129240889Y-96363796D01*
X129207214Y-96318812D01*
X129153261Y-96246739D01*
X129036204Y-96159111D01*
X129011777Y-96150000D01*
X128899203Y-96108011D01*
X128838654Y-96101500D01*
X128838638Y-96101500D01*
X127041362Y-96101500D01*
X127041345Y-96101500D01*
X126980797Y-96108011D01*
X126980795Y-96108011D01*
X126843795Y-96159111D01*
X126726739Y-96246739D01*
X126639111Y-96363795D01*
X126588011Y-96500795D01*
X126588011Y-96500797D01*
X126581500Y-96561345D01*
X122095611Y-96561345D01*
X122093598Y-96542627D01*
X122093596Y-96542620D01*
X122043354Y-96407913D01*
X122043350Y-96407906D01*
X121957190Y-96292812D01*
X121957187Y-96292809D01*
X121842093Y-96206649D01*
X121842086Y-96206645D01*
X121707379Y-96156403D01*
X121707372Y-96156401D01*
X121647844Y-96150000D01*
X121000000Y-96150000D01*
X121000000Y-97066988D01*
X120942993Y-97034075D01*
X120815826Y-97000000D01*
X120684174Y-97000000D01*
X120557007Y-97034075D01*
X120500000Y-97066988D01*
X120500000Y-96150000D01*
X119852155Y-96150000D01*
X119792627Y-96156401D01*
X119792620Y-96156403D01*
X119657913Y-96206645D01*
X119657906Y-96206649D01*
X119542812Y-96292809D01*
X119542809Y-96292812D01*
X119456649Y-96407906D01*
X119456645Y-96407913D01*
X119406403Y-96542620D01*
X119406401Y-96542627D01*
X119400000Y-96602155D01*
X100075500Y-96602155D01*
X100075500Y-95079998D01*
X102436502Y-95079998D01*
X102436502Y-95080001D01*
X102456456Y-95308081D01*
X102456457Y-95308089D01*
X102515714Y-95529238D01*
X102515718Y-95529249D01*
X102612475Y-95736745D01*
X102612477Y-95736749D01*
X102743802Y-95924300D01*
X102905700Y-96086198D01*
X103093251Y-96217523D01*
X103218091Y-96275736D01*
X103300750Y-96314281D01*
X103300752Y-96314281D01*
X103300757Y-96314284D01*
X103521913Y-96373543D01*
X103684832Y-96387796D01*
X103749998Y-96393498D01*
X103750000Y-96393498D01*
X103750002Y-96393498D01*
X103807021Y-96388509D01*
X103978087Y-96373543D01*
X104199243Y-96314284D01*
X104406749Y-96217523D01*
X104594300Y-96086198D01*
X104756198Y-95924300D01*
X104887523Y-95736749D01*
X104984284Y-95529243D01*
X105043543Y-95308087D01*
X105063498Y-95080000D01*
X105043543Y-94851913D01*
X104984284Y-94630757D01*
X104887523Y-94423251D01*
X104756198Y-94235700D01*
X104594300Y-94073802D01*
X104406749Y-93942477D01*
X104406745Y-93942475D01*
X104199249Y-93845718D01*
X104199238Y-93845714D01*
X103978089Y-93786457D01*
X103978081Y-93786456D01*
X103750002Y-93766502D01*
X103749998Y-93766502D01*
X103521918Y-93786456D01*
X103521910Y-93786457D01*
X103300761Y-93845714D01*
X103300750Y-93845718D01*
X103093254Y-93942475D01*
X103093252Y-93942476D01*
X103093251Y-93942477D01*
X102905700Y-94073802D01*
X102905698Y-94073803D01*
X102905695Y-94073806D01*
X102743806Y-94235695D01*
X102612476Y-94423252D01*
X102612475Y-94423254D01*
X102515718Y-94630750D01*
X102515714Y-94630761D01*
X102456457Y-94851910D01*
X102456456Y-94851918D01*
X102436502Y-95079998D01*
X100075500Y-95079998D01*
X100075500Y-91126345D01*
X109941500Y-91126345D01*
X109941500Y-92923654D01*
X109948011Y-92984202D01*
X109948011Y-92984204D01*
X109989786Y-93096204D01*
X109999111Y-93121204D01*
X110086739Y-93238261D01*
X110203796Y-93325889D01*
X110340799Y-93376989D01*
X110368050Y-93379918D01*
X110401345Y-93383499D01*
X110401362Y-93383500D01*
X112198638Y-93383500D01*
X112198654Y-93383499D01*
X112225692Y-93380591D01*
X112259201Y-93376989D01*
X112396204Y-93325889D01*
X112513261Y-93238261D01*
X112600889Y-93121204D01*
X112651989Y-92984201D01*
X112655591Y-92950692D01*
X112658499Y-92923654D01*
X112658500Y-92923637D01*
X112658500Y-91601345D01*
X132391500Y-91601345D01*
X132391500Y-93398654D01*
X132398011Y-93459202D01*
X132398011Y-93459204D01*
X132449111Y-93596204D01*
X132536739Y-93713261D01*
X132653796Y-93800889D01*
X132790799Y-93851989D01*
X132818050Y-93854918D01*
X132851345Y-93858499D01*
X132851362Y-93858500D01*
X134648638Y-93858500D01*
X134648654Y-93858499D01*
X134675692Y-93855591D01*
X134709201Y-93851989D01*
X134846204Y-93800889D01*
X134963261Y-93713261D01*
X135050889Y-93596204D01*
X135101989Y-93459201D01*
X135105591Y-93425692D01*
X135108499Y-93398654D01*
X135108500Y-93398637D01*
X135108500Y-91601362D01*
X135108499Y-91601345D01*
X135105157Y-91570270D01*
X135101989Y-91540799D01*
X135050889Y-91403796D01*
X134963261Y-91286739D01*
X134846204Y-91199111D01*
X134709203Y-91148011D01*
X134648654Y-91141500D01*
X134648638Y-91141500D01*
X132851362Y-91141500D01*
X132851345Y-91141500D01*
X132790797Y-91148011D01*
X132790795Y-91148011D01*
X132653795Y-91199111D01*
X132536739Y-91286739D01*
X132449111Y-91403795D01*
X132398011Y-91540795D01*
X132398011Y-91540797D01*
X132391500Y-91601345D01*
X112658500Y-91601345D01*
X112658500Y-91126362D01*
X112658499Y-91126345D01*
X112655810Y-91101345D01*
X152891500Y-91101345D01*
X152891500Y-92898654D01*
X152898011Y-92959202D01*
X152898011Y-92959204D01*
X152949111Y-93096204D01*
X153036739Y-93213261D01*
X153153796Y-93300889D01*
X153290799Y-93351989D01*
X153318050Y-93354918D01*
X153351345Y-93358499D01*
X153351362Y-93358500D01*
X155148638Y-93358500D01*
X155148654Y-93358499D01*
X155175692Y-93355591D01*
X155209201Y-93351989D01*
X155346204Y-93300889D01*
X155463261Y-93213261D01*
X155550889Y-93096204D01*
X155601989Y-92959201D01*
X155605812Y-92923637D01*
X155608499Y-92898654D01*
X155608500Y-92898637D01*
X155608500Y-91101362D01*
X155608499Y-91101345D01*
X155604676Y-91065795D01*
X155601989Y-91040799D01*
X155550889Y-90903796D01*
X155463261Y-90786739D01*
X155346204Y-90699111D01*
X155209203Y-90648011D01*
X155148654Y-90641500D01*
X155148638Y-90641500D01*
X153351362Y-90641500D01*
X153351345Y-90641500D01*
X153290797Y-90648011D01*
X153290795Y-90648011D01*
X153153795Y-90699111D01*
X153036739Y-90786739D01*
X152949111Y-90903795D01*
X152898011Y-91040795D01*
X152898011Y-91040797D01*
X152891500Y-91101345D01*
X112655810Y-91101345D01*
X112655157Y-91095270D01*
X112651989Y-91065799D01*
X112642664Y-91040799D01*
X112629522Y-91005564D01*
X112600889Y-90928796D01*
X112513261Y-90811739D01*
X112396204Y-90724111D01*
X112259203Y-90673011D01*
X112198654Y-90666500D01*
X112198638Y-90666500D01*
X110401362Y-90666500D01*
X110401345Y-90666500D01*
X110340797Y-90673011D01*
X110340795Y-90673011D01*
X110203795Y-90724111D01*
X110086739Y-90811739D01*
X109999111Y-90928795D01*
X109948011Y-91065795D01*
X109948011Y-91065797D01*
X109941500Y-91126345D01*
X100075500Y-91126345D01*
X100075500Y-86749998D01*
X115686502Y-86749998D01*
X115686502Y-86750001D01*
X115706456Y-86978081D01*
X115706457Y-86978089D01*
X115765714Y-87199238D01*
X115765718Y-87199249D01*
X115835387Y-87348654D01*
X115862477Y-87406749D01*
X115993802Y-87594300D01*
X116155700Y-87756198D01*
X116343251Y-87887523D01*
X116422120Y-87924300D01*
X116550750Y-87984281D01*
X116550752Y-87984281D01*
X116550757Y-87984284D01*
X116771913Y-88043543D01*
X116934832Y-88057796D01*
X116999998Y-88063498D01*
X117000000Y-88063498D01*
X117000002Y-88063498D01*
X117057021Y-88058509D01*
X117228087Y-88043543D01*
X117449243Y-87984284D01*
X117656749Y-87887523D01*
X117844300Y-87756198D01*
X118006198Y-87594300D01*
X118137523Y-87406749D01*
X118234284Y-87199243D01*
X118293543Y-86978087D01*
X118313498Y-86750000D01*
X118313498Y-86749998D01*
X120686502Y-86749998D01*
X120686502Y-86750001D01*
X120706456Y-86978081D01*
X120706457Y-86978089D01*
X120765714Y-87199238D01*
X120765718Y-87199249D01*
X120835387Y-87348654D01*
X120862477Y-87406749D01*
X120993802Y-87594300D01*
X121155700Y-87756198D01*
X121343251Y-87887523D01*
X121422120Y-87924300D01*
X121550750Y-87984281D01*
X121550752Y-87984281D01*
X121550757Y-87984284D01*
X121771913Y-88043543D01*
X121934832Y-88057796D01*
X121999998Y-88063498D01*
X122000000Y-88063498D01*
X122000002Y-88063498D01*
X122057021Y-88058509D01*
X122228087Y-88043543D01*
X122449243Y-87984284D01*
X122656749Y-87887523D01*
X122844300Y-87756198D01*
X123006198Y-87594300D01*
X123137523Y-87406749D01*
X123234284Y-87199243D01*
X123293543Y-86978087D01*
X123313498Y-86750000D01*
X123293543Y-86521913D01*
X123234284Y-86300757D01*
X123137523Y-86093251D01*
X123006198Y-85905700D01*
X122844300Y-85743802D01*
X122712258Y-85651345D01*
X127691500Y-85651345D01*
X127691500Y-87348654D01*
X127698011Y-87409202D01*
X127698011Y-87409204D01*
X127734189Y-87506198D01*
X127749111Y-87546204D01*
X127836739Y-87663261D01*
X127953796Y-87750889D01*
X128090799Y-87801989D01*
X128118050Y-87804918D01*
X128151345Y-87808499D01*
X128151362Y-87808500D01*
X129848638Y-87808500D01*
X129848654Y-87808499D01*
X129875692Y-87805591D01*
X129909201Y-87801989D01*
X130046204Y-87750889D01*
X130163261Y-87663261D01*
X130250889Y-87546204D01*
X130287056Y-87449238D01*
X130304300Y-87403007D01*
X130346171Y-87347073D01*
X130411636Y-87322657D01*
X130479909Y-87337509D01*
X130508162Y-87358660D01*
X130655700Y-87506198D01*
X130843251Y-87637523D01*
X130884482Y-87656749D01*
X131050750Y-87734281D01*
X131050752Y-87734281D01*
X131050757Y-87734284D01*
X131271913Y-87793543D01*
X131434832Y-87807796D01*
X131499998Y-87813498D01*
X131500000Y-87813498D01*
X131500002Y-87813498D01*
X131557139Y-87808499D01*
X131728087Y-87793543D01*
X131949243Y-87734284D01*
X132156749Y-87637523D01*
X132344300Y-87506198D01*
X132506198Y-87344300D01*
X132637523Y-87156749D01*
X132710617Y-86999998D01*
X137686502Y-86999998D01*
X137686502Y-87000001D01*
X137706456Y-87228081D01*
X137706457Y-87228089D01*
X137765714Y-87449238D01*
X137765718Y-87449249D01*
X137853512Y-87637523D01*
X137862477Y-87656749D01*
X137993802Y-87844300D01*
X138155700Y-88006198D01*
X138343251Y-88137523D01*
X138356065Y-88143498D01*
X138550750Y-88234281D01*
X138550752Y-88234281D01*
X138550757Y-88234284D01*
X138771913Y-88293543D01*
X138934832Y-88307796D01*
X138999998Y-88313498D01*
X139000000Y-88313498D01*
X139000002Y-88313498D01*
X139057021Y-88308509D01*
X139228087Y-88293543D01*
X139449243Y-88234284D01*
X139656749Y-88137523D01*
X139844300Y-88006198D01*
X140006198Y-87844300D01*
X140137523Y-87656749D01*
X140234284Y-87449243D01*
X140293543Y-87228087D01*
X140313498Y-87000000D01*
X140313498Y-86999998D01*
X142686502Y-86999998D01*
X142686502Y-87000001D01*
X142706456Y-87228081D01*
X142706457Y-87228089D01*
X142765714Y-87449238D01*
X142765718Y-87449249D01*
X142853512Y-87637523D01*
X142862477Y-87656749D01*
X142993802Y-87844300D01*
X143155700Y-88006198D01*
X143343251Y-88137523D01*
X143356065Y-88143498D01*
X143550750Y-88234281D01*
X143550752Y-88234281D01*
X143550757Y-88234284D01*
X143771913Y-88293543D01*
X143934832Y-88307796D01*
X143999998Y-88313498D01*
X144000000Y-88313498D01*
X144000002Y-88313498D01*
X144057021Y-88308509D01*
X144228087Y-88293543D01*
X144449243Y-88234284D01*
X144656749Y-88137523D01*
X144844300Y-88006198D01*
X145006198Y-87844300D01*
X145137523Y-87656749D01*
X145234284Y-87449243D01*
X145293543Y-87228087D01*
X145313498Y-87000000D01*
X145298625Y-86829998D01*
X148436502Y-86829998D01*
X148436502Y-86830001D01*
X148456456Y-87058081D01*
X148456457Y-87058089D01*
X148515714Y-87279238D01*
X148515718Y-87279249D01*
X148612475Y-87486745D01*
X148612477Y-87486749D01*
X148743802Y-87674300D01*
X148905700Y-87836198D01*
X149093251Y-87967523D01*
X149218091Y-88025736D01*
X149300750Y-88064281D01*
X149300752Y-88064281D01*
X149300757Y-88064284D01*
X149521913Y-88123543D01*
X149681705Y-88137523D01*
X149749998Y-88143498D01*
X149750000Y-88143498D01*
X149750002Y-88143498D01*
X149818283Y-88137524D01*
X149978087Y-88123543D01*
X150199243Y-88064284D01*
X150406749Y-87967523D01*
X150594300Y-87836198D01*
X150756198Y-87674300D01*
X150887523Y-87486749D01*
X150984284Y-87279243D01*
X151037672Y-87079998D01*
X153186502Y-87079998D01*
X153186502Y-87080001D01*
X153206456Y-87308081D01*
X153206457Y-87308089D01*
X153265714Y-87529238D01*
X153265718Y-87529249D01*
X153361328Y-87734285D01*
X153362477Y-87736749D01*
X153493802Y-87924300D01*
X153655700Y-88086198D01*
X153843251Y-88217523D01*
X153968091Y-88275736D01*
X154050750Y-88314281D01*
X154050752Y-88314281D01*
X154050757Y-88314284D01*
X154271913Y-88373543D01*
X154434832Y-88387796D01*
X154499998Y-88393498D01*
X154500000Y-88393498D01*
X154500002Y-88393498D01*
X154557021Y-88388509D01*
X154728087Y-88373543D01*
X154949243Y-88314284D01*
X155156749Y-88217523D01*
X155344300Y-88086198D01*
X155506198Y-87924300D01*
X155637523Y-87736749D01*
X155734284Y-87529243D01*
X155793543Y-87308087D01*
X155813498Y-87080000D01*
X155793543Y-86851913D01*
X155734284Y-86630757D01*
X155696981Y-86550761D01*
X155683532Y-86521918D01*
X155637523Y-86423251D01*
X155506198Y-86235700D01*
X155344300Y-86073802D01*
X155156749Y-85942477D01*
X155156745Y-85942475D01*
X154949249Y-85845718D01*
X154949238Y-85845714D01*
X154728089Y-85786457D01*
X154728081Y-85786456D01*
X154500002Y-85766502D01*
X154499998Y-85766502D01*
X154271918Y-85786456D01*
X154271910Y-85786457D01*
X154050761Y-85845714D01*
X154050750Y-85845718D01*
X153843254Y-85942475D01*
X153843252Y-85942476D01*
X153781529Y-85985695D01*
X153655700Y-86073802D01*
X153655698Y-86073803D01*
X153655695Y-86073806D01*
X153493806Y-86235695D01*
X153493803Y-86235698D01*
X153493802Y-86235700D01*
X153448246Y-86300761D01*
X153362476Y-86423252D01*
X153362475Y-86423254D01*
X153265718Y-86630750D01*
X153265714Y-86630761D01*
X153206457Y-86851910D01*
X153206456Y-86851918D01*
X153186502Y-87079998D01*
X151037672Y-87079998D01*
X151043543Y-87058087D01*
X151063498Y-86830000D01*
X151058416Y-86771918D01*
X151046067Y-86630761D01*
X151043543Y-86601913D01*
X150984284Y-86380757D01*
X150946981Y-86300761D01*
X150933532Y-86271918D01*
X150887523Y-86173251D01*
X150756198Y-85985700D01*
X150594300Y-85823802D01*
X150406749Y-85692477D01*
X150406745Y-85692475D01*
X150199249Y-85595718D01*
X150199238Y-85595714D01*
X149978089Y-85536457D01*
X149978081Y-85536456D01*
X149750002Y-85516502D01*
X149749998Y-85516502D01*
X149521918Y-85536456D01*
X149521910Y-85536457D01*
X149300761Y-85595714D01*
X149300750Y-85595718D01*
X149093254Y-85692475D01*
X149093252Y-85692476D01*
X149022856Y-85741767D01*
X148905700Y-85823802D01*
X148905698Y-85823803D01*
X148905695Y-85823806D01*
X148743806Y-85985695D01*
X148743803Y-85985698D01*
X148743802Y-85985700D01*
X148698246Y-86050761D01*
X148612476Y-86173252D01*
X148612475Y-86173254D01*
X148515718Y-86380750D01*
X148515714Y-86380761D01*
X148456457Y-86601910D01*
X148456456Y-86601918D01*
X148436502Y-86829998D01*
X145298625Y-86829998D01*
X145293543Y-86771913D01*
X145234284Y-86550757D01*
X145137523Y-86343251D01*
X145006198Y-86155700D01*
X144844300Y-85993802D01*
X144656749Y-85862477D01*
X144656745Y-85862475D01*
X144449249Y-85765718D01*
X144449238Y-85765714D01*
X144228089Y-85706457D01*
X144228081Y-85706456D01*
X144000002Y-85686502D01*
X143999998Y-85686502D01*
X143771918Y-85706456D01*
X143771910Y-85706457D01*
X143550761Y-85765714D01*
X143550750Y-85765718D01*
X143343254Y-85862475D01*
X143343252Y-85862476D01*
X143343251Y-85862477D01*
X143155700Y-85993802D01*
X143155698Y-85993803D01*
X143155695Y-85993806D01*
X142993806Y-86155695D01*
X142993803Y-86155698D01*
X142993802Y-86155700D01*
X142953300Y-86213543D01*
X142862476Y-86343252D01*
X142862475Y-86343254D01*
X142765718Y-86550750D01*
X142765714Y-86550761D01*
X142706457Y-86771910D01*
X142706456Y-86771918D01*
X142686502Y-86999998D01*
X140313498Y-86999998D01*
X140293543Y-86771913D01*
X140234284Y-86550757D01*
X140137523Y-86343251D01*
X140006198Y-86155700D01*
X139844300Y-85993802D01*
X139656749Y-85862477D01*
X139656745Y-85862475D01*
X139449249Y-85765718D01*
X139449238Y-85765714D01*
X139228089Y-85706457D01*
X139228081Y-85706456D01*
X139000002Y-85686502D01*
X138999998Y-85686502D01*
X138771918Y-85706456D01*
X138771910Y-85706457D01*
X138550761Y-85765714D01*
X138550750Y-85765718D01*
X138343254Y-85862475D01*
X138343252Y-85862476D01*
X138343251Y-85862477D01*
X138155700Y-85993802D01*
X138155698Y-85993803D01*
X138155695Y-85993806D01*
X137993806Y-86155695D01*
X137993803Y-86155698D01*
X137993802Y-86155700D01*
X137953300Y-86213543D01*
X137862476Y-86343252D01*
X137862475Y-86343254D01*
X137765718Y-86550750D01*
X137765714Y-86550761D01*
X137706457Y-86771910D01*
X137706456Y-86771918D01*
X137686502Y-86999998D01*
X132710617Y-86999998D01*
X132734284Y-86949243D01*
X132793543Y-86728087D01*
X132813498Y-86500000D01*
X132793543Y-86271913D01*
X132734284Y-86050757D01*
X132707727Y-85993806D01*
X132691500Y-85959005D01*
X132637523Y-85843251D01*
X132506198Y-85655700D01*
X132344300Y-85493802D01*
X132156749Y-85362477D01*
X132156745Y-85362475D01*
X131949249Y-85265718D01*
X131949238Y-85265714D01*
X131728089Y-85206457D01*
X131728081Y-85206456D01*
X131500002Y-85186502D01*
X131499998Y-85186502D01*
X131271918Y-85206456D01*
X131271910Y-85206457D01*
X131050761Y-85265714D01*
X131050750Y-85265718D01*
X130843254Y-85362475D01*
X130843252Y-85362476D01*
X130749475Y-85428139D01*
X130709036Y-85456456D01*
X130655699Y-85493803D01*
X130508162Y-85641340D01*
X130446839Y-85674824D01*
X130377147Y-85669840D01*
X130321214Y-85627968D01*
X130304300Y-85596993D01*
X130265811Y-85493803D01*
X130250889Y-85453796D01*
X130163261Y-85336739D01*
X130046204Y-85249111D01*
X129909203Y-85198011D01*
X129848654Y-85191500D01*
X129848638Y-85191500D01*
X128151362Y-85191500D01*
X128151345Y-85191500D01*
X128090797Y-85198011D01*
X128090795Y-85198011D01*
X127953795Y-85249111D01*
X127836739Y-85336739D01*
X127749111Y-85453795D01*
X127698011Y-85590795D01*
X127698011Y-85590797D01*
X127691500Y-85651345D01*
X122712258Y-85651345D01*
X122656749Y-85612477D01*
X122656745Y-85612475D01*
X122449249Y-85515718D01*
X122449238Y-85515714D01*
X122228089Y-85456457D01*
X122228081Y-85456456D01*
X122000002Y-85436502D01*
X121999998Y-85436502D01*
X121771918Y-85456456D01*
X121771910Y-85456457D01*
X121550761Y-85515714D01*
X121550750Y-85515718D01*
X121343254Y-85612475D01*
X121343252Y-85612476D01*
X121302030Y-85641340D01*
X121155700Y-85743802D01*
X121155698Y-85743803D01*
X121155695Y-85743806D01*
X120993806Y-85905695D01*
X120993803Y-85905698D01*
X120993802Y-85905700D01*
X120937789Y-85985695D01*
X120862476Y-86093252D01*
X120862475Y-86093254D01*
X120765718Y-86300750D01*
X120765714Y-86300761D01*
X120706457Y-86521910D01*
X120706456Y-86521918D01*
X120686502Y-86749998D01*
X118313498Y-86749998D01*
X118293543Y-86521913D01*
X118234284Y-86300757D01*
X118137523Y-86093251D01*
X118006198Y-85905700D01*
X117844300Y-85743802D01*
X117656749Y-85612477D01*
X117656745Y-85612475D01*
X117449249Y-85515718D01*
X117449238Y-85515714D01*
X117228089Y-85456457D01*
X117228081Y-85456456D01*
X117000002Y-85436502D01*
X116999998Y-85436502D01*
X116771918Y-85456456D01*
X116771910Y-85456457D01*
X116550761Y-85515714D01*
X116550750Y-85515718D01*
X116343254Y-85612475D01*
X116343252Y-85612476D01*
X116302030Y-85641340D01*
X116155700Y-85743802D01*
X116155698Y-85743803D01*
X116155695Y-85743806D01*
X115993806Y-85905695D01*
X115993803Y-85905698D01*
X115993802Y-85905700D01*
X115937789Y-85985695D01*
X115862476Y-86093252D01*
X115862475Y-86093254D01*
X115765718Y-86300750D01*
X115765714Y-86300761D01*
X115706457Y-86521910D01*
X115706456Y-86521918D01*
X115686502Y-86749998D01*
X100075500Y-86749998D01*
X100075500Y-84919998D01*
X102436502Y-84919998D01*
X102436502Y-84920001D01*
X102456456Y-85148081D01*
X102456457Y-85148089D01*
X102515714Y-85369238D01*
X102515718Y-85369249D01*
X102612475Y-85576745D01*
X102612477Y-85576749D01*
X102743802Y-85764300D01*
X102905700Y-85926198D01*
X103093251Y-86057523D01*
X103169873Y-86093252D01*
X103300750Y-86154281D01*
X103300752Y-86154281D01*
X103300757Y-86154284D01*
X103521913Y-86213543D01*
X103684832Y-86227796D01*
X103749998Y-86233498D01*
X103750000Y-86233498D01*
X103750002Y-86233498D01*
X103807021Y-86228509D01*
X103978087Y-86213543D01*
X104199243Y-86154284D01*
X104406749Y-86057523D01*
X104594300Y-85926198D01*
X104756198Y-85764300D01*
X104887523Y-85576749D01*
X104984284Y-85369243D01*
X105043543Y-85148087D01*
X105063498Y-84920000D01*
X105043543Y-84691913D01*
X104984284Y-84470757D01*
X104887523Y-84263251D01*
X104756198Y-84075700D01*
X104594300Y-83913802D01*
X104406749Y-83782477D01*
X104406745Y-83782475D01*
X104199249Y-83685718D01*
X104199238Y-83685714D01*
X103978089Y-83626457D01*
X103978081Y-83626456D01*
X103750002Y-83606502D01*
X103749998Y-83606502D01*
X103521918Y-83626456D01*
X103521910Y-83626457D01*
X103300761Y-83685714D01*
X103300750Y-83685718D01*
X103093254Y-83782475D01*
X103093252Y-83782476D01*
X103093251Y-83782477D01*
X102905700Y-83913802D01*
X102905698Y-83913803D01*
X102905695Y-83913806D01*
X102743806Y-84075695D01*
X102612476Y-84263252D01*
X102612475Y-84263254D01*
X102515718Y-84470750D01*
X102515714Y-84470761D01*
X102456457Y-84691910D01*
X102456456Y-84691918D01*
X102436502Y-84919998D01*
X100075500Y-84919998D01*
X100075500Y-77699998D01*
X102661502Y-77699998D01*
X102661502Y-77700001D01*
X102681456Y-77928081D01*
X102681457Y-77928089D01*
X102740714Y-78149238D01*
X102740718Y-78149249D01*
X102835335Y-78352155D01*
X102837477Y-78356749D01*
X102968802Y-78544300D01*
X102968806Y-78544304D01*
X103116339Y-78691837D01*
X103149824Y-78753160D01*
X103144840Y-78822852D01*
X103102968Y-78878785D01*
X103071993Y-78895699D01*
X102928795Y-78949111D01*
X102811739Y-79036739D01*
X102724111Y-79153795D01*
X102673011Y-79290795D01*
X102673011Y-79290797D01*
X102666500Y-79351345D01*
X102666500Y-81048654D01*
X102673011Y-81109202D01*
X102673011Y-81109204D01*
X102713413Y-81217523D01*
X102724111Y-81246204D01*
X102811739Y-81363261D01*
X102928796Y-81450889D01*
X103065799Y-81501989D01*
X103093050Y-81504918D01*
X103126345Y-81508499D01*
X103126362Y-81508500D01*
X104823638Y-81508500D01*
X104823654Y-81508499D01*
X104850692Y-81505591D01*
X104884201Y-81501989D01*
X105021204Y-81450889D01*
X105138261Y-81363261D01*
X105163161Y-81329998D01*
X108936502Y-81329998D01*
X108936502Y-81330001D01*
X108956456Y-81558081D01*
X108956457Y-81558089D01*
X109015714Y-81779238D01*
X109015718Y-81779249D01*
X109112475Y-81986745D01*
X109112477Y-81986749D01*
X109243802Y-82174300D01*
X109405700Y-82336198D01*
X109593251Y-82467523D01*
X109718091Y-82525736D01*
X109800750Y-82564281D01*
X109800752Y-82564281D01*
X109800757Y-82564284D01*
X110021913Y-82623543D01*
X110184832Y-82637796D01*
X110249998Y-82643498D01*
X110250000Y-82643498D01*
X110250002Y-82643498D01*
X110307021Y-82638509D01*
X110478087Y-82623543D01*
X110699243Y-82564284D01*
X110906749Y-82467523D01*
X111094300Y-82336198D01*
X111256198Y-82174300D01*
X111387523Y-81986749D01*
X111484284Y-81779243D01*
X111543543Y-81558087D01*
X111563498Y-81330000D01*
X111543543Y-81101913D01*
X111484284Y-80880757D01*
X111387523Y-80673251D01*
X111256198Y-80485700D01*
X111094300Y-80323802D01*
X110906749Y-80192477D01*
X110906745Y-80192475D01*
X110699249Y-80095718D01*
X110699238Y-80095714D01*
X110478089Y-80036457D01*
X110478081Y-80036456D01*
X110250002Y-80016502D01*
X110249998Y-80016502D01*
X110021918Y-80036456D01*
X110021910Y-80036457D01*
X109800761Y-80095714D01*
X109800750Y-80095718D01*
X109593254Y-80192475D01*
X109593252Y-80192476D01*
X109522856Y-80241767D01*
X109405700Y-80323802D01*
X109405698Y-80323803D01*
X109405695Y-80323806D01*
X109243806Y-80485695D01*
X109243803Y-80485698D01*
X109243802Y-80485700D01*
X109213313Y-80529243D01*
X109112476Y-80673252D01*
X109112475Y-80673254D01*
X109015718Y-80880750D01*
X109015714Y-80880761D01*
X108956457Y-81101910D01*
X108956456Y-81101918D01*
X108936502Y-81329998D01*
X105163161Y-81329998D01*
X105225889Y-81246204D01*
X105276989Y-81109201D01*
X105280591Y-81075692D01*
X105283499Y-81048654D01*
X105283500Y-81048637D01*
X105283500Y-79351362D01*
X105283499Y-79351345D01*
X105280157Y-79320270D01*
X105276989Y-79290799D01*
X105225889Y-79153796D01*
X105138261Y-79036739D01*
X105021204Y-78949111D01*
X104878006Y-78895699D01*
X104822073Y-78853827D01*
X104809456Y-78819998D01*
X114866502Y-78819998D01*
X114866502Y-78820001D01*
X114886456Y-79048081D01*
X114886457Y-79048089D01*
X114945714Y-79269238D01*
X114945718Y-79269249D01*
X115017531Y-79423252D01*
X115042477Y-79476749D01*
X115173802Y-79664300D01*
X115335700Y-79826198D01*
X115523251Y-79957523D01*
X115648091Y-80015736D01*
X115730750Y-80054281D01*
X115730752Y-80054281D01*
X115730757Y-80054284D01*
X115951913Y-80113543D01*
X116114832Y-80127796D01*
X116179998Y-80133498D01*
X116180000Y-80133498D01*
X116180002Y-80133498D01*
X116237021Y-80128509D01*
X116408087Y-80113543D01*
X116629243Y-80054284D01*
X116836749Y-79957523D01*
X117024300Y-79826198D01*
X117186198Y-79664300D01*
X117317523Y-79476749D01*
X117337618Y-79433655D01*
X117383790Y-79381215D01*
X117450983Y-79362063D01*
X117517864Y-79382278D01*
X117562382Y-79433655D01*
X117582477Y-79476749D01*
X117713802Y-79664300D01*
X117875700Y-79826198D01*
X118063251Y-79957523D01*
X118188091Y-80015736D01*
X118270750Y-80054281D01*
X118270752Y-80054281D01*
X118270757Y-80054284D01*
X118491913Y-80113543D01*
X118654832Y-80127796D01*
X118719998Y-80133498D01*
X118720000Y-80133498D01*
X118720002Y-80133498D01*
X118777021Y-80128509D01*
X118948087Y-80113543D01*
X119169243Y-80054284D01*
X119376749Y-79957523D01*
X119564300Y-79826198D01*
X119726198Y-79664300D01*
X119857523Y-79476749D01*
X119877618Y-79433655D01*
X119923790Y-79381215D01*
X119990983Y-79362063D01*
X120057864Y-79382278D01*
X120102382Y-79433655D01*
X120122477Y-79476749D01*
X120253802Y-79664300D01*
X120415700Y-79826198D01*
X120603251Y-79957523D01*
X120728091Y-80015736D01*
X120810750Y-80054281D01*
X120810752Y-80054281D01*
X120810757Y-80054284D01*
X121031913Y-80113543D01*
X121194832Y-80127796D01*
X121259998Y-80133498D01*
X121260000Y-80133498D01*
X121260002Y-80133498D01*
X121317021Y-80128509D01*
X121488087Y-80113543D01*
X121709243Y-80054284D01*
X121916749Y-79957523D01*
X122104300Y-79826198D01*
X122266198Y-79664300D01*
X122397523Y-79476749D01*
X122417618Y-79433655D01*
X122463790Y-79381215D01*
X122530983Y-79362063D01*
X122597864Y-79382278D01*
X122642382Y-79433655D01*
X122662477Y-79476749D01*
X122793802Y-79664300D01*
X122955700Y-79826198D01*
X123143251Y-79957523D01*
X123268091Y-80015736D01*
X123350750Y-80054281D01*
X123350752Y-80054281D01*
X123350757Y-80054284D01*
X123571913Y-80113543D01*
X123734832Y-80127796D01*
X123799998Y-80133498D01*
X123800000Y-80133498D01*
X123800002Y-80133498D01*
X123857021Y-80128509D01*
X124028087Y-80113543D01*
X124153278Y-80079998D01*
X129686502Y-80079998D01*
X129686502Y-80080001D01*
X129706456Y-80308081D01*
X129706457Y-80308089D01*
X129765714Y-80529238D01*
X129765718Y-80529249D01*
X129832868Y-80673252D01*
X129862477Y-80736749D01*
X129993802Y-80924300D01*
X130155700Y-81086198D01*
X130343251Y-81217523D01*
X130404758Y-81246204D01*
X130550750Y-81314281D01*
X130550752Y-81314281D01*
X130550757Y-81314284D01*
X130771913Y-81373543D01*
X130934832Y-81387796D01*
X130999998Y-81393498D01*
X131000000Y-81393498D01*
X131000002Y-81393498D01*
X131057021Y-81388509D01*
X131228087Y-81373543D01*
X131449243Y-81314284D01*
X131656749Y-81217523D01*
X131844300Y-81086198D01*
X132006198Y-80924300D01*
X132137523Y-80736749D01*
X132234284Y-80529243D01*
X132293543Y-80308087D01*
X132313498Y-80080000D01*
X132313165Y-80076198D01*
X132293543Y-79851918D01*
X132293543Y-79851913D01*
X132234284Y-79630757D01*
X132137523Y-79423251D01*
X132006198Y-79235700D01*
X131844300Y-79073802D01*
X131838867Y-79069998D01*
X135366502Y-79069998D01*
X135366502Y-79070001D01*
X135386456Y-79298081D01*
X135386457Y-79298089D01*
X135445714Y-79519238D01*
X135445718Y-79519249D01*
X135522382Y-79683655D01*
X135542477Y-79726749D01*
X135673802Y-79914300D01*
X135835700Y-80076198D01*
X136023251Y-80207523D01*
X136148091Y-80265736D01*
X136230750Y-80304281D01*
X136230752Y-80304281D01*
X136230757Y-80304284D01*
X136451913Y-80363543D01*
X136614832Y-80377796D01*
X136679998Y-80383498D01*
X136680000Y-80383498D01*
X136680002Y-80383498D01*
X136737021Y-80378509D01*
X136908087Y-80363543D01*
X137129243Y-80304284D01*
X137336749Y-80207523D01*
X137524300Y-80076198D01*
X137686198Y-79914300D01*
X137817523Y-79726749D01*
X137837618Y-79683655D01*
X137883790Y-79631215D01*
X137950983Y-79612063D01*
X138017864Y-79632278D01*
X138062382Y-79683655D01*
X138082477Y-79726749D01*
X138213802Y-79914300D01*
X138375700Y-80076198D01*
X138563251Y-80207523D01*
X138688091Y-80265736D01*
X138770750Y-80304281D01*
X138770752Y-80304281D01*
X138770757Y-80304284D01*
X138991913Y-80363543D01*
X139154832Y-80377796D01*
X139219998Y-80383498D01*
X139220000Y-80383498D01*
X139220002Y-80383498D01*
X139277021Y-80378509D01*
X139448087Y-80363543D01*
X139669243Y-80304284D01*
X139876749Y-80207523D01*
X140064300Y-80076198D01*
X140226198Y-79914300D01*
X140357523Y-79726749D01*
X140377618Y-79683655D01*
X140423790Y-79631215D01*
X140490983Y-79612063D01*
X140557864Y-79632278D01*
X140602382Y-79683655D01*
X140622477Y-79726749D01*
X140753802Y-79914300D01*
X140915700Y-80076198D01*
X141103251Y-80207523D01*
X141228091Y-80265736D01*
X141310750Y-80304281D01*
X141310752Y-80304281D01*
X141310757Y-80304284D01*
X141531913Y-80363543D01*
X141694832Y-80377796D01*
X141759998Y-80383498D01*
X141760000Y-80383498D01*
X141760002Y-80383498D01*
X141817021Y-80378509D01*
X141988087Y-80363543D01*
X142209243Y-80304284D01*
X142416749Y-80207523D01*
X142604300Y-80076198D01*
X142766198Y-79914300D01*
X142897523Y-79726749D01*
X142917618Y-79683655D01*
X142963790Y-79631215D01*
X143030983Y-79612063D01*
X143097864Y-79632278D01*
X143142382Y-79683655D01*
X143162477Y-79726749D01*
X143293802Y-79914300D01*
X143455700Y-80076198D01*
X143643251Y-80207523D01*
X143768091Y-80265736D01*
X143850750Y-80304281D01*
X143850752Y-80304281D01*
X143850757Y-80304284D01*
X144071913Y-80363543D01*
X144234832Y-80377796D01*
X144299998Y-80383498D01*
X144300000Y-80383498D01*
X144300002Y-80383498D01*
X144357021Y-80378509D01*
X144528087Y-80363543D01*
X144749243Y-80304284D01*
X144956749Y-80207523D01*
X145144300Y-80076198D01*
X145306198Y-79914300D01*
X145437523Y-79726749D01*
X145534284Y-79519243D01*
X145593543Y-79298087D01*
X145613498Y-79070000D01*
X145593543Y-78841913D01*
X145534284Y-78620757D01*
X145437523Y-78413251D01*
X145394743Y-78352155D01*
X163650000Y-78352155D01*
X163650000Y-79000000D01*
X164566988Y-79000000D01*
X164534075Y-79057007D01*
X164500000Y-79184174D01*
X164500000Y-79315826D01*
X164534075Y-79442993D01*
X164566988Y-79500000D01*
X163650000Y-79500000D01*
X163650000Y-80147844D01*
X163656401Y-80207372D01*
X163656403Y-80207379D01*
X163706645Y-80342086D01*
X163706649Y-80342093D01*
X163792809Y-80457187D01*
X163792812Y-80457190D01*
X163907906Y-80543350D01*
X163907913Y-80543354D01*
X164042620Y-80593596D01*
X164042627Y-80593598D01*
X164102155Y-80599999D01*
X164102172Y-80600000D01*
X164750000Y-80600000D01*
X164750000Y-79683012D01*
X164807007Y-79715925D01*
X164934174Y-79750000D01*
X165065826Y-79750000D01*
X165192993Y-79715925D01*
X165250000Y-79683012D01*
X165250000Y-80600000D01*
X165897828Y-80600000D01*
X165897844Y-80599999D01*
X165957372Y-80593598D01*
X165957379Y-80593596D01*
X166092086Y-80543354D01*
X166092093Y-80543350D01*
X166207187Y-80457190D01*
X166207190Y-80457187D01*
X166293350Y-80342093D01*
X166293354Y-80342086D01*
X166343596Y-80207379D01*
X166343598Y-80207372D01*
X166349999Y-80147844D01*
X166350000Y-80147827D01*
X166350000Y-79500000D01*
X165433012Y-79500000D01*
X165465925Y-79442993D01*
X165500000Y-79315826D01*
X165500000Y-79184174D01*
X165465925Y-79057007D01*
X165433012Y-79000000D01*
X166350000Y-79000000D01*
X166350000Y-78352172D01*
X166349999Y-78352155D01*
X166343598Y-78292627D01*
X166343596Y-78292620D01*
X166293354Y-78157913D01*
X166293350Y-78157906D01*
X166207190Y-78042812D01*
X166207187Y-78042809D01*
X166092093Y-77956649D01*
X166092086Y-77956645D01*
X165957379Y-77906403D01*
X165957372Y-77906401D01*
X165897844Y-77900000D01*
X165250000Y-77900000D01*
X165250000Y-78816988D01*
X165192993Y-78784075D01*
X165065826Y-78750000D01*
X164934174Y-78750000D01*
X164807007Y-78784075D01*
X164750000Y-78816988D01*
X164750000Y-77900000D01*
X164102155Y-77900000D01*
X164042627Y-77906401D01*
X164042620Y-77906403D01*
X163907913Y-77956645D01*
X163907906Y-77956649D01*
X163792812Y-78042809D01*
X163792809Y-78042812D01*
X163706649Y-78157906D01*
X163706645Y-78157913D01*
X163656403Y-78292620D01*
X163656401Y-78292627D01*
X163650000Y-78352155D01*
X145394743Y-78352155D01*
X145306198Y-78225700D01*
X145144300Y-78063802D01*
X144956749Y-77932477D01*
X144900833Y-77906403D01*
X144749249Y-77835718D01*
X144749238Y-77835714D01*
X144528089Y-77776457D01*
X144528081Y-77776456D01*
X144300002Y-77756502D01*
X144299998Y-77756502D01*
X144071918Y-77776456D01*
X144071910Y-77776457D01*
X143850761Y-77835714D01*
X143850750Y-77835718D01*
X143643254Y-77932475D01*
X143643252Y-77932476D01*
X143608730Y-77956649D01*
X143455700Y-78063802D01*
X143455698Y-78063803D01*
X143455695Y-78063806D01*
X143293806Y-78225695D01*
X143293803Y-78225698D01*
X143293802Y-78225700D01*
X143257226Y-78277936D01*
X143162476Y-78413251D01*
X143142382Y-78456345D01*
X143096209Y-78508784D01*
X143029016Y-78527936D01*
X142962135Y-78507720D01*
X142917618Y-78456345D01*
X142897523Y-78413251D01*
X142867763Y-78370750D01*
X142766198Y-78225700D01*
X142604300Y-78063802D01*
X142416749Y-77932477D01*
X142360833Y-77906403D01*
X142209249Y-77835718D01*
X142209238Y-77835714D01*
X141988089Y-77776457D01*
X141988081Y-77776456D01*
X141760002Y-77756502D01*
X141759998Y-77756502D01*
X141531918Y-77776456D01*
X141531910Y-77776457D01*
X141310761Y-77835714D01*
X141310750Y-77835718D01*
X141103254Y-77932475D01*
X141103252Y-77932476D01*
X141068730Y-77956649D01*
X140915700Y-78063802D01*
X140915698Y-78063803D01*
X140915695Y-78063806D01*
X140753806Y-78225695D01*
X140753803Y-78225698D01*
X140753802Y-78225700D01*
X140717226Y-78277936D01*
X140622476Y-78413251D01*
X140602382Y-78456345D01*
X140556209Y-78508784D01*
X140489016Y-78527936D01*
X140422135Y-78507720D01*
X140377618Y-78456345D01*
X140357523Y-78413251D01*
X140327763Y-78370750D01*
X140226198Y-78225700D01*
X140064300Y-78063802D01*
X139876749Y-77932477D01*
X139820833Y-77906403D01*
X139669249Y-77835718D01*
X139669238Y-77835714D01*
X139448089Y-77776457D01*
X139448081Y-77776456D01*
X139220002Y-77756502D01*
X139219998Y-77756502D01*
X138991918Y-77776456D01*
X138991910Y-77776457D01*
X138770761Y-77835714D01*
X138770750Y-77835718D01*
X138563254Y-77932475D01*
X138563252Y-77932476D01*
X138528730Y-77956649D01*
X138375700Y-78063802D01*
X138375698Y-78063803D01*
X138375695Y-78063806D01*
X138213806Y-78225695D01*
X138213803Y-78225698D01*
X138213802Y-78225700D01*
X138177226Y-78277936D01*
X138082476Y-78413251D01*
X138062382Y-78456345D01*
X138016209Y-78508784D01*
X137949016Y-78527936D01*
X137882135Y-78507720D01*
X137837618Y-78456345D01*
X137817523Y-78413251D01*
X137787763Y-78370750D01*
X137686198Y-78225700D01*
X137524300Y-78063802D01*
X137336749Y-77932477D01*
X137280833Y-77906403D01*
X137129249Y-77835718D01*
X137129238Y-77835714D01*
X136908089Y-77776457D01*
X136908081Y-77776456D01*
X136680002Y-77756502D01*
X136679998Y-77756502D01*
X136451918Y-77776456D01*
X136451910Y-77776457D01*
X136230761Y-77835714D01*
X136230750Y-77835718D01*
X136023254Y-77932475D01*
X136023252Y-77932476D01*
X135988730Y-77956649D01*
X135835700Y-78063802D01*
X135835698Y-78063803D01*
X135835695Y-78063806D01*
X135673806Y-78225695D01*
X135673803Y-78225698D01*
X135673802Y-78225700D01*
X135637226Y-78277936D01*
X135542476Y-78413252D01*
X135542475Y-78413254D01*
X135445718Y-78620750D01*
X135445714Y-78620761D01*
X135386457Y-78841910D01*
X135386456Y-78841918D01*
X135366502Y-79069998D01*
X131838867Y-79069998D01*
X131656749Y-78942477D01*
X131656745Y-78942475D01*
X131449249Y-78845718D01*
X131449238Y-78845714D01*
X131228089Y-78786457D01*
X131228081Y-78786456D01*
X131000002Y-78766502D01*
X130999998Y-78766502D01*
X130771918Y-78786456D01*
X130771910Y-78786457D01*
X130550761Y-78845714D01*
X130550750Y-78845718D01*
X130343254Y-78942475D01*
X130343252Y-78942476D01*
X130272856Y-78991767D01*
X130155700Y-79073802D01*
X130155698Y-79073803D01*
X130155695Y-79073806D01*
X129993806Y-79235695D01*
X129993803Y-79235698D01*
X129993802Y-79235700D01*
X129970315Y-79269243D01*
X129862476Y-79423252D01*
X129862475Y-79423254D01*
X129765718Y-79630750D01*
X129765714Y-79630761D01*
X129706457Y-79851910D01*
X129706456Y-79851918D01*
X129686502Y-80079998D01*
X124153278Y-80079998D01*
X124249243Y-80054284D01*
X124456749Y-79957523D01*
X124644300Y-79826198D01*
X124806198Y-79664300D01*
X124937523Y-79476749D01*
X125034284Y-79269243D01*
X125093543Y-79048087D01*
X125111965Y-78837523D01*
X125113498Y-78820001D01*
X125113498Y-78819998D01*
X125104757Y-78720090D01*
X125093543Y-78591913D01*
X125034284Y-78370757D01*
X124937523Y-78163251D01*
X124806198Y-77975700D01*
X124644300Y-77813802D01*
X124456749Y-77682477D01*
X124443273Y-77676193D01*
X124249249Y-77585718D01*
X124249238Y-77585714D01*
X124028089Y-77526457D01*
X124028081Y-77526456D01*
X123800002Y-77506502D01*
X123799998Y-77506502D01*
X123571918Y-77526456D01*
X123571910Y-77526457D01*
X123350761Y-77585714D01*
X123350750Y-77585718D01*
X123143254Y-77682475D01*
X123143252Y-77682476D01*
X123118224Y-77700001D01*
X122955700Y-77813802D01*
X122955698Y-77813803D01*
X122955695Y-77813806D01*
X122793806Y-77975695D01*
X122662476Y-78163251D01*
X122642382Y-78206345D01*
X122596209Y-78258784D01*
X122529016Y-78277936D01*
X122462135Y-78257720D01*
X122417618Y-78206345D01*
X122397523Y-78163251D01*
X122387711Y-78149238D01*
X122266198Y-77975700D01*
X122104300Y-77813802D01*
X121916749Y-77682477D01*
X121903273Y-77676193D01*
X121709249Y-77585718D01*
X121709238Y-77585714D01*
X121488089Y-77526457D01*
X121488081Y-77526456D01*
X121260002Y-77506502D01*
X121259998Y-77506502D01*
X121031918Y-77526456D01*
X121031910Y-77526457D01*
X120810761Y-77585714D01*
X120810750Y-77585718D01*
X120603254Y-77682475D01*
X120603252Y-77682476D01*
X120578224Y-77700001D01*
X120415700Y-77813802D01*
X120415698Y-77813803D01*
X120415695Y-77813806D01*
X120253806Y-77975695D01*
X120122476Y-78163251D01*
X120102382Y-78206345D01*
X120056209Y-78258784D01*
X119989016Y-78277936D01*
X119922135Y-78257720D01*
X119877618Y-78206345D01*
X119857523Y-78163251D01*
X119847711Y-78149238D01*
X119726198Y-77975700D01*
X119564300Y-77813802D01*
X119376749Y-77682477D01*
X119363273Y-77676193D01*
X119169249Y-77585718D01*
X119169238Y-77585714D01*
X118948089Y-77526457D01*
X118948081Y-77526456D01*
X118720002Y-77506502D01*
X118719998Y-77506502D01*
X118491918Y-77526456D01*
X118491910Y-77526457D01*
X118270761Y-77585714D01*
X118270750Y-77585718D01*
X118063254Y-77682475D01*
X118063252Y-77682476D01*
X118038224Y-77700001D01*
X117875700Y-77813802D01*
X117875698Y-77813803D01*
X117875695Y-77813806D01*
X117713806Y-77975695D01*
X117582476Y-78163251D01*
X117562382Y-78206345D01*
X117516209Y-78258784D01*
X117449016Y-78277936D01*
X117382135Y-78257720D01*
X117337618Y-78206345D01*
X117317523Y-78163251D01*
X117307711Y-78149238D01*
X117186198Y-77975700D01*
X117024300Y-77813802D01*
X116836749Y-77682477D01*
X116823273Y-77676193D01*
X116629249Y-77585718D01*
X116629238Y-77585714D01*
X116408089Y-77526457D01*
X116408081Y-77526456D01*
X116180002Y-77506502D01*
X116179998Y-77506502D01*
X115951918Y-77526456D01*
X115951910Y-77526457D01*
X115730761Y-77585714D01*
X115730750Y-77585718D01*
X115523254Y-77682475D01*
X115523252Y-77682476D01*
X115498224Y-77700001D01*
X115335700Y-77813802D01*
X115335698Y-77813803D01*
X115335695Y-77813806D01*
X115173806Y-77975695D01*
X115042476Y-78163252D01*
X115042475Y-78163254D01*
X114945718Y-78370750D01*
X114945714Y-78370761D01*
X114886457Y-78591910D01*
X114886456Y-78591918D01*
X114866502Y-78819998D01*
X104809456Y-78819998D01*
X104797657Y-78788362D01*
X104812510Y-78720090D01*
X104833654Y-78691843D01*
X104981198Y-78544300D01*
X105112523Y-78356749D01*
X105209284Y-78149243D01*
X105268543Y-77928087D01*
X105288498Y-77700000D01*
X105268543Y-77471913D01*
X105209284Y-77250757D01*
X105112523Y-77043251D01*
X104981198Y-76855700D01*
X104819300Y-76693802D01*
X104785304Y-76669998D01*
X148436502Y-76669998D01*
X148436502Y-76670001D01*
X148456456Y-76898081D01*
X148456457Y-76898089D01*
X148515714Y-77119238D01*
X148515718Y-77119249D01*
X148577043Y-77250761D01*
X148612477Y-77326749D01*
X148743802Y-77514300D01*
X148905700Y-77676198D01*
X149093251Y-77807523D01*
X149153716Y-77835718D01*
X149300750Y-77904281D01*
X149300752Y-77904281D01*
X149300757Y-77904284D01*
X149521913Y-77963543D01*
X149684832Y-77977796D01*
X149749998Y-77983498D01*
X149750000Y-77983498D01*
X149750002Y-77983498D01*
X149807021Y-77978509D01*
X149978087Y-77963543D01*
X150199243Y-77904284D01*
X150406749Y-77807523D01*
X150594300Y-77676198D01*
X150756198Y-77514300D01*
X150887523Y-77326749D01*
X150984284Y-77119243D01*
X151037672Y-76919998D01*
X153186502Y-76919998D01*
X153186502Y-76920001D01*
X153206456Y-77148081D01*
X153206457Y-77148089D01*
X153265714Y-77369238D01*
X153265718Y-77369249D01*
X153362475Y-77576745D01*
X153362477Y-77576749D01*
X153493802Y-77764300D01*
X153655700Y-77926198D01*
X153843251Y-78057523D01*
X153968091Y-78115736D01*
X154050750Y-78154281D01*
X154050752Y-78154281D01*
X154050757Y-78154284D01*
X154271913Y-78213543D01*
X154434832Y-78227796D01*
X154499998Y-78233498D01*
X154500000Y-78233498D01*
X154500002Y-78233498D01*
X154557021Y-78228509D01*
X154728087Y-78213543D01*
X154949243Y-78154284D01*
X155156749Y-78057523D01*
X155344300Y-77926198D01*
X155506198Y-77764300D01*
X155637523Y-77576749D01*
X155734284Y-77369243D01*
X155793543Y-77148087D01*
X155813498Y-76920000D01*
X155793543Y-76691913D01*
X155734284Y-76470757D01*
X155731934Y-76465718D01*
X155637524Y-76263254D01*
X155637523Y-76263252D01*
X155637523Y-76263251D01*
X155506198Y-76075700D01*
X155344300Y-75913802D01*
X155156749Y-75782477D01*
X155156745Y-75782475D01*
X154949249Y-75685718D01*
X154949238Y-75685714D01*
X154728089Y-75626457D01*
X154728081Y-75626456D01*
X154500002Y-75606502D01*
X154499998Y-75606502D01*
X154271918Y-75626456D01*
X154271910Y-75626457D01*
X154050761Y-75685714D01*
X154050750Y-75685718D01*
X153843254Y-75782475D01*
X153843252Y-75782476D01*
X153843251Y-75782477D01*
X153655700Y-75913802D01*
X153655698Y-75913803D01*
X153655695Y-75913806D01*
X153493806Y-76075695D01*
X153362476Y-76263252D01*
X153362475Y-76263254D01*
X153265718Y-76470750D01*
X153265714Y-76470761D01*
X153206457Y-76691910D01*
X153206456Y-76691918D01*
X153186502Y-76919998D01*
X151037672Y-76919998D01*
X151043543Y-76898087D01*
X151063498Y-76670000D01*
X151043543Y-76441913D01*
X150984284Y-76220757D01*
X150887523Y-76013251D01*
X150756198Y-75825700D01*
X150594300Y-75663802D01*
X150406749Y-75532477D01*
X150406745Y-75532475D01*
X150199249Y-75435718D01*
X150199238Y-75435714D01*
X149978089Y-75376457D01*
X149978081Y-75376456D01*
X149750002Y-75356502D01*
X149749998Y-75356502D01*
X149521918Y-75376456D01*
X149521910Y-75376457D01*
X149300761Y-75435714D01*
X149300750Y-75435718D01*
X149093254Y-75532475D01*
X149093252Y-75532476D01*
X149093251Y-75532477D01*
X148905700Y-75663802D01*
X148905698Y-75663803D01*
X148905695Y-75663806D01*
X148743806Y-75825695D01*
X148612476Y-76013252D01*
X148612475Y-76013254D01*
X148515718Y-76220750D01*
X148515714Y-76220761D01*
X148456457Y-76441910D01*
X148456456Y-76441918D01*
X148436502Y-76669998D01*
X104785304Y-76669998D01*
X104631749Y-76562477D01*
X104631745Y-76562475D01*
X104424249Y-76465718D01*
X104424238Y-76465714D01*
X104203089Y-76406457D01*
X104203081Y-76406456D01*
X103975002Y-76386502D01*
X103974998Y-76386502D01*
X103746918Y-76406456D01*
X103746910Y-76406457D01*
X103525761Y-76465714D01*
X103525750Y-76465718D01*
X103318254Y-76562475D01*
X103318252Y-76562476D01*
X103318251Y-76562477D01*
X103130700Y-76693802D01*
X103130698Y-76693803D01*
X103130695Y-76693806D01*
X102968806Y-76855695D01*
X102968803Y-76855698D01*
X102968802Y-76855700D01*
X102939121Y-76898089D01*
X102837476Y-77043252D01*
X102837475Y-77043254D01*
X102740718Y-77250750D01*
X102740714Y-77250761D01*
X102681457Y-77471910D01*
X102681456Y-77471918D01*
X102661502Y-77699998D01*
X100075500Y-77699998D01*
X100075500Y-71101345D01*
X102641500Y-71101345D01*
X102641500Y-72898654D01*
X102648011Y-72959202D01*
X102648011Y-72959204D01*
X102699111Y-73096204D01*
X102786739Y-73213261D01*
X102903796Y-73300889D01*
X103040799Y-73351989D01*
X103068050Y-73354918D01*
X103101345Y-73358499D01*
X103101362Y-73358500D01*
X104898638Y-73358500D01*
X104898654Y-73358499D01*
X104925692Y-73355591D01*
X104959201Y-73351989D01*
X105096204Y-73300889D01*
X105213261Y-73213261D01*
X105300889Y-73096204D01*
X105351989Y-72959201D01*
X105355591Y-72925692D01*
X105358499Y-72898654D01*
X105358500Y-72898637D01*
X105358500Y-71169998D01*
X108936502Y-71169998D01*
X108936502Y-71170001D01*
X108956456Y-71398081D01*
X108956457Y-71398089D01*
X109015714Y-71619238D01*
X109015718Y-71619249D01*
X109106371Y-71813655D01*
X109112477Y-71826749D01*
X109243802Y-72014300D01*
X109405700Y-72176198D01*
X109593251Y-72307523D01*
X109641741Y-72330134D01*
X109800750Y-72404281D01*
X109800752Y-72404281D01*
X109800757Y-72404284D01*
X110021913Y-72463543D01*
X110184832Y-72477796D01*
X110249998Y-72483498D01*
X110250000Y-72483498D01*
X110250002Y-72483498D01*
X110307021Y-72478509D01*
X110478087Y-72463543D01*
X110699243Y-72404284D01*
X110906749Y-72307523D01*
X111094300Y-72176198D01*
X111256198Y-72014300D01*
X111387523Y-71826749D01*
X111484284Y-71619243D01*
X111543543Y-71398087D01*
X111563498Y-71170000D01*
X111561515Y-71147339D01*
X111553658Y-71057524D01*
X111544250Y-70949999D01*
X114901127Y-70949999D01*
X114901128Y-70950000D01*
X115864314Y-70950000D01*
X115859920Y-70954394D01*
X115807259Y-71045606D01*
X115780000Y-71147339D01*
X115780000Y-71252661D01*
X115807259Y-71354394D01*
X115859920Y-71445606D01*
X115864314Y-71450000D01*
X114901128Y-71450000D01*
X114953730Y-71646317D01*
X114953734Y-71646326D01*
X115049865Y-71852482D01*
X115180342Y-72038820D01*
X115341179Y-72199657D01*
X115527517Y-72330134D01*
X115733673Y-72426265D01*
X115733682Y-72426269D01*
X115929999Y-72478872D01*
X115930000Y-72478871D01*
X115930000Y-71515686D01*
X115934394Y-71520080D01*
X116025606Y-71572741D01*
X116127339Y-71600000D01*
X116232661Y-71600000D01*
X116334394Y-71572741D01*
X116425606Y-71520080D01*
X116430000Y-71515686D01*
X116430000Y-72478872D01*
X116626317Y-72426269D01*
X116626326Y-72426265D01*
X116832482Y-72330134D01*
X117018820Y-72199657D01*
X117179657Y-72038820D01*
X117310133Y-71852483D01*
X117332927Y-71803600D01*
X117379098Y-71751160D01*
X117446292Y-71732007D01*
X117513173Y-71752221D01*
X117557691Y-71803596D01*
X117582477Y-71856749D01*
X117713802Y-72044300D01*
X117875700Y-72206198D01*
X118063251Y-72337523D01*
X118118445Y-72363260D01*
X118270750Y-72434281D01*
X118270752Y-72434281D01*
X118270757Y-72434284D01*
X118491913Y-72493543D01*
X118647865Y-72507187D01*
X118719998Y-72513498D01*
X118720000Y-72513498D01*
X118720002Y-72513498D01*
X118777139Y-72508499D01*
X118948087Y-72493543D01*
X119169243Y-72434284D01*
X119376749Y-72337523D01*
X119564300Y-72206198D01*
X119726198Y-72044300D01*
X119857523Y-71856749D01*
X119877618Y-71813655D01*
X119923790Y-71761215D01*
X119990983Y-71742063D01*
X120057864Y-71762278D01*
X120102382Y-71813655D01*
X120122477Y-71856749D01*
X120253802Y-72044300D01*
X120415700Y-72206198D01*
X120603251Y-72337523D01*
X120658445Y-72363260D01*
X120810750Y-72434281D01*
X120810752Y-72434281D01*
X120810757Y-72434284D01*
X121031913Y-72493543D01*
X121187865Y-72507187D01*
X121259998Y-72513498D01*
X121260000Y-72513498D01*
X121260002Y-72513498D01*
X121317139Y-72508499D01*
X121488087Y-72493543D01*
X121709243Y-72434284D01*
X121916749Y-72337523D01*
X122104300Y-72206198D01*
X122266198Y-72044300D01*
X122271566Y-72036632D01*
X122326139Y-71993008D01*
X122395637Y-71985813D01*
X122457993Y-72017333D01*
X122493409Y-72077562D01*
X122496430Y-72094498D01*
X122498011Y-72109202D01*
X122498011Y-72109204D01*
X122534189Y-72206198D01*
X122549111Y-72246204D01*
X122636739Y-72363261D01*
X122753796Y-72450889D01*
X122890799Y-72501989D01*
X122918050Y-72504918D01*
X122951345Y-72508499D01*
X122951362Y-72508500D01*
X124648638Y-72508500D01*
X124648654Y-72508499D01*
X124675692Y-72505591D01*
X124709201Y-72501989D01*
X124846204Y-72450889D01*
X124963261Y-72363261D01*
X125050889Y-72246204D01*
X125101989Y-72109201D01*
X125107967Y-72053597D01*
X125108499Y-72048654D01*
X125108500Y-72048637D01*
X125108500Y-70351362D01*
X125108499Y-70351345D01*
X125105114Y-70319865D01*
X125101989Y-70290799D01*
X125050889Y-70153796D01*
X124963261Y-70036739D01*
X124846204Y-69949111D01*
X124768151Y-69919998D01*
X129686502Y-69919998D01*
X129686502Y-69920001D01*
X129706456Y-70148081D01*
X129706457Y-70148089D01*
X129765714Y-70369238D01*
X129765718Y-70369249D01*
X129846857Y-70543252D01*
X129862477Y-70576749D01*
X129993802Y-70764300D01*
X130155700Y-70926198D01*
X130343251Y-71057523D01*
X130437228Y-71101345D01*
X130550750Y-71154281D01*
X130550752Y-71154281D01*
X130550757Y-71154284D01*
X130771913Y-71213543D01*
X130934832Y-71227796D01*
X130999998Y-71233498D01*
X131000000Y-71233498D01*
X131000002Y-71233498D01*
X131057021Y-71228509D01*
X131228087Y-71213543D01*
X131278634Y-71199999D01*
X135401127Y-71199999D01*
X135401128Y-71200000D01*
X136364314Y-71200000D01*
X136359920Y-71204394D01*
X136307259Y-71295606D01*
X136280000Y-71397339D01*
X136280000Y-71502661D01*
X136307259Y-71604394D01*
X136359920Y-71695606D01*
X136364314Y-71700000D01*
X135401128Y-71700000D01*
X135453730Y-71896317D01*
X135453734Y-71896326D01*
X135549865Y-72102482D01*
X135680342Y-72288820D01*
X135841179Y-72449657D01*
X136027517Y-72580134D01*
X136233673Y-72676265D01*
X136233682Y-72676269D01*
X136429999Y-72728872D01*
X136430000Y-72728871D01*
X136430000Y-71765686D01*
X136434394Y-71770080D01*
X136525606Y-71822741D01*
X136627339Y-71850000D01*
X136732661Y-71850000D01*
X136834394Y-71822741D01*
X136925606Y-71770080D01*
X136930000Y-71765686D01*
X136930000Y-72728872D01*
X137126317Y-72676269D01*
X137126326Y-72676265D01*
X137332482Y-72580134D01*
X137518820Y-72449657D01*
X137679657Y-72288820D01*
X137810133Y-72102483D01*
X137832927Y-72053600D01*
X137879098Y-72001160D01*
X137946292Y-71982007D01*
X138013173Y-72002221D01*
X138057691Y-72053596D01*
X138082477Y-72106749D01*
X138213802Y-72294300D01*
X138375700Y-72456198D01*
X138563251Y-72587523D01*
X138683501Y-72643596D01*
X138770750Y-72684281D01*
X138770752Y-72684281D01*
X138770757Y-72684284D01*
X138991913Y-72743543D01*
X139154832Y-72757796D01*
X139219998Y-72763498D01*
X139220000Y-72763498D01*
X139220002Y-72763498D01*
X139277139Y-72758499D01*
X139448087Y-72743543D01*
X139669243Y-72684284D01*
X139876749Y-72587523D01*
X140064300Y-72456198D01*
X140226198Y-72294300D01*
X140357523Y-72106749D01*
X140377618Y-72063655D01*
X140423790Y-72011215D01*
X140490983Y-71992063D01*
X140557864Y-72012278D01*
X140602382Y-72063655D01*
X140622477Y-72106749D01*
X140753802Y-72294300D01*
X140915700Y-72456198D01*
X141103251Y-72587523D01*
X141223501Y-72643596D01*
X141310750Y-72684281D01*
X141310752Y-72684281D01*
X141310757Y-72684284D01*
X141531913Y-72743543D01*
X141694832Y-72757796D01*
X141759998Y-72763498D01*
X141760000Y-72763498D01*
X141760002Y-72763498D01*
X141817139Y-72758499D01*
X141988087Y-72743543D01*
X142209243Y-72684284D01*
X142416749Y-72587523D01*
X142604300Y-72456198D01*
X142766198Y-72294300D01*
X142771566Y-72286632D01*
X142826139Y-72243008D01*
X142895637Y-72235813D01*
X142957993Y-72267333D01*
X142993409Y-72327562D01*
X142996430Y-72344498D01*
X142998011Y-72359202D01*
X142998011Y-72359204D01*
X143036929Y-72463543D01*
X143049111Y-72496204D01*
X143136739Y-72613261D01*
X143253796Y-72700889D01*
X143390799Y-72751989D01*
X143418050Y-72754918D01*
X143451345Y-72758499D01*
X143451362Y-72758500D01*
X145148638Y-72758500D01*
X145148654Y-72758499D01*
X145175692Y-72755591D01*
X145209201Y-72751989D01*
X145346204Y-72700889D01*
X145463261Y-72613261D01*
X145550889Y-72496204D01*
X145601989Y-72359201D01*
X145607545Y-72307523D01*
X145608499Y-72298654D01*
X145608500Y-72298637D01*
X145608500Y-71249994D01*
X157586673Y-71249994D01*
X157586673Y-71250005D01*
X157605948Y-71482622D01*
X157663251Y-71708907D01*
X157757015Y-71922668D01*
X157884686Y-72118084D01*
X158041535Y-72288466D01*
X158042780Y-72289818D01*
X158226983Y-72433190D01*
X158226985Y-72433191D01*
X158226988Y-72433193D01*
X158311394Y-72478871D01*
X158432273Y-72544287D01*
X158536691Y-72580134D01*
X158653045Y-72620079D01*
X158653047Y-72620079D01*
X158653049Y-72620080D01*
X158883288Y-72658500D01*
X158883289Y-72658500D01*
X159116711Y-72658500D01*
X159116712Y-72658500D01*
X159346951Y-72620080D01*
X159567727Y-72544287D01*
X159773017Y-72433190D01*
X159957220Y-72289818D01*
X159963646Y-72282837D01*
X160023531Y-72246845D01*
X160093369Y-72248944D01*
X160150986Y-72288466D01*
X160171059Y-72323485D01*
X160196645Y-72392086D01*
X160196649Y-72392093D01*
X160282809Y-72507187D01*
X160282812Y-72507190D01*
X160397906Y-72593350D01*
X160397913Y-72593354D01*
X160532620Y-72643596D01*
X160532627Y-72643598D01*
X160592155Y-72649999D01*
X160592172Y-72650000D01*
X161290000Y-72650000D01*
X161290000Y-71625277D01*
X161366306Y-71669333D01*
X161480756Y-71700000D01*
X161599244Y-71700000D01*
X161713694Y-71669333D01*
X161790000Y-71625277D01*
X161790000Y-72650000D01*
X162487828Y-72650000D01*
X162487844Y-72649999D01*
X162547372Y-72643598D01*
X162547379Y-72643596D01*
X162682086Y-72593354D01*
X162682093Y-72593350D01*
X162797187Y-72507190D01*
X162797190Y-72507187D01*
X162883350Y-72392093D01*
X162883354Y-72392086D01*
X162933596Y-72257379D01*
X162933598Y-72257372D01*
X162939999Y-72197844D01*
X162940000Y-72197827D01*
X162940000Y-71500000D01*
X161915278Y-71500000D01*
X161959333Y-71423694D01*
X161990000Y-71309244D01*
X161990000Y-71190756D01*
X161959333Y-71076306D01*
X161915278Y-71000000D01*
X162940000Y-71000000D01*
X162940000Y-70302172D01*
X162939999Y-70302155D01*
X162933598Y-70242627D01*
X162933596Y-70242620D01*
X162883354Y-70107913D01*
X162883350Y-70107906D01*
X162797190Y-69992812D01*
X162797187Y-69992809D01*
X162682093Y-69906649D01*
X162682086Y-69906645D01*
X162547379Y-69856403D01*
X162547372Y-69856401D01*
X162487844Y-69850000D01*
X161790000Y-69850000D01*
X161790000Y-70874722D01*
X161713694Y-70830667D01*
X161599244Y-70800000D01*
X161480756Y-70800000D01*
X161366306Y-70830667D01*
X161290000Y-70874722D01*
X161290000Y-69850000D01*
X160592155Y-69850000D01*
X160532627Y-69856401D01*
X160532620Y-69856403D01*
X160397913Y-69906645D01*
X160397906Y-69906649D01*
X160282812Y-69992809D01*
X160282809Y-69992812D01*
X160196649Y-70107906D01*
X160196645Y-70107913D01*
X160171059Y-70176514D01*
X160129188Y-70232448D01*
X160063723Y-70256865D01*
X159995450Y-70242013D01*
X159963649Y-70217165D01*
X159957224Y-70210186D01*
X159957222Y-70210184D01*
X159957220Y-70210182D01*
X159773017Y-70066810D01*
X159773015Y-70066809D01*
X159773014Y-70066808D01*
X159773011Y-70066806D01*
X159567733Y-69955716D01*
X159567730Y-69955715D01*
X159567727Y-69955713D01*
X159567721Y-69955711D01*
X159567719Y-69955710D01*
X159346954Y-69879920D01*
X159167650Y-69850000D01*
X159116712Y-69841500D01*
X158883288Y-69841500D01*
X158837240Y-69849184D01*
X158653045Y-69879920D01*
X158432280Y-69955710D01*
X158432266Y-69955716D01*
X158226988Y-70066806D01*
X158226985Y-70066808D01*
X158042781Y-70210181D01*
X158042776Y-70210185D01*
X157884686Y-70381915D01*
X157757015Y-70577331D01*
X157663251Y-70791092D01*
X157605948Y-71017377D01*
X157586673Y-71249994D01*
X145608500Y-71249994D01*
X145608500Y-70601362D01*
X145608499Y-70601345D01*
X145605157Y-70570270D01*
X145601989Y-70540799D01*
X145591714Y-70513252D01*
X145565812Y-70443806D01*
X145550889Y-70403796D01*
X145463261Y-70286739D01*
X145346204Y-70199111D01*
X145331970Y-70193802D01*
X145209203Y-70148011D01*
X145148654Y-70141500D01*
X145148638Y-70141500D01*
X143451362Y-70141500D01*
X143451345Y-70141500D01*
X143390797Y-70148011D01*
X143390795Y-70148011D01*
X143253795Y-70199111D01*
X143136739Y-70286739D01*
X143049111Y-70403795D01*
X142998011Y-70540795D01*
X142998011Y-70540797D01*
X142996430Y-70555501D01*
X142969691Y-70620052D01*
X142912298Y-70659899D01*
X142842473Y-70662392D01*
X142782384Y-70626738D01*
X142771574Y-70613379D01*
X142766198Y-70605700D01*
X142604300Y-70443802D01*
X142416749Y-70312477D01*
X142394650Y-70302172D01*
X142209249Y-70215718D01*
X142209238Y-70215714D01*
X141988089Y-70156457D01*
X141988081Y-70156456D01*
X141760002Y-70136502D01*
X141759998Y-70136502D01*
X141531918Y-70156456D01*
X141531910Y-70156457D01*
X141310761Y-70215714D01*
X141310750Y-70215718D01*
X141103254Y-70312475D01*
X141103252Y-70312476D01*
X141047742Y-70351345D01*
X140915700Y-70443802D01*
X140915698Y-70443803D01*
X140915695Y-70443806D01*
X140753806Y-70605695D01*
X140753803Y-70605698D01*
X140753802Y-70605700D01*
X140723594Y-70648841D01*
X140622476Y-70793251D01*
X140602382Y-70836345D01*
X140556209Y-70888784D01*
X140489016Y-70907936D01*
X140422135Y-70887720D01*
X140377618Y-70836345D01*
X140357523Y-70793251D01*
X140323587Y-70744786D01*
X140226198Y-70605700D01*
X140064300Y-70443802D01*
X139876749Y-70312477D01*
X139854650Y-70302172D01*
X139669249Y-70215718D01*
X139669238Y-70215714D01*
X139448089Y-70156457D01*
X139448081Y-70156456D01*
X139220002Y-70136502D01*
X139219998Y-70136502D01*
X138991918Y-70156456D01*
X138991910Y-70156457D01*
X138770761Y-70215714D01*
X138770750Y-70215718D01*
X138563254Y-70312475D01*
X138563252Y-70312476D01*
X138507742Y-70351345D01*
X138375700Y-70443802D01*
X138375698Y-70443803D01*
X138375695Y-70443806D01*
X138213806Y-70605695D01*
X138213803Y-70605698D01*
X138213802Y-70605700D01*
X138174106Y-70662392D01*
X138082476Y-70793252D01*
X138082474Y-70793256D01*
X138057691Y-70846402D01*
X138011518Y-70898841D01*
X137944324Y-70917992D01*
X137877444Y-70897775D01*
X137832927Y-70846399D01*
X137810133Y-70797517D01*
X137679657Y-70611179D01*
X137518820Y-70450342D01*
X137332482Y-70319865D01*
X137126328Y-70223734D01*
X136930000Y-70171127D01*
X136930000Y-71134314D01*
X136925606Y-71129920D01*
X136834394Y-71077259D01*
X136732661Y-71050000D01*
X136627339Y-71050000D01*
X136525606Y-71077259D01*
X136434394Y-71129920D01*
X136430000Y-71134314D01*
X136430000Y-70171127D01*
X136233671Y-70223734D01*
X136027517Y-70319865D01*
X135841179Y-70450342D01*
X135680342Y-70611179D01*
X135549865Y-70797517D01*
X135453734Y-71003673D01*
X135453730Y-71003682D01*
X135401127Y-71199999D01*
X131278634Y-71199999D01*
X131449243Y-71154284D01*
X131656749Y-71057523D01*
X131844300Y-70926198D01*
X132006198Y-70764300D01*
X132137523Y-70576749D01*
X132234284Y-70369243D01*
X132293543Y-70148087D01*
X132313498Y-69920000D01*
X132309991Y-69879920D01*
X132293543Y-69691918D01*
X132293543Y-69691913D01*
X132234284Y-69470757D01*
X132137523Y-69263251D01*
X132006198Y-69075700D01*
X131844300Y-68913802D01*
X131656749Y-68782477D01*
X131656745Y-68782475D01*
X131449249Y-68685718D01*
X131449238Y-68685714D01*
X131228089Y-68626457D01*
X131228081Y-68626456D01*
X131000002Y-68606502D01*
X130999998Y-68606502D01*
X130771918Y-68626456D01*
X130771910Y-68626457D01*
X130550761Y-68685714D01*
X130550750Y-68685718D01*
X130343254Y-68782475D01*
X130343252Y-68782476D01*
X130343251Y-68782477D01*
X130155700Y-68913802D01*
X130155698Y-68913803D01*
X130155695Y-68913806D01*
X129993806Y-69075695D01*
X129862476Y-69263252D01*
X129862475Y-69263254D01*
X129765718Y-69470750D01*
X129765714Y-69470761D01*
X129706457Y-69691910D01*
X129706456Y-69691918D01*
X129686502Y-69919998D01*
X124768151Y-69919998D01*
X124709203Y-69898011D01*
X124648654Y-69891500D01*
X124648638Y-69891500D01*
X122951362Y-69891500D01*
X122951345Y-69891500D01*
X122890797Y-69898011D01*
X122890795Y-69898011D01*
X122753795Y-69949111D01*
X122636739Y-70036739D01*
X122549111Y-70153795D01*
X122498011Y-70290795D01*
X122498011Y-70290797D01*
X122496430Y-70305501D01*
X122469691Y-70370052D01*
X122412298Y-70409899D01*
X122342473Y-70412392D01*
X122282384Y-70376738D01*
X122271574Y-70363379D01*
X122266198Y-70355700D01*
X122104300Y-70193802D01*
X121916749Y-70062477D01*
X121916745Y-70062475D01*
X121709249Y-69965718D01*
X121709238Y-69965714D01*
X121488089Y-69906457D01*
X121488081Y-69906456D01*
X121260002Y-69886502D01*
X121259998Y-69886502D01*
X121031918Y-69906456D01*
X121031910Y-69906457D01*
X120810761Y-69965714D01*
X120810750Y-69965718D01*
X120603254Y-70062475D01*
X120603252Y-70062476D01*
X120592700Y-70069865D01*
X120415700Y-70193802D01*
X120415698Y-70193803D01*
X120415695Y-70193806D01*
X120253806Y-70355695D01*
X120253803Y-70355698D01*
X120253802Y-70355700D01*
X120220125Y-70403796D01*
X120122476Y-70543251D01*
X120102382Y-70586345D01*
X120056209Y-70638784D01*
X119989016Y-70657936D01*
X119922135Y-70637720D01*
X119877618Y-70586345D01*
X119857523Y-70543251D01*
X119836517Y-70513252D01*
X119726198Y-70355700D01*
X119564300Y-70193802D01*
X119376749Y-70062477D01*
X119376745Y-70062475D01*
X119169249Y-69965718D01*
X119169238Y-69965714D01*
X118948089Y-69906457D01*
X118948081Y-69906456D01*
X118720002Y-69886502D01*
X118719998Y-69886502D01*
X118491918Y-69906456D01*
X118491910Y-69906457D01*
X118270761Y-69965714D01*
X118270750Y-69965718D01*
X118063254Y-70062475D01*
X118063252Y-70062476D01*
X118052700Y-70069865D01*
X117875700Y-70193802D01*
X117875698Y-70193803D01*
X117875695Y-70193806D01*
X117713806Y-70355695D01*
X117713803Y-70355698D01*
X117713802Y-70355700D01*
X117674106Y-70412392D01*
X117582476Y-70543252D01*
X117582474Y-70543256D01*
X117557691Y-70596402D01*
X117511518Y-70648841D01*
X117444324Y-70667992D01*
X117377444Y-70647775D01*
X117332927Y-70596399D01*
X117310133Y-70547517D01*
X117179657Y-70361179D01*
X117018820Y-70200342D01*
X116832482Y-70069865D01*
X116626328Y-69973734D01*
X116430000Y-69921127D01*
X116430000Y-70884314D01*
X116425606Y-70879920D01*
X116334394Y-70827259D01*
X116232661Y-70800000D01*
X116127339Y-70800000D01*
X116025606Y-70827259D01*
X115934394Y-70879920D01*
X115930000Y-70884314D01*
X115930000Y-69921127D01*
X115733671Y-69973734D01*
X115527517Y-70069865D01*
X115341179Y-70200342D01*
X115180342Y-70361179D01*
X115049865Y-70547517D01*
X114953734Y-70753673D01*
X114953730Y-70753682D01*
X114901127Y-70949999D01*
X111544250Y-70949999D01*
X111543543Y-70941913D01*
X111484284Y-70720757D01*
X111474190Y-70699111D01*
X111445563Y-70637720D01*
X111387523Y-70513251D01*
X111256198Y-70325700D01*
X111094300Y-70163802D01*
X110906749Y-70032477D01*
X110821687Y-69992812D01*
X110699249Y-69935718D01*
X110699238Y-69935714D01*
X110478089Y-69876457D01*
X110478081Y-69876456D01*
X110250002Y-69856502D01*
X110249998Y-69856502D01*
X110021918Y-69876456D01*
X110021910Y-69876457D01*
X109800761Y-69935714D01*
X109800750Y-69935718D01*
X109593254Y-70032475D01*
X109593252Y-70032476D01*
X109522856Y-70081767D01*
X109405700Y-70163802D01*
X109405698Y-70163803D01*
X109405695Y-70163806D01*
X109243806Y-70325695D01*
X109243803Y-70325698D01*
X109243802Y-70325700D01*
X109161767Y-70442856D01*
X109112476Y-70513252D01*
X109112475Y-70513254D01*
X109015718Y-70720750D01*
X109015714Y-70720761D01*
X108956457Y-70941910D01*
X108956456Y-70941918D01*
X108936502Y-71169998D01*
X105358500Y-71169998D01*
X105358500Y-71101362D01*
X105358499Y-71101345D01*
X105352978Y-71050000D01*
X105351989Y-71040799D01*
X105300889Y-70903796D01*
X105213261Y-70786739D01*
X105096204Y-70699111D01*
X104959203Y-70648011D01*
X104898654Y-70641500D01*
X104898638Y-70641500D01*
X103101362Y-70641500D01*
X103101345Y-70641500D01*
X103040797Y-70648011D01*
X103040795Y-70648011D01*
X102903795Y-70699111D01*
X102786739Y-70786739D01*
X102699111Y-70903795D01*
X102648011Y-71040795D01*
X102648011Y-71040797D01*
X102641500Y-71101345D01*
X100075500Y-71101345D01*
X100075500Y-63514994D01*
X109286844Y-63514994D01*
X109286844Y-63515005D01*
X109305434Y-63739359D01*
X109305436Y-63739371D01*
X109360703Y-63957614D01*
X109451140Y-64163792D01*
X109574276Y-64352265D01*
X109574279Y-64352269D01*
X109664668Y-64450457D01*
X109695590Y-64513111D01*
X109687730Y-64582538D01*
X109643583Y-64636693D01*
X109616773Y-64650621D01*
X109553795Y-64674111D01*
X109436739Y-64761739D01*
X109349111Y-64878795D01*
X109298011Y-65015795D01*
X109298011Y-65015797D01*
X109291500Y-65076345D01*
X109291500Y-66873654D01*
X109298011Y-66934202D01*
X109298011Y-66934204D01*
X109344219Y-67058089D01*
X109349111Y-67071204D01*
X109436739Y-67188261D01*
X109553796Y-67275889D01*
X109690799Y-67326989D01*
X109718050Y-67329918D01*
X109751345Y-67333499D01*
X109751362Y-67333500D01*
X111548638Y-67333500D01*
X111548654Y-67333499D01*
X111575692Y-67330591D01*
X111609201Y-67326989D01*
X111746204Y-67275889D01*
X111863261Y-67188261D01*
X111950889Y-67071204D01*
X112001989Y-66934201D01*
X112005591Y-66900692D01*
X112008499Y-66873654D01*
X112008500Y-66873637D01*
X112008500Y-66579998D01*
X121936502Y-66579998D01*
X121936502Y-66580001D01*
X121956456Y-66808081D01*
X121956457Y-66808089D01*
X122015714Y-67029238D01*
X122015718Y-67029249D01*
X122089866Y-67188260D01*
X122112477Y-67236749D01*
X122243802Y-67424300D01*
X122405700Y-67586198D01*
X122593251Y-67717523D01*
X122718091Y-67775736D01*
X122800750Y-67814281D01*
X122800752Y-67814281D01*
X122800757Y-67814284D01*
X123021913Y-67873543D01*
X123184832Y-67887796D01*
X123249998Y-67893498D01*
X123250000Y-67893498D01*
X123250002Y-67893498D01*
X123307021Y-67888509D01*
X123478087Y-67873543D01*
X123699243Y-67814284D01*
X123906749Y-67717523D01*
X124094300Y-67586198D01*
X124256198Y-67424300D01*
X124387523Y-67236749D01*
X124484284Y-67029243D01*
X124537672Y-66829998D01*
X127686502Y-66829998D01*
X127686502Y-66830001D01*
X127706456Y-67058081D01*
X127706457Y-67058089D01*
X127765714Y-67279238D01*
X127765718Y-67279249D01*
X127862475Y-67486745D01*
X127862477Y-67486749D01*
X127993802Y-67674300D01*
X128155700Y-67836198D01*
X128343251Y-67967523D01*
X128468091Y-68025736D01*
X128550750Y-68064281D01*
X128550752Y-68064281D01*
X128550757Y-68064284D01*
X128771913Y-68123543D01*
X128934832Y-68137796D01*
X128999998Y-68143498D01*
X129000000Y-68143498D01*
X129000002Y-68143498D01*
X129057021Y-68138509D01*
X129228087Y-68123543D01*
X129449243Y-68064284D01*
X129656749Y-67967523D01*
X129844300Y-67836198D01*
X130006198Y-67674300D01*
X130137523Y-67486749D01*
X130234284Y-67279243D01*
X130293543Y-67058087D01*
X130313498Y-66830000D01*
X130293543Y-66601913D01*
X130234284Y-66380757D01*
X130223905Y-66358500D01*
X130156179Y-66213260D01*
X130137523Y-66173251D01*
X130006198Y-65985700D01*
X129844300Y-65823802D01*
X129656749Y-65692477D01*
X129656745Y-65692475D01*
X129449249Y-65595718D01*
X129449238Y-65595714D01*
X129228089Y-65536457D01*
X129228081Y-65536456D01*
X129000002Y-65516502D01*
X128999998Y-65516502D01*
X128771918Y-65536456D01*
X128771910Y-65536457D01*
X128550761Y-65595714D01*
X128550750Y-65595718D01*
X128343254Y-65692475D01*
X128343252Y-65692476D01*
X128343251Y-65692477D01*
X128155700Y-65823802D01*
X128155698Y-65823803D01*
X128155695Y-65823806D01*
X127993806Y-65985695D01*
X127862476Y-66173252D01*
X127862475Y-66173254D01*
X127765718Y-66380750D01*
X127765714Y-66380761D01*
X127706457Y-66601910D01*
X127706456Y-66601918D01*
X127686502Y-66829998D01*
X124537672Y-66829998D01*
X124543543Y-66808087D01*
X124563498Y-66580000D01*
X124543543Y-66351913D01*
X124484284Y-66130757D01*
X124387523Y-65923251D01*
X124256198Y-65735700D01*
X124094300Y-65573802D01*
X123906749Y-65442477D01*
X123889010Y-65434205D01*
X123699249Y-65345718D01*
X123699238Y-65345714D01*
X123478089Y-65286457D01*
X123478081Y-65286456D01*
X123250002Y-65266502D01*
X123249998Y-65266502D01*
X123021918Y-65286456D01*
X123021910Y-65286457D01*
X122800761Y-65345714D01*
X122800750Y-65345718D01*
X122593254Y-65442475D01*
X122593252Y-65442476D01*
X122593251Y-65442477D01*
X122405700Y-65573802D01*
X122405698Y-65573803D01*
X122405695Y-65573806D01*
X122243806Y-65735695D01*
X122112476Y-65923252D01*
X122112475Y-65923254D01*
X122015718Y-66130750D01*
X122015714Y-66130761D01*
X121956457Y-66351910D01*
X121956456Y-66351918D01*
X121936502Y-66579998D01*
X112008500Y-66579998D01*
X112008500Y-66184240D01*
X115891911Y-66184240D01*
X115980185Y-66238897D01*
X116170278Y-66312539D01*
X116370672Y-66350000D01*
X116574528Y-66350000D01*
X116774922Y-66312539D01*
X116965012Y-66238899D01*
X116965016Y-66238897D01*
X117053286Y-66184241D01*
X117053286Y-66184240D01*
X116472601Y-65603553D01*
X116472600Y-65603553D01*
X115891911Y-66184240D01*
X112008500Y-66184240D01*
X112008500Y-65249999D01*
X115367887Y-65249999D01*
X115367887Y-65250000D01*
X115386696Y-65452989D01*
X115386697Y-65452992D01*
X115442483Y-65649063D01*
X115442486Y-65649069D01*
X115533351Y-65831551D01*
X115535133Y-65833911D01*
X116119046Y-65250000D01*
X116079550Y-65210504D01*
X116172600Y-65210504D01*
X116172600Y-65289496D01*
X116193044Y-65365796D01*
X116232540Y-65434205D01*
X116288395Y-65490060D01*
X116356804Y-65529556D01*
X116433104Y-65550000D01*
X116512096Y-65550000D01*
X116588396Y-65529556D01*
X116656805Y-65490060D01*
X116712660Y-65434205D01*
X116752156Y-65365796D01*
X116772600Y-65289496D01*
X116772600Y-65250000D01*
X116826153Y-65250000D01*
X117327781Y-65751627D01*
X117361266Y-65812950D01*
X117364100Y-65839308D01*
X117364100Y-65898654D01*
X117370611Y-65959202D01*
X117370611Y-65959204D01*
X117421711Y-66096204D01*
X117509339Y-66213261D01*
X117626396Y-66300889D01*
X117741549Y-66343839D01*
X117763208Y-66351918D01*
X117763399Y-66351989D01*
X117790650Y-66354918D01*
X117823945Y-66358499D01*
X117823962Y-66358500D01*
X119121238Y-66358500D01*
X119121254Y-66358499D01*
X119148292Y-66355591D01*
X119181801Y-66351989D01*
X119181992Y-66351918D01*
X119196368Y-66346555D01*
X119318804Y-66300889D01*
X119435861Y-66213261D01*
X119523489Y-66096204D01*
X119574589Y-65959201D01*
X119578454Y-65923251D01*
X119581099Y-65898654D01*
X119581100Y-65898637D01*
X119581100Y-64601362D01*
X119581099Y-64601345D01*
X119574856Y-64543285D01*
X119574589Y-64540799D01*
X119566050Y-64517906D01*
X119539354Y-64446331D01*
X119523489Y-64403796D01*
X119435861Y-64286739D01*
X119318804Y-64199111D01*
X119276127Y-64183193D01*
X119181803Y-64148011D01*
X119121254Y-64141500D01*
X119121238Y-64141500D01*
X117823962Y-64141500D01*
X117823945Y-64141500D01*
X117763397Y-64148011D01*
X117763395Y-64148011D01*
X117626395Y-64199111D01*
X117509339Y-64286739D01*
X117421711Y-64403795D01*
X117370611Y-64540795D01*
X117370611Y-64540797D01*
X117364100Y-64601345D01*
X117364100Y-64660691D01*
X117344415Y-64727730D01*
X117327781Y-64748372D01*
X116826153Y-65250000D01*
X116772600Y-65250000D01*
X116772600Y-65210504D01*
X116752156Y-65134204D01*
X116712660Y-65065795D01*
X116656805Y-65009940D01*
X116588396Y-64970444D01*
X116512096Y-64950000D01*
X116433104Y-64950000D01*
X116356804Y-64970444D01*
X116288395Y-65009940D01*
X116232540Y-65065795D01*
X116193044Y-65134204D01*
X116172600Y-65210504D01*
X116079550Y-65210504D01*
X115535133Y-64666087D01*
X115533355Y-64668442D01*
X115533354Y-64668443D01*
X115442486Y-64850930D01*
X115442483Y-64850936D01*
X115386697Y-65047007D01*
X115386696Y-65047010D01*
X115367887Y-65249999D01*
X112008500Y-65249999D01*
X112008500Y-65076362D01*
X112008499Y-65076345D01*
X112005157Y-65045270D01*
X112001989Y-65015799D01*
X111998406Y-65006193D01*
X111957472Y-64896446D01*
X111950889Y-64878796D01*
X111863261Y-64761739D01*
X111746204Y-64674111D01*
X111710224Y-64660691D01*
X111683226Y-64650621D01*
X111627293Y-64608750D01*
X111602877Y-64543285D01*
X111617729Y-64475012D01*
X111635329Y-64450459D01*
X111725722Y-64352268D01*
X111749575Y-64315758D01*
X115891911Y-64315758D01*
X116472600Y-64896446D01*
X116472601Y-64896446D01*
X117053287Y-64315758D01*
X116965013Y-64261101D01*
X116965011Y-64261100D01*
X116774921Y-64187460D01*
X116574528Y-64150000D01*
X116370672Y-64150000D01*
X116170278Y-64187460D01*
X115980188Y-64261100D01*
X115980181Y-64261104D01*
X115891912Y-64315757D01*
X115891911Y-64315758D01*
X111749575Y-64315758D01*
X111848860Y-64163791D01*
X111920706Y-63999997D01*
X134195034Y-63999997D01*
X134195034Y-64000002D01*
X134214858Y-64226599D01*
X134214860Y-64226610D01*
X134273730Y-64446317D01*
X134273735Y-64446331D01*
X134369863Y-64652478D01*
X134420974Y-64725472D01*
X135100000Y-64046446D01*
X135100000Y-64052661D01*
X135127259Y-64154394D01*
X135179920Y-64245606D01*
X135254394Y-64320080D01*
X135345606Y-64372741D01*
X135447339Y-64400000D01*
X135453553Y-64400000D01*
X134774526Y-65079025D01*
X134847513Y-65130132D01*
X134847521Y-65130136D01*
X135053668Y-65226264D01*
X135053682Y-65226269D01*
X135273389Y-65285139D01*
X135273400Y-65285141D01*
X135499998Y-65304966D01*
X135500002Y-65304966D01*
X135726599Y-65285141D01*
X135726610Y-65285139D01*
X135946317Y-65226269D01*
X135946331Y-65226264D01*
X136152478Y-65130136D01*
X136225471Y-65079024D01*
X135546447Y-64400000D01*
X135552661Y-64400000D01*
X135654394Y-64372741D01*
X135745606Y-64320080D01*
X135820080Y-64245606D01*
X135872741Y-64154394D01*
X135900000Y-64052661D01*
X135900000Y-64046447D01*
X136579024Y-64725471D01*
X136630136Y-64652478D01*
X136726264Y-64446331D01*
X136726269Y-64446317D01*
X136785139Y-64226610D01*
X136785141Y-64226599D01*
X136804966Y-64000002D01*
X136804966Y-63999998D01*
X139186502Y-63999998D01*
X139186502Y-64000001D01*
X139206456Y-64228081D01*
X139206457Y-64228089D01*
X139265714Y-64449238D01*
X139265718Y-64449249D01*
X139346745Y-64623011D01*
X139362477Y-64656749D01*
X139493802Y-64844300D01*
X139655700Y-65006198D01*
X139843251Y-65137523D01*
X139968091Y-65195736D01*
X140050750Y-65234281D01*
X140050752Y-65234281D01*
X140050757Y-65234284D01*
X140271913Y-65293543D01*
X140434832Y-65307796D01*
X140499998Y-65313498D01*
X140500000Y-65313498D01*
X140500002Y-65313498D01*
X140557021Y-65308509D01*
X140728087Y-65293543D01*
X140949243Y-65234284D01*
X141156749Y-65137523D01*
X141344300Y-65006198D01*
X141506198Y-64844300D01*
X141637523Y-64656749D01*
X141734284Y-64449243D01*
X141793543Y-64228087D01*
X141813498Y-64000000D01*
X141793543Y-63771913D01*
X141734284Y-63550757D01*
X141637523Y-63343251D01*
X141506198Y-63155700D01*
X141430496Y-63079998D01*
X144686502Y-63079998D01*
X144686502Y-63080001D01*
X144706456Y-63308081D01*
X144706457Y-63308089D01*
X144765714Y-63529238D01*
X144765718Y-63529249D01*
X144832596Y-63672669D01*
X144862477Y-63736749D01*
X144993802Y-63924300D01*
X145155700Y-64086198D01*
X145343251Y-64217523D01*
X145468091Y-64275736D01*
X145550750Y-64314281D01*
X145550752Y-64314281D01*
X145550757Y-64314284D01*
X145771913Y-64373543D01*
X145934832Y-64387796D01*
X145999998Y-64393498D01*
X146000000Y-64393498D01*
X146000002Y-64393498D01*
X146057021Y-64388509D01*
X146228087Y-64373543D01*
X146449243Y-64314284D01*
X146656749Y-64217523D01*
X146844300Y-64086198D01*
X147006198Y-63924300D01*
X147137523Y-63736749D01*
X147234284Y-63529243D01*
X147293543Y-63308087D01*
X147313498Y-63080000D01*
X147313498Y-63079998D01*
X148436502Y-63079998D01*
X148436502Y-63080001D01*
X148456456Y-63308081D01*
X148456457Y-63308089D01*
X148515714Y-63529238D01*
X148515718Y-63529249D01*
X148582596Y-63672669D01*
X148612477Y-63736749D01*
X148743802Y-63924300D01*
X148905700Y-64086198D01*
X149093251Y-64217523D01*
X149218091Y-64275736D01*
X149300750Y-64314281D01*
X149300752Y-64314281D01*
X149300757Y-64314284D01*
X149521913Y-64373543D01*
X149684832Y-64387796D01*
X149749998Y-64393498D01*
X149750000Y-64393498D01*
X149750002Y-64393498D01*
X149807021Y-64388509D01*
X149978087Y-64373543D01*
X150199243Y-64314284D01*
X150406749Y-64217523D01*
X150594300Y-64086198D01*
X150756198Y-63924300D01*
X150887523Y-63736749D01*
X150984284Y-63529243D01*
X151043543Y-63308087D01*
X151063498Y-63080000D01*
X151063498Y-63079998D01*
X152436502Y-63079998D01*
X152436502Y-63080001D01*
X152456456Y-63308081D01*
X152456457Y-63308089D01*
X152515714Y-63529238D01*
X152515718Y-63529249D01*
X152582596Y-63672669D01*
X152612477Y-63736749D01*
X152743802Y-63924300D01*
X152905700Y-64086198D01*
X153093251Y-64217523D01*
X153218091Y-64275736D01*
X153300750Y-64314281D01*
X153300752Y-64314281D01*
X153300757Y-64314284D01*
X153521913Y-64373543D01*
X153684832Y-64387796D01*
X153749998Y-64393498D01*
X153750000Y-64393498D01*
X153750002Y-64393498D01*
X153807021Y-64388509D01*
X153978087Y-64373543D01*
X154199243Y-64314284D01*
X154406749Y-64217523D01*
X154594300Y-64086198D01*
X154756198Y-63924300D01*
X154887523Y-63736749D01*
X154984284Y-63529243D01*
X155043543Y-63308087D01*
X155063498Y-63080000D01*
X155056498Y-62999994D01*
X157571673Y-62999994D01*
X157571673Y-63000005D01*
X157590948Y-63232622D01*
X157590948Y-63232625D01*
X157590949Y-63232626D01*
X157602010Y-63276306D01*
X157648251Y-63458907D01*
X157742015Y-63672668D01*
X157869686Y-63868084D01*
X158021354Y-64032838D01*
X158027780Y-64039818D01*
X158211983Y-64183190D01*
X158211985Y-64183191D01*
X158211988Y-64183193D01*
X158294946Y-64228087D01*
X158417273Y-64294287D01*
X158492405Y-64320080D01*
X158638045Y-64370079D01*
X158638047Y-64370079D01*
X158638049Y-64370080D01*
X158868288Y-64408500D01*
X158868289Y-64408500D01*
X159101711Y-64408500D01*
X159101712Y-64408500D01*
X159331951Y-64370080D01*
X159552727Y-64294287D01*
X159758017Y-64183190D01*
X159942220Y-64039818D01*
X159948646Y-64032837D01*
X160008531Y-63996845D01*
X160078369Y-63998944D01*
X160135986Y-64038466D01*
X160156059Y-64073485D01*
X160181645Y-64142086D01*
X160181649Y-64142093D01*
X160267809Y-64257187D01*
X160267812Y-64257190D01*
X160382906Y-64343350D01*
X160382913Y-64343354D01*
X160517620Y-64393596D01*
X160517627Y-64393598D01*
X160577155Y-64399999D01*
X160577172Y-64400000D01*
X161275000Y-64400000D01*
X161275000Y-63375277D01*
X161351306Y-63419333D01*
X161465756Y-63450000D01*
X161584244Y-63450000D01*
X161698694Y-63419333D01*
X161775000Y-63375277D01*
X161775000Y-64400000D01*
X162472828Y-64400000D01*
X162472844Y-64399999D01*
X162532372Y-64393598D01*
X162532379Y-64393596D01*
X162667086Y-64343354D01*
X162667093Y-64343350D01*
X162782187Y-64257190D01*
X162782190Y-64257187D01*
X162868350Y-64142093D01*
X162868354Y-64142086D01*
X162918596Y-64007379D01*
X162918598Y-64007372D01*
X162924999Y-63947844D01*
X162925000Y-63947827D01*
X162925000Y-63250000D01*
X161900278Y-63250000D01*
X161944333Y-63173694D01*
X161975000Y-63059244D01*
X161975000Y-62940756D01*
X161944333Y-62826306D01*
X161900278Y-62750000D01*
X162925000Y-62750000D01*
X162925000Y-62052172D01*
X162924999Y-62052155D01*
X162918598Y-61992627D01*
X162918596Y-61992620D01*
X162868354Y-61857913D01*
X162868350Y-61857906D01*
X162782190Y-61742812D01*
X162782187Y-61742809D01*
X162667093Y-61656649D01*
X162667086Y-61656645D01*
X162532379Y-61606403D01*
X162532372Y-61606401D01*
X162472844Y-61600000D01*
X161775000Y-61600000D01*
X161775000Y-62624722D01*
X161698694Y-62580667D01*
X161584244Y-62550000D01*
X161465756Y-62550000D01*
X161351306Y-62580667D01*
X161275000Y-62624722D01*
X161275000Y-61600000D01*
X160577155Y-61600000D01*
X160517627Y-61606401D01*
X160517620Y-61606403D01*
X160382913Y-61656645D01*
X160382906Y-61656649D01*
X160267812Y-61742809D01*
X160267809Y-61742812D01*
X160181649Y-61857906D01*
X160181645Y-61857913D01*
X160156059Y-61926514D01*
X160114188Y-61982448D01*
X160048723Y-62006865D01*
X159980450Y-61992013D01*
X159948649Y-61967165D01*
X159942224Y-61960186D01*
X159942222Y-61960184D01*
X159942220Y-61960182D01*
X159758017Y-61816810D01*
X159758015Y-61816809D01*
X159758014Y-61816808D01*
X159758011Y-61816806D01*
X159552733Y-61705716D01*
X159552730Y-61705715D01*
X159552727Y-61705713D01*
X159552721Y-61705711D01*
X159552719Y-61705710D01*
X159331954Y-61629920D01*
X159152650Y-61600000D01*
X159101712Y-61591500D01*
X158868288Y-61591500D01*
X158822240Y-61599184D01*
X158638045Y-61629920D01*
X158417280Y-61705710D01*
X158417266Y-61705716D01*
X158211988Y-61816806D01*
X158211985Y-61816808D01*
X158027781Y-61960181D01*
X158027776Y-61960185D01*
X157869686Y-62131915D01*
X157742015Y-62327331D01*
X157648251Y-62541092D01*
X157590948Y-62767377D01*
X157571673Y-62999994D01*
X155056498Y-62999994D01*
X155043543Y-62851913D01*
X154984284Y-62630757D01*
X154887523Y-62423251D01*
X154756198Y-62235700D01*
X154594300Y-62073802D01*
X154406749Y-61942477D01*
X154382722Y-61931273D01*
X154199249Y-61845718D01*
X154199238Y-61845714D01*
X153978089Y-61786457D01*
X153978081Y-61786456D01*
X153750002Y-61766502D01*
X153749998Y-61766502D01*
X153521918Y-61786456D01*
X153521910Y-61786457D01*
X153300761Y-61845714D01*
X153300750Y-61845718D01*
X153093254Y-61942475D01*
X153093252Y-61942476D01*
X153067961Y-61960185D01*
X152905700Y-62073802D01*
X152905698Y-62073803D01*
X152905695Y-62073806D01*
X152743806Y-62235695D01*
X152612476Y-62423252D01*
X152612475Y-62423254D01*
X152515718Y-62630750D01*
X152515714Y-62630761D01*
X152456457Y-62851910D01*
X152456456Y-62851918D01*
X152436502Y-63079998D01*
X151063498Y-63079998D01*
X151043543Y-62851913D01*
X150984284Y-62630757D01*
X150887523Y-62423251D01*
X150756198Y-62235700D01*
X150594300Y-62073802D01*
X150406749Y-61942477D01*
X150382722Y-61931273D01*
X150199249Y-61845718D01*
X150199238Y-61845714D01*
X149978089Y-61786457D01*
X149978081Y-61786456D01*
X149750002Y-61766502D01*
X149749998Y-61766502D01*
X149521918Y-61786456D01*
X149521910Y-61786457D01*
X149300761Y-61845714D01*
X149300750Y-61845718D01*
X149093254Y-61942475D01*
X149093252Y-61942476D01*
X149067961Y-61960185D01*
X148905700Y-62073802D01*
X148905698Y-62073803D01*
X148905695Y-62073806D01*
X148743806Y-62235695D01*
X148612476Y-62423252D01*
X148612475Y-62423254D01*
X148515718Y-62630750D01*
X148515714Y-62630761D01*
X148456457Y-62851910D01*
X148456456Y-62851918D01*
X148436502Y-63079998D01*
X147313498Y-63079998D01*
X147293543Y-62851913D01*
X147234284Y-62630757D01*
X147137523Y-62423251D01*
X147006198Y-62235700D01*
X146844300Y-62073802D01*
X146656749Y-61942477D01*
X146632722Y-61931273D01*
X146449249Y-61845718D01*
X146449238Y-61845714D01*
X146228089Y-61786457D01*
X146228081Y-61786456D01*
X146000002Y-61766502D01*
X145999998Y-61766502D01*
X145771918Y-61786456D01*
X145771910Y-61786457D01*
X145550761Y-61845714D01*
X145550750Y-61845718D01*
X145343254Y-61942475D01*
X145343252Y-61942476D01*
X145317961Y-61960185D01*
X145155700Y-62073802D01*
X145155698Y-62073803D01*
X145155695Y-62073806D01*
X144993806Y-62235695D01*
X144862476Y-62423252D01*
X144862475Y-62423254D01*
X144765718Y-62630750D01*
X144765714Y-62630761D01*
X144706457Y-62851910D01*
X144706456Y-62851918D01*
X144686502Y-63079998D01*
X141430496Y-63079998D01*
X141344300Y-62993802D01*
X141156749Y-62862477D01*
X141134105Y-62851918D01*
X140949249Y-62765718D01*
X140949238Y-62765714D01*
X140728089Y-62706457D01*
X140728081Y-62706456D01*
X140500002Y-62686502D01*
X140499998Y-62686502D01*
X140271918Y-62706456D01*
X140271910Y-62706457D01*
X140050761Y-62765714D01*
X140050750Y-62765718D01*
X139843254Y-62862475D01*
X139843252Y-62862476D01*
X139772856Y-62911767D01*
X139655700Y-62993802D01*
X139655698Y-62993803D01*
X139655695Y-62993806D01*
X139493806Y-63155695D01*
X139493803Y-63155698D01*
X139493802Y-63155700D01*
X139439938Y-63232626D01*
X139362476Y-63343252D01*
X139362475Y-63343254D01*
X139265718Y-63550750D01*
X139265714Y-63550761D01*
X139206457Y-63771910D01*
X139206456Y-63771918D01*
X139186502Y-63999998D01*
X136804966Y-63999998D01*
X136804966Y-63999997D01*
X136785141Y-63773400D01*
X136785139Y-63773389D01*
X136726269Y-63553682D01*
X136726264Y-63553668D01*
X136630136Y-63347521D01*
X136630132Y-63347513D01*
X136579025Y-63274526D01*
X135900000Y-63953551D01*
X135900000Y-63947339D01*
X135872741Y-63845606D01*
X135820080Y-63754394D01*
X135745606Y-63679920D01*
X135654394Y-63627259D01*
X135552661Y-63600000D01*
X135546448Y-63600000D01*
X136225472Y-62920974D01*
X136152478Y-62869863D01*
X135946331Y-62773735D01*
X135946317Y-62773730D01*
X135726610Y-62714860D01*
X135726599Y-62714858D01*
X135500002Y-62695034D01*
X135499998Y-62695034D01*
X135273400Y-62714858D01*
X135273389Y-62714860D01*
X135053682Y-62773730D01*
X135053673Y-62773734D01*
X134847516Y-62869866D01*
X134847512Y-62869868D01*
X134774526Y-62920973D01*
X134774526Y-62920974D01*
X135453553Y-63600000D01*
X135447339Y-63600000D01*
X135345606Y-63627259D01*
X135254394Y-63679920D01*
X135179920Y-63754394D01*
X135127259Y-63845606D01*
X135100000Y-63947339D01*
X135100000Y-63953552D01*
X134420974Y-63274526D01*
X134420973Y-63274526D01*
X134369868Y-63347512D01*
X134369866Y-63347516D01*
X134273734Y-63553673D01*
X134273730Y-63553682D01*
X134214860Y-63773389D01*
X134214858Y-63773400D01*
X134195034Y-63999997D01*
X111920706Y-63999997D01*
X111939296Y-63957616D01*
X111994564Y-63739368D01*
X111994781Y-63736747D01*
X112013156Y-63515005D01*
X112013156Y-63514994D01*
X111994565Y-63290640D01*
X111994563Y-63290628D01*
X111964951Y-63173694D01*
X111939296Y-63072384D01*
X111848860Y-62866209D01*
X111846420Y-62862475D01*
X111749979Y-62714860D01*
X111725722Y-62677732D01*
X111725719Y-62677729D01*
X111725715Y-62677723D01*
X111573243Y-62512097D01*
X111573238Y-62512092D01*
X111395577Y-62373812D01*
X111395577Y-62373811D01*
X111352303Y-62350393D01*
X111302713Y-62301173D01*
X111287605Y-62232957D01*
X111311775Y-62167401D01*
X111340198Y-62139763D01*
X111521079Y-62013108D01*
X111688105Y-61846082D01*
X111823600Y-61652578D01*
X111923429Y-61438492D01*
X111923432Y-61438486D01*
X111980636Y-61225000D01*
X111083012Y-61225000D01*
X111115925Y-61167993D01*
X111150000Y-61040826D01*
X111150000Y-60909174D01*
X111115925Y-60782007D01*
X111083012Y-60725000D01*
X111980636Y-60725000D01*
X111980635Y-60724999D01*
X111923432Y-60511513D01*
X111923429Y-60511507D01*
X111823600Y-60297422D01*
X111823599Y-60297420D01*
X111688113Y-60103926D01*
X111688108Y-60103920D01*
X111521082Y-59936894D01*
X111327578Y-59801399D01*
X111113492Y-59701570D01*
X111113486Y-59701567D01*
X110900000Y-59644364D01*
X110900000Y-60541988D01*
X110842993Y-60509075D01*
X110715826Y-60475000D01*
X110584174Y-60475000D01*
X110457007Y-60509075D01*
X110400000Y-60541988D01*
X110400000Y-59644364D01*
X110399999Y-59644364D01*
X110186513Y-59701567D01*
X110186507Y-59701570D01*
X109972422Y-59801399D01*
X109972420Y-59801400D01*
X109778926Y-59936886D01*
X109778920Y-59936891D01*
X109611891Y-60103920D01*
X109611886Y-60103926D01*
X109476400Y-60297420D01*
X109476399Y-60297422D01*
X109376570Y-60511507D01*
X109376567Y-60511513D01*
X109319364Y-60724999D01*
X109319364Y-60725000D01*
X110216988Y-60725000D01*
X110184075Y-60782007D01*
X110150000Y-60909174D01*
X110150000Y-61040826D01*
X110184075Y-61167993D01*
X110216988Y-61225000D01*
X109319364Y-61225000D01*
X109376567Y-61438486D01*
X109376570Y-61438492D01*
X109476399Y-61652578D01*
X109611894Y-61846082D01*
X109778917Y-62013105D01*
X109959802Y-62139763D01*
X110003427Y-62194340D01*
X110010619Y-62263839D01*
X109979097Y-62326193D01*
X109947697Y-62350392D01*
X109904427Y-62373809D01*
X109904422Y-62373812D01*
X109726761Y-62512092D01*
X109726756Y-62512097D01*
X109574284Y-62677723D01*
X109574276Y-62677734D01*
X109451140Y-62866207D01*
X109360703Y-63072385D01*
X109305436Y-63290628D01*
X109305434Y-63290640D01*
X109286844Y-63514994D01*
X100075500Y-63514994D01*
X100075500Y-56249998D01*
X100356502Y-56249998D01*
X100356502Y-56250001D01*
X100376456Y-56478081D01*
X100376457Y-56478089D01*
X100435714Y-56699238D01*
X100435718Y-56699249D01*
X100525366Y-56891500D01*
X100532477Y-56906749D01*
X100663802Y-57094300D01*
X100825700Y-57256198D01*
X101013251Y-57387523D01*
X101082163Y-57419657D01*
X101220750Y-57484281D01*
X101220752Y-57484281D01*
X101220757Y-57484284D01*
X101441913Y-57543543D01*
X101604832Y-57557796D01*
X101669998Y-57563498D01*
X101670000Y-57563498D01*
X101670002Y-57563498D01*
X101727021Y-57558509D01*
X101898087Y-57543543D01*
X102119243Y-57484284D01*
X102326749Y-57387523D01*
X102514300Y-57256198D01*
X102676198Y-57094300D01*
X102807523Y-56906749D01*
X102904284Y-56699243D01*
X102963543Y-56478087D01*
X102983498Y-56250000D01*
X102983498Y-56249998D01*
X110516502Y-56249998D01*
X110516502Y-56250001D01*
X110536456Y-56478081D01*
X110536457Y-56478089D01*
X110595714Y-56699238D01*
X110595718Y-56699249D01*
X110685366Y-56891500D01*
X110692477Y-56906749D01*
X110823802Y-57094300D01*
X110985700Y-57256198D01*
X111173251Y-57387523D01*
X111242163Y-57419657D01*
X111380750Y-57484281D01*
X111380752Y-57484281D01*
X111380757Y-57484284D01*
X111601913Y-57543543D01*
X111764832Y-57557796D01*
X111829998Y-57563498D01*
X111830000Y-57563498D01*
X111830002Y-57563498D01*
X111887021Y-57558509D01*
X112058087Y-57543543D01*
X112279243Y-57484284D01*
X112486749Y-57387523D01*
X112538416Y-57351345D01*
X116141500Y-57351345D01*
X116141500Y-59148654D01*
X116148011Y-59209202D01*
X116148011Y-59209204D01*
X116192592Y-59328726D01*
X116199111Y-59346204D01*
X116286739Y-59463261D01*
X116403796Y-59550889D01*
X116540799Y-59601989D01*
X116568050Y-59604918D01*
X116601345Y-59608499D01*
X116601362Y-59608500D01*
X118398638Y-59608500D01*
X118398654Y-59608499D01*
X118425692Y-59605591D01*
X118459201Y-59601989D01*
X118596204Y-59550889D01*
X118713261Y-59463261D01*
X118800889Y-59346204D01*
X118851989Y-59209201D01*
X118855591Y-59175692D01*
X118858499Y-59148654D01*
X118858500Y-59148637D01*
X118858500Y-58999994D01*
X132744859Y-58999994D01*
X132744859Y-59000005D01*
X132765385Y-59247729D01*
X132765387Y-59247738D01*
X132826412Y-59488717D01*
X132926266Y-59716364D01*
X133026564Y-59869882D01*
X133726212Y-59170234D01*
X133737482Y-59212292D01*
X133809890Y-59337708D01*
X133912292Y-59440110D01*
X134037708Y-59512518D01*
X134079765Y-59523787D01*
X133379942Y-60223609D01*
X133426768Y-60260055D01*
X133426770Y-60260056D01*
X133645385Y-60378364D01*
X133645396Y-60378369D01*
X133880506Y-60459083D01*
X134125707Y-60500000D01*
X134374293Y-60500000D01*
X134619493Y-60459083D01*
X134854603Y-60378369D01*
X134854614Y-60378364D01*
X135073228Y-60260057D01*
X135073231Y-60260055D01*
X135120056Y-60223609D01*
X134420234Y-59523787D01*
X134462292Y-59512518D01*
X134587708Y-59440110D01*
X134690110Y-59337708D01*
X134762518Y-59212292D01*
X134773787Y-59170235D01*
X135473434Y-59869882D01*
X135573731Y-59716369D01*
X135673587Y-59488717D01*
X135734612Y-59247738D01*
X135734614Y-59247729D01*
X135755141Y-59000005D01*
X135755141Y-58999994D01*
X139244859Y-58999994D01*
X139244859Y-59000005D01*
X139265385Y-59247729D01*
X139265387Y-59247738D01*
X139326412Y-59488717D01*
X139426266Y-59716364D01*
X139526564Y-59869882D01*
X140226212Y-59170234D01*
X140237482Y-59212292D01*
X140309890Y-59337708D01*
X140412292Y-59440110D01*
X140537708Y-59512518D01*
X140579765Y-59523787D01*
X139879942Y-60223609D01*
X139926768Y-60260055D01*
X139926770Y-60260056D01*
X140145385Y-60378364D01*
X140145396Y-60378369D01*
X140380506Y-60459083D01*
X140625707Y-60500000D01*
X140874293Y-60500000D01*
X141119493Y-60459083D01*
X141354603Y-60378369D01*
X141354614Y-60378364D01*
X141573228Y-60260057D01*
X141573231Y-60260055D01*
X141620056Y-60223609D01*
X140920234Y-59523787D01*
X140962292Y-59512518D01*
X141087708Y-59440110D01*
X141190110Y-59337708D01*
X141262518Y-59212292D01*
X141273787Y-59170235D01*
X141973434Y-59869882D01*
X142073731Y-59716369D01*
X142173587Y-59488717D01*
X142234612Y-59247738D01*
X142234614Y-59247729D01*
X142255141Y-59000005D01*
X142255141Y-58999994D01*
X142234614Y-58752270D01*
X142234612Y-58752261D01*
X142173587Y-58511282D01*
X142073731Y-58283630D01*
X141973434Y-58130116D01*
X141273787Y-58829764D01*
X141262518Y-58787708D01*
X141190110Y-58662292D01*
X141087708Y-58559890D01*
X140962292Y-58487482D01*
X140920235Y-58476212D01*
X141620057Y-57776390D01*
X141620056Y-57776389D01*
X141573229Y-57739943D01*
X141354614Y-57621635D01*
X141354603Y-57621630D01*
X141119493Y-57540916D01*
X140874293Y-57500000D01*
X140625707Y-57500000D01*
X140380506Y-57540916D01*
X140145396Y-57621630D01*
X140145390Y-57621632D01*
X139926761Y-57739949D01*
X139879942Y-57776388D01*
X139879942Y-57776390D01*
X140579765Y-58476212D01*
X140537708Y-58487482D01*
X140412292Y-58559890D01*
X140309890Y-58662292D01*
X140237482Y-58787708D01*
X140226212Y-58829764D01*
X139526564Y-58130116D01*
X139426267Y-58283632D01*
X139326412Y-58511282D01*
X139265387Y-58752261D01*
X139265385Y-58752270D01*
X139244859Y-58999994D01*
X135755141Y-58999994D01*
X135734614Y-58752270D01*
X135734612Y-58752261D01*
X135673587Y-58511282D01*
X135573731Y-58283630D01*
X135473434Y-58130116D01*
X134773787Y-58829764D01*
X134762518Y-58787708D01*
X134690110Y-58662292D01*
X134587708Y-58559890D01*
X134462292Y-58487482D01*
X134420235Y-58476212D01*
X135120057Y-57776390D01*
X135120056Y-57776389D01*
X135073229Y-57739943D01*
X134854614Y-57621635D01*
X134854603Y-57621630D01*
X134619493Y-57540916D01*
X134374293Y-57500000D01*
X134125707Y-57500000D01*
X133880506Y-57540916D01*
X133645396Y-57621630D01*
X133645390Y-57621632D01*
X133426761Y-57739949D01*
X133379942Y-57776388D01*
X133379942Y-57776390D01*
X134079765Y-58476212D01*
X134037708Y-58487482D01*
X133912292Y-58559890D01*
X133809890Y-58662292D01*
X133737482Y-58787708D01*
X133726212Y-58829764D01*
X133026564Y-58130116D01*
X132926267Y-58283632D01*
X132826412Y-58511282D01*
X132765387Y-58752261D01*
X132765385Y-58752270D01*
X132744859Y-58999994D01*
X118858500Y-58999994D01*
X118858500Y-57351362D01*
X118858499Y-57351345D01*
X118855157Y-57320270D01*
X118851989Y-57290799D01*
X118840061Y-57258820D01*
X118829522Y-57230564D01*
X118800889Y-57153796D01*
X118713261Y-57036739D01*
X118596204Y-56949111D01*
X118459203Y-56898011D01*
X118398654Y-56891500D01*
X118398638Y-56891500D01*
X116601362Y-56891500D01*
X116601345Y-56891500D01*
X116540797Y-56898011D01*
X116540795Y-56898011D01*
X116403795Y-56949111D01*
X116286739Y-57036739D01*
X116199111Y-57153795D01*
X116148011Y-57290795D01*
X116148011Y-57290797D01*
X116141500Y-57351345D01*
X112538416Y-57351345D01*
X112674300Y-57256198D01*
X112836198Y-57094300D01*
X112967523Y-56906749D01*
X113064284Y-56699243D01*
X113123543Y-56478087D01*
X113143498Y-56250000D01*
X113136499Y-56169999D01*
X121971127Y-56169999D01*
X121971128Y-56170000D01*
X122934314Y-56170000D01*
X122929920Y-56174394D01*
X122877259Y-56265606D01*
X122850000Y-56367339D01*
X122850000Y-56472661D01*
X122877259Y-56574394D01*
X122929920Y-56665606D01*
X122934314Y-56670000D01*
X121971128Y-56670000D01*
X122023730Y-56866317D01*
X122023734Y-56866326D01*
X122119865Y-57072482D01*
X122250342Y-57258820D01*
X122411179Y-57419657D01*
X122597517Y-57550134D01*
X122803673Y-57646265D01*
X122803682Y-57646269D01*
X122999999Y-57698872D01*
X123000000Y-57698871D01*
X123000000Y-56735686D01*
X123004394Y-56740080D01*
X123095606Y-56792741D01*
X123197339Y-56820000D01*
X123302661Y-56820000D01*
X123404394Y-56792741D01*
X123495606Y-56740080D01*
X123500000Y-56735686D01*
X123500000Y-57698872D01*
X123696317Y-57646269D01*
X123696326Y-57646265D01*
X123902482Y-57550134D01*
X124088820Y-57419657D01*
X124249657Y-57258820D01*
X124380134Y-57072482D01*
X124476265Y-56866326D01*
X124476269Y-56866317D01*
X124528872Y-56670000D01*
X123565686Y-56670000D01*
X123565688Y-56669998D01*
X127686502Y-56669998D01*
X127686502Y-56670000D01*
X127706456Y-56898081D01*
X127706457Y-56898089D01*
X127765714Y-57119238D01*
X127765718Y-57119249D01*
X127830801Y-57258820D01*
X127862477Y-57326749D01*
X127993802Y-57514300D01*
X128155700Y-57676198D01*
X128343251Y-57807523D01*
X128468091Y-57865736D01*
X128550750Y-57904281D01*
X128550752Y-57904281D01*
X128550757Y-57904284D01*
X128771913Y-57963543D01*
X128934832Y-57977796D01*
X128999998Y-57983498D01*
X129000000Y-57983498D01*
X129000002Y-57983498D01*
X129057021Y-57978509D01*
X129228087Y-57963543D01*
X129449243Y-57904284D01*
X129656749Y-57807523D01*
X129844300Y-57676198D01*
X130006198Y-57514300D01*
X130137523Y-57326749D01*
X130234284Y-57119243D01*
X130293543Y-56898087D01*
X130313498Y-56670000D01*
X130293543Y-56441913D01*
X130234284Y-56220757D01*
X130137523Y-56013251D01*
X130006198Y-55825700D01*
X129844300Y-55663802D01*
X129656749Y-55532477D01*
X129656745Y-55532475D01*
X129449249Y-55435718D01*
X129449238Y-55435714D01*
X129228089Y-55376457D01*
X129228081Y-55376456D01*
X129000002Y-55356502D01*
X128999998Y-55356502D01*
X128771918Y-55376456D01*
X128771910Y-55376457D01*
X128550761Y-55435714D01*
X128550750Y-55435718D01*
X128343254Y-55532475D01*
X128343252Y-55532476D01*
X128343251Y-55532477D01*
X128155700Y-55663802D01*
X128155698Y-55663803D01*
X128155695Y-55663806D01*
X127993806Y-55825695D01*
X127993803Y-55825698D01*
X127993802Y-55825700D01*
X127914395Y-55939104D01*
X127862476Y-56013252D01*
X127862475Y-56013254D01*
X127765718Y-56220750D01*
X127765714Y-56220761D01*
X127706457Y-56441910D01*
X127706456Y-56441918D01*
X127686502Y-56669998D01*
X123565688Y-56669998D01*
X123570080Y-56665606D01*
X123622741Y-56574394D01*
X123650000Y-56472661D01*
X123650000Y-56367339D01*
X123622741Y-56265606D01*
X123570080Y-56174394D01*
X123565686Y-56170000D01*
X124528872Y-56170000D01*
X124528872Y-56169999D01*
X124476269Y-55973682D01*
X124476265Y-55973673D01*
X124380134Y-55767517D01*
X124249657Y-55581179D01*
X124088820Y-55420342D01*
X123902482Y-55289865D01*
X123696328Y-55193734D01*
X123500000Y-55141127D01*
X123500000Y-56104314D01*
X123495606Y-56099920D01*
X123404394Y-56047259D01*
X123302661Y-56020000D01*
X123197339Y-56020000D01*
X123095606Y-56047259D01*
X123004394Y-56099920D01*
X123000000Y-56104314D01*
X123000000Y-55141127D01*
X122803671Y-55193734D01*
X122597517Y-55289865D01*
X122411179Y-55420342D01*
X122250342Y-55581179D01*
X122119865Y-55767517D01*
X122023734Y-55973673D01*
X122023730Y-55973682D01*
X121971127Y-56169999D01*
X113136499Y-56169999D01*
X113123543Y-56021913D01*
X113064284Y-55800757D01*
X112967523Y-55593251D01*
X112836198Y-55405700D01*
X112674300Y-55243802D01*
X112486749Y-55112477D01*
X112486745Y-55112475D01*
X112279249Y-55015718D01*
X112279238Y-55015714D01*
X112058089Y-54956457D01*
X112058081Y-54956456D01*
X111830002Y-54936502D01*
X111829998Y-54936502D01*
X111601918Y-54956456D01*
X111601910Y-54956457D01*
X111380761Y-55015714D01*
X111380750Y-55015718D01*
X111173254Y-55112475D01*
X111173252Y-55112476D01*
X111102856Y-55161767D01*
X110985700Y-55243802D01*
X110985698Y-55243803D01*
X110985695Y-55243806D01*
X110823806Y-55405695D01*
X110692476Y-55593252D01*
X110692475Y-55593254D01*
X110595718Y-55800750D01*
X110595714Y-55800761D01*
X110536457Y-56021910D01*
X110536456Y-56021918D01*
X110516502Y-56249998D01*
X102983498Y-56249998D01*
X102963543Y-56021913D01*
X102904284Y-55800757D01*
X102807523Y-55593251D01*
X102676198Y-55405700D01*
X102514300Y-55243802D01*
X102326749Y-55112477D01*
X102326745Y-55112475D01*
X102119249Y-55015718D01*
X102119238Y-55015714D01*
X101898089Y-54956457D01*
X101898081Y-54956456D01*
X101670002Y-54936502D01*
X101669998Y-54936502D01*
X101441918Y-54956456D01*
X101441910Y-54956457D01*
X101220761Y-55015714D01*
X101220750Y-55015718D01*
X101013254Y-55112475D01*
X101013252Y-55112476D01*
X100942856Y-55161767D01*
X100825700Y-55243802D01*
X100825698Y-55243803D01*
X100825695Y-55243806D01*
X100663806Y-55405695D01*
X100532476Y-55593252D01*
X100532475Y-55593254D01*
X100435718Y-55800750D01*
X100435714Y-55800761D01*
X100376457Y-56021910D01*
X100376456Y-56021918D01*
X100356502Y-56249998D01*
X100075500Y-56249998D01*
X100075500Y-54500000D01*
X132736835Y-54500000D01*
X132755465Y-54736714D01*
X132810895Y-54967595D01*
X132810895Y-54967597D01*
X132901757Y-55186959D01*
X132901759Y-55186962D01*
X133025820Y-55389410D01*
X133025821Y-55389413D01*
X133052237Y-55420342D01*
X133180031Y-55569969D01*
X133289895Y-55663802D01*
X133360586Y-55724178D01*
X133360589Y-55724179D01*
X133563037Y-55848240D01*
X133563040Y-55848242D01*
X133782403Y-55939104D01*
X133782404Y-55939104D01*
X133782406Y-55939105D01*
X134013289Y-55994535D01*
X134250000Y-56013165D01*
X134486711Y-55994535D01*
X134717594Y-55939105D01*
X134717596Y-55939104D01*
X134717597Y-55939104D01*
X134936959Y-55848242D01*
X134936960Y-55848241D01*
X134936963Y-55848240D01*
X135139416Y-55724176D01*
X135319969Y-55569969D01*
X135474176Y-55389416D01*
X135598240Y-55186963D01*
X135629094Y-55112476D01*
X135689104Y-54967597D01*
X135689104Y-54967596D01*
X135689105Y-54967594D01*
X135744535Y-54736711D01*
X135763165Y-54500000D01*
X139236835Y-54500000D01*
X139255465Y-54736714D01*
X139310895Y-54967595D01*
X139310895Y-54967597D01*
X139401757Y-55186959D01*
X139401759Y-55186962D01*
X139525820Y-55389410D01*
X139525821Y-55389413D01*
X139552237Y-55420342D01*
X139680031Y-55569969D01*
X139789895Y-55663802D01*
X139860586Y-55724178D01*
X139860589Y-55724179D01*
X140063037Y-55848240D01*
X140063040Y-55848242D01*
X140282403Y-55939104D01*
X140282404Y-55939104D01*
X140282406Y-55939105D01*
X140513289Y-55994535D01*
X140750000Y-56013165D01*
X140986711Y-55994535D01*
X141217594Y-55939105D01*
X141217596Y-55939104D01*
X141217597Y-55939104D01*
X141436959Y-55848242D01*
X141436960Y-55848241D01*
X141436963Y-55848240D01*
X141639416Y-55724176D01*
X141819969Y-55569969D01*
X141974176Y-55389416D01*
X142098240Y-55186963D01*
X142129094Y-55112476D01*
X142175685Y-54999994D01*
X157571673Y-54999994D01*
X157571673Y-55000005D01*
X157590948Y-55232622D01*
X157648251Y-55458907D01*
X157742015Y-55672668D01*
X157869686Y-55868084D01*
X158021354Y-56032838D01*
X158027780Y-56039818D01*
X158211983Y-56183190D01*
X158211985Y-56183191D01*
X158211988Y-56183193D01*
X158281388Y-56220750D01*
X158417273Y-56294287D01*
X158531914Y-56333643D01*
X158638045Y-56370079D01*
X158638047Y-56370079D01*
X158638049Y-56370080D01*
X158868288Y-56408500D01*
X158868289Y-56408500D01*
X159101711Y-56408500D01*
X159101712Y-56408500D01*
X159331951Y-56370080D01*
X159552727Y-56294287D01*
X159758017Y-56183190D01*
X159942220Y-56039818D01*
X159948646Y-56032837D01*
X160008531Y-55996845D01*
X160078369Y-55998944D01*
X160135986Y-56038466D01*
X160156059Y-56073485D01*
X160181645Y-56142086D01*
X160181649Y-56142093D01*
X160267809Y-56257187D01*
X160267812Y-56257190D01*
X160382906Y-56343350D01*
X160382913Y-56343354D01*
X160517620Y-56393596D01*
X160517627Y-56393598D01*
X160577155Y-56399999D01*
X160577172Y-56400000D01*
X161275000Y-56400000D01*
X161275000Y-55375277D01*
X161351306Y-55419333D01*
X161465756Y-55450000D01*
X161584244Y-55450000D01*
X161698694Y-55419333D01*
X161775000Y-55375277D01*
X161775000Y-56400000D01*
X162472828Y-56400000D01*
X162472844Y-56399999D01*
X162532372Y-56393598D01*
X162532379Y-56393596D01*
X162667086Y-56343354D01*
X162667093Y-56343350D01*
X162782187Y-56257190D01*
X162782190Y-56257187D01*
X162868350Y-56142093D01*
X162868354Y-56142086D01*
X162918596Y-56007379D01*
X162918598Y-56007372D01*
X162924999Y-55947844D01*
X162925000Y-55947827D01*
X162925000Y-55250000D01*
X161900278Y-55250000D01*
X161944333Y-55173694D01*
X161975000Y-55059244D01*
X161975000Y-54940756D01*
X161944333Y-54826306D01*
X161900278Y-54750000D01*
X162925000Y-54750000D01*
X162925000Y-54052172D01*
X162924999Y-54052155D01*
X162918598Y-53992627D01*
X162918596Y-53992620D01*
X162868354Y-53857913D01*
X162868350Y-53857906D01*
X162782190Y-53742812D01*
X162782187Y-53742809D01*
X162667093Y-53656649D01*
X162667086Y-53656645D01*
X162532379Y-53606403D01*
X162532372Y-53606401D01*
X162472844Y-53600000D01*
X161775000Y-53600000D01*
X161775000Y-54624722D01*
X161698694Y-54580667D01*
X161584244Y-54550000D01*
X161465756Y-54550000D01*
X161351306Y-54580667D01*
X161275000Y-54624722D01*
X161275000Y-53600000D01*
X160577155Y-53600000D01*
X160517627Y-53606401D01*
X160517620Y-53606403D01*
X160382913Y-53656645D01*
X160382906Y-53656649D01*
X160267812Y-53742809D01*
X160267809Y-53742812D01*
X160181649Y-53857906D01*
X160181645Y-53857913D01*
X160156059Y-53926514D01*
X160114188Y-53982448D01*
X160048723Y-54006865D01*
X159980450Y-53992013D01*
X159948649Y-53967165D01*
X159942224Y-53960186D01*
X159942222Y-53960184D01*
X159942220Y-53960182D01*
X159758017Y-53816810D01*
X159758015Y-53816809D01*
X159758014Y-53816808D01*
X159758011Y-53816806D01*
X159552733Y-53705716D01*
X159552730Y-53705715D01*
X159552727Y-53705713D01*
X159552721Y-53705711D01*
X159552719Y-53705710D01*
X159331954Y-53629920D01*
X159152650Y-53600000D01*
X159101712Y-53591500D01*
X158868288Y-53591500D01*
X158822240Y-53599184D01*
X158638045Y-53629920D01*
X158417280Y-53705710D01*
X158417266Y-53705716D01*
X158211988Y-53816806D01*
X158211985Y-53816808D01*
X158027781Y-53960181D01*
X158027776Y-53960185D01*
X157869686Y-54131915D01*
X157742015Y-54327331D01*
X157648251Y-54541092D01*
X157590948Y-54767377D01*
X157571673Y-54999994D01*
X142175685Y-54999994D01*
X142189104Y-54967597D01*
X142189104Y-54967596D01*
X142189105Y-54967594D01*
X142244535Y-54736711D01*
X142263165Y-54500000D01*
X142244535Y-54263289D01*
X142189105Y-54032406D01*
X142189104Y-54032403D01*
X142189104Y-54032402D01*
X142098242Y-53813040D01*
X142098240Y-53813037D01*
X141974179Y-53610589D01*
X141974178Y-53610586D01*
X141939340Y-53569797D01*
X141819969Y-53430031D01*
X141700596Y-53328076D01*
X141639413Y-53275821D01*
X141639410Y-53275820D01*
X141436962Y-53151759D01*
X141436959Y-53151757D01*
X141217596Y-53060895D01*
X140986714Y-53005465D01*
X140750000Y-52986835D01*
X140513285Y-53005465D01*
X140282404Y-53060895D01*
X140282402Y-53060895D01*
X140063040Y-53151757D01*
X140063037Y-53151759D01*
X139860589Y-53275820D01*
X139860586Y-53275821D01*
X139680031Y-53430031D01*
X139525821Y-53610586D01*
X139525820Y-53610589D01*
X139401759Y-53813037D01*
X139401757Y-53813040D01*
X139310895Y-54032402D01*
X139310895Y-54032404D01*
X139255465Y-54263285D01*
X139236835Y-54500000D01*
X135763165Y-54500000D01*
X135744535Y-54263289D01*
X135689105Y-54032406D01*
X135689104Y-54032403D01*
X135689104Y-54032402D01*
X135598242Y-53813040D01*
X135598240Y-53813037D01*
X135474179Y-53610589D01*
X135474178Y-53610586D01*
X135439340Y-53569797D01*
X135319969Y-53430031D01*
X135200596Y-53328076D01*
X135139413Y-53275821D01*
X135139410Y-53275820D01*
X134936962Y-53151759D01*
X134936959Y-53151757D01*
X134717596Y-53060895D01*
X134486714Y-53005465D01*
X134250000Y-52986835D01*
X134013285Y-53005465D01*
X133782404Y-53060895D01*
X133782402Y-53060895D01*
X133563040Y-53151757D01*
X133563037Y-53151759D01*
X133360589Y-53275820D01*
X133360586Y-53275821D01*
X133180031Y-53430031D01*
X133025821Y-53610586D01*
X133025820Y-53610589D01*
X132901759Y-53813037D01*
X132901757Y-53813040D01*
X132810895Y-54032402D01*
X132810895Y-54032404D01*
X132755465Y-54263285D01*
X132736835Y-54500000D01*
X100075500Y-54500000D01*
X100075500Y-52919998D01*
X144686502Y-52919998D01*
X144686502Y-52920001D01*
X144706456Y-53148081D01*
X144706457Y-53148089D01*
X144765714Y-53369238D01*
X144765718Y-53369249D01*
X144862475Y-53576745D01*
X144862477Y-53576749D01*
X144993802Y-53764300D01*
X145155700Y-53926198D01*
X145343251Y-54057523D01*
X145468091Y-54115736D01*
X145550750Y-54154281D01*
X145550752Y-54154281D01*
X145550757Y-54154284D01*
X145771913Y-54213543D01*
X145934832Y-54227796D01*
X145999998Y-54233498D01*
X146000000Y-54233498D01*
X146000002Y-54233498D01*
X146057021Y-54228509D01*
X146228087Y-54213543D01*
X146449243Y-54154284D01*
X146656749Y-54057523D01*
X146844300Y-53926198D01*
X147006198Y-53764300D01*
X147137523Y-53576749D01*
X147234284Y-53369243D01*
X147293543Y-53148087D01*
X147313498Y-52920000D01*
X147313498Y-52919998D01*
X148436502Y-52919998D01*
X148436502Y-52920001D01*
X148456456Y-53148081D01*
X148456457Y-53148089D01*
X148515714Y-53369238D01*
X148515718Y-53369249D01*
X148612475Y-53576745D01*
X148612477Y-53576749D01*
X148743802Y-53764300D01*
X148905700Y-53926198D01*
X149093251Y-54057523D01*
X149218091Y-54115736D01*
X149300750Y-54154281D01*
X149300752Y-54154281D01*
X149300757Y-54154284D01*
X149521913Y-54213543D01*
X149684832Y-54227796D01*
X149749998Y-54233498D01*
X149750000Y-54233498D01*
X149750002Y-54233498D01*
X149807021Y-54228509D01*
X149978087Y-54213543D01*
X150199243Y-54154284D01*
X150406749Y-54057523D01*
X150594300Y-53926198D01*
X150756198Y-53764300D01*
X150887523Y-53576749D01*
X150984284Y-53369243D01*
X151043543Y-53148087D01*
X151063498Y-52920000D01*
X151063498Y-52919998D01*
X152436502Y-52919998D01*
X152436502Y-52920001D01*
X152456456Y-53148081D01*
X152456457Y-53148089D01*
X152515714Y-53369238D01*
X152515718Y-53369249D01*
X152612475Y-53576745D01*
X152612477Y-53576749D01*
X152743802Y-53764300D01*
X152905700Y-53926198D01*
X153093251Y-54057523D01*
X153218091Y-54115736D01*
X153300750Y-54154281D01*
X153300752Y-54154281D01*
X153300757Y-54154284D01*
X153521913Y-54213543D01*
X153684832Y-54227796D01*
X153749998Y-54233498D01*
X153750000Y-54233498D01*
X153750002Y-54233498D01*
X153807021Y-54228509D01*
X153978087Y-54213543D01*
X154199243Y-54154284D01*
X154406749Y-54057523D01*
X154594300Y-53926198D01*
X154756198Y-53764300D01*
X154887523Y-53576749D01*
X154984284Y-53369243D01*
X155043543Y-53148087D01*
X155063498Y-52920000D01*
X155043543Y-52691913D01*
X154984284Y-52470757D01*
X154887523Y-52263251D01*
X154756198Y-52075700D01*
X154594300Y-51913802D01*
X154406749Y-51782477D01*
X154406745Y-51782475D01*
X154199249Y-51685718D01*
X154199238Y-51685714D01*
X153978089Y-51626457D01*
X153978081Y-51626456D01*
X153750002Y-51606502D01*
X153749998Y-51606502D01*
X153521918Y-51626456D01*
X153521910Y-51626457D01*
X153300761Y-51685714D01*
X153300750Y-51685718D01*
X153093254Y-51782475D01*
X153093252Y-51782476D01*
X153022856Y-51831767D01*
X152905700Y-51913802D01*
X152905698Y-51913803D01*
X152905695Y-51913806D01*
X152743806Y-52075695D01*
X152612476Y-52263252D01*
X152612475Y-52263254D01*
X152515718Y-52470750D01*
X152515714Y-52470761D01*
X152456457Y-52691910D01*
X152456456Y-52691918D01*
X152436502Y-52919998D01*
X151063498Y-52919998D01*
X151043543Y-52691913D01*
X150984284Y-52470757D01*
X150887523Y-52263251D01*
X150756198Y-52075700D01*
X150594300Y-51913802D01*
X150406749Y-51782477D01*
X150406745Y-51782475D01*
X150199249Y-51685718D01*
X150199238Y-51685714D01*
X149978089Y-51626457D01*
X149978081Y-51626456D01*
X149750002Y-51606502D01*
X149749998Y-51606502D01*
X149521918Y-51626456D01*
X149521910Y-51626457D01*
X149300761Y-51685714D01*
X149300750Y-51685718D01*
X149093254Y-51782475D01*
X149093252Y-51782476D01*
X149022856Y-51831767D01*
X148905700Y-51913802D01*
X148905698Y-51913803D01*
X148905695Y-51913806D01*
X148743806Y-52075695D01*
X148612476Y-52263252D01*
X148612475Y-52263254D01*
X148515718Y-52470750D01*
X148515714Y-52470761D01*
X148456457Y-52691910D01*
X148456456Y-52691918D01*
X148436502Y-52919998D01*
X147313498Y-52919998D01*
X147293543Y-52691913D01*
X147234284Y-52470757D01*
X147137523Y-52263251D01*
X147006198Y-52075700D01*
X146844300Y-51913802D01*
X146656749Y-51782477D01*
X146656745Y-51782475D01*
X146449249Y-51685718D01*
X146449238Y-51685714D01*
X146228089Y-51626457D01*
X146228081Y-51626456D01*
X146000002Y-51606502D01*
X145999998Y-51606502D01*
X145771918Y-51626456D01*
X145771910Y-51626457D01*
X145550761Y-51685714D01*
X145550750Y-51685718D01*
X145343254Y-51782475D01*
X145343252Y-51782476D01*
X145272856Y-51831767D01*
X145155700Y-51913802D01*
X145155698Y-51913803D01*
X145155695Y-51913806D01*
X144993806Y-52075695D01*
X144862476Y-52263252D01*
X144862475Y-52263254D01*
X144765718Y-52470750D01*
X144765714Y-52470761D01*
X144706457Y-52691910D01*
X144706456Y-52691918D01*
X144686502Y-52919998D01*
X100075500Y-52919998D01*
X100075500Y-50499994D01*
X102296673Y-50499994D01*
X102296673Y-50500005D01*
X102315948Y-50732622D01*
X102373251Y-50958907D01*
X102467015Y-51172668D01*
X102594686Y-51368084D01*
X102746354Y-51532838D01*
X102752780Y-51539818D01*
X102936983Y-51683190D01*
X102936985Y-51683191D01*
X102936988Y-51683193D01*
X102941654Y-51685718D01*
X103142273Y-51794287D01*
X103256914Y-51833643D01*
X103363045Y-51870079D01*
X103363047Y-51870079D01*
X103363049Y-51870080D01*
X103593288Y-51908500D01*
X103593289Y-51908500D01*
X103826711Y-51908500D01*
X103826712Y-51908500D01*
X104056951Y-51870080D01*
X104277727Y-51794287D01*
X104483017Y-51683190D01*
X104667220Y-51539818D01*
X104673646Y-51532837D01*
X104733531Y-51496845D01*
X104803369Y-51498944D01*
X104860986Y-51538466D01*
X104881059Y-51573485D01*
X104906645Y-51642086D01*
X104906649Y-51642093D01*
X104992809Y-51757187D01*
X104992812Y-51757190D01*
X105107906Y-51843350D01*
X105107913Y-51843354D01*
X105242620Y-51893596D01*
X105242627Y-51893598D01*
X105302155Y-51899999D01*
X105302172Y-51900000D01*
X106000000Y-51900000D01*
X106000000Y-50875277D01*
X106076306Y-50919333D01*
X106190756Y-50950000D01*
X106309244Y-50950000D01*
X106423694Y-50919333D01*
X106500000Y-50875277D01*
X106500000Y-51900000D01*
X107197828Y-51900000D01*
X107197844Y-51899999D01*
X107257372Y-51893598D01*
X107257379Y-51893596D01*
X107392086Y-51843354D01*
X107392093Y-51843350D01*
X107507187Y-51757190D01*
X107507190Y-51757187D01*
X107593350Y-51642093D01*
X107593354Y-51642086D01*
X107643596Y-51507379D01*
X107643598Y-51507372D01*
X107649999Y-51447844D01*
X107650000Y-51447827D01*
X107650000Y-50750000D01*
X106625278Y-50750000D01*
X106669333Y-50673694D01*
X106700000Y-50559244D01*
X106700000Y-50440756D01*
X106669333Y-50326306D01*
X106625278Y-50250000D01*
X107650000Y-50250000D01*
X107650000Y-49552172D01*
X107649999Y-49552155D01*
X107643598Y-49492627D01*
X107643596Y-49492620D01*
X107593354Y-49357913D01*
X107593350Y-49357906D01*
X107507190Y-49242812D01*
X107507187Y-49242809D01*
X107392093Y-49156649D01*
X107392086Y-49156645D01*
X107257379Y-49106403D01*
X107257372Y-49106401D01*
X107197844Y-49100000D01*
X106500000Y-49100000D01*
X106500000Y-50124722D01*
X106423694Y-50080667D01*
X106309244Y-50050000D01*
X106190756Y-50050000D01*
X106076306Y-50080667D01*
X106000000Y-50124722D01*
X106000000Y-49100000D01*
X105302155Y-49100000D01*
X105242627Y-49106401D01*
X105242620Y-49106403D01*
X105107913Y-49156645D01*
X105107906Y-49156649D01*
X104992812Y-49242809D01*
X104992809Y-49242812D01*
X104906649Y-49357906D01*
X104906645Y-49357913D01*
X104881059Y-49426514D01*
X104839188Y-49482448D01*
X104773723Y-49506865D01*
X104705450Y-49492013D01*
X104673649Y-49467165D01*
X104667224Y-49460186D01*
X104667222Y-49460184D01*
X104667220Y-49460182D01*
X104483017Y-49316810D01*
X104483015Y-49316809D01*
X104483014Y-49316808D01*
X104483011Y-49316806D01*
X104277733Y-49205716D01*
X104277730Y-49205715D01*
X104277727Y-49205713D01*
X104277721Y-49205711D01*
X104277719Y-49205710D01*
X104056954Y-49129920D01*
X103877650Y-49100000D01*
X103826712Y-49091500D01*
X103593288Y-49091500D01*
X103547240Y-49099184D01*
X103363045Y-49129920D01*
X103142280Y-49205710D01*
X103142266Y-49205716D01*
X102936988Y-49316806D01*
X102936985Y-49316808D01*
X102752781Y-49460181D01*
X102752776Y-49460185D01*
X102594686Y-49631915D01*
X102467015Y-49827331D01*
X102373251Y-50041092D01*
X102315948Y-50267377D01*
X102296673Y-50499994D01*
X100075500Y-50499994D01*
X100075500Y-48352155D01*
X109400000Y-48352155D01*
X109400000Y-49000000D01*
X110316988Y-49000000D01*
X110284075Y-49057007D01*
X110250000Y-49184174D01*
X110250000Y-49315826D01*
X110284075Y-49442993D01*
X110316988Y-49500000D01*
X109400000Y-49500000D01*
X109400000Y-50147844D01*
X109406401Y-50207372D01*
X109406403Y-50207379D01*
X109456645Y-50342086D01*
X109456649Y-50342093D01*
X109542809Y-50457187D01*
X109542812Y-50457190D01*
X109657906Y-50543350D01*
X109657913Y-50543354D01*
X109792620Y-50593596D01*
X109792627Y-50593598D01*
X109852155Y-50599999D01*
X109852172Y-50600000D01*
X110500000Y-50600000D01*
X110500000Y-49683012D01*
X110557007Y-49715925D01*
X110684174Y-49750000D01*
X110815826Y-49750000D01*
X110942993Y-49715925D01*
X111000000Y-49683012D01*
X111000000Y-50600000D01*
X111647828Y-50600000D01*
X111647844Y-50599999D01*
X111707372Y-50593598D01*
X111707379Y-50593596D01*
X111842086Y-50543354D01*
X111842093Y-50543350D01*
X111957187Y-50457190D01*
X111957190Y-50457187D01*
X112043350Y-50342093D01*
X112043354Y-50342086D01*
X112093596Y-50207379D01*
X112093598Y-50207372D01*
X112099999Y-50147844D01*
X112100000Y-50147827D01*
X112100000Y-49500000D01*
X111183012Y-49500000D01*
X111215925Y-49442993D01*
X111250000Y-49315826D01*
X111250000Y-49184174D01*
X111215925Y-49057007D01*
X111183012Y-49000000D01*
X112100000Y-49000000D01*
X112100000Y-48352172D01*
X112099999Y-48352155D01*
X112094535Y-48301345D01*
X117437500Y-48301345D01*
X117437500Y-50098654D01*
X117444011Y-50159202D01*
X117444011Y-50159204D01*
X117484358Y-50267374D01*
X117495111Y-50296204D01*
X117582739Y-50413261D01*
X117699796Y-50500889D01*
X117836799Y-50551989D01*
X117864050Y-50554918D01*
X117897345Y-50558499D01*
X117897362Y-50558500D01*
X119694638Y-50558500D01*
X119694654Y-50558499D01*
X119721692Y-50555591D01*
X119755201Y-50551989D01*
X119892204Y-50500889D01*
X120009261Y-50413261D01*
X120096889Y-50296204D01*
X120142138Y-50174887D01*
X120184009Y-50118956D01*
X120249474Y-50094539D01*
X120317746Y-50109391D01*
X120349545Y-50134236D01*
X120412760Y-50202906D01*
X120590424Y-50341189D01*
X120590425Y-50341189D01*
X120590427Y-50341191D01*
X120592094Y-50342093D01*
X120788426Y-50448342D01*
X121001365Y-50521444D01*
X121223431Y-50558500D01*
X121448569Y-50558500D01*
X121670635Y-50521444D01*
X121883574Y-50448342D01*
X122081576Y-50341189D01*
X122259240Y-50202906D01*
X122380594Y-50071082D01*
X122411715Y-50037276D01*
X122411715Y-50037275D01*
X122411722Y-50037268D01*
X122502193Y-49898790D01*
X122555338Y-49853437D01*
X122624569Y-49844013D01*
X122687905Y-49873515D01*
X122709804Y-49898787D01*
X122800278Y-50037268D01*
X122800283Y-50037273D01*
X122800284Y-50037276D01*
X122926968Y-50174889D01*
X122952760Y-50202906D01*
X123130424Y-50341189D01*
X123130425Y-50341189D01*
X123130427Y-50341191D01*
X123132094Y-50342093D01*
X123328426Y-50448342D01*
X123541365Y-50521444D01*
X123763431Y-50558500D01*
X123988569Y-50558500D01*
X124210635Y-50521444D01*
X124423574Y-50448342D01*
X124621576Y-50341189D01*
X124799240Y-50202906D01*
X124920594Y-50071082D01*
X124951715Y-50037276D01*
X124951715Y-50037275D01*
X124951722Y-50037268D01*
X125045749Y-49893347D01*
X125098894Y-49847994D01*
X125168125Y-49838570D01*
X125231461Y-49868072D01*
X125251130Y-49890048D01*
X125377890Y-50071078D01*
X125544917Y-50238105D01*
X125738421Y-50373600D01*
X125952507Y-50473429D01*
X125952516Y-50473433D01*
X126166000Y-50530634D01*
X126166000Y-49633012D01*
X126223007Y-49665925D01*
X126350174Y-49700000D01*
X126481826Y-49700000D01*
X126608993Y-49665925D01*
X126666000Y-49633012D01*
X126666000Y-50530633D01*
X126879483Y-50473433D01*
X126879492Y-50473429D01*
X127093578Y-50373600D01*
X127287082Y-50238105D01*
X127454105Y-50071082D01*
X127580868Y-49890048D01*
X127635445Y-49846423D01*
X127704944Y-49839231D01*
X127767298Y-49870753D01*
X127786251Y-49893350D01*
X127880276Y-50037265D01*
X127880284Y-50037276D01*
X128006968Y-50174889D01*
X128032760Y-50202906D01*
X128210424Y-50341189D01*
X128210425Y-50341189D01*
X128210427Y-50341191D01*
X128212094Y-50342093D01*
X128408426Y-50448342D01*
X128621365Y-50521444D01*
X128843431Y-50558500D01*
X129068569Y-50558500D01*
X129290635Y-50521444D01*
X129503574Y-50448342D01*
X129701576Y-50341189D01*
X129879240Y-50202906D01*
X130000594Y-50071082D01*
X130031715Y-50037276D01*
X130031715Y-50037275D01*
X130031722Y-50037268D01*
X130122193Y-49898790D01*
X130175338Y-49853437D01*
X130244569Y-49844013D01*
X130307905Y-49873515D01*
X130329804Y-49898787D01*
X130420278Y-50037268D01*
X130420283Y-50037273D01*
X130420284Y-50037276D01*
X130546968Y-50174889D01*
X130572760Y-50202906D01*
X130750424Y-50341189D01*
X130750425Y-50341189D01*
X130750427Y-50341191D01*
X130752094Y-50342093D01*
X130948426Y-50448342D01*
X131161365Y-50521444D01*
X131383431Y-50558500D01*
X131608569Y-50558500D01*
X131830635Y-50521444D01*
X132043574Y-50448342D01*
X132241576Y-50341189D01*
X132419240Y-50202906D01*
X132540594Y-50071082D01*
X132571715Y-50037276D01*
X132571715Y-50037275D01*
X132571722Y-50037268D01*
X132662193Y-49898790D01*
X132715338Y-49853437D01*
X132784569Y-49844013D01*
X132847905Y-49873515D01*
X132869804Y-49898787D01*
X132960278Y-50037268D01*
X132960283Y-50037273D01*
X132960284Y-50037276D01*
X133086968Y-50174889D01*
X133112760Y-50202906D01*
X133290424Y-50341189D01*
X133290425Y-50341189D01*
X133290427Y-50341191D01*
X133292094Y-50342093D01*
X133488426Y-50448342D01*
X133701365Y-50521444D01*
X133923431Y-50558500D01*
X134148569Y-50558500D01*
X134370635Y-50521444D01*
X134583574Y-50448342D01*
X134781576Y-50341189D01*
X134959240Y-50202906D01*
X135080594Y-50071082D01*
X135111715Y-50037276D01*
X135111715Y-50037275D01*
X135111722Y-50037268D01*
X135202193Y-49898790D01*
X135255338Y-49853437D01*
X135324569Y-49844013D01*
X135387905Y-49873515D01*
X135409804Y-49898787D01*
X135500278Y-50037268D01*
X135500283Y-50037273D01*
X135500284Y-50037276D01*
X135626968Y-50174889D01*
X135652760Y-50202906D01*
X135830424Y-50341189D01*
X135830425Y-50341189D01*
X135830427Y-50341191D01*
X135832094Y-50342093D01*
X136028426Y-50448342D01*
X136241365Y-50521444D01*
X136463431Y-50558500D01*
X136688569Y-50558500D01*
X136910635Y-50521444D01*
X137123574Y-50448342D01*
X137321576Y-50341189D01*
X137499240Y-50202906D01*
X137620594Y-50071082D01*
X137651715Y-50037276D01*
X137651715Y-50037275D01*
X137651722Y-50037268D01*
X137742193Y-49898790D01*
X137795338Y-49853437D01*
X137864569Y-49844013D01*
X137927905Y-49873515D01*
X137949804Y-49898787D01*
X138040278Y-50037268D01*
X138040283Y-50037273D01*
X138040284Y-50037276D01*
X138166968Y-50174889D01*
X138192760Y-50202906D01*
X138370424Y-50341189D01*
X138370425Y-50341189D01*
X138370427Y-50341191D01*
X138372094Y-50342093D01*
X138568426Y-50448342D01*
X138781365Y-50521444D01*
X139003431Y-50558500D01*
X139228569Y-50558500D01*
X139450635Y-50521444D01*
X139663574Y-50448342D01*
X139861576Y-50341189D01*
X140039240Y-50202906D01*
X140160594Y-50071082D01*
X140191715Y-50037276D01*
X140191715Y-50037275D01*
X140191722Y-50037268D01*
X140282193Y-49898790D01*
X140335338Y-49853437D01*
X140404569Y-49844013D01*
X140467905Y-49873515D01*
X140489804Y-49898787D01*
X140580278Y-50037268D01*
X140580283Y-50037273D01*
X140580284Y-50037276D01*
X140706968Y-50174889D01*
X140732760Y-50202906D01*
X140910424Y-50341189D01*
X140910425Y-50341189D01*
X140910427Y-50341191D01*
X140912094Y-50342093D01*
X141108426Y-50448342D01*
X141321365Y-50521444D01*
X141543431Y-50558500D01*
X141768569Y-50558500D01*
X141990635Y-50521444D01*
X142203574Y-50448342D01*
X142401576Y-50341189D01*
X142579240Y-50202906D01*
X142700594Y-50071082D01*
X142731715Y-50037276D01*
X142731717Y-50037273D01*
X142731722Y-50037268D01*
X142854860Y-49848791D01*
X142945296Y-49642616D01*
X143000564Y-49424368D01*
X143006071Y-49357913D01*
X143019156Y-49200005D01*
X143019156Y-49199994D01*
X143000565Y-48975640D01*
X143000563Y-48975628D01*
X142970370Y-48856400D01*
X142945296Y-48757384D01*
X142854860Y-48551209D01*
X142838706Y-48526484D01*
X142731723Y-48362734D01*
X142731715Y-48362723D01*
X142675212Y-48301345D01*
X144361500Y-48301345D01*
X144361500Y-50098654D01*
X144368011Y-50159202D01*
X144368011Y-50159204D01*
X144408358Y-50267374D01*
X144419111Y-50296204D01*
X144506739Y-50413261D01*
X144623796Y-50500889D01*
X144760799Y-50551989D01*
X144788050Y-50554918D01*
X144821345Y-50558499D01*
X144821362Y-50558500D01*
X146618638Y-50558500D01*
X146618654Y-50558499D01*
X146645692Y-50555591D01*
X146679201Y-50551989D01*
X146816204Y-50500889D01*
X146933261Y-50413261D01*
X147020889Y-50296204D01*
X147066138Y-50174887D01*
X147108009Y-50118956D01*
X147173474Y-50094539D01*
X147241746Y-50109391D01*
X147273545Y-50134236D01*
X147336760Y-50202906D01*
X147514424Y-50341189D01*
X147514425Y-50341189D01*
X147514427Y-50341191D01*
X147516094Y-50342093D01*
X147712426Y-50448342D01*
X147925365Y-50521444D01*
X148147431Y-50558500D01*
X148372569Y-50558500D01*
X148594635Y-50521444D01*
X148807574Y-50448342D01*
X149005576Y-50341189D01*
X149183240Y-50202906D01*
X149304594Y-50071082D01*
X149335715Y-50037276D01*
X149335715Y-50037275D01*
X149335722Y-50037268D01*
X149426193Y-49898790D01*
X149479338Y-49853437D01*
X149548569Y-49844013D01*
X149611905Y-49873515D01*
X149633804Y-49898787D01*
X149724278Y-50037268D01*
X149724283Y-50037273D01*
X149724284Y-50037276D01*
X149850968Y-50174889D01*
X149876760Y-50202906D01*
X150054424Y-50341189D01*
X150054425Y-50341189D01*
X150054427Y-50341191D01*
X150056094Y-50342093D01*
X150252426Y-50448342D01*
X150465365Y-50521444D01*
X150687431Y-50558500D01*
X150912569Y-50558500D01*
X151134635Y-50521444D01*
X151347574Y-50448342D01*
X151545576Y-50341189D01*
X151723240Y-50202906D01*
X151844594Y-50071082D01*
X151875715Y-50037276D01*
X151875715Y-50037275D01*
X151875722Y-50037268D01*
X151966193Y-49898790D01*
X152019338Y-49853437D01*
X152088569Y-49844013D01*
X152151905Y-49873515D01*
X152173804Y-49898787D01*
X152264278Y-50037268D01*
X152264283Y-50037273D01*
X152264284Y-50037276D01*
X152390968Y-50174889D01*
X152416760Y-50202906D01*
X152594424Y-50341189D01*
X152594425Y-50341189D01*
X152594427Y-50341191D01*
X152596094Y-50342093D01*
X152792426Y-50448342D01*
X153005365Y-50521444D01*
X153227431Y-50558500D01*
X153452569Y-50558500D01*
X153674635Y-50521444D01*
X153887574Y-50448342D01*
X154085576Y-50341189D01*
X154263240Y-50202906D01*
X154384594Y-50071082D01*
X154415715Y-50037276D01*
X154415715Y-50037275D01*
X154415722Y-50037268D01*
X154506193Y-49898790D01*
X154559338Y-49853437D01*
X154628569Y-49844013D01*
X154691905Y-49873515D01*
X154713804Y-49898787D01*
X154804278Y-50037268D01*
X154804283Y-50037273D01*
X154804284Y-50037276D01*
X154930968Y-50174889D01*
X154956760Y-50202906D01*
X155134424Y-50341189D01*
X155134425Y-50341189D01*
X155134427Y-50341191D01*
X155136094Y-50342093D01*
X155332426Y-50448342D01*
X155545365Y-50521444D01*
X155767431Y-50558500D01*
X155992569Y-50558500D01*
X156214635Y-50521444D01*
X156427574Y-50448342D01*
X156625576Y-50341189D01*
X156803240Y-50202906D01*
X156924594Y-50071082D01*
X156955715Y-50037276D01*
X156955715Y-50037275D01*
X156955722Y-50037268D01*
X157046193Y-49898790D01*
X157099338Y-49853437D01*
X157168569Y-49844013D01*
X157231905Y-49873515D01*
X157253804Y-49898787D01*
X157344278Y-50037268D01*
X157344283Y-50037273D01*
X157344284Y-50037276D01*
X157470968Y-50174889D01*
X157496760Y-50202906D01*
X157674424Y-50341189D01*
X157674425Y-50341189D01*
X157674427Y-50341191D01*
X157676094Y-50342093D01*
X157872426Y-50448342D01*
X158085365Y-50521444D01*
X158307431Y-50558500D01*
X158532569Y-50558500D01*
X158754635Y-50521444D01*
X158967574Y-50448342D01*
X159165576Y-50341189D01*
X159343240Y-50202906D01*
X159464594Y-50071082D01*
X159495715Y-50037276D01*
X159495715Y-50037275D01*
X159495722Y-50037268D01*
X159586193Y-49898790D01*
X159639338Y-49853437D01*
X159708569Y-49844013D01*
X159771905Y-49873515D01*
X159793804Y-49898787D01*
X159884278Y-50037268D01*
X159884283Y-50037273D01*
X159884284Y-50037276D01*
X160010968Y-50174889D01*
X160036760Y-50202906D01*
X160214424Y-50341189D01*
X160214425Y-50341189D01*
X160214427Y-50341191D01*
X160216094Y-50342093D01*
X160412426Y-50448342D01*
X160625365Y-50521444D01*
X160847431Y-50558500D01*
X161072569Y-50558500D01*
X161294635Y-50521444D01*
X161507574Y-50448342D01*
X161705576Y-50341189D01*
X161883240Y-50202906D01*
X162004594Y-50071082D01*
X162035715Y-50037276D01*
X162035715Y-50037275D01*
X162035722Y-50037268D01*
X162126193Y-49898790D01*
X162179338Y-49853437D01*
X162248569Y-49844013D01*
X162311905Y-49873515D01*
X162333804Y-49898787D01*
X162424278Y-50037268D01*
X162424283Y-50037273D01*
X162424284Y-50037276D01*
X162550968Y-50174889D01*
X162576760Y-50202906D01*
X162754424Y-50341189D01*
X162754425Y-50341189D01*
X162754427Y-50341191D01*
X162756094Y-50342093D01*
X162952426Y-50448342D01*
X163165365Y-50521444D01*
X163387431Y-50558500D01*
X163612569Y-50558500D01*
X163834635Y-50521444D01*
X164047574Y-50448342D01*
X164245576Y-50341189D01*
X164423240Y-50202906D01*
X164544594Y-50071082D01*
X164575715Y-50037276D01*
X164575717Y-50037273D01*
X164575722Y-50037268D01*
X164698860Y-49848791D01*
X164789296Y-49642616D01*
X164844564Y-49424368D01*
X164850071Y-49357913D01*
X164863156Y-49200005D01*
X164863156Y-49199994D01*
X164844565Y-48975640D01*
X164844563Y-48975628D01*
X164814370Y-48856400D01*
X164789296Y-48757384D01*
X164698860Y-48551209D01*
X164682706Y-48526484D01*
X164575723Y-48362734D01*
X164575715Y-48362723D01*
X164423243Y-48197097D01*
X164423238Y-48197092D01*
X164245577Y-48058812D01*
X164245572Y-48058808D01*
X164047580Y-47951661D01*
X164047577Y-47951659D01*
X164047574Y-47951658D01*
X164047571Y-47951657D01*
X164047569Y-47951656D01*
X163834637Y-47878556D01*
X163612569Y-47841500D01*
X163387431Y-47841500D01*
X163165362Y-47878556D01*
X162952430Y-47951656D01*
X162952419Y-47951661D01*
X162754427Y-48058808D01*
X162754422Y-48058812D01*
X162576761Y-48197092D01*
X162576756Y-48197097D01*
X162424284Y-48362723D01*
X162424276Y-48362734D01*
X162333808Y-48501206D01*
X162280662Y-48546562D01*
X162211431Y-48555986D01*
X162148095Y-48526484D01*
X162126192Y-48501206D01*
X162035723Y-48362734D01*
X162035715Y-48362723D01*
X161883243Y-48197097D01*
X161883238Y-48197092D01*
X161705577Y-48058812D01*
X161705572Y-48058808D01*
X161507580Y-47951661D01*
X161507577Y-47951659D01*
X161507574Y-47951658D01*
X161507571Y-47951657D01*
X161507569Y-47951656D01*
X161294637Y-47878556D01*
X161072569Y-47841500D01*
X160847431Y-47841500D01*
X160625362Y-47878556D01*
X160412430Y-47951656D01*
X160412419Y-47951661D01*
X160214427Y-48058808D01*
X160214422Y-48058812D01*
X160036761Y-48197092D01*
X160036756Y-48197097D01*
X159884284Y-48362723D01*
X159884276Y-48362734D01*
X159793808Y-48501206D01*
X159740662Y-48546562D01*
X159671431Y-48555986D01*
X159608095Y-48526484D01*
X159586192Y-48501206D01*
X159495723Y-48362734D01*
X159495715Y-48362723D01*
X159343243Y-48197097D01*
X159343238Y-48197092D01*
X159165577Y-48058812D01*
X159165572Y-48058808D01*
X158967580Y-47951661D01*
X158967577Y-47951659D01*
X158967574Y-47951658D01*
X158967571Y-47951657D01*
X158967569Y-47951656D01*
X158754637Y-47878556D01*
X158532569Y-47841500D01*
X158307431Y-47841500D01*
X158085362Y-47878556D01*
X157872430Y-47951656D01*
X157872419Y-47951661D01*
X157674427Y-48058808D01*
X157674422Y-48058812D01*
X157496761Y-48197092D01*
X157496756Y-48197097D01*
X157344284Y-48362723D01*
X157344276Y-48362734D01*
X157253808Y-48501206D01*
X157200662Y-48546562D01*
X157131431Y-48555986D01*
X157068095Y-48526484D01*
X157046192Y-48501206D01*
X156955723Y-48362734D01*
X156955715Y-48362723D01*
X156803243Y-48197097D01*
X156803238Y-48197092D01*
X156625577Y-48058812D01*
X156625572Y-48058808D01*
X156427580Y-47951661D01*
X156427577Y-47951659D01*
X156427574Y-47951658D01*
X156427571Y-47951657D01*
X156427569Y-47951656D01*
X156214637Y-47878556D01*
X155992569Y-47841500D01*
X155767431Y-47841500D01*
X155545362Y-47878556D01*
X155332430Y-47951656D01*
X155332419Y-47951661D01*
X155134427Y-48058808D01*
X155134422Y-48058812D01*
X154956761Y-48197092D01*
X154956756Y-48197097D01*
X154804284Y-48362723D01*
X154804276Y-48362734D01*
X154713808Y-48501206D01*
X154660662Y-48546562D01*
X154591431Y-48555986D01*
X154528095Y-48526484D01*
X154506192Y-48501206D01*
X154415723Y-48362734D01*
X154415715Y-48362723D01*
X154263243Y-48197097D01*
X154263238Y-48197092D01*
X154085577Y-48058812D01*
X154085572Y-48058808D01*
X153887580Y-47951661D01*
X153887577Y-47951659D01*
X153887574Y-47951658D01*
X153887571Y-47951657D01*
X153887569Y-47951656D01*
X153674637Y-47878556D01*
X153452569Y-47841500D01*
X153227431Y-47841500D01*
X153005362Y-47878556D01*
X152792430Y-47951656D01*
X152792419Y-47951661D01*
X152594427Y-48058808D01*
X152594422Y-48058812D01*
X152416761Y-48197092D01*
X152416756Y-48197097D01*
X152264284Y-48362723D01*
X152264276Y-48362734D01*
X152173808Y-48501206D01*
X152120662Y-48546562D01*
X152051431Y-48555986D01*
X151988095Y-48526484D01*
X151966192Y-48501206D01*
X151875723Y-48362734D01*
X151875715Y-48362723D01*
X151723243Y-48197097D01*
X151723238Y-48197092D01*
X151545577Y-48058812D01*
X151545572Y-48058808D01*
X151347580Y-47951661D01*
X151347577Y-47951659D01*
X151347574Y-47951658D01*
X151347571Y-47951657D01*
X151347569Y-47951656D01*
X151134637Y-47878556D01*
X150912569Y-47841500D01*
X150687431Y-47841500D01*
X150465362Y-47878556D01*
X150252430Y-47951656D01*
X150252419Y-47951661D01*
X150054427Y-48058808D01*
X150054422Y-48058812D01*
X149876761Y-48197092D01*
X149876756Y-48197097D01*
X149724284Y-48362723D01*
X149724276Y-48362734D01*
X149633808Y-48501206D01*
X149580662Y-48546562D01*
X149511431Y-48555986D01*
X149448095Y-48526484D01*
X149426192Y-48501206D01*
X149335723Y-48362734D01*
X149335715Y-48362723D01*
X149183243Y-48197097D01*
X149183238Y-48197092D01*
X149005577Y-48058812D01*
X149005572Y-48058808D01*
X148807580Y-47951661D01*
X148807577Y-47951659D01*
X148807574Y-47951658D01*
X148807571Y-47951657D01*
X148807569Y-47951656D01*
X148594637Y-47878556D01*
X148372569Y-47841500D01*
X148147431Y-47841500D01*
X147925362Y-47878556D01*
X147712430Y-47951656D01*
X147712419Y-47951661D01*
X147514427Y-48058808D01*
X147514422Y-48058812D01*
X147336761Y-48197092D01*
X147273548Y-48265760D01*
X147213661Y-48301750D01*
X147143823Y-48299649D01*
X147086207Y-48260124D01*
X147066138Y-48225110D01*
X147020889Y-48103796D01*
X146987214Y-48058812D01*
X146933261Y-47986739D01*
X146816204Y-47899111D01*
X146679203Y-47848011D01*
X146618654Y-47841500D01*
X146618638Y-47841500D01*
X144821362Y-47841500D01*
X144821345Y-47841500D01*
X144760797Y-47848011D01*
X144760795Y-47848011D01*
X144623795Y-47899111D01*
X144506739Y-47986739D01*
X144419111Y-48103795D01*
X144368011Y-48240795D01*
X144368011Y-48240797D01*
X144361500Y-48301345D01*
X142675212Y-48301345D01*
X142579243Y-48197097D01*
X142579238Y-48197092D01*
X142401577Y-48058812D01*
X142401572Y-48058808D01*
X142203580Y-47951661D01*
X142203577Y-47951659D01*
X142203574Y-47951658D01*
X142203571Y-47951657D01*
X142203569Y-47951656D01*
X141990637Y-47878556D01*
X141768569Y-47841500D01*
X141543431Y-47841500D01*
X141321362Y-47878556D01*
X141108430Y-47951656D01*
X141108419Y-47951661D01*
X140910427Y-48058808D01*
X140910422Y-48058812D01*
X140732761Y-48197092D01*
X140732756Y-48197097D01*
X140580284Y-48362723D01*
X140580276Y-48362734D01*
X140489808Y-48501206D01*
X140436662Y-48546562D01*
X140367431Y-48555986D01*
X140304095Y-48526484D01*
X140282192Y-48501206D01*
X140191723Y-48362734D01*
X140191715Y-48362723D01*
X140039243Y-48197097D01*
X140039238Y-48197092D01*
X139861577Y-48058812D01*
X139861572Y-48058808D01*
X139663580Y-47951661D01*
X139663577Y-47951659D01*
X139663574Y-47951658D01*
X139663571Y-47951657D01*
X139663569Y-47951656D01*
X139450637Y-47878556D01*
X139228569Y-47841500D01*
X139003431Y-47841500D01*
X138781362Y-47878556D01*
X138568430Y-47951656D01*
X138568419Y-47951661D01*
X138370427Y-48058808D01*
X138370422Y-48058812D01*
X138192761Y-48197092D01*
X138192756Y-48197097D01*
X138040284Y-48362723D01*
X138040276Y-48362734D01*
X137949808Y-48501206D01*
X137896662Y-48546562D01*
X137827431Y-48555986D01*
X137764095Y-48526484D01*
X137742192Y-48501206D01*
X137651723Y-48362734D01*
X137651715Y-48362723D01*
X137499243Y-48197097D01*
X137499238Y-48197092D01*
X137321577Y-48058812D01*
X137321572Y-48058808D01*
X137123580Y-47951661D01*
X137123577Y-47951659D01*
X137123574Y-47951658D01*
X137123571Y-47951657D01*
X137123569Y-47951656D01*
X136910637Y-47878556D01*
X136688569Y-47841500D01*
X136463431Y-47841500D01*
X136241362Y-47878556D01*
X136028430Y-47951656D01*
X136028419Y-47951661D01*
X135830427Y-48058808D01*
X135830422Y-48058812D01*
X135652761Y-48197092D01*
X135652756Y-48197097D01*
X135500284Y-48362723D01*
X135500276Y-48362734D01*
X135409808Y-48501206D01*
X135356662Y-48546562D01*
X135287431Y-48555986D01*
X135224095Y-48526484D01*
X135202192Y-48501206D01*
X135111723Y-48362734D01*
X135111715Y-48362723D01*
X134959243Y-48197097D01*
X134959238Y-48197092D01*
X134781577Y-48058812D01*
X134781572Y-48058808D01*
X134583580Y-47951661D01*
X134583577Y-47951659D01*
X134583574Y-47951658D01*
X134583571Y-47951657D01*
X134583569Y-47951656D01*
X134370637Y-47878556D01*
X134148569Y-47841500D01*
X133923431Y-47841500D01*
X133701362Y-47878556D01*
X133488430Y-47951656D01*
X133488419Y-47951661D01*
X133290427Y-48058808D01*
X133290422Y-48058812D01*
X133112761Y-48197092D01*
X133112756Y-48197097D01*
X132960284Y-48362723D01*
X132960276Y-48362734D01*
X132869808Y-48501206D01*
X132816662Y-48546562D01*
X132747431Y-48555986D01*
X132684095Y-48526484D01*
X132662192Y-48501206D01*
X132571723Y-48362734D01*
X132571715Y-48362723D01*
X132419243Y-48197097D01*
X132419238Y-48197092D01*
X132241577Y-48058812D01*
X132241572Y-48058808D01*
X132043580Y-47951661D01*
X132043577Y-47951659D01*
X132043574Y-47951658D01*
X132043571Y-47951657D01*
X132043569Y-47951656D01*
X131830637Y-47878556D01*
X131608569Y-47841500D01*
X131383431Y-47841500D01*
X131161362Y-47878556D01*
X130948430Y-47951656D01*
X130948419Y-47951661D01*
X130750427Y-48058808D01*
X130750422Y-48058812D01*
X130572761Y-48197092D01*
X130572756Y-48197097D01*
X130420284Y-48362723D01*
X130420276Y-48362734D01*
X130329808Y-48501206D01*
X130276662Y-48546562D01*
X130207431Y-48555986D01*
X130144095Y-48526484D01*
X130122192Y-48501206D01*
X130031723Y-48362734D01*
X130031715Y-48362723D01*
X129879243Y-48197097D01*
X129879238Y-48197092D01*
X129701577Y-48058812D01*
X129701572Y-48058808D01*
X129503580Y-47951661D01*
X129503577Y-47951659D01*
X129503574Y-47951658D01*
X129503571Y-47951657D01*
X129503569Y-47951656D01*
X129290637Y-47878556D01*
X129068569Y-47841500D01*
X128843431Y-47841500D01*
X128621362Y-47878556D01*
X128408430Y-47951656D01*
X128408419Y-47951661D01*
X128210427Y-48058808D01*
X128210422Y-48058812D01*
X128032761Y-48197092D01*
X128032756Y-48197097D01*
X127880284Y-48362723D01*
X127880276Y-48362734D01*
X127786251Y-48506650D01*
X127733105Y-48552007D01*
X127663873Y-48561430D01*
X127600538Y-48531928D01*
X127580868Y-48509951D01*
X127454113Y-48328926D01*
X127454108Y-48328920D01*
X127287082Y-48161894D01*
X127093578Y-48026399D01*
X126879492Y-47926570D01*
X126879486Y-47926567D01*
X126666000Y-47869364D01*
X126666000Y-48766988D01*
X126608993Y-48734075D01*
X126481826Y-48700000D01*
X126350174Y-48700000D01*
X126223007Y-48734075D01*
X126166000Y-48766988D01*
X126166000Y-47869364D01*
X126165999Y-47869364D01*
X125952513Y-47926567D01*
X125952507Y-47926570D01*
X125738422Y-48026399D01*
X125738420Y-48026400D01*
X125544926Y-48161886D01*
X125544920Y-48161891D01*
X125377891Y-48328920D01*
X125377890Y-48328922D01*
X125251131Y-48509952D01*
X125196554Y-48553577D01*
X125127055Y-48560769D01*
X125064701Y-48529247D01*
X125045752Y-48506656D01*
X124951722Y-48362732D01*
X124951715Y-48362725D01*
X124951715Y-48362723D01*
X124799243Y-48197097D01*
X124799238Y-48197092D01*
X124621577Y-48058812D01*
X124621572Y-48058808D01*
X124423580Y-47951661D01*
X124423577Y-47951659D01*
X124423574Y-47951658D01*
X124423571Y-47951657D01*
X124423569Y-47951656D01*
X124210637Y-47878556D01*
X123988569Y-47841500D01*
X123763431Y-47841500D01*
X123541362Y-47878556D01*
X123328430Y-47951656D01*
X123328419Y-47951661D01*
X123130427Y-48058808D01*
X123130422Y-48058812D01*
X122952761Y-48197092D01*
X122952756Y-48197097D01*
X122800284Y-48362723D01*
X122800276Y-48362734D01*
X122709808Y-48501206D01*
X122656662Y-48546562D01*
X122587431Y-48555986D01*
X122524095Y-48526484D01*
X122502192Y-48501206D01*
X122411723Y-48362734D01*
X122411715Y-48362723D01*
X122259243Y-48197097D01*
X122259238Y-48197092D01*
X122081577Y-48058812D01*
X122081572Y-48058808D01*
X121883580Y-47951661D01*
X121883577Y-47951659D01*
X121883574Y-47951658D01*
X121883571Y-47951657D01*
X121883569Y-47951656D01*
X121670637Y-47878556D01*
X121448569Y-47841500D01*
X121223431Y-47841500D01*
X121001362Y-47878556D01*
X120788430Y-47951656D01*
X120788419Y-47951661D01*
X120590427Y-48058808D01*
X120590422Y-48058812D01*
X120412761Y-48197092D01*
X120349548Y-48265760D01*
X120289661Y-48301750D01*
X120219823Y-48299649D01*
X120162207Y-48260124D01*
X120142138Y-48225110D01*
X120096889Y-48103796D01*
X120063214Y-48058812D01*
X120009261Y-47986739D01*
X119892204Y-47899111D01*
X119755203Y-47848011D01*
X119694654Y-47841500D01*
X119694638Y-47841500D01*
X117897362Y-47841500D01*
X117897345Y-47841500D01*
X117836797Y-47848011D01*
X117836795Y-47848011D01*
X117699795Y-47899111D01*
X117582739Y-47986739D01*
X117495111Y-48103795D01*
X117444011Y-48240795D01*
X117444011Y-48240797D01*
X117437500Y-48301345D01*
X112094535Y-48301345D01*
X112093598Y-48292627D01*
X112093596Y-48292620D01*
X112043354Y-48157913D01*
X112043350Y-48157906D01*
X111957190Y-48042812D01*
X111957187Y-48042809D01*
X111842093Y-47956649D01*
X111842086Y-47956645D01*
X111707379Y-47906403D01*
X111707372Y-47906401D01*
X111647844Y-47900000D01*
X111000000Y-47900000D01*
X111000000Y-48816988D01*
X110942993Y-48784075D01*
X110815826Y-48750000D01*
X110684174Y-48750000D01*
X110557007Y-48784075D01*
X110500000Y-48816988D01*
X110500000Y-47900000D01*
X109852155Y-47900000D01*
X109792627Y-47906401D01*
X109792620Y-47906403D01*
X109657913Y-47956645D01*
X109657906Y-47956649D01*
X109542812Y-48042809D01*
X109542809Y-48042812D01*
X109456649Y-48157906D01*
X109456645Y-48157913D01*
X109406403Y-48292620D01*
X109406401Y-48292627D01*
X109400000Y-48352155D01*
X100075500Y-48352155D01*
X100075500Y-47428092D01*
X100076097Y-47415938D01*
X100087494Y-47300222D01*
X100092234Y-47276389D01*
X100124216Y-47170959D01*
X100133508Y-47148526D01*
X100185442Y-47051365D01*
X100198938Y-47031166D01*
X100268827Y-46946006D01*
X100286006Y-46928827D01*
X100371166Y-46858938D01*
X100391365Y-46845442D01*
X100488526Y-46793508D01*
X100510959Y-46784216D01*
X100616389Y-46752234D01*
X100640220Y-46747494D01*
X100755939Y-46736097D01*
X100768093Y-46735500D01*
X100786531Y-46735500D01*
X163914556Y-46735500D01*
X163981595Y-46755185D01*
G37*
%TD.AperFunction*%
%TD*%
M02*
